<svg width="60" height="60" viewBox="0 0 60 60" fill="none" xmlns="http://www.w3.org/2000/svg">
<path d="M58.0645 7.74194C59.1319 7.74194 60 6.87387 60 5.80645V1.93161L59.5732 1.64419C57.9735 0.568065 56.1135 0 54.1935 0C50.7058 0 47.551 1.83871 45.8216 4.83871H44.5161C44.5161 2.70387 42.78 0.967742 40.6452 0.967742C39.4829 0.967742 38.4523 1.49226 37.7419 2.30516C37.0316 1.49226 36.001 0.967742 34.8387 0.967742C33.6764 0.967742 32.6458 1.49226 31.9355 2.30516C31.2252 1.49226 30.1945 0.967742 29.0323 0.967742C27.87 0.967742 26.8394 1.49226 26.129 2.30516C25.4187 1.49226 24.3881 0.967742 23.2258 0.967742C21.091 0.967742 19.3548 2.70387 19.3548 4.83871H14.1784C12.449 1.83871 9.29419 0 5.80645 0C3.88645 0 2.02645 0.568065 0.426774 1.64419L0 1.93161V5.80645C0 6.87387 0.868064 7.74194 1.93548 7.74194H6.77419V11.6129H1.93548C0.868064 11.6129 0 12.481 0 13.5484V17.4232L0.426774 17.7106C2.02645 18.7868 3.88645 19.3548 5.80645 19.3548C6.48581 19.3548 7.14484 19.2629 7.79129 19.1284L6.73452 20.1852L11.6671 25.1187C11.3526 25.7729 11.0748 26.4348 10.8387 27.0968H3.87097V40.6452H10.8377C11.0739 41.3061 11.3506 41.9671 11.6661 42.6232L6.73355 47.5568L16.3123 57.1365L21.2458 52.2029C21.9029 52.5194 22.5639 52.7961 23.2248 53.0323V60H36.7732V53.0332C37.4342 52.7971 38.0952 52.5203 38.7523 52.2039L43.6858 57.1374L53.2645 47.5577L48.3319 42.6242C48.6474 41.9681 48.9242 41.3061 49.1603 40.6461H56.129V27.0968H49.1623C48.9261 26.4348 48.6484 25.7729 48.3339 25.1187L53.2664 20.1852L52.2135 19.1313C52.8571 19.2658 53.5161 19.3548 54.1935 19.3548C56.1135 19.3548 57.9735 18.7868 59.5732 17.7106L60 17.4232V13.5484C60 12.481 59.1319 11.6129 58.0645 11.6129H53.2258V7.74194H58.0645ZM38.7097 4.83871C38.7097 3.77129 39.5777 2.90323 40.6452 2.90323C41.7126 2.90323 42.5806 3.77129 42.5806 4.83871V5.80645V16.4516C42.5806 17.519 41.7126 18.3871 40.6452 18.3871C39.5777 18.3871 38.7097 17.519 38.7097 16.4516V4.83871ZM32.9032 4.83871C32.9032 3.77129 33.7713 2.90323 34.8387 2.90323C35.9061 2.90323 36.7742 3.77129 36.7742 4.83871V16.4516C36.7742 17.519 35.9061 18.3871 34.8387 18.3871C33.7713 18.3871 32.9032 17.519 32.9032 16.4516V4.83871ZM27.0968 4.83871C27.0968 3.77129 27.9648 2.90323 29.0323 2.90323C30.0997 2.90323 30.9677 3.77129 30.9677 4.83871V16.4516C30.9677 17.519 30.0997 18.3871 29.0323 18.3871C27.9648 18.3871 27.0968 17.519 27.0968 16.4516V4.83871ZM21.2903 12.0968V4.83871C21.2903 3.77129 22.1584 2.90323 23.2258 2.90323C24.2932 2.90323 25.1613 3.77129 25.1613 4.83871V16.4516C25.1613 17.2955 24.6145 18.0261 23.8423 18.2855L21.2903 16.0171V12.0968ZM28.3897 24.9165L29.6748 23.4697L25.3781 19.65C25.6577 19.4613 25.9181 19.2484 26.1387 18.9958C26.849 19.8029 27.8758 20.3226 29.0323 20.3226C30.1945 20.3226 31.2252 19.7981 31.9355 18.9852C32.6458 19.7981 33.6764 20.3226 34.8387 20.3226C36.001 20.3226 37.0316 19.7981 37.7419 18.9852C38.4523 19.7981 39.4829 20.3226 40.6452 20.3226C41.3535 20.3226 42.0087 20.1174 42.5806 19.7845V23.7929L37.7419 28.6316V37.7419H35.8064V39.6774H37.7419V43.7671C35.6042 45.4423 32.9206 46.4516 30 46.4516C27.0794 46.4516 24.3958 45.4423 22.2581 43.7671V39.6774H33.871V37.7419H22.2581V28.5929L15.5071 22.6858C14.8771 22.1352 14.5161 21.3387 14.5161 20.5016V12.0968C14.5161 10.7632 15.601 9.67742 16.9355 9.67742C18.27 9.67742 19.3548 10.7632 19.3548 12.0968V16.4516V16.8861L28.3897 24.9165ZM41.1174 27.9929C42.0726 29.7958 42.5806 31.799 42.5806 33.871C42.5806 36.9203 41.489 39.7181 39.6774 41.8984V29.4329L41.1174 27.9929ZM20.3226 29.4716V41.8984C18.511 39.7181 17.4194 36.9203 17.4194 33.871C17.4194 31.8697 17.8945 29.9042 18.7984 28.1381L20.3226 29.4716ZM5.80645 17.4194C4.44097 17.4194 3.11226 17.0594 1.93548 16.3732V13.5484H8.70968V5.80645H1.93548V2.98161C3.11226 2.29548 4.44097 1.93548 5.80645 1.93548C8.75903 1.93548 11.4135 3.58452 12.7335 6.23806L13.0016 6.77419H19.3548V8.47935C18.6619 8.01484 17.8306 7.74194 16.9355 7.74194C14.5345 7.74194 12.5806 9.69581 12.5806 12.0968V13.3781C11.2181 15.8729 8.65742 17.4194 5.80645 17.4194ZM45.9677 24.7461L46.2977 25.3761C46.8106 26.3584 47.2306 27.36 47.5432 28.3548L47.7571 29.0323H54.1935V38.7097H47.7571L47.5432 39.3871C47.2316 40.3771 46.8126 41.3797 46.2968 42.3668L45.9677 42.9968L50.5287 47.5577L43.6868 54.4006L39.1248 49.8387L38.4958 50.1677C37.5077 50.6835 36.5061 51.1026 35.5171 51.4132L34.8397 51.6261V58.0645H25.1613V51.6271L24.4839 51.4142C23.4948 51.1035 22.4923 50.6845 21.5052 50.1687L20.8761 49.8397L16.3142 54.4006L9.47226 47.5577L14.0332 42.9968L13.7042 42.3668C13.1884 41.3797 12.7694 40.3771 12.4577 39.3871L12.2429 38.7097H5.80645V29.0323H12.2429L12.4568 28.3548C12.7694 27.36 13.1894 26.3584 13.7023 25.3761L14.0323 24.7461L9.47129 20.1852L12.5806 17.0758V20.5016C12.5806 21.8961 13.1826 23.2239 14.2335 24.1432L17.31 26.8355C16.1187 28.981 15.4839 31.4003 15.4839 33.871C15.4839 41.8752 21.9958 48.3871 30 48.3871C38.0042 48.3871 44.5161 41.8752 44.5161 33.871C44.5161 31.2794 43.8368 28.7768 42.5448 26.5655L44.5161 24.5942V16.4516V14.5161H44.8606L50.5287 20.1852L45.9677 24.7461ZM58.0645 13.5484V16.3732C56.8877 17.0594 55.559 17.4194 54.1935 17.4194C51.241 17.4194 48.5864 15.7703 47.2664 13.1168L46.9984 12.5806H44.5161V6.77419H46.9984L47.2655 6.23806C48.5864 3.58452 51.241 1.93548 54.1935 1.93548C55.559 1.93548 56.8877 2.29548 58.0645 2.98161V5.80645H51.2903V13.5484H58.0645Z" fill="#EB3300"/>
</svg>
