<svg width="60" height="60" viewBox="0 0 60 60" fill="none" xmlns="http://www.w3.org/2000/svg">
<path d="M59.9995 14.5394V8.73942C59.9995 8.48301 59.8975 8.23723 59.7162 8.05598L51.9829 0.32264C51.6053 -0.0548438 50.9933 -0.054723 50.6158 0.322882C50.4347 0.504132 50.3328 0.749907 50.3328 1.00607V7.37255L49.8379 7.86748C47.1601 5.44187 44.0482 3.54358 40.6661 2.27241V1.00607C40.666 0.472232 40.2332 0.0395272 39.6992 0.039648C39.4429 0.039648 39.1973 0.141511 39.016 0.32264L38.1615 1.17717C22.2409 -3.34442 5.66934 5.8962 1.14776 21.8166C-3.37383 37.7372 5.86679 54.3088 21.7872 58.8303C27.3343 60.4058 33.2181 60.3473 38.7328 58.6619V59.006H40.6661V22.2726C40.6661 22.0162 40.5641 21.7705 40.3829 21.5892L36.6863 17.8927L36.6979 17.8714L36.6332 17.8395L32.9328 14.1391V9.13962L38.7328 3.33961V7.77275C38.7328 8.02916 38.8348 8.27493 39.016 8.45619L44.816 14.2562C45.1935 14.6336 45.8054 14.6336 46.1829 14.2562L51.9829 8.45619C52.1641 8.27493 52.2661 8.02916 52.2661 7.77275V3.33961L58.0661 9.13962V14.1392L50.616 21.5893C50.4348 21.7706 50.3328 22.0164 50.3328 22.2728V59.0062H52.2661V50.6667C60.2768 41.593 62.25 28.6767 57.3141 17.625L59.7162 15.2229C59.8976 15.0416 59.9995 14.7958 59.9995 14.5394ZM38.7328 45.8846C38.4718 46.0393 38.2108 46.192 37.943 46.3322L33.0623 34.9429C33.9545 34.3944 34.6826 33.6158 35.1696 32.6886L38.7328 34.4702V45.8846ZM25.096 26.9775L13.496 22.004C15.2771 18.2583 18.2793 15.2297 22.0094 13.4162L27.0032 25.0693C26.2274 25.548 25.5741 26.2014 25.096 26.9775ZM30.0328 26.1394C32.1683 26.1394 33.8994 27.8706 33.8994 30.0061C33.8994 32.1416 32.1683 33.8728 30.0328 33.8728C27.8973 33.8728 26.1661 32.1416 26.1661 30.0061C26.1661 27.8706 27.8973 26.1394 30.0328 26.1394ZM24.3691 28.7678C24.1873 29.5833 24.1873 30.4289 24.3691 31.2444L12.7516 36.2228C12.0372 34.2278 11.6699 32.1252 11.6661 30.0061C11.6699 27.8871 12.0372 25.7844 12.7516 23.7895L24.3691 28.7678ZM25.096 33.0347C25.5741 33.8109 26.2274 34.4644 27.0032 34.9429L22.0094 46.5961C18.2778 44.7831 15.2742 41.7545 13.4921 38.0082L25.096 33.0347ZM28.7954 35.6698C29.6103 35.8516 30.4552 35.8516 31.2701 35.6698L36.1837 47.1335C32.2168 48.7107 27.8106 48.785 23.7929 47.3423L28.7954 35.6698ZM38.7328 32.3087L35.768 30.8259C35.8548 30.2815 35.8548 29.7269 35.768 29.1825L38.7328 27.7035V32.3087ZM38.7328 22.673V25.542L35.1696 27.3236C34.6876 26.4064 33.97 25.6342 33.0903 25.0867L35.7757 19.7159L38.7328 22.673ZM34.3344 18.2746L31.2972 24.3492C30.4742 24.1607 29.6194 24.1584 28.7954 24.3424L23.7929 12.6699C25.6855 11.992 27.6803 11.6434 29.6906 11.6394C30.1294 11.6394 30.5606 11.6733 30.9994 11.7052V14.5394C30.9994 14.7958 31.1014 15.0416 31.2827 15.2229L34.3344 18.2746ZM31.2827 8.05598C31.1014 8.23723 30.9994 8.48301 30.9994 8.73942V9.77182C30.5635 9.74282 30.1294 9.70609 29.6906 9.70609C18.4791 9.70609 9.39053 18.7947 9.39053 30.0061C9.39053 41.2175 18.4791 50.3061 29.6906 50.3061C32.8379 50.3048 35.939 49.5476 38.7328 48.0983V56.6417C24.019 61.449 8.19404 53.4185 3.38656 38.7047C-1.42092 23.9909 6.60991 8.16594 21.3237 3.35846C26.2573 1.74654 31.5416 1.53617 36.5877 2.75091L31.2827 8.05598ZM45.4995 12.2059L40.6661 7.37255V4.33915C43.5302 5.50881 46.17 7.16605 48.4681 9.23725L45.4995 12.2059ZM58.0661 30.2333C58.0808 36.5103 56.0441 42.6204 52.2661 47.6333V22.673L55.8428 19.0915C57.3175 22.6207 58.0733 26.4085 58.0661 30.2333Z" fill="#EB3300"/>
<path d="M45.4995 24.2061C44.6058 24.0733 43.83 23.52 43.4134 22.7184L41.7855 23.7605C42.5256 25.1452 43.932 26.0461 45.4995 26.1394C47.0669 26.0461 48.4733 25.1452 49.2134 23.7605L47.5855 22.7184C47.1689 23.5201 46.3931 24.0733 45.4995 24.2061Z" fill="#EB3300"/>
<path d="M48.3994 28.0728H46.4661V59.0061H48.3994V28.0728Z" fill="#EB3300"/>
<path d="M55.4482 10.9594L48.6819 17.7257L50.0489 19.0928L56.8152 12.3265L55.4482 10.9594Z" fill="#EB3300"/>
<path d="M3.93274 30.0062H5.86608C5.88094 16.6654 16.692 5.85433 30.0328 5.83946V3.90613C15.6247 3.9222 3.94869 15.5982 3.93274 30.0062Z" fill="#EB3300"/>
<path d="M17.7498 18.6893L19.1168 20.0564L21.0498 18.1234L19.6828 16.7563L17.7498 18.6893Z" fill="#EB3300"/>
<path d="M20.0828 40.9227L18.1498 38.9896L16.7827 40.3567L18.7157 42.2897L20.0828 40.9227Z" fill="#EB3300"/>
</svg>
