<svg width="60" height="60" viewBox="0 0 60 60" fill="none" xmlns="http://www.w3.org/2000/svg">
<g clip-path="url(#clip0_664_8148)">
<path d="M17.4232 20.3225H24.7423L31.4777 9.0948C32.6952 7.06641 34.9209 5.80641 37.2861 5.80641H60V3.87094H37.2861C34.2445 3.87094 31.3829 5.49094 29.8181 8.09895L28.0627 11.0254L18.6659 0.78668C18.1016 0.279727 17.3729 0 16.6141 0C14.9235 0 13.5483 1.3752 13.5483 3.06586V12.5807C12.4808 12.5807 11.6128 13.4487 11.6128 14.5161V20.6255C10.2967 21.8071 9.33375 23.3825 8.92828 25.1835C8.85469 25.1776 8.78414 25.1612 8.70961 25.1612H4.83867C3.23801 25.1612 1.93547 26.4638 1.93547 28.0644V31.1457C0.811992 31.5464 0 32.6109 0 33.8709V57.0968C0 58.6975 1.30254 60 2.9032 60H41.6129C43.2136 60 44.5161 58.6975 44.5161 57.0968V38.7097H60V36.7743H44.5161V34.8387H60V32.9032H44.3381C44.0459 32.0835 43.4004 31.438 42.5807 31.1457V28.0644C42.5807 26.4638 41.2781 25.1612 39.6775 25.1612H35.8065C34.2059 25.1612 32.9033 26.4638 32.9033 28.0644V29.0864C30.7211 27.0396 29.3904 24.2555 29.1495 21.2903H34.8388H36.7743H48.3872V22.258C48.3872 23.8587 49.6897 25.1612 51.2904 25.1612H53.2259C54.8265 25.1612 56.1291 23.8587 56.1291 22.258V21.2903H60V19.3548H54.1936H50.3227H36.7741V18.3871C36.7741 16.7864 35.4716 15.4839 33.8709 15.4839H32.1589L34.797 11.0875C35.3186 10.2184 36.2718 9.67746 37.286 9.67746H60V7.74199H37.2861C35.5964 7.74199 34.0064 8.64293 33.1364 10.0917L27.1587 20.0546V20.3227C27.1587 24.2875 28.8523 28.0781 31.8067 30.7229L32.0805 30.9677H28.9412C27.566 28.6045 25.0171 27.0968 22.258 27.0968C19.498 27.0968 16.9489 28.6045 15.5748 30.9677H11.6129V28.0645C11.6129 27.2565 11.28 26.5259 10.7449 25.9984C11.2791 22.7497 14.1107 20.3225 17.4232 20.3225ZM54.1936 21.2903V22.258C54.1936 22.7921 53.7591 23.2257 53.2259 23.2257H51.2904C50.7572 23.2257 50.3227 22.7921 50.3227 22.258V21.2903H54.1936ZM33.8709 17.4193C34.4041 17.4193 34.8387 17.8529 34.8387 18.3871V19.3548H29.8364L30.9977 17.4193H33.8709ZM2.9032 32.9032H41.6129C42.1461 32.9032 42.5807 33.3368 42.5807 33.8709V34.8387H1.93547V33.8709C1.93547 33.3368 2.37 32.9032 2.9032 32.9032ZM1.93547 54.1936V36.7741H3.87094V54.1935H1.93547V54.1936ZM5.80641 36.7741H7.74188V54.1935H5.80641V36.7741ZM9.67746 36.7741H11.6129V54.1935H9.67746V36.7741ZM13.5484 36.7741H30.9677V54.1935H13.5484V36.7741ZM32.9032 36.7741H34.8387V54.1935H32.9032V36.7741ZM36.7741 36.7741H38.7096V54.1935H36.7741V36.7741ZM40.6452 36.7741H42.5807V54.1935H40.6452V36.7741ZM41.6129 58.0645H2.9032C2.37 58.0645 1.93547 57.6309 1.93547 57.0968V56.1291H42.5807V57.0968C42.5807 57.6309 42.1461 58.0645 41.6129 58.0645ZM35.8064 27.0968H39.6773C40.2105 27.0968 40.6451 27.5304 40.6451 28.0645V30.9677H34.8387V28.0645C34.8387 27.5303 35.2732 27.0968 35.8064 27.0968ZM22.258 29.0323C23.9235 29.0323 25.4941 29.76 26.5809 30.9677H17.9341C19.022 29.76 20.5925 29.0323 22.258 29.0323ZM3.87094 30.9677V28.0645C3.87094 27.5304 4.30547 27.0968 4.83867 27.0968H8.70961C9.24281 27.0968 9.67734 27.5304 9.67734 28.0645V30.9677H3.87094ZM16.6141 1.93547C16.8939 1.93547 17.1628 2.03801 17.3051 2.16L27.0241 12.7559L25.978 14.4997L15.4839 3.48387V3.06586C15.4839 2.44254 15.9909 1.93547 16.6141 1.93547ZM15.4839 6.28934L24.9445 16.2213L23.6459 18.3872H17.4233C17.4224 18.3872 17.4204 18.3872 17.4195 18.3872V14.5163C17.4195 13.4488 16.5514 12.5808 15.484 12.5808V6.28934H15.4839ZM13.5484 14.5161H15.4839V18.6164C14.8075 18.7723 14.158 19.0016 13.5484 19.3064V14.5161Z" fill="#EB3300"/>
<path d="M21.6648 43.5484L23.1764 39.0155L21.3397 38.4039L18.9803 45.4839H22.6277L19.4564 51.8255L21.1887 52.6907L25.7593 43.5484H21.6648Z" fill="#EB3300"/>
</g>
<defs>
<clipPath id="clip0_664_8148">
<rect width="60" height="60" fill="white"/>
</clipPath>
</defs>
</svg>
