<svg width="60" height="60" viewBox="0 0 60 60" fill="none" xmlns="http://www.w3.org/2000/svg">
<path d="M54 13.8826C53.8099 13.8827 53.6242 13.8263 53.4662 13.7206C53.3082 13.615 53.1851 13.4649 53.1126 13.2892C52.6239 12.1047 51.7938 11.0924 50.728 10.3811C49.6622 9.66985 48.4089 9.29177 47.1276 9.29502C45.8548 9.29353 44.6099 9.66685 43.548 10.3684C42.486 11.07 41.6543 12.0687 41.1564 13.24C41.1084 13.3581 41.0375 13.4654 40.9476 13.5558C40.8578 13.6461 40.7509 13.7177 40.6331 13.7663C40.5153 13.8149 40.389 13.8396 40.2616 13.8389C40.1342 13.8382 40.0082 13.8121 39.8909 13.7622C39.7737 13.7123 39.6676 13.6396 39.5787 13.5482C39.4899 13.4569 39.4201 13.3488 39.3735 13.2302C39.3268 13.1116 39.3043 12.9849 39.3071 12.8576C39.31 12.7302 39.3381 12.6046 39.39 12.4882C40.0347 10.9696 41.1128 9.67461 42.4894 8.7652C43.866 7.85579 45.4801 7.37225 47.13 7.37502C48.7913 7.37102 50.4163 7.86152 51.7979 8.78405C53.1796 9.70659 54.2555 11.0194 54.8886 12.5554C54.949 12.7014 54.9725 12.86 54.9569 13.0173C54.9413 13.1745 54.8872 13.3254 54.7993 13.4567C54.7114 13.588 54.5924 13.6956 54.453 13.7699C54.3136 13.8442 54.158 13.8829 54 13.8826Z" fill="#EB3300"/>
<path d="M47.1179 24.1477C45.4384 24.1481 43.7974 23.6447 42.4069 22.7027C41.0164 21.7608 39.9404 20.4234 39.3179 18.8635C39.2347 18.6296 39.2455 18.3726 39.3478 18.1464C39.4501 17.9202 39.6361 17.7424 39.8667 17.6504C40.0973 17.5584 40.3546 17.5593 40.5845 17.6529C40.8144 17.7466 40.9992 17.9256 41.0999 18.1525C41.5767 19.3583 42.4061 20.3923 43.4797 21.1193C44.5533 21.8463 45.8213 22.2326 47.1179 22.2277C48.3998 22.2309 49.6538 21.853 50.7205 21.1421C51.7872 20.4311 52.6185 19.4192 53.1089 18.2347C53.1573 18.1183 53.2281 18.0126 53.3174 17.9235C53.4066 17.8345 53.5125 17.7639 53.629 17.7158C53.7456 17.6677 53.8704 17.643 53.9965 17.6431C54.1226 17.6433 54.2474 17.6683 54.3638 17.7166C54.4802 17.765 54.586 17.8359 54.675 17.9251C54.764 18.0144 54.8346 18.1203 54.8827 18.2368C54.9309 18.3533 54.9555 18.4782 54.9554 18.6043C54.9552 18.7303 54.9303 18.8551 54.8819 18.9715C54.2465 20.5067 53.1692 21.8184 51.7868 22.74C50.4045 23.6617 48.7793 24.1516 47.1179 24.1477Z" fill="#EB3300"/>
<path d="M53.9957 19.5633H48.8627C48.576 19.5637 48.2921 19.5075 48.0271 19.398C47.7621 19.2885 47.5214 19.1278 47.3186 18.9251C47.1158 18.7224 46.955 18.4817 46.8455 18.2167C46.7359 17.9518 46.6796 17.6678 46.6799 17.3811V14.1411C46.6815 13.5629 46.9122 13.0089 47.3214 12.6005C47.7307 12.192 48.2851 11.9624 48.8633 11.9619H53.9957C54.2503 11.9619 54.4945 12.0631 54.6746 12.2431C54.8546 12.4231 54.9557 12.6673 54.9557 12.9219C54.9557 13.1765 54.8546 13.4207 54.6746 13.6007C54.4945 13.7808 54.2503 13.8819 53.9957 13.8819H48.8633C48.7939 13.8818 48.7273 13.909 48.678 13.9578C48.6286 14.0066 48.6006 14.0729 48.5999 14.1423V17.3823C48.6001 17.4158 48.6068 17.449 48.6198 17.4799C48.6328 17.5107 48.6517 17.5388 48.6755 17.5623C48.6999 17.5869 48.7288 17.6063 48.7608 17.6195C48.7927 17.6327 48.827 17.6394 48.8615 17.6391H53.9939C54.2485 17.6391 54.4927 17.7403 54.6728 17.9203C54.8528 18.1003 54.9539 18.3445 54.9539 18.5991C54.9539 18.8537 54.8528 19.0979 54.6728 19.2779C54.4927 19.458 54.2485 19.5591 53.9939 19.5591L53.9957 19.5633Z" fill="#EB3300"/>
<path d="M40.2726 13.8243H19.7322C19.4776 13.8243 19.2334 13.7232 19.0534 13.5431C18.8734 13.3631 18.7722 13.1189 18.7722 12.8643C18.7722 12.6097 18.8734 12.3655 19.0534 12.1855C19.2334 12.0054 19.4776 11.9043 19.7322 11.9043H40.2726C40.5272 11.9043 40.7714 12.0054 40.9514 12.1855C41.1315 12.3655 41.2326 12.6097 41.2326 12.8643C41.2326 13.1189 41.1315 13.3631 40.9514 13.5431C40.7714 13.7232 40.5272 13.8243 40.2726 13.8243Z" fill="#EB3300"/>
<path d="M40.2072 19.4688H19.7886C19.534 19.4688 19.2898 19.3677 19.1098 19.1876C18.9298 19.0076 18.8286 18.7634 18.8286 18.5088C18.8286 18.2542 18.9298 18.01 19.1098 17.83C19.2898 17.65 19.534 17.5488 19.7886 17.5488H40.2072C40.4618 17.5488 40.706 17.65 40.886 17.83C41.0661 18.01 41.1672 18.2542 41.1672 18.5088C41.1672 18.7634 41.0661 19.0076 40.886 19.1876C40.706 19.3677 40.4618 19.4688 40.2072 19.4688Z" fill="#EB3300"/>
<path d="M6.00426 13.8738C5.84631 13.8737 5.69083 13.8347 5.55157 13.7602C5.41232 13.6856 5.29361 13.5779 5.20595 13.4465C5.1183 13.3151 5.06442 13.1642 5.04909 13.007C5.03376 12.8498 5.05745 12.6912 5.11806 12.5454C5.75342 11.0102 6.83071 9.69851 8.2131 8.77688C9.59549 7.85525 11.2206 7.36527 12.8821 7.36916C14.5316 7.36654 16.1453 7.85062 17.521 8.7608C18.8967 9.67097 19.9733 10.9668 20.6161 12.486C20.668 12.6025 20.6962 12.7282 20.699 12.8557C20.7018 12.9833 20.6792 13.1101 20.6324 13.2288C20.5857 13.3475 20.5157 13.4557 20.4266 13.5471C20.3376 13.6384 20.2312 13.7111 20.1137 13.7608C19.9963 13.8106 19.87 13.8365 19.7425 13.8369C19.6149 13.8373 19.4885 13.8123 19.3707 13.7633C19.2529 13.7143 19.146 13.6424 19.0564 13.5516C18.9667 13.4609 18.896 13.3531 18.8485 13.2348C18.3525 12.0633 17.522 11.0641 16.4609 10.3623C15.3999 9.66045 14.1554 9.28718 12.8833 9.28916C11.6013 9.28598 10.3474 9.66387 9.28068 10.3748C8.21398 11.0858 7.38264 12.0977 6.89226 13.2822C6.81937 13.4576 6.69609 13.6074 6.53802 13.7127C6.37995 13.818 6.19419 13.8741 6.00426 13.8738Z" fill="#EB3300"/>
<path d="M12.873 24.1427C11.2113 24.1467 9.58594 23.656 8.20403 22.7331C6.82212 21.8102 5.74616 20.4969 5.1132 18.9605C5.06318 18.8437 5.03683 18.7182 5.03568 18.5912C5.03453 18.4641 5.0586 18.3381 5.1065 18.2205C5.15439 18.1028 5.22516 17.9959 5.3147 17.9058C5.40424 17.8157 5.51077 17.7442 5.62812 17.6956C5.74547 17.647 5.8713 17.6221 5.99833 17.6225C6.12535 17.6228 6.25105 17.6484 6.36812 17.6977C6.4852 17.7469 6.59133 17.819 6.68036 17.9096C6.7694 18.0002 6.83957 18.1076 6.8868 18.2255C7.37538 19.4101 8.2054 20.4225 9.27121 21.1339C10.337 21.8453 11.5904 22.2235 12.8718 22.2203C14.1694 22.2261 15.4387 21.8407 16.514 21.1144C17.5894 20.3881 18.4208 19.3546 18.9 18.1487C18.9456 18.03 19.0144 17.9216 19.1023 17.8297C19.1901 17.7378 19.2954 17.6643 19.4119 17.6134C19.5284 17.5625 19.6539 17.5353 19.781 17.5333C19.9082 17.5313 20.0344 17.5546 20.1525 17.6018C20.2705 17.649 20.378 17.7192 20.4687 17.8083C20.5595 17.8974 20.6316 18.0036 20.6809 18.1208C20.7302 18.238 20.7558 18.3638 20.756 18.491C20.7563 18.6181 20.7314 18.7441 20.6826 18.8615C20.0577 20.4208 18.98 21.7573 17.5885 22.6984C16.1969 23.6395 14.5553 24.1421 12.8754 24.1415L12.873 24.1427Z" fill="#EB3300"/>
<path d="M11.1324 19.5562H6.00004C5.74543 19.5562 5.50125 19.455 5.32122 19.275C5.14118 19.095 5.04004 18.8508 5.04004 18.5962C5.04004 18.3416 5.14118 18.0974 5.32122 17.9174C5.50125 17.7373 5.74543 17.6362 6.00004 17.6362H11.1324C11.2018 17.6363 11.2685 17.6091 11.3178 17.5603C11.3672 17.5115 11.3952 17.4452 11.3958 17.3758V14.1358C11.3957 14.1023 11.389 14.0691 11.376 14.0382C11.363 14.0074 11.3441 13.9793 11.3202 13.9558C11.2959 13.9312 11.2669 13.9118 11.235 13.8986C11.2031 13.8854 11.1688 13.8787 11.1342 13.879H6.00424C5.74963 13.879 5.50545 13.7778 5.32542 13.5978C5.14538 13.4178 5.04424 13.1736 5.04424 12.919C5.04424 12.6644 5.14538 12.4202 5.32542 12.2402C5.50545 12.0601 5.74963 11.959 6.00424 11.959H11.1372C11.4235 11.9586 11.7071 12.0146 11.9718 12.1238C12.2364 12.233 12.477 12.3933 12.6797 12.5955C12.8824 12.7977 13.0433 13.0379 13.1531 13.3023C13.263 13.5666 13.3197 13.8501 13.32 14.1364V17.3764C13.3186 17.9554 13.0874 18.5102 12.6773 18.9189C12.2671 19.3276 11.7115 19.5568 11.1324 19.5562Z" fill="#EB3300"/>
<path d="M41.0466 48.6661H18.9534C18.6988 48.6661 18.4546 48.565 18.2746 48.3849C18.0946 48.2049 17.9934 47.9607 17.9934 47.7061C17.9934 47.4515 18.0946 47.2073 18.2746 47.0273C18.4546 46.8472 18.6988 46.7461 18.9534 46.7461H41.0466C41.3012 46.7461 41.5454 46.8472 41.7254 47.0273C41.9055 47.2073 42.0066 47.4515 42.0066 47.7061C42.0066 47.9607 41.9055 48.2049 41.7254 48.3849C41.5454 48.565 41.3012 48.6661 41.0466 48.6661Z" fill="#EB3300"/>
<path d="M48.9749 48.6434C48.7314 48.6444 48.4965 48.5528 48.318 48.3871C48.1395 48.2214 48.0306 47.994 48.0134 47.7511C47.9963 47.5081 48.0721 47.2677 48.2256 47.0785C48.379 46.8894 48.5987 46.7657 48.8399 46.7324C50.3633 46.5164 52.0655 46.2584 52.5803 46.1714L52.4945 45.08C52.467 44.8359 52.519 44.5895 52.6427 44.3774C53.0399 43.7108 53.1383 43.136 52.9349 42.671C52.8357 42.4514 52.6828 42.2604 52.4903 42.1154C52.4867 42.1154 52.4903 42.1154 52.4807 42.1088C50.0147 40.5074 43.0199 39.9422 39.6689 39.8672C39.4767 39.8621 39.2905 39.7994 39.1343 39.6872C37.479 38.5018 35.6916 37.5126 33.8081 36.7394C31.2053 35.6779 28.4259 35.1155 25.6151 35.0816C22.9151 35.0534 20.1485 35.5076 17.3891 36.4358C15.3653 37.1168 13.8185 37.8908 12.8945 38.3558C12.1865 38.7104 11.9219 38.843 11.6153 38.8598H11.5985C11.0585 38.8862 9.11814 39.0962 7.83894 39.239L7.66554 41.3714C7.65263 41.5296 7.60072 41.6821 7.51444 41.8152C7.42816 41.9484 7.31021 42.0582 7.17114 42.1346C7.12074 42.1622 6.92634 42.464 6.96534 43.3418C6.97856 43.611 7.007 43.8792 7.05054 44.1452C7.37634 44.2496 7.68954 44.4272 7.91574 44.7452C8.16114 45.0872 8.20254 45.4484 8.19954 45.7556C8.73954 46.0346 10.0121 46.502 11.1911 46.7102C11.3188 46.7279 11.4417 46.7712 11.5523 46.8375C11.6629 46.9037 11.759 46.9916 11.8349 47.0958C11.9108 47.2 11.965 47.3184 11.9941 47.444C12.0233 47.5696 12.0268 47.6998 12.0046 47.8268C11.9823 47.9537 11.9347 48.075 11.8646 48.1831C11.7945 48.2913 11.7033 48.3843 11.5965 48.4565C11.4896 48.5287 11.3694 48.5786 11.2428 48.6033C11.1163 48.628 10.9861 48.6269 10.8599 48.6002C9.94107 48.429 9.04002 48.1731 8.16834 47.8358C7.00554 47.3828 6.23994 46.9202 6.26214 46.118C6.26214 46.0544 6.26694 45.9938 6.27054 45.938C6.23274 45.9326 6.18894 45.9272 6.13854 45.9218C5.94308 45.9021 5.75836 45.8229 5.60933 45.6949C5.4603 45.5669 5.35413 45.3962 5.30514 45.206C5.16459 44.6234 5.07823 44.0291 5.04714 43.4306C4.99374 42.2306 5.24154 41.3486 5.78574 40.802L5.98914 38.3006C6.00661 38.078 6.10112 37.8685 6.2564 37.708C6.41169 37.5476 6.61804 37.4463 6.83994 37.4216C6.98934 37.4042 10.3739 37.0166 11.3999 36.9494C11.5295 36.8936 11.7971 36.7598 12.0371 36.6398C13.0061 36.1544 14.6279 35.3426 16.7771 34.619C19.7399 33.6224 22.7219 33.1322 25.6361 33.1646C28.6872 33.2017 31.704 33.8123 34.5293 34.9646C36.46 35.7559 38.2965 36.7597 40.0049 37.9574C41.9093 38.0174 50.2649 38.3864 53.5247 40.499C53.995 40.8181 54.3757 41.2523 54.6305 41.7602C54.9863 42.4802 55.2251 43.6304 54.4253 45.1244L54.5135 46.247C54.5214 46.3443 54.5141 46.4423 54.4919 46.5374C54.3587 47.1194 53.9123 47.8574 53.0945 48.0266C52.7441 48.098 50.6303 48.4154 49.1111 48.6308C49.0661 48.6383 49.0206 48.6425 48.9749 48.6434Z" fill="#EB3300"/>
<path d="M26.2092 41.7595C25.8492 41.7595 25.491 41.7549 25.1346 41.7457C20.2074 41.6209 15.5148 40.6249 11.1858 38.7859C10.9585 38.6818 10.7808 38.4931 10.6905 38.26C10.6001 38.0269 10.6043 37.7678 10.7021 37.5377C10.7998 37.3076 10.9835 37.1247 11.214 37.028C11.4445 36.9312 11.7037 36.9282 11.9364 37.0195C19.9956 40.4431 28.9932 40.7575 39.4434 37.9795C39.6895 37.9141 39.9515 37.9492 40.1718 38.0769C40.392 38.2047 40.5525 38.4147 40.6179 38.6608C40.6833 38.9069 40.6483 39.1689 40.5205 39.3892C40.3928 39.6094 40.1827 39.7699 39.9366 39.8353C35.1282 41.1121 30.5154 41.7595 26.2092 41.7595Z" fill="#EB3300"/>
<path d="M14.9886 52.6309C14.0146 52.6309 13.0625 52.342 12.2526 51.8009C11.4427 51.2597 10.8115 50.4906 10.4387 49.5907C10.066 48.6908 9.96845 47.7006 10.1585 46.7453C10.3485 45.79 10.8175 44.9124 11.5063 44.2237C12.195 43.5349 13.0725 43.0659 14.0279 42.8759C14.9832 42.6859 15.9734 42.7834 16.8733 43.1561C17.7732 43.5289 18.5423 44.1601 19.0835 44.97C19.6246 45.7799 19.9134 46.732 19.9134 47.7061C19.912 49.0117 19.3927 50.2636 18.4694 51.1868C17.5462 52.1101 16.2943 52.6294 14.9886 52.6309ZM14.9886 44.7013C14.3944 44.7013 13.8134 44.8775 13.3193 45.2077C12.8251 45.5378 12.44 46.0071 12.2126 46.5562C11.9851 47.1052 11.9256 47.7094 12.0416 48.2923C12.1575 48.8751 12.4437 49.4105 12.8639 49.8308C13.2842 50.251 13.8196 50.5372 14.4024 50.6531C14.9853 50.7691 15.5895 50.7095 16.1385 50.4821C16.6876 50.2547 17.1569 49.8696 17.487 49.3754C17.8172 48.8813 17.9934 48.3003 17.9934 47.7061C17.9928 46.9092 17.6761 46.1452 17.1127 45.5816C16.5494 45.0181 15.7855 44.701 14.9886 44.7001V44.7013Z" fill="#EB3300"/>
<path d="M45.0115 52.6309C44.0374 52.6309 43.0853 52.342 42.2754 51.8009C41.4655 51.2597 40.8343 50.4906 40.4616 49.5907C40.0888 48.6908 39.9913 47.7006 40.1813 46.7453C40.3713 45.79 40.8404 44.9124 41.5291 44.2237C42.2179 43.5349 43.0954 43.0659 44.0507 42.8759C45.006 42.6859 45.9962 42.7834 46.8961 43.1561C47.796 43.5289 48.5652 44.1601 49.1063 44.97C49.6474 45.7799 49.9363 46.732 49.9363 47.7061C49.9348 49.0117 49.4155 50.2636 48.4923 51.1868C47.569 52.1101 46.3172 52.6294 45.0115 52.6309ZM45.0115 44.7013C44.4172 44.7013 43.8362 44.8775 43.3421 45.2077C42.848 45.5378 42.4628 46.0071 42.2354 46.5562C42.008 47.1052 41.9485 47.7094 42.0644 48.2923C42.1803 48.8751 42.4665 49.4105 42.8868 49.8308C43.307 50.251 43.8424 50.5372 44.4253 50.6531C45.0081 50.7691 45.6123 50.7095 46.1614 50.4821C46.7104 50.2547 47.1797 49.8696 47.5099 49.3754C47.84 48.8813 48.0163 48.3003 48.0163 47.7061C48.0156 46.9092 47.6989 46.1452 47.1356 45.5816C46.5722 45.0181 45.8083 44.701 45.0115 44.7001V44.7013Z" fill="#EB3300"/>
<path d="M25.626 41.754C25.3714 41.754 25.1272 41.6529 24.9472 41.4729C24.7672 41.2928 24.666 41.0486 24.666 40.794V34.125C24.666 33.8704 24.7672 33.6263 24.9472 33.4462C25.1272 33.2662 25.3714 33.165 25.626 33.165C25.8806 33.165 26.1248 33.2662 26.3048 33.4462C26.4849 33.6263 26.586 33.8704 26.586 34.125V40.794C26.586 41.0486 26.4849 41.2928 26.3048 41.4729C26.1248 41.6529 25.8806 41.754 25.626 41.754Z" fill="#EB3300"/>
<path d="M41.7371 39.9602C41.5899 39.9602 41.4446 39.9264 41.3125 39.8613C41.1804 39.7962 41.065 39.7016 40.9753 39.5848C40.8857 39.4679 40.8241 39.332 40.7953 39.1876C40.7666 39.0432 40.7714 38.8941 40.8095 38.7518L43.7399 27.8054L43.5257 27.7454C43.2897 27.6819 43.0434 27.6655 42.801 27.6973C42.5586 27.729 42.3249 27.8082 42.1131 27.9304C41.9013 28.0525 41.7157 28.2152 41.5669 28.4091C41.4181 28.6031 41.3089 28.8245 41.2457 29.0606L38.8517 37.9946C38.8272 38.1244 38.7761 38.2477 38.7017 38.3568C38.6274 38.4659 38.5313 38.5585 38.4195 38.6288C38.3077 38.6991 38.1826 38.7455 38.052 38.7653C37.9214 38.785 37.7882 38.7776 37.6606 38.7435C37.533 38.7094 37.4139 38.6494 37.3105 38.5671C37.2072 38.4849 37.122 38.3822 37.0602 38.2655C36.9984 38.1488 36.9613 38.0206 36.9513 37.8889C36.9412 37.7572 36.9585 37.6249 37.0019 37.5002L39.3959 28.5662C39.6564 27.5987 40.2899 26.774 41.1575 26.2729C42.0252 25.7718 43.0562 25.6352 44.0243 25.8932L45.1643 26.1992C45.2861 26.2319 45.4003 26.2882 45.5003 26.3649C45.6003 26.4417 45.6842 26.5374 45.7472 26.6466C45.8102 26.7559 45.8511 26.8764 45.8675 27.0014C45.884 27.1264 45.8756 27.2534 45.8429 27.3752L42.6629 39.2474C42.6085 39.4515 42.4883 39.632 42.321 39.7609C42.1536 39.8897 41.9484 39.9598 41.7371 39.9602Z" fill="#EB3300"/>
<path d="M25.626 46.0954C25.4321 46.0954 25.2427 46.0367 25.0828 45.927C24.9229 45.8173 24.8 45.6617 24.7303 45.4807C24.6605 45.2998 24.6472 45.102 24.6921 44.9133C24.7369 44.7246 24.8379 44.554 24.9816 44.4238L26.6724 42.8926C26.8647 42.7173 27.0989 42.5942 27.3524 42.5354C27.6059 42.4766 27.8703 42.4839 28.1202 42.5566L33.1512 44.0002C33.3947 44.0715 33.6001 44.2362 33.7225 44.4585C33.8449 44.6807 33.8744 44.9423 33.8045 45.1862C33.7345 45.4301 33.5709 45.6364 33.3493 45.76C33.1278 45.8836 32.8663 45.9144 32.622 45.8458L27.7998 44.4604L26.2704 45.8452C26.0942 46.0058 25.8645 46.0949 25.626 46.0954Z" fill="#EB3300"/>
</svg>
