<svg width="60" height="60" viewBox="0 0 60 60" fill="none" xmlns="http://www.w3.org/2000/svg">
<path d="M26.9 21.0273C20.2091 21.0273 14.7637 26.4728 14.7637 33.1637C14.7637 39.8546 20.2091 45.3001 26.9 45.3001C33.5909 45.3001 39.0364 39.8546 39.0364 33.1637C39.0364 26.4728 33.5909 21.0273 26.9 21.0273ZM26.9 43.0546C21.4455 43.0546 17.0182 38.6183 17.0182 33.1728C17.0182 27.7273 21.4546 23.291 26.9 23.291C32.3546 23.291 36.7819 27.7273 36.7819 33.1728C36.7819 38.6183 32.3455 43.0546 26.9 43.0546Z" fill="#EB3300"/>
<path d="M26.9001 28.5908C24.3728 28.5908 22.3182 30.6454 22.3182 33.1726C22.3182 35.6999 24.3728 37.7545 26.9001 37.7545C29.4273 37.7545 31.4819 35.6999 31.4819 33.1726C31.4819 30.6454 29.4273 28.5908 26.9001 28.5908ZM26.9001 35.4999C25.6182 35.4999 24.5728 34.4545 24.5728 33.1726C24.5728 31.8908 25.6182 30.8454 26.9001 30.8454C28.1819 30.8454 29.2273 31.8908 29.2273 33.1726C29.2273 34.4545 28.1819 35.4999 26.9001 35.4999Z" fill="#EB3300"/>
<path d="M15.8909 23.2907C16.2 23.2907 16.4819 23.1634 16.6909 22.9543C16.7909 22.8543 16.8728 22.727 16.9273 22.5907C16.9819 22.4543 17.0182 22.3089 17.0182 22.1634C17.0182 22.018 16.9819 21.8725 16.9273 21.727C16.8728 21.5907 16.7909 21.4725 16.6909 21.3634C16.6364 21.3089 16.5819 21.2634 16.5091 21.218C16.4546 21.1816 16.3819 21.1543 16.3182 21.118C16.0455 21.0089 15.7364 21.0089 15.4637 21.118C15.3182 21.1725 15.1909 21.2634 15.0909 21.3634C14.9909 21.4634 14.9091 21.5907 14.8546 21.727C14.8 21.8725 14.7637 22.018 14.7637 22.1634C14.7637 22.4543 14.8728 22.7361 15.0909 22.9543C15.3 23.1634 15.5819 23.2907 15.8909 23.2907Z" fill="#EB3300"/>
<path d="M8.73635 32.3723C8.63635 32.2723 8.50908 32.1814 8.37272 32.1268C7.94545 31.9541 7.44545 32.0541 7.14545 32.3723C7.03636 32.4723 6.95454 32.5996 6.89999 32.7359C6.84545 32.8814 6.80908 33.0177 6.80908 33.1723C6.80908 33.4632 6.93636 33.745 7.14545 33.9632C7.24545 34.0723 7.37272 34.1541 7.50908 34.2087C7.64545 34.2632 7.7909 34.2996 7.93635 34.2996C8.23635 34.2996 8.51817 34.1723 8.73635 33.9632C8.95454 33.745 9.06363 33.4632 9.06363 33.1723C9.06363 33.0177 9.04545 32.8814 8.98181 32.7359C8.92726 32.5996 8.84545 32.4723 8.73635 32.3723Z" fill="#EB3300"/>
<path d="M12.4455 33.1727C12.4455 32.8727 12.3364 32.5909 12.1182 32.3727C11.7 31.9454 10.9364 31.9545 10.5273 32.3727C10.4182 32.4727 10.3364 32.6 10.2818 32.7364C10.2273 32.8818 10.1909 33.0182 10.1909 33.1727C10.1909 33.4636 10.3182 33.7454 10.5273 33.9636C10.7273 34.1727 11.0091 34.3 11.3182 34.3C11.6182 34.3 11.9 34.1727 12.1182 33.9636C12.2182 33.8636 12.3091 33.7364 12.3636 33.6C12.4273 33.4727 12.4455 33.3182 12.4455 33.1727Z" fill="#EB3300"/>
<path d="M14.2818 45.7815C13.9818 45.4633 13.4727 45.3633 13.0636 45.536C12.9182 45.5906 12.7909 45.6815 12.6909 45.7815C12.5909 45.8815 12.5 46.0087 12.4455 46.1451C12.3909 46.2906 12.3636 46.436 12.3636 46.5815C12.3636 46.8724 12.4727 47.1542 12.6909 47.3724C12.9091 47.5906 13.1909 47.7087 13.4909 47.7087C13.8 47.7087 14.0818 47.5815 14.2818 47.3724C14.5 47.1633 14.6182 46.8815 14.6182 46.5815C14.6182 46.436 14.5818 46.2906 14.5273 46.1451C14.4818 45.9996 14.4 45.8815 14.2818 45.7815Z" fill="#EB3300"/>
<path d="M16.5091 43.2453C16.4546 43.2089 16.3819 43.1817 16.3182 43.1453C16.0455 43.0362 15.7364 43.0362 15.4637 43.1453C15.3182 43.1998 15.1909 43.2907 15.0909 43.3907C14.8909 43.5907 14.7637 43.8908 14.7637 44.1908C14.7637 44.4817 14.8728 44.7635 15.0909 44.9817C15.2 45.0907 15.3182 45.1726 15.4637 45.2271C15.6 45.2817 15.7455 45.3089 15.8909 45.3089C16.2 45.3089 16.4819 45.1998 16.6909 44.9817C16.9091 44.7726 17.0182 44.4908 17.0182 44.1908C17.0182 43.8908 16.8909 43.5907 16.6909 43.3907C16.6273 43.3362 16.5728 43.2907 16.5091 43.2453Z" fill="#EB3300"/>
<path d="M26.1 51.3273C25.9 51.5455 25.7727 51.8364 25.7727 52.1273C25.7727 52.2728 25.7909 52.4182 25.8545 52.5546C25.9091 52.6909 26 52.8091 26.1 52.9273C26.3091 53.1455 26.5909 53.2546 26.9 53.2546C27.2 53.2546 27.4818 53.1455 27.6909 52.9273C27.8 52.8182 27.8818 52.6909 27.9363 52.5546C27.9909 52.4182 28.0273 52.2728 28.0273 52.1273C28.0273 51.8364 27.9 51.5455 27.6909 51.3273C27.2818 50.9091 26.5182 50.9091 26.1 51.3273Z" fill="#EB3300"/>
<path d="M26.1 47.9455C25.9 48.1637 25.7727 48.4546 25.7727 48.7455C25.7727 48.8909 25.7909 49.0364 25.8545 49.1727C25.9091 49.3091 26 49.4273 26.1 49.5455C26.3091 49.7637 26.5909 49.8727 26.9 49.8727C27.2 49.8727 27.4818 49.7637 27.6909 49.5455C27.8 49.4364 27.8818 49.3091 27.9363 49.1727C27.9909 49.0364 28.0273 48.8909 28.0273 48.7455C28.0273 48.4546 27.9 48.1637 27.6909 47.9455C27.2818 47.5273 26.5182 47.5273 26.1 47.9455Z" fill="#EB3300"/>
<path d="M41.0909 45.7814C41.0455 45.7268 40.9909 45.6814 40.9182 45.6359C40.8636 45.5996 40.7909 45.5723 40.7273 45.5359C40.6636 45.5177 40.5909 45.4905 40.5182 45.4814C40.3 45.4359 40.0818 45.4541 39.8727 45.5359C39.7273 45.5905 39.6091 45.6814 39.5 45.7814C39.4 45.8814 39.3182 46.0087 39.2636 46.145C39.2 46.2905 39.1727 46.4359 39.1727 46.5814C39.1727 46.8723 39.2818 47.1723 39.5 47.3723C39.7182 47.5905 40 47.7087 40.3 47.7087C40.4455 47.7087 40.5909 47.6723 40.7273 47.6177C40.8636 47.5632 40.9909 47.4814 41.0909 47.3723C41.3 47.1632 41.4273 46.8814 41.4273 46.5814C41.4273 46.4359 41.3909 46.2905 41.3364 46.145C41.2818 45.9996 41.2091 45.8814 41.0909 45.7814Z" fill="#EB3300"/>
<path d="M38.5364 43.2446C38.4819 43.2083 38.4091 43.181 38.3455 43.1446C38.2819 43.1265 38.2091 43.0992 38.1364 43.081C37.991 43.0537 37.8455 43.0537 37.7001 43.081C37.6364 43.0992 37.5546 43.1265 37.491 43.1446C37.4182 43.181 37.3637 43.2174 37.3 43.2446C37.2455 43.2901 37.191 43.3355 37.1273 43.3901C36.9182 43.5901 36.8 43.8901 36.8 44.181C36.8 44.3355 36.8273 44.4901 36.8819 44.6174C36.9364 44.7537 37.0273 44.8719 37.1273 44.981C37.3455 45.1992 37.6273 45.3174 37.9273 45.3174C38.2182 45.3174 38.5182 45.1901 38.7273 44.981C38.8273 44.881 38.9091 44.7537 38.9637 44.6174C39.0182 44.481 39.0546 44.3355 39.0546 44.181C39.0546 43.8901 38.9273 43.5992 38.7273 43.3901C38.6546 43.3355 38.6 43.2901 38.5364 43.2446Z" fill="#EB3300"/>
<path d="M57.9455 28.0996C55.7182 14.4269 44.5727 3.68145 30.8455 1.96327C29.5727 1.79963 28.2818 2.19054 27.3091 3.04509C26.3364 3.89963 25.7727 5.136 25.7727 6.436V8.29054C12.5636 8.88145 2 19.8178 2 33.1724C2 46.8996 13.1727 58.0724 26.9 58.0724C40.5818 58.0724 51.7182 46.9815 51.8 33.3178H53.4818C54.8091 33.3178 56.0727 32.736 56.9364 31.7178C57.7909 30.7178 58.1545 29.3996 57.9455 28.0996ZM26.9 55.8178C14.4091 55.8178 4.25455 45.6542 4.25455 33.1724C4.25455 21.0542 13.8091 11.136 25.7727 10.5451V12.8633C25.7727 15.0724 27.3545 16.936 29.5455 17.2996C35.9818 18.3724 41.2273 23.3815 42.6091 29.7724C43.0636 31.8633 44.8727 33.3178 47 33.3178H49.5455C49.4636 45.7451 39.3364 55.8178 26.9 55.8178ZM55.2182 30.2633C54.7818 30.7724 54.1545 31.0724 53.4818 31.0724H50.6545H47C45.9364 31.0724 45.0364 30.3451 44.8091 29.2996C43.2364 22.0178 37.2545 16.2996 29.9182 15.0815C28.8273 14.8996 28.0273 13.9633 28.0273 12.8633V9.39054V6.436C28.0273 5.79054 28.3091 5.16327 28.8 4.736C29.2182 4.37236 29.7273 4.17236 30.2636 4.17236C30.3636 4.17236 30.4545 4.18145 30.5545 4.19054C43.3 5.79054 53.6455 15.7633 55.7091 28.4633C55.8182 29.1087 55.6364 29.7633 55.2182 30.2633Z" fill="#EB3300"/>
<path d="M33.2909 7.6364C32.6818 7.49095 32.0818 7.87276 31.9455 8.48186C31.8091 9.09095 32.1909 9.69095 32.7909 9.82731C41 11.7 47.4909 17.9091 49.7455 26.0364C49.8819 26.5364 50.3364 26.8637 50.8273 26.8637C50.9273 26.8637 51.0273 26.8546 51.1273 26.8273C51.7273 26.6637 52.0819 26.0364 51.9091 25.4364C49.4455 16.5182 42.3091 9.69095 33.2909 7.6364Z" fill="#EB3300"/>
<path d="M26.9 26.863C27.2 26.863 27.4818 26.7539 27.6909 26.5357C27.8 26.4266 27.8818 26.2993 27.9363 26.163C27.9909 26.0266 28.0273 25.8812 28.0273 25.7357C28.0273 25.4448 27.9 25.1448 27.6909 24.9357C27.2818 24.5175 26.5182 24.5175 26.1 24.9357C25.9 25.1448 25.7727 25.4448 25.7727 25.7357C25.7727 26.0357 25.8818 26.3175 26.1 26.5357C26.3091 26.7539 26.5909 26.863 26.9 26.863Z" fill="#EB3300"/>
<path d="M22.7727 27.9091C22.7727 27.6182 22.6455 27.3182 22.4364 27.1091C22.3909 27.0636 22.3273 27.0182 22.2636 26.9727C22.2091 26.9273 22.1364 26.8909 22.0727 26.8727C22.0091 26.8363 21.9273 26.8182 21.8545 26.8C21.4818 26.7182 21.1 26.8454 20.8364 27.1091C20.6182 27.3182 20.5 27.6182 20.5 27.9091C20.5 28.0545 20.5364 28.2 20.5909 28.3454C20.6455 28.4818 20.7273 28.5909 20.8364 28.7091C21.0455 28.9272 21.3273 29.0363 21.6273 29.0363C21.9273 29.0363 22.2091 28.9272 22.4273 28.7091C22.6455 28.5 22.7727 28.2182 22.7727 27.9091Z" fill="#EB3300"/>
<path d="M20.091 32.227C20.0182 32.1906 19.9546 32.1543 19.891 32.127C19.8273 32.0997 19.7546 32.0815 19.691 32.0724C19.3182 31.9906 18.9273 32.1179 18.6637 32.3815C18.4637 32.5815 18.3364 32.8815 18.3364 33.1815C18.3364 33.4724 18.4637 33.7543 18.6637 33.9724C18.7728 34.0815 18.9001 34.1633 19.0364 34.2179C19.1728 34.2724 19.3182 34.2997 19.4637 34.2997C19.7728 34.2997 20.0546 34.1906 20.2637 33.9724C20.4819 33.7543 20.591 33.4724 20.591 33.1815C20.591 32.8815 20.4819 32.5997 20.2637 32.3815C20.2001 32.3179 20.1455 32.2724 20.091 32.227Z" fill="#EB3300"/>
<path d="M26.1 39.8175C25.9 40.0175 25.7727 40.3175 25.7727 40.6084C25.7727 40.9175 25.8818 41.1993 26.1 41.4084C26.3091 41.6266 26.5909 41.7357 26.9 41.7357C27.2 41.7357 27.4818 41.6266 27.6909 41.4084C27.8 41.2993 27.8818 41.1721 27.9363 41.0357C27.9909 40.8993 28.0273 40.7539 28.0273 40.6084C28.0273 40.3175 27.9 40.0266 27.6909 39.8175C27.2818 39.3903 26.5182 39.3903 26.1 39.8175Z" fill="#EB3300"/>
<path d="M31.3636 37.6271C31.1454 37.8362 31.0272 38.118 31.0272 38.4271C31.0272 38.718 31.1545 39.0089 31.3636 39.218C31.5636 39.4271 31.8454 39.5544 32.1545 39.5544C32.4545 39.5544 32.7363 39.4271 32.9545 39.218C33.1636 38.9998 33.2818 38.718 33.2818 38.4271C33.2818 38.1362 33.1727 37.8362 32.9545 37.6271C32.5363 37.2089 31.7727 37.2089 31.3636 37.6271Z" fill="#EB3300"/>
<path d="M35.1273 32.3722C35.0818 32.3177 35.0182 32.2722 34.9546 32.2267C34.9 32.1904 34.8273 32.154 34.7637 32.1267C34.7 32.0995 34.6182 32.0813 34.5546 32.054C34.1909 31.9904 33.8 32.1086 33.5364 32.3722C33.3182 32.5722 33.2091 32.8722 33.2091 33.1722C33.2091 33.4631 33.3182 33.7449 33.5364 33.9631C33.6364 34.0722 33.7637 34.154 33.9 34.2086C34.0364 34.2631 34.1818 34.2904 34.3364 34.2904C34.6273 34.2904 34.9091 34.1813 35.1273 33.9631C35.3364 33.7449 35.4546 33.4631 35.4546 33.1722C35.4546 32.8722 35.3455 32.5813 35.1273 32.3722Z" fill="#EB3300"/>
<path d="M32.1545 29.0358C32.309 29.0358 32.4454 28.9995 32.5909 28.954C32.7272 28.8995 32.8454 28.8086 32.9545 28.7086C33.1636 28.4904 33.2818 28.2086 33.2818 27.9086C33.2818 27.6177 33.1727 27.3176 32.9545 27.1086C32.5363 26.6904 31.7727 26.6904 31.3636 27.1086C31.2545 27.2176 31.1727 27.3449 31.1181 27.4813C31.0636 27.6176 31.0272 27.7631 31.0272 27.9086C31.0272 28.2086 31.1545 28.4904 31.3636 28.7086C31.5636 28.9267 31.8454 29.0358 32.1545 29.0358Z" fill="#EB3300"/>
</svg>
