<svg width="52" height="54" viewBox="0 0 52 54" fill="none" xmlns="http://www.w3.org/2000/svg">
<path fill-rule="evenodd" clip-rule="evenodd" d="M6.3125 1.6875C6.3125 0.910852 6.94208 0.28125 7.71875 0.28125H13.8125C14.5892 0.28125 15.2188 0.910852 15.2188 1.6875V3.32812H31.1562V1.6875C31.1562 0.910852 31.7858 0.28125 32.5625 0.28125H38.6562C39.4329 0.28125 40.0625 0.910852 40.0625 1.6875V3.32812H44.5156C45.2923 3.32812 45.9219 3.9577 45.9219 4.73438V29.1094C45.9219 29.6272 45.5023 30.0469 44.9844 30.0469C44.4664 30.0469 44.0469 29.6272 44.0469 29.1094V13.875H2.5625V41.2969H11C11.5178 41.2969 11.9375 41.7166 11.9375 42.2344C11.9375 42.7522 11.5178 43.1719 11 43.1719H2.09375C1.31708 43.1719 0.6875 42.5423 0.6875 41.7656V4.73438C0.6875 3.9577 1.31708 3.32812 2.09375 3.32812H6.3125V1.6875ZM38.1875 2.15625H33.0312V6.375H38.1875V2.15625ZM40.0625 5.20312H44.0469V12H2.5625V5.20312H6.3125V6.84375C6.3125 7.62042 6.94208 8.25 7.71875 8.25H13.8125C14.5892 8.25 15.2188 7.62042 15.2188 6.84375V5.20312H31.1562V6.84375C31.1562 7.62042 31.7858 8.25 32.5625 8.25H38.6562C39.4329 8.25 40.0625 7.62042 40.0625 6.84375V5.20312ZM13.3438 2.15625V6.375H8.1875V2.15625H13.3438Z" fill="white"/>
<path d="M15.7967 38.8359C16.1815 38.4895 16.7743 38.5207 17.1207 38.9056L18.5521 40.496H22.3164C22.8342 40.496 23.2539 40.9158 23.2539 41.4335C23.2539 41.9513 22.8342 42.371 22.3164 42.371H18.3433C17.9447 42.371 17.5648 42.2019 17.2981 41.9055L15.727 40.1599C15.3806 39.775 15.4118 39.1822 15.7967 38.8359Z" fill="white"/>
<path d="M45.141 38.8359C45.5258 39.1823 45.5572 39.775 45.2108 40.1599L43.6396 41.9055C43.3728 42.2019 42.9932 42.371 42.5943 42.371H38.6212C38.1034 42.371 37.6837 41.9513 37.6837 41.4335C37.6837 40.9158 38.1034 40.496 38.6212 40.496H42.3855L43.8167 38.9056C44.1632 38.5207 44.7561 38.4895 45.141 38.8359Z" fill="white"/>
<path d="M21.7592 44.855C21.7592 44.337 22.1789 43.9175 22.6967 43.9175H38.241C38.7588 43.9175 39.1785 44.337 39.1785 44.855C39.1785 45.3725 38.7588 45.7925 38.241 45.7925H22.6967C22.1789 45.7925 21.7592 45.3725 21.7592 44.855Z" fill="white"/>
<path fill-rule="evenodd" clip-rule="evenodd" d="M20.6537 27.1497C20.8628 27.0421 21.0808 27 21.2799 27H30.2999C30.3576 27 30.414 27.0052 30.4688 27.0152C30.5236 27.0052 30.58 27 30.6377 27H39.6577C39.8569 27 40.0748 27.0421 40.2839 27.1497C41.3569 27.7018 43.1253 29.2553 43.8683 31.9558C44.12 31.7155 44.4608 31.562 44.8456 31.562H48.4625C50.0539 31.562 51.3439 32.8521 51.3439 34.4434C51.3439 35.8656 50.3061 37.075 48.9008 37.2913L47.1125 37.5663L47.4294 38.0098C47.997 38.8048 48.3027 39.7574 48.3027 40.7343V44.3363C48.3027 45.4561 47.9098 46.4841 47.255 47.2903C47.3173 47.4155 47.352 47.5566 47.352 47.7061V50.2031C47.352 51.7566 46.093 53.0156 44.5395 53.0156H40.1419C38.6793 53.0156 37.4936 51.8302 37.4936 50.3672C37.4936 49.8497 37.9133 49.4297 38.4311 49.4297C38.9488 49.4297 39.3686 49.8497 39.3686 50.3672C39.3686 50.7942 39.7148 51.1406 40.1419 51.1406H44.5395C45.0575 51.1406 45.477 50.7211 45.477 50.2031V48.6394C44.9066 48.8869 44.2766 49.0238 43.6152 49.0238H17.3226C16.6609 49.0238 16.0313 48.8869 15.4605 48.6394V50.2031C15.4605 50.7211 15.8803 51.1406 16.398 51.1406H20.7957C21.2228 51.1406 21.569 50.7942 21.569 50.3672C21.569 49.8497 21.9888 49.4297 22.5065 49.4297C23.0243 49.4297 23.444 49.8497 23.444 50.3672C23.444 51.8302 22.2583 53.0156 20.7957 53.0156H16.398C14.8447 53.0156 13.5855 51.7566 13.5855 50.2031V47.7061C13.5855 47.5566 13.6205 47.4155 13.6827 47.2903C13.0277 46.4841 12.6351 45.4561 12.6351 44.3363V40.7343C12.6351 39.7574 12.9403 38.8048 13.5082 38.0098L13.825 37.5663L12.037 37.2913C10.6314 37.075 9.59375 35.8656 9.59375 34.4434C9.59375 32.8521 10.8838 31.562 12.4752 31.562H16.0922C16.4768 31.562 16.8176 31.7155 17.0692 31.9558C17.8123 29.2553 19.5808 27.7018 20.6537 27.1497ZM18.3988 33.9408C19.2056 34.7511 20.1557 35.095 20.67 35.1736H40.2676C40.7819 35.095 41.732 34.7511 42.5388 33.9408C42.3902 33.8003 42.2862 33.6105 42.2551 33.3924C41.879 30.76 40.3214 29.3325 39.532 28.875H30.6377C30.58 28.875 30.5236 28.8698 30.4688 28.8598C30.414 28.8698 30.3576 28.875 30.2999 28.875H21.4056C20.6162 29.3325 19.0586 30.76 18.6825 33.3924C18.6514 33.6105 18.5474 33.8003 18.3988 33.9408ZM20.5473 37.0486L20.4894 37.0414C19.3152 36.8946 16.9774 35.9695 15.7952 33.437H12.4752C11.9193 33.437 11.4688 33.8876 11.4688 34.4434C11.4688 34.9401 11.8311 35.3625 12.3221 35.4381L14.863 35.829C15.8987 35.9883 16.4025 37.1836 15.7935 38.0362L15.034 39.0996C14.6932 39.5766 14.5101 40.1482 14.5101 40.7343V44.3363C14.5101 45.8897 15.7693 47.1488 17.3226 47.1488H43.6152C45.1681 47.1488 46.4277 45.8897 46.4277 44.3363V40.7343C46.4277 40.1482 46.2444 39.5766 45.9036 39.0996L45.1442 38.0362C44.5353 37.1836 45.0387 35.9883 46.0747 35.829L48.6153 35.4381C49.1066 35.3625 49.4689 34.9401 49.4689 34.4434C49.4689 33.8876 49.0184 33.437 48.4625 33.437H45.1423C43.9602 35.9695 41.6224 36.8946 40.4482 37.0414L40.3903 37.0486H20.5473Z" fill="white"/>
<path fill-rule="evenodd" clip-rule="evenodd" d="M31.1562 18.5625C31.1562 17.7858 31.7858 17.1562 32.5625 17.1562H38.6562C39.4329 17.1562 40.0625 17.7858 40.0625 18.5625V23.7188C40.0625 24.4954 39.4329 25.125 38.6562 25.125H32.5625C31.7858 25.125 31.1562 24.4954 31.1562 23.7188V18.5625ZM33.0312 19.0312V23.25H38.1875V19.0312H33.0312Z" fill="white"/>
<path fill-rule="evenodd" clip-rule="evenodd" d="M7.71875 17.1562C6.94208 17.1562 6.3125 17.7858 6.3125 18.5625V23.7188C6.3125 24.4954 6.94208 25.125 7.71875 25.125H13.8125C14.5892 25.125 15.2188 24.4954 15.2188 23.7188V18.5625C15.2188 17.7858 14.5892 17.1562 13.8125 17.1562H7.71875ZM8.1875 23.25V19.0312H13.3438V23.25H8.1875Z" fill="white"/>
<path d="M6.3125 28.875C6.3125 28.0983 6.94208 27.4688 7.71875 27.4688H14.2812C14.799 27.4688 15.2188 27.8885 15.2188 28.4062C15.2188 28.924 14.799 29.3438 14.2812 29.3438H8.1875V34.5C8.1875 35.0178 7.76778 35.4375 7.25 35.4375C6.73222 35.4375 6.3125 35.0178 6.3125 34.5V28.875Z" fill="white"/>
<path fill-rule="evenodd" clip-rule="evenodd" d="M20.375 17.1562C19.5983 17.1562 18.9688 17.7858 18.9688 18.5625V23.7188C18.9688 24.4954 19.5983 25.125 20.375 25.125H26.4688C27.2454 25.125 27.875 24.4954 27.875 23.7188V18.5625C27.875 17.7858 27.2454 17.1562 26.4688 17.1562H20.375ZM20.8438 23.25V19.0312H26V23.25H20.8438Z" fill="white"/>
</svg>
