<svg width="60" height="60" viewBox="0 0 60 60" fill="none" xmlns="http://www.w3.org/2000/svg">
<path fill-rule="evenodd" clip-rule="evenodd" d="M10.3125 4.6875C10.3125 3.91085 10.9421 3.28125 11.7188 3.28125H17.8125C18.5892 3.28125 19.2188 3.91085 19.2188 4.6875V6.32812H35.1562V4.6875C35.1562 3.91085 35.7858 3.28125 36.5625 3.28125H42.6562C43.4329 3.28125 44.0625 3.91085 44.0625 4.6875V6.32812H48.5156C49.2923 6.32812 49.9219 6.9577 49.9219 7.73438V32.1094C49.9219 32.6272 49.5023 33.0469 48.9844 33.0469C48.4664 33.0469 48.0469 32.6272 48.0469 32.1094V16.875H6.5625V44.2969H15C15.5178 44.2969 15.9375 44.7166 15.9375 45.2344C15.9375 45.7522 15.5178 46.1719 15 46.1719H6.09375C5.31708 46.1719 4.6875 45.5423 4.6875 44.7656V7.73438C4.6875 6.9577 5.31708 6.32812 6.09375 6.32812H10.3125V4.6875ZM42.1875 5.15625H37.0312V9.375H42.1875V5.15625ZM44.0625 8.20312H48.0469V15H6.5625V8.20312H10.3125V9.84375C10.3125 10.6204 10.9421 11.25 11.7188 11.25H17.8125C18.5892 11.25 19.2188 10.6204 19.2188 9.84375V8.20312H35.1562V9.84375C35.1562 10.6204 35.7858 11.25 36.5625 11.25H42.6562C43.4329 11.25 44.0625 10.6204 44.0625 9.84375V8.20312ZM17.3438 5.15625V9.375H12.1875V5.15625H17.3438Z" fill="#EB3300"/>
<path d="M19.7967 41.8359C20.1816 41.4895 20.7743 41.5207 21.1207 41.9056L22.5521 43.496H26.3164C26.8342 43.496 27.2539 43.9158 27.2539 44.4335C27.2539 44.9513 26.8342 45.371 26.3164 45.371H22.3433C21.9447 45.371 21.5648 45.2019 21.2981 44.9055L19.727 43.1599C19.3807 42.775 19.4118 42.1822 19.7967 41.8359Z" fill="#EB3300"/>
<path d="M49.1409 41.8359C49.5258 42.1823 49.5572 42.775 49.2108 43.1599L47.6395 44.9055C47.3728 45.2019 46.9931 45.371 46.5943 45.371H42.6212C42.1034 45.371 41.6837 44.9513 41.6837 44.4335C41.6837 43.9158 42.1034 43.496 42.6212 43.496H46.3855L47.8167 41.9056C48.1631 41.5207 48.7561 41.4895 49.1409 41.8359Z" fill="#EB3300"/>
<path d="M25.7591 47.855C25.7591 47.337 26.1788 46.9175 26.6966 46.9175H42.241C42.7588 46.9175 43.1785 47.337 43.1785 47.855C43.1785 48.3725 42.7588 48.7925 42.241 48.7925H26.6966C26.1788 48.7925 25.7591 48.3725 25.7591 47.855Z" fill="#EB3300"/>
<path fill-rule="evenodd" clip-rule="evenodd" d="M24.6537 30.1497C24.8628 30.0421 25.0808 30 25.2799 30H34.2999C34.3576 30 34.414 30.0052 34.4688 30.0152C34.5236 30.0052 34.58 30 34.6377 30H43.6577C43.8569 30 44.0748 30.0421 44.2839 30.1497C45.3569 30.7018 47.1253 32.2553 47.8683 34.9558C48.12 34.7155 48.4608 34.562 48.8456 34.562H52.4625C54.0539 34.562 55.3439 35.8521 55.3439 37.4434C55.3439 38.8656 54.3061 40.075 52.9008 40.2913L51.1125 40.5663L51.4294 41.0098C51.997 41.8048 52.3027 42.7574 52.3027 43.7343V47.3363C52.3027 48.4561 51.9098 49.4841 51.255 50.2903C51.3173 50.4155 51.352 50.5566 51.352 50.7061V53.2031C51.352 54.7566 50.093 56.0156 48.5395 56.0156H44.1419C42.6793 56.0156 41.4936 54.8302 41.4936 53.3672C41.4936 52.8497 41.9133 52.4297 42.4311 52.4297C42.9488 52.4297 43.3686 52.8497 43.3686 53.3672C43.3686 53.7942 43.7148 54.1406 44.1419 54.1406H48.5395C49.0575 54.1406 49.477 53.7211 49.477 53.2031V51.6394C48.9066 51.8869 48.2766 52.0238 47.6152 52.0238H21.3226C20.6609 52.0238 20.0313 51.8869 19.4605 51.6394V53.2031C19.4605 53.7211 19.8803 54.1406 20.398 54.1406H24.7957C25.2228 54.1406 25.569 53.7942 25.569 53.3672C25.569 52.8497 25.9888 52.4297 26.5065 52.4297C27.0243 52.4297 27.444 52.8497 27.444 53.3672C27.444 54.8302 26.2583 56.0156 24.7957 56.0156H20.398C18.8447 56.0156 17.5855 54.7566 17.5855 53.2031V50.7061C17.5855 50.5566 17.6205 50.4155 17.6827 50.2903C17.0277 49.4841 16.6351 48.4561 16.6351 47.3363V43.7343C16.6351 42.7574 16.9403 41.8048 17.5082 41.0098L17.825 40.5663L16.037 40.2913C14.6314 40.075 13.5938 38.8656 13.5938 37.4434C13.5938 35.8521 14.8838 34.562 16.4752 34.562H20.0922C20.4768 34.562 20.8176 34.7155 21.0692 34.9558C21.8123 32.2553 23.5808 30.7018 24.6537 30.1497ZM22.3988 36.9408C23.2056 37.7511 24.1557 38.095 24.67 38.1736H44.2676C44.7819 38.095 45.732 37.7511 46.5388 36.9408C46.3902 36.8003 46.2862 36.6105 46.2551 36.3924C45.879 33.76 44.3214 32.3325 43.532 31.875H34.6377C34.58 31.875 34.5236 31.8698 34.4688 31.8598C34.414 31.8698 34.3576 31.875 34.2999 31.875H25.4056C24.6162 32.3325 23.0586 33.76 22.6825 36.3924C22.6514 36.6105 22.5474 36.8003 22.3988 36.9408ZM24.5473 40.0486L24.4894 40.0414C23.3152 39.8946 20.9774 38.9695 19.7952 36.437H16.4752C15.9193 36.437 15.4688 36.8876 15.4688 37.4434C15.4688 37.9401 15.8311 38.3625 16.3221 38.4381L18.863 38.829C19.8987 38.9883 20.4025 40.1836 19.7935 41.0362L19.034 42.0996C18.6932 42.5766 18.5101 43.1482 18.5101 43.7343V47.3363C18.5101 48.8897 19.7693 50.1488 21.3226 50.1488H47.6152C49.1681 50.1488 50.4277 48.8897 50.4277 47.3363V43.7343C50.4277 43.1482 50.2444 42.5766 49.9036 42.0996L49.1442 41.0362C48.5353 40.1836 49.0387 38.9883 50.0747 38.829L52.6153 38.4381C53.1066 38.3625 53.4689 37.9401 53.4689 37.4434C53.4689 36.8876 53.0184 36.437 52.4625 36.437H49.1423C47.9602 38.9695 45.6224 39.8946 44.4482 40.0414L44.3903 40.0486H24.5473Z" fill="#EB3300"/>
<path fill-rule="evenodd" clip-rule="evenodd" d="M35.1562 21.5625C35.1562 20.7858 35.7858 20.1562 36.5625 20.1562H42.6562C43.4329 20.1562 44.0625 20.7858 44.0625 21.5625V26.7188C44.0625 27.4954 43.4329 28.125 42.6562 28.125H36.5625C35.7858 28.125 35.1562 27.4954 35.1562 26.7188V21.5625ZM37.0312 22.0312V26.25H42.1875V22.0312H37.0312Z" fill="#EB3300"/>
<path fill-rule="evenodd" clip-rule="evenodd" d="M11.7188 20.1562C10.9421 20.1562 10.3125 20.7858 10.3125 21.5625V26.7188C10.3125 27.4954 10.9421 28.125 11.7188 28.125H17.8125C18.5892 28.125 19.2188 27.4954 19.2188 26.7188V21.5625C19.2188 20.7858 18.5892 20.1562 17.8125 20.1562H11.7188ZM12.1875 26.25V22.0312H17.3438V26.25H12.1875Z" fill="#EB3300"/>
<path d="M10.3125 31.875C10.3125 31.0983 10.9421 30.4688 11.7188 30.4688H18.2812C18.799 30.4688 19.2188 30.8885 19.2188 31.4062C19.2188 31.924 18.799 32.3438 18.2812 32.3438H12.1875V37.5C12.1875 38.0178 11.7678 38.4375 11.25 38.4375C10.7322 38.4375 10.3125 38.0178 10.3125 37.5V31.875Z" fill="#EB3300"/>
<path fill-rule="evenodd" clip-rule="evenodd" d="M24.375 20.1562C23.5983 20.1562 22.9688 20.7858 22.9688 21.5625V26.7188C22.9688 27.4954 23.5983 28.125 24.375 28.125H30.4688C31.2454 28.125 31.875 27.4954 31.875 26.7188V21.5625C31.875 20.7858 31.2454 20.1562 30.4688 20.1562H24.375ZM24.8438 26.25V22.0312H30V26.25H24.8438Z" fill="#EB3300"/>
</svg>
