<svg width="30" height="30" viewBox="0 0 30 30" fill="none" xmlns="http://www.w3.org/2000/svg">
<g clip-path="url(#clip0_623_12633)">
<path d="M23.7095 18.584C23.0953 17.9445 22.3545 17.6026 21.5694 17.6026C20.7906 17.6026 20.0434 17.9382 19.4039 18.5777L17.4031 20.5722C17.2385 20.4835 17.0739 20.4012 16.9156 20.3189C16.6876 20.2049 16.4723 20.0973 16.2887 19.9833C14.4145 18.793 12.7113 17.2417 11.0777 15.2345C10.2863 14.2341 9.75441 13.392 9.36817 12.5372C9.88737 12.0624 10.3686 11.5685 10.8371 11.0936C11.0144 10.9163 11.1917 10.7327 11.369 10.5554C12.6987 9.22576 12.6987 7.50353 11.369 6.17388L9.64044 4.44532C9.44415 4.24904 9.24154 4.04642 9.05159 3.84381C8.67169 3.45124 8.27279 3.04601 7.86123 2.66611C7.24705 2.05827 6.51258 1.73535 5.74011 1.73535C4.96764 1.73535 4.2205 2.05827 3.58733 2.66611C3.581 2.67244 3.581 2.67244 3.57466 2.67878L1.42188 4.85055C0.611426 5.66101 0.149212 6.64876 0.0479046 7.79479C-0.104056 9.64365 0.44047 11.3659 0.858363 12.4929C1.8841 15.2599 3.41637 17.8242 5.70212 20.5722C8.4754 23.8837 11.8122 26.4986 15.6239 28.3412C17.0802 29.0313 19.024 29.8481 21.1958 29.9874C21.3288 29.9938 21.4681 30.0001 21.5947 30.0001C23.0573 30.0001 24.2857 29.4746 25.2481 28.4298C25.2544 28.4172 25.2671 28.4108 25.2734 28.3982C25.6027 27.9993 25.9826 27.6384 26.3815 27.2521C26.6537 26.9925 26.9323 26.7203 27.2046 26.4353C27.8314 25.7832 28.1607 25.0234 28.1607 24.2446C28.1607 23.4594 27.8251 22.706 27.1856 22.0728L23.7095 18.584ZM25.9762 25.2513C25.9699 25.2513 25.9699 25.2576 25.9762 25.2513C25.7293 25.5172 25.476 25.7578 25.2038 26.0238C24.7922 26.4163 24.3743 26.8279 23.9818 27.2901C23.3422 27.9739 22.5888 28.2969 21.601 28.2969C21.5061 28.2969 21.4047 28.2969 21.3098 28.2905C19.4293 28.1702 17.6817 27.4357 16.371 26.8089C12.7873 25.074 9.64044 22.611 7.02544 19.4895C4.86633 16.8871 3.4227 14.4811 2.46662 11.8977C1.87777 10.3211 1.66249 9.09279 1.75747 7.93409C1.82078 7.19328 2.10571 6.57911 2.63124 6.05358L4.79035 3.89446C5.10061 3.6032 5.42985 3.44491 5.75277 3.44491C6.15167 3.44491 6.47459 3.68552 6.6772 3.88813C6.68353 3.89446 6.68986 3.90079 6.6962 3.90713C7.08243 4.26803 7.44967 4.6416 7.8359 5.0405C8.03218 5.24312 8.2348 5.44573 8.43741 5.65468L10.166 7.38323C10.8371 8.05439 10.8371 8.6749 10.166 9.34606C9.98235 9.52968 9.80506 9.7133 9.62144 9.89059C9.08958 10.4351 8.58304 10.9417 8.03219 11.4355C8.01952 11.4482 8.00686 11.4545 8.00053 11.4672C7.456 12.0117 7.55731 12.5436 7.67128 12.9045C7.67761 12.9235 7.68394 12.9425 7.69027 12.9615C8.13982 14.0505 8.77299 15.0763 9.73541 16.2983L9.74175 16.3046C11.4893 18.4574 13.3318 20.1353 15.3643 21.4206C15.6239 21.5852 15.8898 21.7182 16.1431 21.8448C16.371 21.9588 16.5863 22.0665 16.7699 22.1804C16.7953 22.1931 16.8206 22.2121 16.8459 22.2248C17.0612 22.3324 17.2638 22.383 17.4728 22.383C17.9983 22.383 18.3275 22.0538 18.4352 21.9462L20.6006 19.7807C20.8159 19.5654 21.1578 19.3058 21.5567 19.3058C21.9493 19.3058 22.2722 19.5528 22.4685 19.768C22.4748 19.7744 22.4748 19.7744 22.4811 19.7807L25.9699 23.2695C26.6221 23.9153 26.6221 24.5801 25.9762 25.2513Z" fill="#EB3300"/>
<path d="M16.2127 7.13611C17.8717 7.4147 19.3786 8.19983 20.5816 9.40286C21.7846 10.6059 22.5634 12.1128 22.8484 13.7717C22.918 14.1896 23.2789 14.4809 23.6905 14.4809C23.7411 14.4809 23.7855 14.4746 23.8361 14.4682C24.3047 14.3922 24.6149 13.949 24.5389 13.4805C24.197 11.4733 23.2473 9.64346 21.7973 8.1935C20.3474 6.74354 18.5175 5.79379 16.5103 5.45187C16.0418 5.37589 15.6049 5.68615 15.5226 6.14836C15.4403 6.61058 15.7442 7.06013 16.2127 7.13611Z" fill="#EB3300"/>
<path d="M29.9652 13.2336C29.4016 9.92848 27.844 6.92092 25.4507 4.52754C23.0573 2.13415 20.0497 0.576553 16.7446 0.0130316C16.2823 -0.0692806 15.8455 0.247305 15.7631 0.709519C15.6872 1.17807 15.9974 1.61495 16.466 1.69727C19.4165 2.19747 22.1075 3.59678 24.2476 5.73056C26.3877 7.87068 27.7807 10.5617 28.2809 13.5122C28.3506 13.9301 28.7115 14.2214 29.123 14.2214C29.1737 14.2214 29.218 14.215 29.2687 14.2087C29.7309 14.1391 30.0475 13.6958 29.9652 13.2336Z" fill="#EB3300"/>
</g>
<defs>
<clipPath id="clip0_623_12633">
<rect width="30" height="30" fill="white"/>
</clipPath>
</defs>
</svg>
