<svg width="60" height="60" viewBox="0 0 60 60" fill="none" xmlns="http://www.w3.org/2000/svg">
<g clip-path="url(#clip0_1037_38463)">
<path d="M43.573 10.181L34 3.479V0H32V3H28V0H26V3.479L16.427 10.179C15.9736 10.4944 15.8616 11.1175 16.1768 11.5709C16.3642 11.8403 16.6717 12.0006 17 12H43C43.5522 11.9996 43.9996 11.5515 43.9992 10.9993C43.999 10.6734 43.8398 10.368 43.573 10.181ZM20.172 10L27.315 5H32.685L39.828 10H20.172Z" fill="#EB3300"/>
<path d="M12.9998 39H10.9998C9.34288 39 7.99976 40.3431 7.99976 42V43C7.99976 44.6569 9.34288 46 10.9998 46H12.9998C14.6566 46 15.9998 44.6569 15.9998 43V42C15.9998 40.3431 14.6566 39 12.9998 39ZM13.9998 43C13.9998 43.5522 13.552 44 12.9998 44H10.9998C10.4475 44 9.99976 43.5522 9.99976 43V42C9.99976 41.4478 10.4475 41 10.9998 41H12.9998C13.552 41 13.9998 41.4478 13.9998 42V43Z" fill="#EB3300"/>
<path d="M48.9998 39H46.9998C45.3429 39 43.9998 40.3431 43.9998 42V43C43.9998 44.6569 45.3429 46 46.9998 46H48.9998C50.6566 46 51.9998 44.6569 51.9998 43V42C51.9998 40.3431 50.6566 39 48.9998 39ZM49.9998 43C49.9998 43.5522 49.552 44 48.9998 44H46.9998C46.4475 44 45.9998 43.5522 45.9998 43V42C45.9998 41.4478 46.4475 41 46.9998 41H48.9998C49.552 41 49.9998 41.4478 49.9998 42V43Z" fill="#EB3300"/>
<path d="M38.9998 39H20.9998C19.3429 39 17.9998 40.3431 17.9998 42V43C17.9998 44.6569 19.3429 46 20.9998 46H38.9998C40.6566 46 41.9998 44.6569 41.9998 43V42C41.9998 40.3431 40.6566 39 38.9998 39ZM39.9998 43C39.9998 43.5522 39.552 44 38.9998 44H20.9998C20.4475 44 19.9998 43.5522 19.9998 43V42C19.9998 41.4478 20.4475 41 20.9998 41H38.9998C39.552 41 39.9998 41.4478 39.9998 42V43Z" fill="#EB3300"/>
<path d="M52.8558 36.065L50.6388 35.178L44.0068 26.059C43.064 24.7673 41.5619 24.0025 39.9628 24H20.0368C18.4377 24.0025 16.9355 24.7673 15.9928 26.059L9.36078 35.178L7.14378 36.065C5.24066 36.8189 3.99328 38.661 3.99978 40.708V58C3.99978 59.1046 4.89516 60 5.99978 60H11.9998C13.1044 60 13.9998 59.1046 13.9998 58V54H45.9998V58C45.9998 59.1046 46.8952 60 47.9998 60H53.9998C55.1044 60 55.9998 59.1046 55.9998 58V40.708C56.0063 38.661 54.7589 36.8189 52.8558 36.065ZM17.6098 27.236C18.1754 26.4606 19.077 26.0015 20.0368 26H39.9628C40.9225 26.0015 41.8242 26.4606 42.3898 27.236L48.0358 35H11.9638L17.6098 27.236ZM11.9998 58H5.99978V53.829C6.08378 53.859 6.17478 53.875 6.26278 53.897C6.32078 53.912 6.37678 53.932 6.43678 53.943C6.62216 53.9798 6.81078 53.9989 6.99978 54H11.9998V58ZM53.9998 58H47.9998V54H52.9998C53.1888 53.9989 53.3774 53.9798 53.5628 53.943C53.6228 53.932 53.6788 53.912 53.7378 53.897C53.8248 53.875 53.9158 53.859 53.9998 53.829V58ZM53.9998 51C53.9998 51.5522 53.552 52 52.9998 52H12.9998H6.99978C6.44753 52 5.99978 51.5522 5.99978 51V50H53.9998V51ZM53.9998 48H5.99978V40.708C5.99553 39.48 6.74391 38.3749 7.88578 37.923L10.1918 37H49.8078L52.1138 37.923C53.2557 38.3749 54.004 39.48 53.9998 40.708V48Z" fill="#EB3300"/>
<path d="M30.9998 14H28.9998V17H30.9998V14Z" fill="#EB3300"/>
<path d="M30.9998 19H28.9998V22H30.9998V19Z" fill="#EB3300"/>
<path d="M19.2273 13.3657L17.3262 15.6865L18.8734 16.9539L20.7745 14.6331L19.2273 13.3657Z" fill="#EB3300"/>
<path d="M16.0598 17.2352L14.1584 19.5557L15.7054 20.8233L17.6068 18.5028L16.0598 17.2352Z" fill="#EB3300"/>
<path d="M12.8911 21.1024L10.9897 23.4229L12.5367 24.6905L14.4381 22.37L12.8911 21.1024Z" fill="#EB3300"/>
<path d="M9.72098 24.9744L7.81958 27.2949L9.36658 28.5625L11.268 26.242L9.72098 24.9744Z" fill="#EB3300"/>
<path d="M24.0404 13.7238L23.1995 16.6035L25.1193 17.1641L25.9602 14.2844L24.0404 13.7238Z" fill="#EB3300"/>
<path d="M22.6387 18.5171L21.7966 21.3965L23.7162 21.9579L24.5583 19.0785L22.6387 18.5171Z" fill="#EB3300"/>
<path d="M13.5527 13.0598L11.3474 15.0938L12.7027 16.5632L14.908 14.5292L13.5527 13.0598Z" fill="#EB3300"/>
<path d="M9.8762 16.4523L7.6709 18.4863L9.02622 19.9558L11.2315 17.9218L9.8762 16.4523Z" fill="#EB3300"/>
<path d="M6.2031 19.84L3.9978 21.874L5.35313 23.3435L7.55842 21.3095L6.2031 19.84Z" fill="#EB3300"/>
<path d="M2.52903 23.2306L0.32373 25.2646L1.67905 26.7341L3.88435 24.7001L2.52903 23.2306Z" fill="#EB3300"/>
<path d="M40.7749 13.5754L39.228 14.8418L41.1285 17.1632L42.6754 15.8968L40.7749 13.5754Z" fill="#EB3300"/>
<path d="M43.9378 17.4377L42.3906 18.7051L44.2917 21.0259L45.8389 19.7585L43.9378 17.4377Z" fill="#EB3300"/>
<path d="M47.1088 21.3078L45.5618 22.5752L47.4629 24.8957L49.0099 23.6283L47.1088 21.3078Z" fill="#EB3300"/>
<path d="M50.2701 25.1808L48.7231 26.4482L50.6242 28.7687L52.1712 27.5013L50.2701 25.1808Z" fill="#EB3300"/>
<path d="M35.9591 13.941L34.0391 14.501L34.8791 17.381L36.7991 16.821L35.9591 13.941Z" fill="#EB3300"/>
<path d="M37.3593 18.7259L35.4397 19.2871L36.2815 22.1665L38.2011 21.6053L37.3593 18.7259Z" fill="#EB3300"/>
<path d="M46.4449 13.2661L45.0896 14.7354L47.2946 16.7694L48.6499 15.3001L46.4449 13.2661Z" fill="#EB3300"/>
<path d="M50.1219 16.6579L48.7664 18.127L50.9711 20.1613L52.3266 18.6922L50.1219 16.6579Z" fill="#EB3300"/>
<path d="M53.793 20.0495L52.4375 21.5186L54.6422 23.5529L55.9977 22.0838L53.793 20.0495Z" fill="#EB3300"/>
<path d="M57.4693 23.437L56.114 24.9062L58.319 26.9402L59.6743 25.471L57.4693 23.437Z" fill="#EB3300"/>
</g>
<defs>
<clipPath id="clip0_1037_38463">
<rect width="60" height="60" fill="white"/>
</clipPath>
</defs>
</svg>
