<svg width="40" height="36" viewBox="0 0 40 36" fill="none" xmlns="http://www.w3.org/2000/svg">
<path d="M27.6586 0.470459H4.52344C2.02891 0.470459 0 2.49937 0 4.9939V25.2673C0 26.2275 1.08586 26.7687 1.85234 26.2212L8.29531 21.6244C8.83594 21.2392 9.47188 21.0353 10.1359 21.0353H24.307C26.8016 21.0353 28.8305 19.0064 28.8305 16.5119V1.64233C28.8305 0.995459 28.3055 0.470459 27.6586 0.470459ZM21.9664 14.6666H8.42656C7.77969 14.6666 7.25469 14.1423 7.25469 13.4947C7.25469 12.8478 7.77969 12.3228 8.42656 12.3228H21.9664C22.6133 12.3228 23.1383 12.8478 23.1383 13.4947C23.1383 14.1423 22.6133 14.6666 21.9664 14.6666ZM21.9664 9.1978H8.42656C7.77969 9.1978 7.25469 8.67358 7.25469 8.02593C7.25469 7.37905 7.77969 6.85405 8.42656 6.85405H21.9664C22.6133 6.85405 23.1383 7.37905 23.1383 8.02593C23.1383 8.67358 22.6133 9.1978 21.9664 9.1978Z" fill="#EB3300"/>
<path d="M40 14.0838V34.3564C40 35.3101 38.9196 35.8618 38.1477 35.3104L31.7047 30.7143C31.1641 30.3291 30.5282 30.1252 29.8641 30.1252H15.693C13.1985 30.1252 11.1696 28.0955 11.1696 25.601V23.3791H24.3071C28.0938 23.3791 31.1742 20.2986 31.1742 16.5119V9.55957H35.4766C37.9711 9.55957 40 11.5893 40 14.0838Z" fill="#0A0A0A"/>
</svg>
