<svg width="60" height="60" viewBox="0 0 60 60" fill="none" xmlns="http://www.w3.org/2000/svg">
<path fill-rule="evenodd" clip-rule="evenodd" d="M21.4749 40.8693C21.3536 39.9421 21.0606 39.0335 20.5974 38.1922L18.6529 34.6663C18.4003 34.2082 17.8235 34.0414 17.3654 34.294C16.9082 34.5467 16.7414 35.1235 16.9932 35.5808L18.9384 39.1075C19.2854 39.7374 19.5052 40.4186 19.5962 41.1142C19.6636 41.6322 20.1393 41.9984 20.6572 41.9311C21.176 41.8638 21.5422 41.3881 21.4749 40.8693ZM19.0168 30.5223C20.232 32.7227 21.5727 35.1496 22.6345 37.0705C23.1018 37.9177 23.7216 38.6562 24.4509 39.2566C24.8551 39.5884 25.4521 39.5304 25.7848 39.1261C26.1166 38.7226 26.0585 38.1248 25.6542 37.7929C25.1085 37.3433 24.6437 36.79 24.2934 36.1542C24.2926 36.1534 24.2926 36.1534 24.2926 36.1525C23.2306 34.2334 21.89 31.8065 20.6757 29.6069C20.423 29.1488 19.8462 28.9828 19.3889 29.2355C18.9309 29.4882 18.7642 30.0651 19.0168 30.5223Z" fill="#EB3300"/>
<path fill-rule="evenodd" clip-rule="evenodd" d="M0.359121 20.4019C2.18986 23.7214 6.22187 31.0334 8.05261 34.3531C8.42224 35.0243 9.04382 35.5202 9.77893 35.7325C10.5149 35.9455 11.3048 35.8571 11.9751 35.4874C15.1171 33.7552 21.7992 30.0701 24.9402 28.337C25.6114 27.9673 26.1074 27.3467 26.3205 26.6107C26.5327 25.8747 26.4442 25.0848 26.0746 24.4144C24.2438 21.0949 20.2118 13.7829 18.3811 10.4633C18.0115 9.793 17.3899 9.29616 16.6548 9.08394C15.9188 8.87084 15.1289 8.95931 14.4586 9.32905C11.3166 11.0621 4.63455 14.7472 1.4927 16.4794C0.822279 16.8491 0.326229 17.4705 0.113226 18.2056C-0.0989854 18.9416 -0.0106137 19.7315 0.359121 20.4019ZM2.01807 19.4873C1.89086 19.2566 1.86055 18.9845 1.93386 18.732C2.00707 18.4794 2.17718 18.2655 2.40792 18.1383L15.373 10.9888C15.6037 10.8616 15.8749 10.8313 16.1283 10.9038C16.3809 10.9771 16.5948 11.148 16.7219 11.3787C18.5527 14.6983 22.5847 22.0104 24.4154 25.3299C24.5425 25.5597 24.5729 25.8318 24.4996 26.0844C24.4263 26.3379 24.2563 26.5509 24.0255 26.678L11.0604 33.8283C10.8297 33.9555 10.5576 33.9858 10.305 33.9125C10.0524 33.8392 9.83847 33.6683 9.71136 33.4385L2.01807 19.4873Z" fill="#EB3300"/>
<path fill-rule="evenodd" clip-rule="evenodd" d="M5.99192 22.8743L3.54734 24.2225C3.09012 24.4751 2.92339 25.052 3.17513 25.5092C3.42776 25.9673 4.00465 26.134 4.46266 25.8814L6.90645 24.534C7.36456 24.2814 7.53129 23.7046 7.27866 23.2465C7.02603 22.7884 6.44924 22.6217 5.99192 22.8743ZM19.9103 15.1985L8.80545 21.3223C8.34814 21.575 8.1814 22.1519 8.43413 22.6099C8.68587 23.0671 9.26277 23.2338 9.72087 22.9821L20.8258 16.8574C21.2839 16.6056 21.4506 16.0288 21.198 15.5706C20.9453 15.1126 20.3684 14.9459 19.9103 15.1985Z" fill="#EB3300"/>
<path fill-rule="evenodd" clip-rule="evenodd" d="M13.3823 22.945C11.906 23.7585 11.3687 25.6179 12.1831 27.0941C12.9966 28.5695 14.856 29.1075 16.3322 28.2933C17.8084 27.479 18.3458 25.6204 17.5314 24.1443C16.7179 22.668 14.8585 22.1307 13.3823 22.945ZM14.2977 24.604C14.8577 24.2949 15.5634 24.4987 15.8724 25.0587C16.1814 25.6195 15.9776 26.3252 15.4168 26.6342C14.8568 26.9433 14.1512 26.7387 13.8421 26.1787C13.5331 25.6187 13.7369 24.9131 14.2977 24.604Z" fill="#EB3300"/>
<path fill-rule="evenodd" clip-rule="evenodd" d="M17.7225 12.0296L1.78388 20.8196C1.32577 21.0713 1.15904 21.6482 1.41167 22.1063C1.6643 22.5644 2.24119 22.7311 2.6992 22.4785L18.6369 13.6886C19.095 13.4369 19.2618 12.86 19.0091 12.4019C18.7566 11.9438 18.1798 11.777 17.7225 12.0296Z" fill="#EB3300"/>
<path fill-rule="evenodd" clip-rule="evenodd" d="M39.8884 28.4584L35.5667 36.295C34.2034 38.7667 34.099 41.7393 35.2838 44.3001C35.2838 44.301 35.2847 44.3027 35.2847 44.3035C36.4324 46.759 36.4274 49.7098 35.0195 52.263C32.6726 56.5182 27.3125 58.0677 23.0565 55.7215C18.8014 53.3745 17.2519 48.0146 19.5988 43.7586C21.0068 41.2045 23.5011 39.6255 26.19 39.2778H26.1908C28.9866 38.914 31.4422 37.2408 32.8038 34.7717C34.0737 32.4752 35.678 29.5708 37.1315 26.9384C37.3841 26.4803 37.2174 25.9034 36.7592 25.6509C36.302 25.3983 35.7251 25.565 35.4725 26.0223C34.0199 28.6547 32.4157 31.5583 31.145 33.8556C31.145 33.8556 31.145 33.8564 31.1442 33.8564C30.0739 35.7974 28.1437 37.1129 25.9458 37.3992C22.6801 37.8219 19.6502 39.741 17.9391 42.8442C15.0877 48.0148 16.9706 54.5284 22.1421 57.3807C27.3135 60.2321 33.8271 58.3491 36.6785 53.1777C38.3897 50.0754 38.3964 46.4897 37.0036 43.5044C36.0714 41.4909 36.1547 39.1532 37.2259 37.2105L41.5476 29.3731C41.8002 28.9158 41.6335 28.339 41.1754 28.0864C40.7179 27.8335 40.141 28.0003 39.8884 28.4584Z" fill="#EB3300"/>
<path fill-rule="evenodd" clip-rule="evenodd" d="M59.6408 14.4945C60.0106 13.8242 60.0989 13.0335 59.8867 12.2983C59.6737 11.5623 59.1777 10.9416 58.5065 10.572C54.8021 8.52817 46.0307 3.69121 42.3254 1.64816C41.6551 1.27852 40.8652 1.19005 40.1292 1.40226C39.3932 1.61537 38.7725 2.11132 38.4029 2.78163C36.2513 6.68227 30.9798 16.2428 28.8281 20.1434C28.4584 20.8137 28.37 21.6036 28.583 22.3396C28.7953 23.0747 29.2921 23.6962 29.9624 24.0659C33.6677 26.1098 42.4391 30.9468 46.1434 32.9898C46.8147 33.3594 47.6045 33.4479 48.3397 33.2349C49.0757 33.0227 49.6971 32.5267 50.0668 31.8555L59.6408 14.4945ZM57.9819 13.5791L48.4079 30.9409C48.2807 31.1707 48.0668 31.3417 47.8142 31.4149C47.5608 31.4883 47.2895 31.4578 47.0589 31.3307C43.3536 29.2869 34.5822 24.4499 30.8777 22.407C30.647 22.2799 30.476 22.0659 30.4028 21.8133C30.3295 21.5607 30.3607 21.2888 30.4878 21.058L40.0617 3.69715C40.189 3.46642 40.402 3.29631 40.6555 3.2231C40.9081 3.14988 41.1802 3.1802 41.41 3.30731C45.1153 5.35026 53.8867 10.1873 57.5919 12.2312C57.8227 12.3584 57.9928 12.5714 58.0661 12.8249C58.1394 13.0772 58.1091 13.3493 57.9819 13.5791Z" fill="#EB3300"/>
<path fill-rule="evenodd" clip-rule="evenodd" d="M25.8016 43.7494C26.9764 43.3343 28.3161 43.4033 29.4926 44.0517C31.677 45.2568 32.4729 48.0088 31.2678 50.194C30.0628 52.3793 27.3108 53.1751 25.1255 51.9701C22.9401 50.7651 22.1444 48.013 23.3495 45.8278C23.6021 45.3697 23.4354 44.7928 22.9773 44.5402C22.5201 44.2884 21.9432 44.4551 21.6905 44.9125C19.9802 48.0131 21.1095 51.9196 24.2101 53.6292C27.3116 55.3394 31.2174 54.2102 32.9276 51.1096C34.6371 48.0089 33.5078 44.1024 30.4072 42.3929C28.739 41.4725 26.8375 41.3739 25.171 41.9625C24.6784 42.1369 24.4191 42.6783 24.5933 43.171C24.7667 43.6643 25.309 43.9228 25.8016 43.7494Z" fill="#EB3300"/>
<path fill-rule="evenodd" clip-rule="evenodd" d="M41.3099 13.0848L55.133 20.7076C55.5903 20.9602 56.1671 20.7935 56.4197 20.3354C56.6724 19.8773 56.5056 19.3004 56.0475 19.0486L42.2243 11.425C41.7671 11.1724 41.1902 11.3391 40.9375 11.7972C40.685 12.2553 40.8518 12.8322 41.3099 13.0848ZM35.5532 9.91009L38.4425 11.5034C38.9006 11.756 39.4766 11.5893 39.7293 11.1311C39.9819 10.673 39.8152 10.0962 39.3571 9.84441L36.4686 8.25114C36.0105 7.99851 35.4336 8.16525 35.1819 8.62336C34.9293 9.08057 35.096 9.65746 35.5532 9.91009Z" fill="#EB3300"/>
<path fill-rule="evenodd" clip-rule="evenodd" d="M42.0055 19.1219C42.3818 19.0242 42.7937 19.0637 43.1608 19.2667C43.9213 19.6861 44.1983 20.6435 43.7789 21.404C43.3596 22.1644 42.4013 22.4415 41.6408 22.0221C41.2071 21.7829 40.9309 21.3686 40.8517 20.9156C40.7607 20.4002 40.2689 20.0558 39.7536 20.1468C39.239 20.2377 38.8946 20.7295 38.9856 21.2449C39.1616 22.2419 39.7704 23.154 40.7263 23.681C42.4021 24.6057 44.5133 23.9952 45.4379 22.3185C46.3625 20.6427 45.7521 18.5315 44.0754 17.607C43.2669 17.1616 42.3575 17.0722 41.5288 17.2879C41.0227 17.4192 40.7187 17.9371 40.8501 18.4432C40.9824 18.9493 41.4994 19.2532 42.0055 19.1219Z" fill="#EB3300"/>
<path fill-rule="evenodd" clip-rule="evenodd" d="M37.6324 6.13995L57.2114 16.9374C57.6695 17.1901 58.2463 17.0233 58.499 16.5652C58.7517 16.108 58.5849 15.5311 58.1268 15.2785L38.5478 4.481C38.0897 4.22837 37.5128 4.39511 37.2601 4.85321C37.0084 5.31132 37.1743 5.88732 37.6324 6.13995Z" fill="#EB3300"/>
</svg>
