<svg width="16" height="16" viewBox="0 0 16 16" fill="none" xmlns="http://www.w3.org/2000/svg">
<g clip-path="url(#clip0_1037_36976)">
<path d="M8 16C12.4183 16 16 12.4183 16 8C16 3.58172 12.4183 0 8 0C3.58172 0 0 3.58172 0 8C0 12.4183 3.58172 16 8 16Z" fill="#F0F0F0"/>
<path d="M1.65379 3.12891C1.02538 3.9465 0.551541 4.88884 0.275635 5.91256H4.43745L1.65379 3.12891Z" fill="#0052B4"/>
<path d="M15.7245 5.91253C15.4486 4.88884 14.9747 3.9465 14.3463 3.12891L11.5627 5.91253H15.7245Z" fill="#0052B4"/>
<path d="M0.275635 10.0869C0.551572 11.1106 1.02542 12.0529 1.65379 12.8705L4.43735 10.0869H0.275635Z" fill="#0052B4"/>
<path d="M12.8705 1.65358C12.0529 1.02517 11.1106 0.551328 10.0869 0.275391V4.43717L12.8705 1.65358Z" fill="#0052B4"/>
<path d="M3.12939 14.3461C3.94699 14.9745 4.88933 15.4483 5.91302 15.7242V11.5625L3.12939 14.3461Z" fill="#0052B4"/>
<path d="M5.91299 0.275391C4.8893 0.551328 3.94696 1.02517 3.12939 1.65355L5.91299 4.43714V0.275391Z" fill="#0052B4"/>
<path d="M10.0869 15.7242C11.1106 15.4483 12.0529 14.9745 12.8705 14.3461L10.0869 11.5625V15.7242Z" fill="#0052B4"/>
<path d="M11.5627 10.0869L14.3463 12.8705C14.9747 12.053 15.4486 11.1106 15.7245 10.0869H11.5627Z" fill="#0052B4"/>
<path d="M15.9323 6.95653H9.04353H9.0435V0.0677188C8.70191 0.02325 8.35366 0 8 0C7.64628 0 7.29809 0.02325 6.95653 0.0677188V6.95647V6.9565H0.0677188C0.02325 7.29809 0 7.64634 0 8C0 8.35372 0.02325 8.70191 0.0677188 9.04347H6.95647H6.9565V15.9323C7.29809 15.9768 7.64628 16 8 16C8.35366 16 8.70191 15.9768 9.04347 15.9323V9.04353V9.0435H15.9323C15.9768 8.70191 16 8.35372 16 8C16 7.64634 15.9768 7.29809 15.9323 6.95653Z" fill="#D80027"/>
<path d="M10.0869 10.0869L13.6568 13.6568C13.821 13.4927 13.9776 13.3211 14.127 13.1432L11.0707 10.0869H10.0869V10.0869Z" fill="#D80027"/>
<path d="M5.91292 10.0869H5.91286L2.34302 13.6568C2.50714 13.8209 2.67874 13.9776 2.85661 14.127L5.91292 11.0706V10.0869Z" fill="#D80027"/>
<path d="M5.91293 5.91274V5.91268L2.34305 2.34277C2.17887 2.5069 2.02224 2.67849 1.8728 2.85637L4.92915 5.91271L5.91293 5.91274Z" fill="#D80027"/>
<path d="M10.0869 5.9132L13.6568 2.34327C13.4927 2.17908 13.3211 2.02245 13.1432 1.87305L10.0869 4.92939V5.9132Z" fill="#D80027"/>
</g>
<defs>
<clipPath id="clip0_1037_36976">
<rect width="16" height="16" fill="white"/>
</clipPath>
</defs>
</svg>
