<svg width="60" height="60" viewBox="0 0 60 60" fill="none" xmlns="http://www.w3.org/2000/svg">
<path d="M3.24562 32.4111H13.3575C15.1514 32.4111 16.613 33.8727 16.613 35.653V51.7574C16.613 56.3014 12.8925 60.0088 8.36156 60.0088H3.24562C1.46531 60.0088 0.00328064 58.5472 0.00328064 56.7538V35.653C0.00374939 33.8727 1.46531 32.4111 3.24562 32.4111ZM13.3575 34.2843H3.24562C2.50172 34.2843 1.87734 34.896 1.87734 35.653V56.7538C1.87734 57.5108 2.50172 58.1352 3.24562 58.1352H8.36156C11.8692 58.1352 14.7262 55.2655 14.7262 51.7579V35.653C14.7262 34.8955 14.115 34.2843 13.3575 34.2843Z" fill="#EB3300"/>
<path d="M18.6722 32.4643L23.3892 29.8468C23.8411 29.1428 24.067 28.3323 24.12 27.3357C24.1997 26.1531 24.0534 24.7046 23.7881 22.8845C23.5491 21.3165 24.1069 19.9876 25.0505 19.1509C25.5422 18.7257 26.1136 18.4201 26.7511 18.287C27.3755 18.1407 28.0402 18.1543 28.7175 18.3535C30.0994 18.7656 31.4414 19.9614 32.2252 22.2071C32.9161 24.1871 33.2616 26.087 33.3413 27.9873C33.4078 29.529 33.3014 31.0567 33.0623 32.6246H42.6563C44.37 32.6246 46.1109 33.3418 47.3334 34.5512C48.5559 35.7601 49.207 37.3684 48.9816 39.0953L47.1211 52.9009C46.6692 56.1957 44.2777 57.6709 41.1019 57.6709H36.1191H23.0705C20.7717 57.6709 18.6858 56.7414 17.1839 55.2264C15.6694 53.7249 14.7258 51.6385 14.7258 49.3398V37.4734C14.7258 36.1178 15.2306 35.1212 16.028 34.3107C16.7461 33.5804 17.6756 33.0221 18.6722 32.4643ZM43.1742 42.4829C43.6922 42.4829 44.1042 42.9081 44.1042 43.4265C44.1042 43.9449 43.6922 44.3565 43.1742 44.3565H33.1425V46.8146H42.6033C43.1213 46.8146 43.5469 47.2262 43.5469 47.7442C43.5469 48.2626 43.1217 48.6878 42.6033 48.6878H33.1425V51.1328H40.012C40.53 51.1328 40.942 51.5579 40.942 52.0764C40.942 52.5948 40.53 53.0064 40.012 53.0064H33.1556C33.1955 53.7507 33.5147 54.4281 34.0195 54.9198C34.5642 55.4645 35.3081 55.7968 36.1191 55.7968H41.1019C43.3205 55.7968 44.9419 54.9995 45.2606 52.6473L47.1342 38.8421C47.227 38.071 47.0414 37.3271 46.6556 36.6892C46.3631 38.1245 45.1809 39.4398 43.6927 39.4398H36.1191C35.3086 39.4398 34.5647 39.7717 34.0195 40.3032C33.4744 40.8484 33.1425 41.5923 33.1425 42.4028V42.4824L43.1742 42.4829ZM32.2922 55.7968C31.6547 54.9728 31.2689 53.9499 31.2689 52.8339V42.4032C31.2689 41.0743 31.8136 39.8654 32.6906 38.9884C33.5677 38.0982 34.7902 37.5531 36.1186 37.5531H43.6922C44.4234 37.5531 45.008 36.4239 44.8083 35.7324C44.7286 35.4137 44.5031 35.0682 44.1042 34.7359C43.6256 34.5765 43.1475 34.4968 42.6558 34.4968H32.6508C31.4813 38.2037 29.5678 42.7614 26.1131 44.6481C25.6617 44.8876 25.0898 44.7278 24.8377 44.2759C24.5986 43.8245 24.758 43.2526 25.223 43.0004C29.5809 40.622 31.6673 32.8487 31.4677 28.0656C31.4011 26.3382 31.0828 24.6109 30.4584 22.8306C29.9002 21.2228 29.0363 20.3987 28.1859 20.1465C27.8269 20.0401 27.4819 20.027 27.1627 20.1067C26.8303 20.1732 26.5378 20.3321 26.2988 20.545C25.7939 20.9968 25.5014 21.7145 25.6345 22.6046C25.927 24.5443 26.0864 26.1123 25.9936 27.4543C25.927 28.4242 25.4222 30.8425 24.4922 31.3604L19.5891 34.0979C18.712 34.5896 17.9147 35.0546 17.37 35.6124C16.905 36.091 16.6125 36.6756 16.6125 37.4729V49.3384C16.6125 51.1187 17.3302 52.7265 18.4992 53.896C19.6683 55.0782 21.2897 55.7964 23.07 55.7964L32.2922 55.7968Z" fill="#EB3300"/>
<path d="M51.4261 7.05858L53.7642 12.0147L59.1853 12.7056C59.6902 12.7722 60.0623 13.2372 59.9958 13.7551C59.9691 13.9811 59.8631 14.1672 59.7033 14.313L55.7302 18.0601L56.7398 23.4414C56.8331 23.9462 56.5008 24.438 55.9959 24.5308C55.7564 24.5842 55.5309 24.5308 55.3317 24.4112L50.5748 21.8069L45.7781 24.438C45.3263 24.677 44.7548 24.5176 44.5027 24.0662C44.3963 23.867 44.3695 23.6542 44.4098 23.4414L45.4195 18.0601L41.4464 14.313C40.8483 13.7551 41.2069 12.7586 42.0178 12.7051L47.3859 12.0142L49.7241 7.05811C49.95 6.59311 50.5083 6.39389 50.9733 6.61936C51.1734 6.71311 51.3328 6.87249 51.4261 7.05858ZM52.2895 13.277L50.5758 9.64936L48.862 13.277C48.7289 13.5559 48.4631 13.7556 48.1308 13.795L44.1713 14.313L47.0813 17.05C47.3067 17.2628 47.4136 17.5816 47.3602 17.9139L46.6163 21.8472L50.1239 19.9206C50.3897 19.7744 50.7352 19.7612 51.0277 19.9206L54.5353 21.8472L53.7909 17.9139C53.738 17.6083 53.8313 17.2891 54.0703 17.05L56.9934 14.313L53.0602 13.8081C52.7414 13.7819 52.4358 13.5826 52.2895 13.277Z" fill="#EB3300"/>
<path d="M49.7648 26.7104C49.8848 26.2056 50.3897 25.8868 50.8814 26.0064C51.3862 26.1259 51.705 26.6312 51.5855 27.1225C51.3731 28.0525 51.1069 28.9426 50.7881 29.8065C50.4694 30.6836 50.0841 31.5339 49.6453 32.3706C49.4063 32.8225 48.848 33.0086 48.3966 32.7695C47.9316 32.5304 47.7586 31.959 47.9977 31.5076C48.383 30.7632 48.7284 29.9795 49.0341 29.169C49.3261 28.3586 49.5792 27.5481 49.7648 26.7104ZM30.9633 1.96934V10.6061C33.1561 10.4996 35.242 10.0614 37.1953 9.31699C37.3148 9.27715 37.4344 9.22418 37.5675 9.17074C36.7434 7.19074 35.7469 5.51684 34.6177 4.26809C33.5016 3.04605 32.2655 2.23559 30.9633 1.96934ZM30.9633 12.4801V13.9286C30.9633 14.4465 30.5386 14.8717 30.0333 14.8717C29.5153 14.8717 29.0897 14.4465 29.0897 13.9286V12.4801C26.6714 12.3737 24.3595 11.882 22.207 11.0715C22.0875 11.0186 21.968 10.9787 21.848 10.9389C20.8645 13.9018 20.2669 17.41 20.1736 21.1965H20.9578C21.4758 21.1965 21.8878 21.6217 21.8878 22.1401C21.8878 22.6586 21.4763 23.0701 20.9578 23.0701H20.1736C20.1867 23.695 20.2134 24.2926 20.2533 24.8771C20.3198 25.8071 20.4127 26.6973 20.5322 27.5612C20.5988 28.0661 20.2397 28.5446 19.7348 28.6107C19.2169 28.6773 18.7514 28.3182 18.6848 27.8134C18.5522 26.8834 18.4589 25.9529 18.3923 25.0098C18.3525 24.3587 18.3127 23.7207 18.2995 23.0697H9.79641C9.82313 23.8004 9.88922 24.5181 10.0088 25.2221C10.155 26.2454 10.3941 27.242 10.6997 28.2118C10.8459 28.7036 10.567 29.2215 10.0753 29.3814C9.5836 29.5276 9.06563 29.2618 8.90579 28.7701C8.57391 27.707 8.32125 26.6176 8.14829 25.4884C7.97532 24.399 7.89563 23.2693 7.89563 22.1401C7.89563 16.0276 10.3669 10.487 14.3798 6.48762C18.3802 2.48777 23.9208 0.00292969 30.0333 0.00292969C33.0895 0.00292969 36.0127 0.627305 38.67 1.75699C41.4206 2.92605 43.8919 4.64027 45.9384 6.76652C46.297 7.13824 46.297 7.72324 45.9253 8.08184C45.5531 8.4409 44.9555 8.42731 44.5964 8.05512C44.4108 7.86902 44.2242 7.68293 44.025 7.49731C42.7758 8.53371 41.3939 9.42387 39.9188 10.1678C39.9989 10.3937 40.0786 10.6196 40.1447 10.8456C40.2909 11.3373 40.0252 11.8689 39.5203 12.0151C39.0286 12.1614 38.5106 11.8956 38.3508 11.3903C38.3109 11.244 38.258 11.0846 38.2045 10.9253C38.085 10.9782 37.9655 11.0181 37.8591 11.0715C35.6934 11.882 33.3816 12.3732 30.9633 12.4801ZM29.0897 10.6061V1.96934C26.8575 2.43434 24.7978 4.4809 23.2303 7.57652C22.9645 8.08137 22.7255 8.61293 22.4995 9.17074C22.6191 9.22418 22.7386 9.27715 22.8581 9.31699C24.8114 10.0614 26.8973 10.5001 29.0897 10.6061ZM41.407 21.1965C41.9255 21.1965 42.3506 21.6217 42.3506 22.1401C42.3506 22.6586 41.9259 23.0701 41.407 23.0701H35.0827C34.5647 23.0701 34.1527 22.6586 34.1527 22.1401C34.1527 21.6217 34.5647 21.1965 35.0827 21.1965H41.407ZM9.79641 21.1965H18.3005C18.3933 17.1437 19.058 13.3567 20.1342 10.1546C18.6595 9.42387 17.2908 8.53371 16.0284 7.49731C15.922 7.60371 15.8156 7.71012 15.7092 7.81605C12.2414 11.2707 10.0359 15.9746 9.79641 21.1965ZM17.4502 6.24809C18.4866 7.07168 19.6027 7.78934 20.7853 8.40059C21.038 7.81605 21.2902 7.25777 21.5559 6.72668C22.3795 5.11887 23.3231 3.75012 24.3727 2.67387C21.8217 3.41777 19.4831 4.64027 17.4502 6.24809ZM39.2677 8.40059C40.4503 7.78934 41.5664 7.07215 42.6028 6.24809C41.1811 5.13199 39.6131 4.1884 37.9388 3.48434C37.208 3.16512 36.4505 2.89934 35.6803 2.67387C35.7867 2.7934 35.8927 2.8998 35.9995 3.01934C37.2614 4.41434 38.3644 6.23496 39.2677 8.40059ZM39.8128 24.5312C39.8527 24.0264 40.2914 23.6279 40.8094 23.6542C41.3142 23.6809 41.7131 24.1328 41.6864 24.6507C41.6334 25.5011 41.5537 26.3251 41.4609 27.122C41.3677 27.9325 41.2481 28.7429 41.0888 29.5403C40.9959 30.0451 40.5173 30.3901 40.0125 30.2978C39.4945 30.2045 39.1622 29.7128 39.255 29.2079C39.3877 28.4771 39.5077 27.7065 39.6005 26.9092C39.6933 26.1259 39.773 25.329 39.8128 24.5312Z" fill="#EB3300"/>
<path d="M9.65016 51.7303C9.65016 51.2123 10.0622 50.8008 10.5802 50.8008C11.0981 50.8008 11.5237 51.2123 11.5237 51.7303C11.5237 53.7239 9.90281 55.3448 7.90969 55.3448C5.91656 55.3448 4.29562 53.7239 4.29562 51.7303C4.29562 51.2123 4.72078 50.8008 5.23922 50.8008C5.75766 50.8008 6.18281 51.2123 6.18281 51.7303C6.18281 52.7002 6.95344 53.4712 7.91016 53.4712C8.86687 53.4712 9.65016 52.7006 9.65016 51.7303Z" fill="#EB3300"/>
</svg>
