<svg width="61" height="60" viewBox="0 0 61 60" fill="none" xmlns="http://www.w3.org/2000/svg">
<path d="M3.74552 32.4111H13.8574C15.6513 32.4111 17.1129 33.8727 17.1129 35.653V51.7574C17.1129 56.3014 13.3924 60.0088 8.86145 60.0088H3.74552C1.9652 60.0088 0.503174 58.5472 0.503174 56.7538V35.653C0.503643 33.8727 1.9652 32.4111 3.74552 32.4111ZM13.8574 34.2843H3.74552C3.00161 34.2843 2.37724 34.896 2.37724 35.653V56.7538C2.37724 57.5108 3.00161 58.1352 3.74552 58.1352H8.86145C12.3691 58.1352 15.2261 55.2655 15.2261 51.7579V35.653C15.2261 34.8955 14.6149 34.2843 13.8574 34.2843Z" fill="white"/>
<path d="M19.172 32.4643L23.889 29.8468C24.3409 29.1428 24.5668 28.3323 24.6198 27.3357C24.6995 26.1531 24.5532 24.7046 24.2879 22.8845C24.0489 21.3165 24.6067 19.9876 25.5503 19.1509C26.042 18.7257 26.6134 18.4201 27.2509 18.287C27.8753 18.1407 28.54 18.1543 29.2173 18.3535C30.5992 18.7656 31.9412 19.9614 32.725 22.2071C33.4159 24.1871 33.7614 26.087 33.8411 27.9873C33.9076 29.529 33.8012 31.0567 33.5621 32.6246H43.1561C44.8698 32.6246 46.6107 33.3418 47.8332 34.5512C49.0557 35.7601 49.7068 37.3684 49.4814 39.0953L47.6209 52.9009C47.169 56.1957 44.7775 57.6709 41.6017 57.6709H36.6189H23.5703C21.2715 57.6709 19.1856 56.7414 17.6837 55.2264C16.1692 53.7249 15.2256 51.6385 15.2256 49.3398V37.4734C15.2256 36.1178 15.7304 35.1212 16.5278 34.3107C17.2459 33.5804 18.1754 33.0221 19.172 32.4643ZM43.674 42.4829C44.192 42.4829 44.604 42.9081 44.604 43.4265C44.604 43.9449 44.192 44.3565 43.674 44.3565H33.6423V46.8146H43.1031C43.6211 46.8146 44.0467 47.2262 44.0467 47.7442C44.0467 48.2626 43.6215 48.6878 43.1031 48.6878H33.6423V51.1328H40.5118C41.0298 51.1328 41.4418 51.5579 41.4418 52.0764C41.4418 52.5948 41.0298 53.0064 40.5118 53.0064H33.6554C33.6953 53.7507 34.0145 54.4281 34.5193 54.9198C35.064 55.4645 35.8079 55.7968 36.6189 55.7968H41.6017C43.8203 55.7968 45.4417 54.9995 45.7604 52.6473L47.634 38.8421C47.7268 38.071 47.5412 37.3271 47.1554 36.6892C46.8629 38.1245 45.6807 39.4398 44.1925 39.4398H36.6189C35.8084 39.4398 35.0645 39.7717 34.5193 40.3032C33.9742 40.8484 33.6423 41.5923 33.6423 42.4028V42.4824L43.674 42.4829ZM32.792 55.7968C32.1545 54.9728 31.7687 53.9499 31.7687 52.8339V42.4032C31.7687 41.0743 32.3134 39.8654 33.1904 38.9884C34.0675 38.0982 35.29 37.5531 36.6184 37.5531H44.192C44.9232 37.5531 45.5078 36.4239 45.3081 35.7324C45.2284 35.4137 45.0029 35.0682 44.604 34.7359C44.1254 34.5765 43.6473 34.4968 43.1556 34.4968H33.1506C31.9811 38.2037 30.0676 42.7614 26.6129 44.6481C26.1615 44.8876 25.5896 44.7278 25.3375 44.2759C25.0984 43.8245 25.2578 43.2526 25.7228 43.0004C30.0807 40.622 32.1671 32.8487 31.9675 28.0656C31.9009 26.3382 31.5826 24.6109 30.9582 22.8306C30.4 21.2228 29.5361 20.3987 28.6857 20.1465C28.3267 20.0401 27.9817 20.027 27.6625 20.1067C27.3301 20.1732 27.0376 20.3321 26.7986 20.545C26.2937 20.9968 26.0012 21.7145 26.1343 22.6046C26.4268 24.5443 26.5862 26.1123 26.4934 27.4543C26.4268 28.4242 25.922 30.8425 24.992 31.3604L20.0889 34.0979C19.2118 34.5896 18.4145 35.0546 17.8698 35.6124C17.4048 36.091 17.1123 36.6756 17.1123 37.4729V49.3384C17.1123 51.1187 17.83 52.7265 18.999 53.896C20.1681 55.0782 21.7895 55.7964 23.5698 55.7964L32.792 55.7968Z" fill="white"/>
<path d="M51.926 7.05858L54.2642 12.0147L59.6853 12.7056C60.1901 12.7722 60.5623 13.2372 60.4957 13.7551C60.469 13.9811 60.3631 14.1672 60.2032 14.313L56.2301 18.0601L57.2398 23.4414C57.3331 23.9462 57.0007 24.438 56.4959 24.5308C56.2563 24.5842 56.0309 24.5308 55.8317 24.4112L51.0748 21.8069L46.2781 24.438C45.8262 24.677 45.2548 24.5176 45.0026 24.0662C44.8962 23.867 44.8695 23.6542 44.9098 23.4414L45.9195 18.0601L41.9463 14.313C41.3482 13.7551 41.7068 12.7586 42.5178 12.7051L47.8859 12.0142L50.224 7.05811C50.4499 6.59311 51.0082 6.39389 51.4732 6.61936C51.6734 6.71311 51.8328 6.87249 51.926 7.05858ZM52.7895 13.277L51.0757 9.64936L49.362 13.277C49.2288 13.5559 48.9631 13.7556 48.6307 13.795L44.6712 14.313L47.5812 17.05C47.8067 17.2628 47.9135 17.5816 47.8601 17.9139L47.1162 21.8472L50.6238 19.9206C50.8896 19.7744 51.2351 19.7612 51.5276 19.9206L55.0353 21.8472L54.2909 17.9139C54.2379 17.6083 54.3312 17.2891 54.5703 17.05L57.4934 14.313L53.5601 13.8081C53.2413 13.7819 52.9357 13.5826 52.7895 13.277Z" fill="white"/>
<path d="M50.2647 26.7104C50.3847 26.2056 50.8896 25.8868 51.3813 26.0064C51.8861 26.1259 52.2049 26.6312 52.0854 27.1225C51.873 28.0525 51.6068 28.9426 51.288 29.8065C50.9693 30.6836 50.5839 31.5339 50.1452 32.3706C49.9061 32.8225 49.3479 33.0086 48.8964 32.7695C48.4314 32.5304 48.2585 31.959 48.4975 31.5076C48.8828 30.7632 49.2283 29.9795 49.5339 29.169C49.826 28.3586 50.0791 27.5481 50.2647 26.7104ZM31.4632 1.96934V10.6061C33.656 10.4996 35.7419 10.0614 37.6952 9.31699C37.8147 9.27715 37.9343 9.22418 38.0674 9.17074C37.2433 7.19074 36.2468 5.51684 35.1175 4.26809C34.0014 3.04605 32.7653 2.23559 31.4632 1.96934ZM31.4632 12.4801V13.9286C31.4632 14.4465 31.0385 14.8717 30.5332 14.8717C30.0152 14.8717 29.5896 14.4465 29.5896 13.9286V12.4801C27.1713 12.3737 24.8594 11.882 22.7069 11.0715C22.5874 11.0186 22.4679 10.9787 22.3479 10.9389C21.3644 13.9018 20.7668 17.41 20.6735 21.1965H21.4577C21.9757 21.1965 22.3877 21.6217 22.3877 22.1401C22.3877 22.6586 21.9761 23.0701 21.4577 23.0701H20.6735C20.6866 23.695 20.7133 24.2926 20.7532 24.8771C20.8197 25.8071 20.9125 26.6973 21.0321 27.5612C21.0986 28.0661 20.7396 28.5446 20.2347 28.6107C19.7168 28.6773 19.2513 28.3182 19.1847 27.8134C19.0521 26.8834 18.9588 25.9529 18.8922 25.0098C18.8524 24.3587 18.8125 23.7207 18.7994 23.0697H10.2963C10.323 23.8004 10.3891 24.5181 10.5086 25.2221C10.6549 26.2454 10.8939 27.242 11.1996 28.2118C11.3458 28.7036 11.0669 29.2215 10.5752 29.3814C10.0835 29.5276 9.56551 29.2618 9.40566 28.7701C9.07379 27.707 8.82113 26.6176 8.64816 25.4884C8.4752 24.399 8.39551 23.2693 8.39551 22.1401C8.39551 16.0276 10.8668 10.487 14.8797 6.48762C18.88 2.48777 24.4207 0.00292969 30.5332 0.00292969C33.5894 0.00292969 36.5125 0.627305 39.1699 1.75699C41.9205 2.92605 44.3918 4.64027 46.4383 6.76652C46.7969 7.13824 46.7969 7.72324 46.4252 8.08184C46.053 8.4409 45.4553 8.42731 45.0963 8.05512C44.9107 7.86902 44.7241 7.68293 44.5249 7.49731C43.2757 8.53371 41.8938 9.42387 40.4186 10.1678C40.4988 10.3937 40.5785 10.6196 40.6446 10.8456C40.7908 11.3373 40.525 11.8689 40.0202 12.0151C39.5285 12.1614 39.0105 11.8956 38.8507 11.3903C38.8108 11.244 38.7578 11.0846 38.7044 10.9253C38.5849 10.9782 38.4653 11.0181 38.3589 11.0715C36.1933 11.882 33.8814 12.3732 31.4632 12.4801ZM29.5896 10.6061V1.96934C27.3574 2.43434 25.2977 4.4809 23.7302 7.57652C23.4644 8.08137 23.2254 8.61293 22.9994 9.17074C23.1189 9.22418 23.2385 9.27715 23.358 9.31699C25.3113 10.0614 27.3972 10.5001 29.5896 10.6061ZM41.9069 21.1965C42.4253 21.1965 42.8505 21.6217 42.8505 22.1401C42.8505 22.6586 42.4258 23.0701 41.9069 23.0701H35.5825C35.0646 23.0701 34.6525 22.6586 34.6525 22.1401C34.6525 21.6217 35.0646 21.1965 35.5825 21.1965H41.9069ZM10.2963 21.1965H18.8004C18.8932 17.1437 19.5579 13.3567 20.6341 10.1546C19.1594 9.42387 17.7907 8.53371 16.5283 7.49731C16.4219 7.60371 16.3155 7.71012 16.2091 7.81605C12.7413 11.2707 10.5358 15.9746 10.2963 21.1965ZM17.95 6.24809C18.9864 7.07168 20.1025 7.78934 21.2852 8.40059C21.5379 7.81605 21.79 7.25777 22.0558 6.72668C22.8794 5.11887 23.823 3.75012 24.8725 2.67387C22.3216 3.41777 19.983 4.64027 17.95 6.24809ZM39.7675 8.40059C40.9502 7.78934 42.0663 7.07215 43.1027 6.24809C41.681 5.13199 40.113 4.1884 38.4386 3.48434C37.7078 3.16512 36.9503 2.89934 36.1802 2.67387C36.2866 2.7934 36.3925 2.8998 36.4994 3.01934C37.7613 4.41434 38.8643 6.23496 39.7675 8.40059ZM40.3127 24.5312C40.3525 24.0264 40.7913 23.6279 41.3093 23.6542C41.8141 23.6809 42.213 24.1328 42.1863 24.6507C42.1333 25.5011 42.0536 26.3251 41.9608 27.122C41.8675 27.9325 41.748 28.7429 41.5886 29.5403C41.4958 30.0451 41.0172 30.3901 40.5124 30.2978C39.9944 30.2045 39.6621 29.7128 39.7549 29.2079C39.8875 28.4771 40.0075 27.7065 40.1003 26.9092C40.1932 26.1259 40.2728 25.329 40.3127 24.5312Z" fill="white"/>
<path d="M10.1499 51.7303C10.1499 51.2123 10.562 50.8008 11.0799 50.8008C11.5979 50.8008 12.0235 51.2123 12.0235 51.7303C12.0235 53.7239 10.4026 55.3448 8.40947 55.3448C6.41635 55.3448 4.79541 53.7239 4.79541 51.7303C4.79541 51.2123 5.22057 50.8008 5.739 50.8008C6.25744 50.8008 6.6826 51.2123 6.6826 51.7303C6.6826 52.7002 7.45322 53.4712 8.40994 53.4712C9.36666 53.4712 10.1499 52.7006 10.1499 51.7303Z" fill="white"/>
</svg>
