<svg width="60" height="60" viewBox="0 0 60 60" fill="none" xmlns="http://www.w3.org/2000/svg">
<path d="M30.9018 40.7616H15.8652C15.6166 40.7616 15.3781 40.6628 15.2023 40.487C15.0265 40.3112 14.9277 40.0727 14.9277 39.8241V27.2119C14.9277 26.9633 15.0265 26.7248 15.2023 26.549C15.3781 26.3732 15.6166 26.2744 15.8652 26.2744H30.9018C31.1504 26.2744 31.3889 26.3732 31.5647 26.549C31.7405 26.7248 31.8393 26.9633 31.8393 27.2119V39.8241C31.8393 40.0727 31.7405 40.3112 31.5647 40.487C31.3889 40.6628 31.1504 40.7616 30.9018 40.7616ZM16.8027 38.8866H29.9643V28.1494H16.8027V38.8866Z" fill="#EB3300"/>
<path d="M38.0231 44.8595H36.1481V27.212C36.1481 26.9633 36.2468 26.7249 36.4227 26.5491C36.5985 26.3733 36.8369 26.2745 37.0856 26.2745H37.7418C39.3279 26.2673 40.874 26.7719 42.1504 27.7133C43.4269 28.6547 44.3657 29.9827 44.8274 31.5001L43.0349 32.0504C42.7042 30.9629 42.0449 30.0044 41.1475 29.3068C40.25 28.6091 39.1586 28.2065 38.0231 28.1542V44.8595Z" fill="#EB3300"/>
<path d="M29.6249 53.2977H2.89026C2.64162 53.2977 2.40316 53.199 2.22735 53.0231C2.05153 52.8473 1.95276 52.6089 1.95276 52.3602V33.6834C1.95573 31.72 2.73699 29.8379 4.12529 28.4496C5.51358 27.0613 7.39566 26.2801 9.35901 26.2771H9.67963C9.92827 26.2771 10.1667 26.3759 10.3425 26.5517C10.5184 26.7275 10.6171 26.966 10.6171 27.2146V51.4227H29.6249V53.2977ZM3.83151 51.4227H8.74495V28.184C7.39312 28.3371 6.14486 28.9822 5.23804 29.9963C4.33123 31.0105 3.82925 32.3229 3.82776 33.6834L3.83151 51.4227Z" fill="#EB3300"/>
<path d="M12.7734 43.9143C11.7043 43.9143 10.6789 43.4896 9.92291 42.7336C9.16691 41.9776 8.74219 40.9522 8.74219 39.8831V26.1609C8.74219 25.9122 8.84096 25.6738 9.01678 25.498C9.19259 25.3222 9.43105 25.2234 9.67969 25.2234H15.8625C16.1111 25.2234 16.3496 25.3222 16.5254 25.498C16.7012 25.6738 16.8 25.9122 16.8 26.1609V39.8849C16.7995 40.953 16.3752 41.9771 15.6203 42.7326C14.8653 43.4881 13.8415 43.9131 12.7734 43.9143ZM10.6172 27.0984V39.8849C10.6172 40.4568 10.8444 41.0053 11.2487 41.4096C11.6531 41.814 12.2016 42.0412 12.7734 42.0412C13.3453 42.0412 13.8938 41.814 14.2981 41.4096C14.7025 41.0053 14.9297 40.4568 14.9297 39.8849V27.0984H10.6172Z" fill="#EB3300"/>
<path d="M33.9937 43.9143C32.9245 43.9143 31.8991 43.4896 31.1431 42.7336C30.3871 41.9776 29.9624 40.9522 29.9624 39.8831V26.1609C29.9624 25.9122 30.0612 25.6738 30.237 25.498C30.4128 25.3222 30.6513 25.2234 30.8999 25.2234H37.0874C37.336 25.2234 37.5745 25.3222 37.7503 25.498C37.9261 25.6738 38.0249 25.9122 38.0249 26.1609V39.8849C38.0244 40.9538 37.5995 41.9787 36.8435 42.7343C36.0876 43.4899 35.0625 43.9143 33.9937 43.9143ZM31.8374 27.0984V39.8849C31.8374 40.4568 32.0646 41.0053 32.469 41.4096C32.8733 41.814 33.4218 42.0412 33.9937 42.0412C34.5655 42.0412 35.114 41.814 35.5184 41.4096C35.9227 41.0053 36.1499 40.4568 36.1499 39.8849V27.0984H31.8374Z" fill="#EB3300"/>
<path d="M10.62 52.3602H8.745V39.8849C8.745 39.6363 8.84377 39.3978 9.01958 39.222C9.1954 39.0462 9.43385 38.9474 9.6825 38.9474C9.93114 38.9474 10.1696 39.0462 10.3454 39.222C10.5212 39.3978 10.62 39.6363 10.62 39.8849C10.62 40.4568 10.8472 41.0052 11.2515 41.4096C11.6559 41.814 12.2044 42.0412 12.7762 42.0412C13.3481 42.0412 13.8966 41.814 14.3009 41.4096C14.7053 41.0052 14.9325 40.4568 14.9325 39.8849C14.9302 39.6298 15.0264 39.3836 15.201 39.1977C15.3756 39.0117 15.6153 38.9002 15.87 38.8865H30.9019C31.1505 38.8865 31.389 38.9852 31.5648 39.1611C31.7406 39.3369 31.8394 39.5753 31.8394 39.824C31.8354 40.1071 31.8872 40.3883 31.9918 40.6515C32.0965 40.9146 32.252 41.1545 32.4494 41.3576C32.6468 41.5607 32.8822 41.7228 33.1423 41.8349C33.4024 41.947 33.682 42.0067 33.9652 42.0107C34.2483 42.0147 34.5295 41.9629 34.7926 41.8582C35.0558 41.7536 35.2957 41.5981 35.4988 41.4007C35.7018 41.2033 35.864 40.9678 35.9761 40.7078C36.0881 40.4477 36.1479 40.1681 36.1519 39.8849C36.1519 39.6363 36.2506 39.3978 36.4265 39.222C36.6023 39.0462 36.8407 38.9474 37.0894 38.9474C37.338 38.9474 37.5765 39.0462 37.7523 39.222C37.9281 39.3978 38.0269 39.6363 38.0269 39.8849V44.8593H36.1519V43.289C35.6054 43.6343 34.9839 43.8431 34.3397 43.8978C33.6956 43.9525 33.0478 43.8516 32.4509 43.6034C31.854 43.3552 31.3255 42.9671 30.91 42.4719C30.4946 41.9766 30.2043 41.3887 30.0637 40.7577H16.6987C16.5599 41.3887 16.2711 41.9769 15.8566 42.4726C15.4422 42.9682 14.9144 43.3567 14.318 43.605C13.7216 43.8534 13.0741 43.9543 12.4303 43.8993C11.7866 43.8443 11.1656 43.6349 10.62 43.289V52.3602Z" fill="#EB3300"/>
<path d="M33.0562 36.4829H34.9312V39.3357H33.0562V36.4829Z" fill="#EB3300"/>
<path d="M11.8359 36.4829H13.7109V39.3357H11.8359V36.4829Z" fill="#EB3300"/>
<path d="M2.89026 46.4307H9.85213V48.3057H2.89026V46.4307Z" fill="#EB3300"/>
<path d="M2.59778 42.5437H9.9759V44.4187H2.59778V42.5437Z" fill="#EB3300"/>
<path d="M23.383 28.0614C22.1635 28.0479 20.959 27.7918 19.8395 27.308C18.72 26.8241 17.7081 26.1222 16.8627 25.2433C14.6209 22.8954 13.3992 19.756 13.4643 16.5104V14.0626H15.3393V16.5179C15.2752 19.2667 16.3011 21.9291 18.193 23.9242C18.8559 24.6383 19.659 25.208 20.5521 25.5976C21.4452 25.9871 22.4091 26.1882 23.3835 26.1882C24.3579 26.1882 25.3217 25.9871 26.2149 25.5976C27.108 25.208 27.9111 24.6383 28.574 23.9242C30.4567 21.9411 31.482 19.2959 31.4277 16.562C31.4277 16.5461 31.4277 16.5311 31.4277 16.5161V13.8198H33.3027V16.4758V16.5095C33.3694 19.7553 32.1482 22.8954 29.9061 25.2433C29.0604 26.1226 28.048 26.8246 26.9281 27.3085C25.8081 27.7923 24.603 28.0483 23.383 28.0614Z" fill="#EB3300"/>
<path d="M23.383 32.5135C22.4782 32.5149 21.5844 32.3147 20.7668 31.9272C19.9491 31.5398 19.2281 30.975 18.6562 30.2738L16.6368 27.8054C16.5245 27.668 16.4534 27.5016 16.4319 27.3255C16.4105 27.1493 16.4394 26.9707 16.5154 26.8104C16.5914 26.65 16.7113 26.5146 16.8613 26.4197C17.0112 26.3248 17.185 26.2744 17.3624 26.2744H29.4055C29.583 26.2744 29.7567 26.3248 29.9067 26.4197C30.0566 26.5146 30.1766 26.65 30.2526 26.8104C30.3285 26.9707 30.3575 27.1493 30.336 27.3255C30.3145 27.5016 30.2435 27.668 30.1312 27.8054L28.1108 30.2738C27.5388 30.9751 26.8177 31.54 25.9998 31.9274C25.182 32.3149 24.288 32.5151 23.383 32.5135ZM19.3405 28.1494L20.1074 29.0869C20.5046 29.5719 21.0045 29.9626 21.5711 30.2309C22.1376 30.4992 22.7566 30.6384 23.3835 30.6384C24.0104 30.6384 24.6294 30.4992 25.1959 30.2309C25.7625 29.9626 26.2624 29.5719 26.6596 29.0869L27.4265 28.1494H19.3405Z" fill="#EB3300"/>
<path d="M29.9147 17.4516H16.8534C15.9549 17.4506 15.0934 17.0932 14.4581 16.4578C13.8227 15.8225 13.4653 14.961 13.4644 14.0625V12.75C13.4644 12.5014 13.5631 12.2629 13.7389 12.0871C13.9148 11.9113 14.1532 11.8125 14.4019 11.8125H32.3653C32.6139 11.8125 32.8524 11.9113 33.0282 12.0871C33.204 12.2629 33.3028 12.5014 33.3028 12.75V14.0625C33.3018 14.9609 32.9445 15.8222 32.3094 16.4575C31.6742 17.0928 30.813 17.4503 29.9147 17.4516ZM15.3394 13.6875V14.0625C15.3399 14.4639 15.4995 14.8487 15.7834 15.1326C16.0672 15.4164 16.452 15.5761 16.8534 15.5766H29.9147C30.3159 15.5758 30.7005 15.416 30.9841 15.1322C31.2677 14.8484 31.4273 14.4637 31.4278 14.0625V13.6875H15.3394Z" fill="#EB3300"/>
<path d="M33.3028 13.4063H31.4278V8.80128C31.4261 7.1781 30.7805 5.62189 29.6329 4.47405C28.4852 3.3262 26.9291 2.68045 25.3059 2.67847H21.4622C19.8389 2.68045 18.2827 3.32617 17.1349 4.47399C15.9871 5.62181 15.3413 7.17802 15.3394 8.80128V13.4063H13.4644V8.80128C13.4666 6.68081 14.3099 4.64784 15.8093 3.14844C17.3087 1.64904 19.3417 0.8057 21.4622 0.803467H25.3059C27.4262 0.805948 29.459 1.6494 30.9582 3.14877C32.4573 4.64814 33.3006 6.68097 33.3028 8.80128V13.4063Z" fill="#EB3300"/>
<path d="M25.0312 11.1029H21.7499C20.9377 11.1019 20.159 10.7788 19.5846 10.2045C19.0103 9.6301 18.6871 8.8514 18.6862 8.03915V7.51321C18.6871 6.70258 19.009 5.92529 19.5813 5.35121C20.1536 4.77713 20.9299 4.45293 21.7405 4.44946H25.0218C25.8341 4.45021 26.613 4.77323 27.1874 5.34764C27.7618 5.92204 28.0848 6.70088 28.0855 7.51321V8.03915C28.0848 8.84986 27.7631 9.62729 27.1907 10.2014C26.6183 10.7756 25.8419 11.0997 25.0312 11.1029ZM21.7499 6.32165C21.4348 6.32215 21.1327 6.44755 20.9099 6.67037C20.6871 6.8932 20.5617 7.19528 20.5612 7.5104V8.03634C20.5609 8.35033 20.6847 8.65172 20.9056 8.87489C21.1265 9.09806 21.4266 9.22493 21.7405 9.2279H25.0218C25.337 9.22765 25.6392 9.10233 25.8621 8.87945C26.085 8.65657 26.2103 8.35435 26.2105 8.03915V7.51321C26.2103 7.19963 26.0863 6.89882 25.8654 6.67621C25.6445 6.45359 25.3447 6.32718 25.0312 6.32446L21.7499 6.32165Z" fill="#EB3300"/>
<path d="M45.5456 47.0307C45.297 47.0306 45.0585 46.9318 44.8828 46.756L40.0312 41.9063C39.8554 41.7305 39.7567 41.4921 39.7567 41.2435C39.7567 40.9949 39.8554 40.7565 40.0312 40.5807L41.8978 38.7188C42.0736 38.5431 42.312 38.4443 42.5606 38.4443C42.8092 38.4443 43.0476 38.5431 43.2234 38.7188L48.0712 43.5657C48.247 43.7415 48.3457 43.9799 48.3457 44.2285C48.3457 44.4771 48.247 44.7155 48.0712 44.8913L46.2084 46.7541C46.1215 46.8415 46.0182 46.9109 45.9045 46.9584C45.7908 47.0059 45.6688 47.0304 45.5456 47.0307ZM42.0234 41.2501L45.5456 44.7723L46.0828 44.2351L42.5625 40.7091L42.0234 41.2501Z" fill="#EB3300"/>
<path d="M32.3297 58.8187C31.4663 58.8193 30.6222 58.5637 29.9042 58.0844C29.1862 57.6051 28.6264 56.9235 28.2959 56.1259C27.9654 55.3284 27.8789 54.4507 28.0474 53.604C28.2159 52.7573 28.6318 51.9795 29.2425 51.3693L31.9612 48.6505C31.9809 48.6308 32.0025 48.6112 32.0241 48.5933L41.4984 39.1208C41.0854 37.6133 41.0813 36.023 41.4867 34.5134C41.892 33.0037 42.6921 31.6293 43.8047 30.5314C44.9173 29.4335 46.3022 28.6518 47.8171 28.2666C49.332 27.8813 50.9221 27.9065 52.4241 28.3396C52.5809 28.3845 52.7233 28.4696 52.8371 28.5865C52.951 28.7033 53.0324 28.8478 53.0733 29.0058C53.1142 29.1637 53.1132 29.3296 53.0704 29.487C53.0275 29.6444 52.9443 29.7879 52.8291 29.9033L48.3553 34.3762L49.2928 37.498L52.4137 38.4355L56.8875 33.9637C57.0029 33.8484 57.1463 33.7651 57.3037 33.7222C57.461 33.6793 57.6269 33.6782 57.7848 33.7191C57.9427 33.7599 58.0872 33.8412 58.2041 33.9549C58.321 34.0687 58.4062 34.211 58.4512 34.3677C58.8843 35.8696 58.9095 37.4598 58.5243 38.9746C58.1391 40.4895 57.3573 41.8745 56.2594 42.9871C55.1615 44.0997 53.7871 44.8998 52.2775 45.3051C50.7679 45.7104 49.1775 45.7064 47.67 45.2933L36.2728 56.6924C36.2513 56.7145 36.2285 56.7352 36.2044 56.7543L35.4159 57.5427C35.011 57.9483 34.5299 58.2699 34.0002 58.4889C33.4706 58.7079 32.9028 58.8199 32.3297 58.8187ZM33.225 50.0399L30.5681 52.6949C30.3302 52.9247 30.1405 53.1996 30.0099 53.5035C29.8794 53.8074 29.8107 54.1342 29.8078 54.465C29.8049 54.7957 29.868 55.1237 29.9932 55.4298C30.1185 55.7359 30.3034 56.014 30.5373 56.2479C30.7712 56.4818 31.0493 56.6667 31.3554 56.792C31.6615 56.9172 31.9895 56.9803 32.3203 56.9774C32.651 56.9745 32.9779 56.9058 33.2818 56.7753C33.5857 56.6447 33.8605 56.455 34.0903 56.2171L34.9444 55.363C34.9669 55.3405 34.9894 55.3208 35.0128 55.3002L46.7456 43.5674C46.8699 43.4429 47.0267 43.3558 47.1981 43.3162C47.3696 43.2766 47.5487 43.286 47.715 43.3433C48.7762 43.7142 49.9118 43.821 51.0235 43.6545C52.1353 43.4881 53.1897 43.0534 54.0958 42.3881C55.0019 41.7227 55.7323 40.8467 56.224 39.8358C56.7156 38.8249 56.9536 37.7094 56.9175 36.5858L53.3437 40.1577C53.2236 40.2784 53.0728 40.3641 52.9077 40.4055C52.7425 40.447 52.5691 40.4427 52.4062 40.393L48.2719 39.148C48.1234 39.1034 47.9883 39.0227 47.8787 38.9131C47.7691 38.8035 47.6883 38.6684 47.6437 38.5199L46.3978 34.379C46.3491 34.2167 46.3453 34.0443 46.3867 33.8801C46.4281 33.7158 46.5133 33.5659 46.6331 33.4462L50.205 29.8743C49.2589 29.8459 48.317 30.0109 47.4368 30.3591C46.5567 30.7073 45.7569 31.2313 45.0862 31.8993C44.1619 32.818 43.5172 33.9801 43.2271 35.2506C42.937 36.5212 43.0134 37.848 43.4475 39.0768C43.5049 39.2431 43.5143 39.4222 43.4747 39.5936C43.435 39.7651 43.348 39.9219 43.2234 40.0462L33.2859 49.9837C33.2681 50.0015 33.2466 50.0212 33.225 50.0399Z" fill="#EB3300"/>
<path d="M32.8294 54.8953C33.4212 54.8953 33.9009 54.4156 33.9009 53.8238C33.9009 53.232 33.4212 52.7522 32.8294 52.7522C32.2376 52.7522 31.7578 53.232 31.7578 53.8238C31.7578 54.4156 32.2376 54.8953 32.8294 54.8953Z" fill="#EB3300"/>
</svg>
