<svg width="38" height="50" viewBox="0 0 38 50" fill="none" xmlns="http://www.w3.org/2000/svg">
<path d="M4.44922 18.5547C4.44922 26.632 11.0204 33.2032 19.0977 33.2032C27.1749 33.2032 33.7461 26.632 33.7461 18.5547C33.7461 10.4775 27.1749 3.90625 19.0977 3.90625C11.0204 3.90625 4.44922 10.4775 4.44922 18.5547ZM19.0977 5.85938C26.098 5.85938 31.793 11.5543 31.793 18.5547C31.793 25.5551 26.098 31.25 19.0977 31.25C12.0973 31.25 6.40235 25.5551 6.40235 18.5547C6.40235 11.5543 12.0973 5.85938 19.0977 5.85938Z" fill="white"/>
<path d="M10.0537 16.8137L13.839 20.5434L12.9681 25.7851C12.9075 26.1502 13.0581 26.518 13.3576 26.7354C13.6567 26.9528 14.053 26.9822 14.3815 26.8121L19.0976 24.363L23.8133 26.8121C24.1391 26.9811 24.5354 26.9547 24.8372 26.7354C25.1366 26.518 25.2873 26.1502 25.2267 25.7851L24.3558 20.5434L28.1411 16.8137C28.4047 16.5543 28.4989 16.1683 28.3845 15.8162C28.27 15.4645 27.9668 15.2077 27.6009 15.1524L22.3477 14.3616L19.9708 9.60814C19.8056 9.27741 19.4672 9.06836 19.0976 9.06836C18.7276 9.06836 18.3896 9.27741 18.224 9.60814L15.8471 14.3616L10.5938 15.1524C10.228 15.2074 9.92474 15.4645 9.8103 15.8162C9.69586 16.1683 9.79047 16.5543 10.0537 16.8137ZM16.6394 16.2175C16.9537 16.1702 17.2253 15.973 17.3676 15.6888L19.0976 12.2285L20.8275 15.6888C20.9698 15.973 21.2414 16.1702 21.5558 16.2175L25.3793 16.7931L22.6239 19.5073C22.3977 19.7305 22.2939 20.0497 22.3458 20.3633L22.9798 24.1784L19.5473 22.3962C19.4066 22.3229 19.2521 22.2863 19.0976 22.2863C18.9431 22.2863 18.7886 22.3229 18.6474 22.3962L15.215 24.1784L15.849 20.3633C15.9012 20.0497 15.7975 19.7305 15.5709 19.5073L12.8159 16.7931L16.6394 16.2175Z" fill="white"/>
<path d="M20.0742 0.976564C20.0742 1.51596 19.6371 1.95313 19.0977 1.95313C18.5583 1.95313 18.1211 1.51596 18.1211 0.976564C18.1211 0.437165 18.5583 0 19.0977 0C19.6371 0 20.0742 0.437165 20.0742 0.976564Z" fill="white"/>
<path d="M14.4952 0.575546C6.28028 2.67249 0.542969 10.0658 0.542969 18.5546C0.542969 23.8269 2.75969 28.7948 6.65107 32.3131L0.767655 42.6819C0.578445 43.0156 0.602097 43.4292 0.827927 43.7389C1.05376 44.049 1.43981 44.1982 1.81555 44.12L8.49701 42.7326L10.8453 49.35C10.9727 49.7101 11.2989 49.9622 11.6796 49.9962C12.0603 50.0301 12.4254 49.8382 12.6142 49.506L19.0977 38.1076L25.5808 49.506C25.7555 49.8131 26.0805 49.9996 26.4292 49.9996C26.4578 49.9996 26.4868 49.9985 26.5154 49.9962C26.8961 49.9622 27.2222 49.7097 27.35 49.35L29.698 42.7326L36.3794 44.12C36.7548 44.1978 37.1412 44.0487 37.3671 43.7389C37.5933 43.4292 37.6165 43.0156 37.4273 42.6819L31.5439 32.3131C35.4353 28.7948 37.652 23.8269 37.652 18.5546C37.652 10.0658 31.9147 2.67249 23.7001 0.575546C23.1771 0.442031 22.6457 0.757507 22.5122 1.28012C22.3787 1.80274 22.6942 2.33451 23.2168 2.46802C30.5662 4.34409 35.6993 10.9592 35.6993 18.5546C35.6993 27.7988 28.1916 35.1562 19.0977 35.1562C9.99733 35.1562 2.4961 27.7927 2.4961 18.5546C2.4961 10.9592 7.62878 4.34409 14.9782 2.46802C15.5008 2.33451 15.8163 1.80274 15.6831 1.28012C15.5496 0.757507 15.0182 0.442031 14.4952 0.575546ZM11.9722 46.685L10.053 41.2769C9.88975 40.8168 9.41215 40.5479 8.93417 40.6471L3.53141 41.769L8.18763 33.5628C10.9026 35.5365 14.1172 36.7389 17.46 37.0365L11.9722 46.685ZM29.2608 40.6471C28.7832 40.5479 28.3052 40.8168 28.142 41.2769L26.2232 46.685L20.735 37.0365C24.0782 36.7389 27.2924 35.5365 30.0077 33.5628L34.664 41.769L29.2608 40.6471Z" fill="white"/>
</svg>
