<svg width="60" height="60" viewBox="0 0 60 60" fill="none" xmlns="http://www.w3.org/2000/svg">
<g clip-path="url(#clip0_664_8991)">
<path d="M12.539 22.2657C12.539 31.9584 20.4245 39.8438 30.1172 39.8438C39.8099 39.8438 47.6953 31.9584 47.6953 22.2657C47.6953 12.5729 39.8099 4.6875 30.1172 4.6875C20.4245 4.6875 12.539 12.5729 12.539 22.2657ZM30.1172 7.03125C38.5176 7.03125 45.3516 13.8652 45.3516 22.2657C45.3516 30.6661 38.5176 37.5 30.1172 37.5C21.7167 37.5 14.8828 30.6661 14.8828 22.2657C14.8828 13.8652 21.7167 7.03125 30.1172 7.03125Z" fill="#EB3300"/>
<path d="M19.2645 20.1763L23.8068 24.6518L22.7618 30.942C22.689 31.3801 22.8698 31.8214 23.2292 32.0823C23.588 32.3432 24.0637 32.3785 24.4578 32.1743L30.1171 29.2354L35.776 32.1743C36.1669 32.3771 36.6426 32.3455 37.0047 32.0823C37.364 31.8214 37.5448 31.3801 37.472 30.942L36.427 24.6518L40.9694 20.1763C41.2857 19.865 41.3987 19.4017 41.2614 18.9792C41.1241 18.5572 40.7602 18.2491 40.3212 18.1827L34.0173 17.2338L31.165 11.5296C30.9667 11.1327 30.5607 10.8818 30.1171 10.8818C29.6731 10.8818 29.2675 11.1327 29.0689 11.5296L26.2165 17.2338L19.9126 18.1827C19.4737 18.2486 19.1097 18.5572 18.9724 18.9792C18.8351 19.4017 18.9486 19.865 19.2645 20.1763ZM27.1673 19.4608C27.5445 19.404 27.8704 19.1674 28.0412 18.8263L30.1171 14.674L32.1931 18.8263C32.3638 19.1674 32.6898 19.404 33.067 19.4608L37.6551 20.1516L34.3487 23.4086C34.0773 23.6763 33.9527 24.0595 34.015 24.4358L34.7758 29.0139L30.6568 26.8752C30.4879 26.7873 30.3025 26.7434 30.1171 26.7434C29.9317 26.7434 29.7463 26.7873 29.577 26.8752L25.458 29.0139L26.2188 24.4358C26.2815 24.0595 26.157 23.6763 25.8851 23.4086L22.5791 20.1516L27.1673 19.4608Z" fill="#EB3300"/>
<path d="M31.2891 1.17188C31.2891 1.81916 30.7645 2.34375 30.1172 2.34375C29.4699 2.34375 28.9453 1.81916 28.9453 1.17188C28.9453 0.524598 29.4699 0 30.1172 0C30.7645 0 31.2891 0.524598 31.2891 1.17188Z" fill="#EB3300"/>
<path d="M24.5942 0.690557C14.7363 3.20689 7.8515 12.0788 7.8515 22.2654C7.8515 28.5922 10.5116 34.5537 15.1812 38.7756L8.12112 51.2181C7.89407 51.6187 7.92245 52.1149 8.19345 52.4866C8.46445 52.8588 8.92771 53.0377 9.3786 52.9439L17.3963 51.279L20.2143 59.2199C20.3672 59.652 20.7586 59.9546 21.2155 59.9953C21.6723 60.036 22.1104 59.8058 22.337 59.4071L30.1172 45.7291L37.8969 59.4071C38.1065 59.7756 38.4965 59.9994 38.9149 59.9994C38.9493 59.9994 38.9841 59.9981 39.0184 59.9953C39.4752 59.9546 39.8666 59.6515 40.02 59.2199L42.8375 51.279L50.8553 52.9439C51.3057 53.0373 51.7694 52.8583 52.0404 52.4866C52.3119 52.1149 52.3398 51.6187 52.1127 51.2181L45.0526 38.7756C49.7223 34.5537 52.3824 28.5922 52.3824 22.2654C52.3824 12.0788 45.4976 3.20689 35.6401 0.690557C35.0125 0.53034 34.3748 0.908911 34.2146 1.53605C34.0544 2.16319 34.433 2.80131 35.0601 2.96153C43.8794 5.21281 50.0391 13.1509 50.0391 22.2654C50.0391 33.3585 41.0298 42.1874 30.1172 42.1874C19.1967 42.1874 10.1953 33.3511 10.1953 22.2654C10.1953 13.1509 16.3545 5.21281 25.1738 2.96153C25.8009 2.80131 26.1795 2.16319 26.0197 1.53605C25.8595 0.908911 25.2218 0.53034 24.5942 0.690557ZM21.5666 56.0219L19.2636 49.5322C19.0676 48.9801 18.4945 48.6574 17.9209 48.7764L11.4376 50.1227L17.0251 40.2753C20.283 42.6437 24.1406 44.0866 28.152 44.4437L21.5666 56.0219ZM42.3129 48.7764C41.7398 48.6574 41.1662 48.9801 40.9703 49.5322L38.6677 56.0219L32.0819 44.4437C36.0937 44.0866 39.9509 42.6437 43.2092 40.2753L48.7967 50.1227L42.3129 48.7764Z" fill="#EB3300"/>
</g>
<defs>
<clipPath id="clip0_664_8991">
<rect width="60" height="60" fill="white"/>
</clipPath>
</defs>
</svg>
