<svg width="30" height="30" viewBox="0 0 30 30" fill="none" xmlns="http://www.w3.org/2000/svg">
<g clip-path="url(#clip0_1157_10975)">
<path fill-rule="evenodd" clip-rule="evenodd" d="M8.75 16.875H21.25C21.595 16.875 21.875 16.595 21.875 16.25C21.875 15.905 21.595 15.625 21.25 15.625H8.75C8.405 15.625 8.125 15.905 8.125 16.25C8.125 16.595 8.405 16.875 8.75 16.875Z" fill="#EB3300"/>
<path fill-rule="evenodd" clip-rule="evenodd" d="M8.75 13.125H21.25C21.595 13.125 21.875 12.845 21.875 12.5C21.875 12.155 21.595 11.875 21.25 11.875H8.75C8.405 11.875 8.125 12.155 8.125 12.5C8.125 12.845 8.405 13.125 8.75 13.125Z" fill="#EB3300"/>
<path fill-rule="evenodd" clip-rule="evenodd" d="M8.75 9.375H21.25C21.595 9.375 21.875 9.095 21.875 8.75C21.875 8.405 21.595 8.125 21.25 8.125H8.75C8.405 8.125 8.125 8.405 8.125 8.75C8.125 9.095 8.405 9.375 8.75 9.375Z" fill="#EB3300"/>
<path fill-rule="evenodd" clip-rule="evenodd" d="M11.2175 3.125L13.8288 1.03563C14.5138 0.488125 15.4862 0.488125 16.1712 1.03563L18.7825 3.125H25C26.0356 3.125 26.875 3.96437 26.875 5V9.59875L28.6712 11.0356C29.1162 11.3919 29.375 11.9306 29.375 12.5V27.5C29.375 28.5356 28.5356 29.375 27.5 29.375H2.5C1.46438 29.375 0.625 28.5356 0.625 27.5V12.5C0.625 11.9306 0.883754 11.3919 1.32875 11.0356L3.125 9.59875V5C3.125 3.96437 3.96438 3.125 5 3.125H11.2175ZM20.1262 20.8006L16.1712 23.9644C15.4862 24.5119 14.5138 24.5119 13.8288 23.9644L9.87375 20.8006L2.10938 27.0119C1.95938 27.1319 1.87625 27.3113 1.875 27.4963V27.5C1.875 27.845 2.155 28.125 2.5 28.125H27.5C27.845 28.125 28.125 27.845 28.125 27.5V27.4963C28.1238 27.3113 28.0406 27.1319 27.8906 27.0119L20.1262 20.8006ZM21.1263 20L28.125 25.5988V14.4012L21.1263 20ZM1.875 25.5988L8.87375 20L1.875 14.4012V25.5988ZM25.625 14.8006V5C25.625 4.655 25.345 4.375 25 4.375H5C4.655 4.375 4.375 4.655 4.375 5V14.8006L14.6094 22.9881C14.8381 23.1706 15.1619 23.1706 15.3906 22.9881L25.625 14.8006ZM3.125 11.1994V13.8006L2.10938 12.9881C1.96125 12.8694 1.875 12.69 1.875 12.5C1.875 12.31 1.96125 12.1306 2.10938 12.0119L3.125 11.1994ZM26.875 11.1994L27.8906 12.0119C28.0388 12.1306 28.125 12.31 28.125 12.5C28.125 12.69 28.0388 12.8694 27.8906 12.9881L26.875 13.8006V11.1994ZM16.7819 3.125H13.2181L14.6094 2.01188C14.8381 1.82938 15.1619 1.82938 15.3906 2.01188L16.7819 3.125Z" fill="#EB3300"/>
</g>
<defs>
<clipPath id="clip0_1157_10975">
<rect width="30" height="30" fill="white"/>
</clipPath>
</defs>
</svg>
