<svg width="30" height="30" viewBox="0 0 30 30" fill="none" xmlns="http://www.w3.org/2000/svg">
<g clip-path="url(#clip0_1157_10916)">
<path d="M23.7091 18.5839C23.0949 17.9444 22.3541 17.6025 21.569 17.6025C20.7902 17.6025 20.0431 17.9381 19.4036 18.5776L17.4027 20.5721C17.2381 20.4834 17.0735 20.4011 16.9152 20.3188C16.6873 20.2048 16.472 20.0972 16.2884 19.9832C14.4142 18.7929 12.7109 17.2416 11.0774 15.2345C10.2859 14.234 9.75404 13.3919 9.36781 12.5371C9.88701 12.0623 10.3682 11.5684 10.8368 11.0935C11.0141 10.9162 11.1913 10.7326 11.3686 10.5553C12.6983 9.22567 12.6983 7.50344 11.3686 6.17379L9.64007 4.44523C9.44379 4.24895 9.24117 4.04633 9.05122 3.84372C8.67132 3.45115 8.27242 3.04592 7.86086 2.66602C7.24669 2.05818 6.51221 1.73526 5.73974 1.73526C4.96727 1.73526 4.22013 2.05818 3.58696 2.66602C3.58063 2.67235 3.58063 2.67235 3.5743 2.67868L1.42152 4.85046C0.61106 5.66092 0.148846 6.64866 0.0475384 7.7947C-0.104423 9.64356 0.440104 11.3658 0.857997 12.4928C1.88373 15.2598 3.41601 17.8241 5.70175 20.5721C8.47504 23.8836 11.8118 26.4986 15.6235 28.3411C17.0798 29.0312 19.0237 29.848 21.1954 29.9873C21.3284 29.9937 21.4677 30 21.5943 30C23.057 30 24.2853 29.4745 25.2477 28.4297C25.2541 28.4171 25.2667 28.4107 25.2731 28.3981C25.6023 27.9992 25.9822 27.6383 26.3811 27.252C26.6534 26.9924 26.932 26.7202 27.2042 26.4352C27.8311 25.7831 28.1603 25.0233 28.1603 24.2445C28.1603 23.4593 27.8247 22.7059 27.1852 22.0727L23.7091 18.5839ZM25.9759 25.2512C25.9695 25.2512 25.9695 25.2575 25.9759 25.2512C25.7289 25.5171 25.4757 25.7577 25.2034 26.0237C24.7918 26.4162 24.374 26.8278 23.9814 27.29C23.3419 27.9738 22.5884 28.2968 21.6007 28.2968C21.5057 28.2968 21.4044 28.2968 21.3094 28.2904C19.4289 28.1701 17.6813 27.4357 16.3707 26.8088C12.7869 25.0739 9.64007 22.6109 7.02508 19.4894C4.86597 16.887 3.42234 14.481 2.46625 11.8976C1.8774 10.3211 1.66212 9.0927 1.7571 7.934C1.82042 7.19319 2.10534 6.57901 2.63087 6.05348L4.78999 3.89437C5.10024 3.60311 5.42949 3.44482 5.75241 3.44482C6.1513 3.44482 6.47422 3.68543 6.67683 3.88804C6.68317 3.89437 6.6895 3.9007 6.69583 3.90704C7.08206 4.26794 7.4493 4.64151 7.83554 5.04041C8.03182 5.24303 8.23443 5.44564 8.43705 5.65459L10.1656 7.38314C10.8368 8.0543 10.8368 8.67481 10.1656 9.34597C9.98198 9.52959 9.8047 9.71321 9.62108 9.8905C9.08921 10.435 8.58268 10.9416 8.03182 11.4354C8.01916 11.4481 8.00649 11.4544 8.00016 11.4671C7.45563 12.0116 7.55694 12.5435 7.67091 12.9044C7.67724 12.9234 7.68358 12.9424 7.68991 12.9614C8.13946 14.0504 8.77263 15.0762 9.73505 16.2982L9.74138 16.3045C11.4889 18.4573 13.3315 20.1352 15.3639 21.4205C15.6235 21.5852 15.8895 21.7181 16.1427 21.8448C16.3707 21.9587 16.586 22.0664 16.7696 22.1803C16.7949 22.193 16.8202 22.212 16.8456 22.2247C17.0608 22.3323 17.2634 22.383 17.4724 22.383C17.9979 22.383 18.3272 22.0537 18.4348 21.9461L20.6003 19.7806C20.8155 19.5653 21.1574 19.3057 21.5563 19.3057C21.9489 19.3057 22.2718 19.5527 22.4681 19.768C22.4744 19.7743 22.4744 19.7743 22.4808 19.7806L25.9695 23.2694C26.6217 23.9152 26.6217 24.5801 25.9759 25.2512Z" fill="#EB3300"/>
<path d="M16.2114 7.13611C17.8703 7.4147 19.3773 8.19983 20.5803 9.40286C21.7833 10.6059 22.5621 12.1128 22.847 13.7717C22.9167 14.1896 23.2776 14.4809 23.6892 14.4809C23.7398 14.4809 23.7841 14.4746 23.8348 14.4682C24.3033 14.3922 24.6136 13.949 24.5376 13.4805C24.1957 11.4733 23.2459 9.64346 21.796 8.1935C20.346 6.74354 18.5161 5.79379 16.509 5.45187C16.0405 5.37589 15.6036 5.68615 15.5213 6.14836C15.4389 6.61058 15.7429 7.06013 16.2114 7.13611Z" fill="#EB3300"/>
<path d="M29.9654 13.2336C29.4019 9.92848 27.8443 6.92092 25.4509 4.52754C23.0575 2.13415 20.05 0.576553 16.7448 0.0130316C16.2826 -0.0692806 15.8457 0.247305 15.7634 0.709519C15.6874 1.17807 15.9977 1.61495 16.4662 1.69727C19.4168 2.19747 22.1078 3.59678 24.2479 5.73056C26.388 7.87068 27.781 10.5617 28.2812 13.5122C28.3508 13.9301 28.7117 14.2214 29.1233 14.2214C29.1739 14.2214 29.2183 14.215 29.2689 14.2087C29.7311 14.1391 30.0477 13.6958 29.9654 13.2336Z" fill="#EB3300"/>
</g>
<defs>
<clipPath id="clip0_1157_10916">
<rect width="30" height="30" fill="white"/>
</clipPath>
</defs>
</svg>
