<svg width="60" height="60" viewBox="0 0 60 60" fill="none" xmlns="http://www.w3.org/2000/svg">
<g clip-path="url(#clip0_1304_13109)">
<path d="M36.4399 38.2807C36.2869 38.1276 36.1053 38.0062 35.9053 37.9234C35.7054 37.8406 35.4911 37.798 35.2747 37.798C35.0583 37.798 34.844 37.8406 34.6441 37.9234C34.4441 38.0062 34.2625 38.1276 34.1094 38.2807L28.1282 44.2619C28.0737 44.3161 28.002 44.3496 27.9254 44.3567C27.8489 44.3639 27.7722 44.3441 27.7087 44.3009C22.9929 41.0859 18.9219 37.015 15.7069 32.2992C15.6637 32.2356 15.6439 32.1589 15.651 32.0823C15.6582 32.0058 15.6917 31.9341 15.7459 31.8795L21.7266 25.8992C21.8798 25.7462 22.0013 25.5645 22.0842 25.3646C22.1672 25.1646 22.2099 24.9502 22.21 24.7337C22.21 24.5172 22.1674 24.3028 22.0846 24.1028C22.0018 23.9027 21.8804 23.721 21.7273 23.5679L11.0188 12.8596C10.7095 12.551 10.2904 12.3777 9.8535 12.3777C9.41656 12.3777 8.99747 12.551 8.68818 12.8596L1.90819 19.6396C1.18168 20.3699 0.639466 21.2626 0.326401 22.2439C0.0133354 23.2252 -0.0615861 24.267 0.107833 25.283C1.42373 33.1992 5.75299 41.1641 12.2985 47.7093C18.8203 54.2307 26.7518 58.5627 34.6336 59.9075C35.653 60.0814 36.6993 60.0091 37.6851 59.6967C38.6709 59.3842 39.5677 58.8406 40.3008 58.1111L47.1201 51.2918C47.2731 51.1387 47.3945 50.9571 47.4773 50.7571C47.5601 50.5572 47.6027 50.3429 47.6027 50.1265C47.6027 49.9101 47.5601 49.6958 47.4773 49.4959C47.3945 49.2959 47.2731 49.1143 47.1201 48.9612L36.4399 38.2807ZM38.2335 56.0436C37.8314 56.4434 37.3394 56.7411 36.7987 56.9118C36.258 57.0826 35.6842 57.1214 35.1255 57.025C27.8355 55.7812 20.4629 51.7382 14.366 45.6418C8.24885 39.5246 4.20893 32.1236 2.99229 24.8036C2.89865 24.2465 2.93902 23.6751 3.11005 23.1366C3.28108 22.5982 3.57786 22.1082 3.97584 21.7072L9.8535 15.8294L18.7572 24.7331L13.6784 29.8125C13.144 30.3481 12.8127 31.053 12.7412 31.8063C12.6698 32.5595 12.8626 33.3141 13.2867 33.9407C16.7098 38.963 21.0451 43.2981 26.0676 46.721C26.6941 47.1451 27.4487 47.338 28.202 47.2665C28.9552 47.1951 29.6601 46.8638 30.1957 46.3294L35.2746 41.2507L44.1505 50.1266L38.2335 56.0436Z" fill="#EB3300"/>
<path d="M49.3318 31.1732V21.6218C49.3318 21.2341 49.1778 20.8622 48.9036 20.588C48.6294 20.3138 48.2576 20.1598 47.8698 20.1598C47.4821 20.1598 47.1102 20.3138 46.836 20.588C46.5618 20.8622 46.4078 21.2341 46.4078 21.6218V24.7282H41.6098L44.7963 16.0319C44.8624 15.8516 44.8923 15.6601 44.8843 15.4682C44.8764 15.2764 44.8307 15.088 44.7499 14.9138C44.6692 14.7396 44.5549 14.583 44.4136 14.453C44.2723 14.323 44.1068 14.2221 43.9266 14.156C43.7463 14.09 43.5548 14.0601 43.3629 14.068C43.1711 14.076 42.9827 14.1217 42.8085 14.2024C42.6343 14.2832 42.4778 14.3975 42.3477 14.5387C42.2177 14.68 42.1168 14.8455 42.0508 15.0258L38.6302 24.3611L38.6109 24.4171C38.4916 24.7887 38.4618 25.1832 38.5238 25.5685C38.5859 25.9539 38.7381 26.3191 38.968 26.6344C39.198 26.9498 39.4992 27.2063 39.8471 27.3832C40.195 27.5601 40.5798 27.6523 40.97 27.6523H46.4075V31.1732C46.4075 31.5609 46.5616 31.9328 46.8358 32.207C47.1099 32.4812 47.4818 32.6352 47.8696 32.6352C48.2573 32.6352 48.6292 32.4812 48.9034 32.207C49.1776 31.9328 49.3316 31.5609 49.3316 31.1732H49.3318Z" fill="#EB3300"/>
<path d="M29.94 25.7243C27.9403 27.3797 26.2117 28.8109 25.7107 30.3662C25.6223 30.6241 25.5967 30.8995 25.6361 31.1693C25.6754 31.4391 25.7787 31.6957 25.9371 31.9176C26.0956 32.1395 26.3048 32.3204 26.5472 32.4452C26.7897 32.57 27.0584 32.6351 27.3311 32.6352H35.8649C36.2527 32.6352 36.6245 32.4811 36.8987 32.207C37.1729 31.9328 37.3269 31.5609 37.3269 31.1731C37.3269 30.7854 37.1729 30.4135 36.8987 30.1393C36.6245 29.8651 36.2527 29.7111 35.8649 29.7111H29.7871C30.4158 29.1263 31.1677 28.5041 31.8046 27.9767C34.3343 25.8825 36.9502 23.717 36.9502 21.2535V19.4426C36.9435 18.0212 36.3742 16.6602 35.3668 15.6575C34.3594 14.6547 32.9958 14.0918 31.5744 14.0918C30.153 14.0918 28.7894 14.6547 27.782 15.6575C26.7745 16.6602 26.2052 18.0212 26.1986 19.4426V19.8715C26.202 20.2569 26.3576 20.6254 26.6314 20.8968C26.9052 21.1682 27.2751 21.3204 27.6606 21.3204C28.046 21.3204 28.4159 21.1682 28.6897 20.8968C28.9635 20.6254 29.1191 20.2569 29.1225 19.8715V19.4426C29.1225 18.7923 29.3808 18.1687 29.8406 17.7089C30.3004 17.2491 30.9241 16.9908 31.5743 16.9908C32.2246 16.9908 32.8482 17.2491 33.308 17.7089C33.7678 18.1687 34.0261 18.7923 34.0261 19.4426V21.2533C34.0261 22.3415 31.5672 24.3772 29.94 25.7243Z" fill="#EB3300"/>
<path d="M52.5637 7.41634C50.0836 4.93616 47.1153 2.99831 43.8469 1.72566C40.5785 0.452999 37.0813 -0.126708 33.5771 0.0232864C30.0728 0.173281 26.638 1.04971 23.4903 2.597C20.3425 4.14429 17.5506 6.32869 15.2916 9.01173C15.1678 9.15853 15.0742 9.32826 15.0161 9.51123C14.9579 9.69421 14.9364 9.88684 14.9527 10.0781C14.969 10.2694 15.0229 10.4556 15.1112 10.6261C15.1994 10.7966 15.3204 10.948 15.4672 11.0718C15.614 11.1955 15.7837 11.2891 15.9667 11.3472C16.1497 11.4054 16.3423 11.4269 16.5336 11.4106C16.7249 11.3943 16.9111 11.3404 17.0816 11.2522C17.2521 11.1639 17.4035 11.0429 17.5273 10.8961C19.6279 8.39738 22.2501 6.38886 25.2097 5.01162C28.1694 3.63438 31.3946 2.9218 34.659 2.92396C47.0088 2.92396 57.0561 12.9713 57.0561 25.3211C57.0625 28.6749 56.3125 31.9869 54.8621 35.0108C53.4116 38.0348 51.298 40.6927 48.6784 42.7869C48.5278 42.9069 48.4024 43.0554 48.3093 43.2239C48.2162 43.3925 48.1574 43.5777 48.1361 43.7691C48.1149 43.9604 48.1316 44.1541 48.1854 44.3389C48.2392 44.5238 48.329 44.6962 48.4496 44.8463C48.5702 44.9963 48.7192 45.1211 48.8882 45.2134C49.0571 45.3057 49.2427 45.3638 49.4341 45.3842C49.6255 45.4046 49.8191 45.387 50.0037 45.3324C50.1884 45.2778 50.3604 45.1872 50.5099 45.066C53.2842 42.8391 55.5581 40.0526 57.1834 36.888C58.8087 33.7235 59.7488 30.2519 59.9426 26.6997C60.1364 23.1475 59.5794 19.5943 58.308 16.2717C57.0366 12.9492 55.0794 9.93181 52.5637 7.41634Z" fill="#EB3300"/>
</g>
<defs>
<clipPath id="clip0_1304_13109">
<rect width="60" height="60" fill="white"/>
</clipPath>
</defs>
</svg>
