<svg width="40" height="40" viewBox="0 0 40 40" fill="none" xmlns="http://www.w3.org/2000/svg">
<path d="M37.3137 7.99619C35.5061 5.96564 33.3123 4.93604 30.7934 4.93604C28.5294 4.93604 26.6102 5.74221 25.0886 7.33205C23.5766 8.91174 22.81 10.8738 22.81 13.164C22.81 15.3282 23.5844 17.2567 25.1116 18.8961C26.4588 20.3424 28.1559 21.2623 30.165 21.6372C29.8137 24.3009 27.4589 26.7119 23.152 28.8127L22.3765 29.191L25.5562 35.0613L26.2741 34.6975C35.382 30.0808 40 23.5562 40 15.3049C40 12.4581 39.0962 9.99924 37.3137 7.99619ZM26.2402 32.8511L24.6471 29.9103C29.438 27.3999 31.8652 24.3822 31.8652 20.9319V20.1931L31.1312 20.11C29.1543 19.8863 27.5812 19.1204 26.322 17.7686C25.0719 16.4267 24.4642 14.9206 24.4642 13.164C24.4642 11.2884 25.0594 9.75494 26.2837 8.47572C27.498 7.20689 28.9732 6.5901 30.7934 6.5901C32.8485 6.5901 34.5771 7.40979 36.078 9.09588C37.6041 10.8106 38.3459 12.8415 38.3459 15.3048C38.3459 19.0866 37.281 22.5008 35.1809 25.4526C33.177 28.269 30.1715 30.7555 26.2402 32.8511Z" fill="#EB3300"/>
<path d="M14.8936 7.99244C13.066 5.96439 10.8631 4.93604 8.34601 4.93604C6.07992 4.93604 4.16937 5.74369 2.66773 7.3365C1.17898 8.91557 0.424062 10.8762 0.424062 13.164C0.424062 15.3281 1.19844 17.2567 2.72555 18.8961C4.06992 20.3392 5.74664 21.2583 7.71836 21.6349C7.37125 24.3006 5.03609 26.7128 0.76375 28.814L0 29.1895L3.10062 35.064L3.82555 34.6982C12.9748 30.0817 17.6138 23.5568 17.6138 15.3048C17.6137 12.4559 16.6984 9.99564 14.8936 7.99244ZM3.80148 32.8483L2.2518 29.9121C7.00789 27.4007 9.41781 24.3823 9.41781 20.9318V20.1947L8.68547 20.1102C6.74906 19.8867 5.19531 19.1208 3.93578 17.7685C2.6857 16.4267 2.07812 14.9205 2.07812 13.164C2.07812 11.286 2.66469 9.75088 3.87117 8.47127C5.06453 7.20549 6.52836 6.5901 8.34601 6.5901C10.4031 6.5901 12.143 7.41096 13.6647 9.09971C15.209 10.8135 15.9597 12.8432 15.9597 15.3048C15.9597 19.086 14.8902 22.4997 12.7805 25.4512C10.768 28.2668 7.74953 30.7529 3.80148 32.8483Z" fill="#EB3300"/>
</svg>
