<svg width="34" height="36" viewBox="0 0 34 36" fill="none" xmlns="http://www.w3.org/2000/svg">
<path fill-rule="evenodd" clip-rule="evenodd" d="M3.875 1.125C3.875 0.607234 4.29472 0.1875 4.8125 0.1875H8.875C9.39278 0.1875 9.8125 0.607234 9.8125 1.125V2.21875H20.4375V1.125C20.4375 0.607234 20.8572 0.1875 21.375 0.1875H25.4375C25.9553 0.1875 26.375 0.607234 26.375 1.125V2.21875H29.3438C29.8616 2.21875 30.2812 2.63847 30.2812 3.15625V19.4062C30.2812 19.7514 30.0016 20.0312 29.6562 20.0312C29.3109 20.0312 29.0312 19.7514 29.0312 19.4062V9.25H1.375V27.5312H7C7.34519 27.5312 7.625 27.8111 7.625 28.1562C7.625 28.5014 7.34519 28.7812 7 28.7812H1.0625C0.544719 28.7812 0.125 28.3615 0.125 27.8438V3.15625C0.125 2.63847 0.544719 2.21875 1.0625 2.21875H3.875V1.125ZM25.125 1.4375H21.6875V4.25H25.125V1.4375ZM26.375 3.46875H29.0312V8H1.375V3.46875H3.875V4.5625C3.875 5.08028 4.29472 5.5 4.8125 5.5H8.875C9.39278 5.5 9.8125 5.08028 9.8125 4.5625V3.46875H20.4375V4.5625C20.4375 5.08028 20.8572 5.5 21.375 5.5H25.4375C25.9553 5.5 26.375 5.08028 26.375 4.5625V3.46875ZM8.5625 1.4375V4.25H5.125V1.4375H8.5625Z" fill="white"/>
<path d="M10.1979 25.8905C10.4544 25.6596 10.8496 25.6804 11.0805 25.937L12.0348 26.9973H14.5444C14.8895 26.9973 15.1694 27.2772 15.1694 27.6223C15.1694 27.9675 14.8895 28.2473 14.5444 28.2473H11.8956C11.6299 28.2473 11.3766 28.1345 11.1988 27.937L10.1514 26.7732C9.92051 26.5166 9.94129 26.1214 10.1979 25.8905Z" fill="white"/>
<path d="M29.7606 25.8905C30.0171 26.1215 30.0381 26.5166 29.8071 26.7732L28.7596 27.937C28.5818 28.1345 28.3287 28.2473 28.0628 28.2473H25.4141C25.0689 28.2473 24.7891 27.9675 24.7891 27.6223C24.7891 27.2772 25.0689 26.9973 25.4141 26.9973H27.9236L28.8778 25.937C29.1087 25.6804 29.504 25.6596 29.7606 25.8905Z" fill="white"/>
<path d="M14.1729 29.9034C14.1729 29.5581 14.4527 29.2784 14.7979 29.2784H25.1608C25.5059 29.2784 25.7858 29.5581 25.7858 29.9034C25.7858 30.2484 25.5059 30.5284 25.1608 30.5284H14.7979C14.4527 30.5284 14.1729 30.2484 14.1729 29.9034Z" fill="white"/>
<path fill-rule="evenodd" clip-rule="evenodd" d="M13.4358 18.0998C13.5752 18.0281 13.7205 18 13.8533 18H19.8666C19.9051 18 19.9427 18.0035 19.9792 18.0101C20.0157 18.0035 20.0533 18 20.0918 18H26.1051C26.2379 18 26.3832 18.0281 26.5226 18.0998C27.2379 18.4679 28.4169 19.5036 28.9122 21.3039C29.08 21.1437 29.3072 21.0413 29.5638 21.0413H31.975C33.0359 21.0413 33.8959 21.9014 33.8959 22.9623C33.8959 23.9104 33.2041 24.7167 32.2672 24.8608L31.075 25.0442L31.2863 25.3399C31.6647 25.8699 31.8684 26.5049 31.8684 27.1562V29.5575C31.8684 30.3041 31.6066 30.9894 31.17 31.5269C31.2116 31.6103 31.2347 31.7044 31.2347 31.8041V33.4688C31.2347 34.5044 30.3953 35.3438 29.3597 35.3438H26.4279C25.4528 35.3438 24.6624 34.5534 24.6624 33.5781C24.6624 33.2331 24.9422 32.9531 25.2874 32.9531C25.6326 32.9531 25.9124 33.2331 25.9124 33.5781C25.9124 33.8628 26.1432 34.0938 26.4279 34.0938H29.3597C29.705 34.0938 29.9847 33.8141 29.9847 33.4688V32.4263C29.6044 32.5913 29.1844 32.6825 28.7434 32.6825H11.2151C10.7739 32.6825 10.3542 32.5913 9.97366 32.4263V33.4688C9.97366 33.8141 10.2535 34.0938 10.5987 34.0938H13.5305C13.8152 34.0938 14.046 33.8628 14.046 33.5781C14.046 33.2331 14.3258 32.9531 14.671 32.9531C15.0162 32.9531 15.296 33.2331 15.296 33.5781C15.296 34.5534 14.5056 35.3438 13.5305 35.3438H10.5987C9.56313 35.3438 8.72366 34.5044 8.72366 33.4688V31.8041C8.72366 31.7044 8.74697 31.6103 8.78844 31.5269C8.35178 30.9894 8.09006 30.3041 8.09006 29.5575V27.1562C8.09006 26.5049 8.29356 25.8699 8.67216 25.3399L8.88331 25.0442L7.69134 24.8608C6.75425 24.7167 6.0625 23.9104 6.0625 22.9623C6.0625 21.9014 6.92253 21.0413 7.98344 21.0413H10.3948C10.6512 21.0413 10.8784 21.1437 11.0461 21.3039C11.5416 19.5036 12.7205 18.4679 13.4358 18.0998ZM11.9326 22.6272C12.4704 23.1674 13.1038 23.3967 13.4467 23.4491H26.5117C26.8546 23.3967 27.488 23.1674 28.0258 22.6272C27.9268 22.5336 27.8575 22.407 27.8367 22.2616C27.586 20.5067 26.5476 19.555 26.0213 19.25H20.0918C20.0533 19.25 20.0157 19.2465 19.9792 19.2399C19.9427 19.2465 19.9051 19.25 19.8666 19.25H13.9371C13.4108 19.555 12.3724 20.5067 12.1217 22.2616C12.1009 22.407 12.0316 22.5336 11.9326 22.6272ZM13.3649 24.6991L13.3263 24.6943C12.5435 24.5964 10.9849 23.9797 10.1968 22.2913H7.98344C7.61287 22.2913 7.3125 22.5917 7.3125 22.9623C7.3125 23.2934 7.55409 23.575 7.88141 23.6254L9.57534 23.886C10.2658 23.9922 10.6017 24.7891 10.1957 25.3575L9.68931 26.0664C9.46216 26.3844 9.34006 26.7654 9.34006 27.1562V29.5575C9.34006 30.5931 10.1795 31.4325 11.2151 31.4325H28.7434C29.7788 31.4325 30.6184 30.5931 30.6184 29.5575V27.1562C30.6184 26.7654 30.4962 26.3844 30.2691 26.0664L29.7628 25.3575C29.3569 24.7891 29.6925 23.9922 30.3831 23.886L32.0769 23.6254C32.4044 23.575 32.6459 23.2934 32.6459 22.9623C32.6459 22.5917 32.3456 22.2913 31.975 22.2913H29.7616C28.9734 23.9797 27.4149 24.5964 26.6321 24.6943L26.5935 24.6991H13.3649Z" fill="white"/>
<path fill-rule="evenodd" clip-rule="evenodd" d="M20.4375 12.375C20.4375 11.8572 20.8572 11.4375 21.375 11.4375H25.4375C25.9553 11.4375 26.375 11.8572 26.375 12.375V15.8125C26.375 16.3303 25.9553 16.75 25.4375 16.75H21.375C20.8572 16.75 20.4375 16.3303 20.4375 15.8125V12.375ZM21.6875 12.6875V15.5H25.125V12.6875H21.6875Z" fill="white"/>
<path fill-rule="evenodd" clip-rule="evenodd" d="M4.8125 11.4375C4.29472 11.4375 3.875 11.8572 3.875 12.375V15.8125C3.875 16.3303 4.29472 16.75 4.8125 16.75H8.875C9.39278 16.75 9.8125 16.3303 9.8125 15.8125V12.375C9.8125 11.8572 9.39278 11.4375 8.875 11.4375H4.8125ZM5.125 15.5V12.6875H8.5625V15.5H5.125Z" fill="white"/>
<path d="M3.875 19.25C3.875 18.7322 4.29472 18.3125 4.8125 18.3125H9.1875C9.53269 18.3125 9.8125 18.5923 9.8125 18.9375C9.8125 19.2827 9.53269 19.5625 9.1875 19.5625H5.125V23C5.125 23.3452 4.84519 23.625 4.5 23.625C4.15481 23.625 3.875 23.3452 3.875 23V19.25Z" fill="white"/>
<path fill-rule="evenodd" clip-rule="evenodd" d="M13.25 11.4375C12.7322 11.4375 12.3125 11.8572 12.3125 12.375V15.8125C12.3125 16.3303 12.7322 16.75 13.25 16.75H17.3125C17.8303 16.75 18.25 16.3303 18.25 15.8125V12.375C18.25 11.8572 17.8303 11.4375 17.3125 11.4375H13.25ZM13.5625 15.5V12.6875H17V15.5H13.5625Z" fill="white"/>
</svg>
