<svg width="50" height="50" viewBox="0 0 50 50" fill="none" xmlns="http://www.w3.org/2000/svg">
<path fill-rule="evenodd" clip-rule="evenodd" d="M8.59375 3.90625C8.59375 3.25904 9.1184 2.73438 9.76562 2.73438H14.8438C15.491 2.73438 16.0156 3.25904 16.0156 3.90625V5.27344H29.2969V3.90625C29.2969 3.25904 29.8215 2.73438 30.4688 2.73438H35.5469C36.1941 2.73438 36.7188 3.25904 36.7188 3.90625V5.27344H40.4297C41.077 5.27344 41.6016 5.79809 41.6016 6.44531V26.7578C41.6016 27.1893 41.252 27.5391 40.8203 27.5391C40.3887 27.5391 40.0391 27.1893 40.0391 26.7578V14.0625H5.46875V36.9141H12.5C12.9315 36.9141 13.2812 37.2638 13.2812 37.6953C13.2812 38.1268 12.9315 38.4766 12.5 38.4766H5.07812C4.4309 38.4766 3.90625 37.9519 3.90625 37.3047V6.44531C3.90625 5.79809 4.4309 5.27344 5.07812 5.27344H8.59375V3.90625ZM35.1562 4.29688H30.8594V7.8125H35.1562V4.29688ZM36.7188 6.83594H40.0391V12.5H5.46875V6.83594H8.59375V8.20312C8.59375 8.85035 9.1184 9.375 9.76562 9.375H14.8438C15.491 9.375 16.0156 8.85035 16.0156 8.20312V6.83594H29.2969V8.20312C29.2969 8.85035 29.8215 9.375 30.4688 9.375H35.5469C36.1941 9.375 36.7188 8.85035 36.7188 8.20312V6.83594ZM14.4531 4.29688V7.8125H10.1562V4.29688H14.4531Z" fill="white"/>
<path d="M16.4973 34.8631C16.818 34.5745 17.3119 34.6005 17.6006 34.9212L18.7935 36.2466H21.9304C22.3619 36.2466 22.7116 36.5964 22.7116 37.0279C22.7116 37.4594 22.3619 37.8091 21.9304 37.8091H18.6195C18.2873 37.8091 17.9707 37.6681 17.7485 37.4212L16.4392 35.9665C16.1506 35.6458 16.1766 35.1518 16.4973 34.8631Z" fill="white"/>
<path d="M40.9508 34.8631C41.2715 35.1518 41.2977 35.6458 41.009 35.9665L39.6997 37.4212C39.4774 37.6681 39.161 37.8091 38.8286 37.8091H35.5177C35.0862 37.8091 34.7365 37.4594 34.7365 37.0279C34.7365 36.5964 35.0862 36.2466 35.5177 36.2466H38.6546L39.8473 34.9212C40.136 34.6005 40.6301 34.5745 40.9508 34.8631Z" fill="white"/>
<path d="M21.4659 39.8793C21.4659 39.4476 21.8157 39.098 22.2472 39.098H35.2008C35.6323 39.098 35.9821 39.4476 35.9821 39.8793C35.9821 40.3105 35.6323 40.6605 35.2008 40.6605H22.2472C21.8157 40.6605 21.4659 40.3105 21.4659 39.8793Z" fill="white"/>
<path fill-rule="evenodd" clip-rule="evenodd" d="M20.5447 25.1248C20.719 25.0351 20.9006 25 21.0666 25H28.5833C28.6313 25 28.6784 25.0043 28.724 25.0127C28.7696 25.0043 28.8167 25 28.8647 25H36.3814C36.5474 25 36.729 25.0351 36.9033 25.1248C37.7974 25.5848 39.2711 26.8795 39.8902 29.1298C40.1 28.9296 40.384 28.8017 40.7047 28.8017H43.7188C45.0449 28.8017 46.1199 29.8767 46.1199 31.2028C46.1199 32.388 45.2551 33.3959 44.084 33.5761L42.5938 33.8053L42.8578 34.1748C43.3309 34.8373 43.5855 35.6311 43.5855 36.4453V39.4469C43.5855 40.3801 43.2582 41.2367 42.7125 41.9086C42.7645 42.0129 42.7934 42.1305 42.7934 42.2551V44.3359C42.7934 45.6305 41.7441 46.6797 40.4496 46.6797H36.7849C35.5661 46.6797 34.578 45.6918 34.578 44.4727C34.578 44.0414 34.9278 43.6914 35.3593 43.6914C35.7907 43.6914 36.1405 44.0414 36.1405 44.4727C36.1405 44.8285 36.429 45.1172 36.7849 45.1172H40.4496C40.8813 45.1172 41.2309 44.7676 41.2309 44.3359V43.0328C40.7555 43.2391 40.2305 43.3531 39.6793 43.3531H17.7688C17.2174 43.3531 16.6927 43.2391 16.2171 43.0328V44.3359C16.2171 44.7676 16.5669 45.1172 16.9983 45.1172H20.6631C21.019 45.1172 21.3075 44.8285 21.3075 44.4727C21.3075 44.0414 21.6573 43.6914 22.0887 43.6914C22.5202 43.6914 22.87 44.0414 22.87 44.4727C22.87 45.6918 21.882 46.6797 20.6631 46.6797H16.9983C15.7039 46.6797 14.6546 45.6305 14.6546 44.3359V42.2551C14.6546 42.1305 14.6837 42.0129 14.7355 41.9086C14.1897 41.2367 13.8626 40.3801 13.8626 39.4469V36.4453C13.8626 35.6311 14.117 34.8373 14.5902 34.1748L14.8541 33.8053L13.3642 33.5761C12.1928 33.3959 11.3281 32.388 11.3281 31.2028C11.3281 29.8767 12.4032 28.8017 13.7293 28.8017H16.7435C17.064 28.8017 17.348 28.9296 17.5577 29.1298C18.177 26.8795 19.6506 25.5848 20.5447 25.1248ZM18.6657 30.784C19.338 31.4592 20.1297 31.7458 20.5583 31.8113H36.8897C37.3183 31.7458 38.11 31.4592 38.7823 30.784C38.6585 30.667 38.5719 30.5088 38.5459 30.327C38.2325 28.1333 36.9345 26.9438 36.2766 26.5625H28.8647C28.8167 26.5625 28.7696 26.5582 28.724 26.5498C28.6784 26.5582 28.6313 26.5625 28.5833 26.5625H21.1714C20.5135 26.9438 19.2155 28.1333 18.9021 30.327C18.8761 30.5088 18.7895 30.667 18.6657 30.784ZM20.4561 33.3738L20.4079 33.3678C19.4293 33.2455 17.4812 32.4746 16.496 30.3642H13.7293C13.2661 30.3642 12.8906 30.7396 12.8906 31.2028C12.8906 31.6168 13.1926 31.9688 13.6018 32.0318L15.7192 32.3575C16.5822 32.4903 17.0021 33.4864 16.4946 34.1969L15.8616 35.083C15.5777 35.4805 15.4251 35.9568 15.4251 36.4453V39.4469C15.4251 40.7414 16.4744 41.7906 17.7688 41.7906H39.6793C40.9734 41.7906 42.023 40.7414 42.023 39.4469V36.4453C42.023 35.9568 41.8703 35.4805 41.5863 35.083L40.9535 34.1969C40.4461 33.4864 40.8656 32.4903 41.7289 32.3575L43.8461 32.0318C44.2555 31.9688 44.5574 31.6168 44.5574 31.2028C44.5574 30.7396 44.182 30.3642 43.7188 30.3642H40.952C39.9668 32.4746 38.0187 33.2455 37.0402 33.3678L36.9919 33.3738H20.4561Z" fill="white"/>
<path fill-rule="evenodd" clip-rule="evenodd" d="M29.2969 17.9688C29.2969 17.3215 29.8215 16.7969 30.4688 16.7969H35.5469C36.1941 16.7969 36.7188 17.3215 36.7188 17.9688V22.2656C36.7188 22.9129 36.1941 23.4375 35.5469 23.4375H30.4688C29.8215 23.4375 29.2969 22.9129 29.2969 22.2656V17.9688ZM30.8594 18.3594V21.875H35.1562V18.3594H30.8594Z" fill="white"/>
<path fill-rule="evenodd" clip-rule="evenodd" d="M9.76562 16.7969C9.1184 16.7969 8.59375 17.3215 8.59375 17.9688V22.2656C8.59375 22.9129 9.1184 23.4375 9.76562 23.4375H14.8438C15.491 23.4375 16.0156 22.9129 16.0156 22.2656V17.9688C16.0156 17.3215 15.491 16.7969 14.8438 16.7969H9.76562ZM10.1562 21.875V18.3594H14.4531V21.875H10.1562Z" fill="white"/>
<path d="M8.59375 26.5625C8.59375 25.9153 9.1184 25.3906 9.76562 25.3906H15.2344C15.6659 25.3906 16.0156 25.7404 16.0156 26.1719C16.0156 26.6034 15.6659 26.9531 15.2344 26.9531H10.1562V31.25C10.1562 31.6815 9.80648 32.0312 9.375 32.0312C8.94352 32.0312 8.59375 31.6815 8.59375 31.25V26.5625Z" fill="white"/>
<path fill-rule="evenodd" clip-rule="evenodd" d="M20.3125 16.7969C19.6653 16.7969 19.1406 17.3215 19.1406 17.9688V22.2656C19.1406 22.9129 19.6653 23.4375 20.3125 23.4375H25.3906C26.0379 23.4375 26.5625 22.9129 26.5625 22.2656V17.9688C26.5625 17.3215 26.0379 16.7969 25.3906 16.7969H20.3125ZM20.7031 21.875V18.3594H25V21.875H20.7031Z" fill="white"/>
</svg>
