<svg width="40" height="40" viewBox="0 0 40 40" fill="none" xmlns="http://www.w3.org/2000/svg">
<g clip-path="url(#clip0_784_10731)">
<path d="M18.7096 23.5483C19.7767 23.5483 20.6451 22.6799 20.6451 21.6128C20.6451 20.5457 19.7767 19.6774 18.7096 19.6774C17.6425 19.6774 16.7742 20.5457 16.7742 21.6128C16.7742 22.6799 17.6425 23.5483 18.7096 23.5483ZM18.7096 20.9677C19.0651 20.9677 19.3548 21.2567 19.3548 21.6128C19.3548 21.9689 19.0651 22.258 18.7096 22.258C18.3542 22.258 18.0645 21.9689 18.0645 21.6128C18.0645 21.2567 18.3542 20.9677 18.7096 20.9677Z" fill="white"/>
<path d="M10.9677 24.1935C9.90059 24.1935 9.03223 25.0618 9.03223 26.1289C9.03223 27.1961 9.90059 28.0644 10.9677 28.0644C12.0348 28.0644 12.9032 27.1961 12.9032 26.1289C12.9032 25.0618 12.0348 24.1935 10.9677 24.1935ZM10.9677 26.7742C10.6122 26.7742 10.3225 26.4851 10.3225 26.129C10.3225 25.7729 10.6122 25.4839 10.9677 25.4839C11.3232 25.4839 11.6129 25.7729 11.6129 26.129C11.6129 26.4851 11.3232 26.7742 10.9677 26.7742Z" fill="white"/>
<path d="M27.742 22.2581C26.6749 22.2581 25.8065 23.1264 25.8065 24.1935C25.8065 25.2606 26.6749 26.129 27.742 26.129C28.8091 26.129 29.6775 25.2606 29.6775 24.1935C29.6775 23.1265 28.8091 22.2581 27.742 22.2581ZM27.742 24.8387C27.3865 24.8387 27.0968 24.5496 27.0968 24.1935C27.0968 23.8374 27.3865 23.5484 27.742 23.5484C28.0975 23.5484 28.3871 23.8374 28.3871 24.1935C28.3871 24.5497 28.0975 24.8387 27.742 24.8387Z" fill="white"/>
<path d="M2.58057 30.6451C2.58057 31.3568 3.15924 31.9354 3.87088 31.9354H30.3225C34.2354 31.9354 37.4193 28.7515 37.4193 24.8386V18.387C37.4193 17.6754 36.8406 17.0967 36.129 17.0967H16.129C8.65799 17.0968 2.58057 23.1748 2.58057 30.6451ZM3.87088 30.6451C3.87088 28.5922 4.38439 26.6586 5.28057 24.9568C5.20252 25.3355 5.16119 25.7277 5.16119 26.129C5.16119 27.9522 6.00768 29.58 7.32635 30.6451H3.87088ZM15.4838 21.6129C15.4838 19.8342 16.931 18.3871 18.7096 18.3871C20.4883 18.3871 21.9354 19.8342 21.9354 21.6129C21.9354 23.3915 20.4883 24.8386 18.7096 24.8386C17.7342 24.8386 16.8264 24.4051 16.2103 23.6496C16.0663 23.347 15.8999 23.0579 15.7077 22.787C15.5619 22.4129 15.4838 22.0186 15.4838 21.6129ZM27.7419 30C24.7225 30 22.2399 27.7064 21.967 24.7322C22.7445 23.9206 23.2257 22.8225 23.2257 21.6129C23.2257 21.2942 23.1915 20.9838 23.1283 20.6838C24.2251 19.2451 25.9251 18.387 27.7418 18.387C30.9431 18.387 33.5483 20.9915 33.5483 24.1935C33.5483 27.3954 30.9431 30 27.7419 30ZM15.4838 26.129C15.4838 28.6187 13.4581 30.6451 10.9678 30.6451C8.47744 30.6451 6.45166 28.6186 6.45166 26.129C6.45166 23.6394 8.47744 21.6129 10.9678 21.6129C13.4581 21.6129 15.4838 23.6393 15.4838 26.129ZM16.7742 26.129C16.7742 25.9793 16.7632 25.8322 16.7516 25.6851C17.3535 25.9742 18.0193 26.129 18.7096 26.129C19.4619 26.129 20.1703 25.9413 20.7948 25.6148C21.2516 27.8709 22.7651 29.72 24.7935 30.6451H14.609C15.9277 29.58 16.7742 27.9522 16.7742 26.129ZM36.129 18.3871V24.8387C36.129 27.9052 33.7381 30.4174 30.7232 30.6252C33.149 29.4955 34.8387 27.0413 34.8387 24.1936C34.8387 21.7936 33.6381 19.6723 31.8096 18.3871H36.129ZM23.6677 18.3871C23.2806 18.6587 22.9238 18.9748 22.5948 19.3225C22.3916 18.9793 22.1471 18.6645 21.8638 18.3871H23.6677ZM14.2083 21.3135C13.2825 20.6883 12.167 20.3225 10.9677 20.3225C10.296 20.3225 9.65283 20.4432 9.05221 20.6542C10.898 19.3425 13.1187 18.5368 15.5213 18.4181C14.7677 19.1696 14.2831 20.1864 14.2083 21.3135Z" fill="white"/>
<path d="M38.7097 14.5161H15.4839C6.94648 14.5161 0 21.4626 0 30V33.2258C0 33.9374 0.578672 34.5161 1.29031 34.5161H30.9677C35.9484 34.5161 40 30.4645 40 25.4838V15.8065C40 15.0949 39.4213 14.5161 38.7097 14.5161ZM38.7097 25.4839C38.7097 29.753 35.2368 33.2259 30.9677 33.2259H1.29031V30C1.29031 22.1735 7.65742 15.8065 15.4838 15.8065H38.7096V25.4839H38.7097Z" fill="white"/>
<path d="M19.3549 5.48389H20.6452V13.2258H19.3549V5.48389Z" fill="white"/>
<path d="M22.609 13.0098L23.8985 9.13733L25.123 9.54506L23.8335 13.4175L22.609 13.0098Z" fill="white"/>
<path d="M25.9379 12.8445L29.8087 7.68342L30.8403 8.45719L26.9696 13.6182L25.9379 12.8445Z" fill="white"/>
<path d="M14.8749 9.56543L16.0994 9.15769L17.3889 13.0303L16.1644 13.438L14.8749 9.56543Z" fill="white"/>
<path d="M9.16125 8.45154L10.193 7.67773L14.064 12.839L13.0322 13.6129L9.16125 8.45154Z" fill="white"/>
</g>
<defs>
<clipPath id="clip0_784_10731">
<rect width="40" height="40" fill="white"/>
</clipPath>
</defs>
</svg>
