<svg width="60" height="60" viewBox="0 0 60 60" fill="none" xmlns="http://www.w3.org/2000/svg">
<g clip-path="url(#clip0_664_7977)">
<path d="M42 44H32C30.8954 44 30 44.8954 30 46V48C30 49.1046 30.8954 50 32 50H41.9999C43.1045 50 43.9999 49.1046 43.9999 48V46C44 44.8954 43.1045 44 42 44ZM42 47.9999H32V46H41.9999L42 47.9999Z" fill="white"/>
<path fill-rule="evenodd" clip-rule="evenodd" d="M35 42H39C39.5522 42 40 41.5523 40 41C40 40.4478 39.5522 40 39 40H35C34.4477 40 34 40.4478 34 41C34 41.5523 34.4477 42 35 42Z" fill="white"/>
<path d="M57 29.9999H54C53.1182 30.0031 52.2831 30.3963 51.719 31.0739L49.5569 22.974C49.0925 21.2239 47.5105 20.0042 45.6999 20H34V3.00001C34 1.34318 32.6568 0 31 0H3.00001C1.34318 0 0 1.34318 0 3.00001V21C0 22.6568 1.34318 24 3.00001 24H11.0001V26.1421C9.23932 26.5966 8.00687 28.1817 8.00004 30V31.0001C8.00004 32.1046 8.89546 33.0001 10 33.0001H21.768L21.211 35.0801C18.79 35.4644 17.0059 37.5489 17 40.0001V51.0001C17.0052 52.2669 17.8057 53.3938 19 53.8161V57.0001C19 58.6569 20.3432 60.0001 22 60.0001H25C26.6569 60.0001 28 58.6569 28 57.0001V54.0001H46V57.0001C46 58.6569 47.3432 60.0001 49 60.0001H52.0001C53.6569 60.0001 55.0001 58.6569 55.0001 57.0001V53.8161C56.1944 53.3938 56.9948 52.2669 57.0001 51.0001V40C56.9964 38.9145 56.6359 37.8603 55.9741 37H57.0001C58.6569 37 60.0001 35.6568 60.0001 34V33C60 31.3431 58.6568 29.9999 57 29.9999ZM3.00001 2.00001H31C31.5522 2.00001 32 2.44777 32 3.00001V17H27.9999V13C27.9999 11.8954 27.1045 11 25.9999 11H23.9999C22.8953 11 21.9999 11.8954 21.9999 13V17H19.9999V9.99995C19.9999 8.89536 19.1045 7.99994 17.9999 7.99994H15.9999C14.8953 7.99994 13.9999 8.89536 13.9999 9.99995V17H11.9999V6.00003C11.9999 4.89544 11.1044 4.00002 9.99985 4.00002H8.00004C6.89545 4.00002 6.00003 4.89544 6.00003 6.00003V17H2.00001V3.00001C2.00001 2.44767 2.44767 2.00001 3.00001 2.00001ZM24 13H26V17H24V13ZM16 9.99995H18V17H16V9.99995ZM9.99995 17H8.00004V6.00003H10L9.99995 17ZM2.00001 21V19H32V21C32 21.5522 31.5522 22 31 22H3.00001C2.44767 22 2.00001 21.5522 2.00001 21ZM21 24V26H13V24H21ZM9.99995 29.9999C9.99995 28.8954 10.8954 27.9999 12 27.9999H21.9999C23.1045 27.9999 23.9999 28.8954 23.9999 29.9999V31H9.99995V29.9999ZM24 33C25.1046 33 26 32.1045 26 31V29.9999C25.9932 28.1816 24.7607 26.5965 23 26.142V23.9999H31.0001C32.2669 23.9947 33.3938 23.1942 33.8161 21.9999H45.6999C46.6039 22.0042 47.3925 22.6142 47.624 23.4879L50.7 34.9999H38.414L44.707 28.7069C45.0859 28.3145 45.0805 27.6908 44.6948 27.3051C44.309 26.9193 43.6854 26.914 43.293 27.2929L35.586 34.9999H29.414L35.707 28.7069C36.0859 28.3145 36.0806 27.6908 35.6948 27.3051C35.3091 26.9193 34.6854 26.914 34.293 27.2929L26.586 34.9999H23.3L23.835 32.9999H24V33ZM19 42H26L27 44H19V42ZM26 57C26 57.5522 25.5523 58 25 58H22C21.4478 58 21 57.5522 21 57V54H26V57ZM53 57C53 57.5522 52.5522 58 52 58H48.9999C48.4477 58 47.9999 57.5522 47.9999 57V54H53V57ZM55 44H46.9999L47.9999 42H55V44ZM55 40H47.9999C47.2436 39.9989 46.5513 40.4246 46.211 41.1L45.211 43.1C44.8983 43.7205 44.9301 44.4588 45.2949 45.0501C45.6596 45.6415 46.3052 46.0011 46.9999 46H55V51.0001C55 51.5523 54.5522 52.0001 54 52.0001H20C19.4478 52.0001 19 51.5523 19 51.0001V46H27C27.6948 46.001 28.3403 45.6414 28.7051 45.0501C29.0699 44.4588 29.1017 43.7205 28.789 43.1L27.789 41.1C27.4506 40.4228 26.7571 39.9963 26 40H19C19 38.3432 20.3432 37 22 37H52C53.6568 37 55 38.3432 55 40ZM58 34C58 34.5522 57.5522 35 57 35H53V33C53 32.4477 53.4477 32 54 32H57C57.5522 32 58 32.4477 58 33V34Z" fill="white"/>
</g>
<defs>
<clipPath id="clip0_664_7977">
<rect width="60" height="60" fill="white"/>
</clipPath>
</defs>
</svg>
