<svg width="40" height="40" viewBox="0 0 40 40" fill="none" xmlns="http://www.w3.org/2000/svg">
<g clip-path="url(#clip0_784_9045)">
<path d="M11.6155 13.5484H16.4948L20.9852 6.0632C21.7968 4.71094 23.2806 3.87094 24.8574 3.87094H40V2.58063H24.8574C22.8297 2.58063 20.922 3.66062 19.8787 5.3993L18.7084 7.35023L12.4439 0.524453C12.0677 0.186484 11.582 0 11.0761 0C9.94898 0 9.03219 0.916797 9.03219 2.04391V8.38711C8.32055 8.38711 7.74188 8.96578 7.74188 9.67742V13.7503C6.86445 14.538 6.2225 15.5884 5.95219 16.789C5.90313 16.7851 5.85609 16.7741 5.80641 16.7741H3.22578C2.15867 16.7741 1.29031 17.6425 1.29031 18.7096V20.7638C0.541328 21.0309 0 21.7406 0 22.5806V38.0645C0 39.1316 0.868359 40 1.93547 40H27.742C28.8091 40 29.6774 39.1316 29.6774 38.0645V25.8065H40V24.5162H29.6774V23.2258H40V21.9355H29.5588C29.3639 21.389 28.9336 20.9587 28.3871 20.7638V18.7096C28.3871 17.6425 27.5187 16.7741 26.4516 16.7741H23.871C22.8039 16.7741 21.9355 17.6425 21.9355 18.7096V19.3909C20.4807 18.0264 19.5936 16.1703 19.433 14.1935H23.2259H24.5162H32.2581V14.8387C32.2581 15.9058 33.1265 16.7741 34.1936 16.7741H35.4839C36.551 16.7741 37.4194 15.9058 37.4194 14.8387V14.1935H40V12.9032H36.1291H33.5484H24.5161V12.258C24.5161 11.1909 23.6477 10.3226 22.5806 10.3226H21.4393L23.198 7.39164C23.5457 6.81227 24.1812 6.45164 24.8573 6.45164H40V5.16133H24.8574C23.7309 5.16133 22.6709 5.76195 22.0909 6.72781L18.1058 13.3698V13.5484C18.1058 16.1916 19.2348 18.7188 21.2045 20.482L21.387 20.6452H19.2941C18.3773 19.0697 16.678 18.0645 14.8387 18.0645C12.9987 18.0645 11.2993 19.0697 10.3832 20.6452H7.74195V18.7097C7.74195 18.171 7.52 17.6839 7.16328 17.3323C7.51938 15.1665 9.40711 13.5484 11.6155 13.5484ZM36.1291 14.1935V14.8387C36.1291 15.1948 35.8394 15.4838 35.4839 15.4838H34.1936C33.8381 15.4838 33.5484 15.1948 33.5484 14.8387V14.1935H36.1291ZM22.5806 11.6129C22.9361 11.6129 23.2258 11.902 23.2258 12.258V12.9032H19.8909L20.6652 11.6129H22.5806ZM1.93547 21.9355H27.742C28.0974 21.9355 28.3871 22.2245 28.3871 22.5806V23.2258H1.29031V22.5806C1.29031 22.2245 1.58 21.9355 1.93547 21.9355ZM1.29031 36.1291V24.5161H2.58063V36.129H1.29031V36.1291ZM3.87094 24.5161H5.16125V36.129H3.87094V24.5161ZM6.45164 24.5161H7.74195V36.129H6.45164V24.5161ZM9.03227 24.5161H20.6452V36.129H9.03227V24.5161ZM21.9355 24.5161H23.2258V36.129H21.9355V24.5161ZM24.5161 24.5161H25.8064V36.129H24.5161V24.5161ZM27.0968 24.5161H28.3871V36.129H27.0968V24.5161ZM27.742 38.7097H1.93547C1.58 38.7097 1.29031 38.4206 1.29031 38.0645V37.4194H28.3871V38.0645C28.3871 38.4206 28.0974 38.7097 27.742 38.7097ZM23.8709 18.0645H26.4516C26.807 18.0645 27.0967 18.3536 27.0967 18.7097V20.6452H23.2258V18.7097C23.2258 18.3535 23.5155 18.0645 23.8709 18.0645ZM14.8387 19.3548C15.949 19.3548 16.9961 19.84 17.7206 20.6452H11.9561C12.6813 19.84 13.7284 19.3548 14.8387 19.3548ZM2.58063 20.6452V18.7097C2.58063 18.3536 2.87031 18.0645 3.22578 18.0645H5.80641C6.16187 18.0645 6.45156 18.3536 6.45156 18.7097V20.6452H2.58063ZM11.0761 1.29031C11.2626 1.29031 11.4419 1.35867 11.5367 1.44L18.0161 8.50391L17.3187 9.66648L10.3226 2.32258V2.04391C10.3226 1.62836 10.6606 1.29031 11.0761 1.29031ZM10.3226 4.19289L16.6297 10.8142L15.7639 12.2581H11.6155C11.6149 12.2581 11.6136 12.2581 11.613 12.2581V9.6775C11.613 8.96586 11.0343 8.38719 10.3227 8.38719V4.19289H10.3226ZM9.03227 9.67742H10.3226V12.4109C9.87164 12.5148 9.43867 12.6677 9.03227 12.8709V9.67742Z" fill="white"/>
<path d="M14.4433 29.0322L15.451 26.0103L14.2265 25.6025L12.6536 30.3225H15.0852L12.971 34.5503L14.1258 35.1271L17.1729 29.0322H14.4433Z" fill="white"/>
</g>
<defs>
<clipPath id="clip0_784_9045">
<rect width="40" height="40" fill="white"/>
</clipPath>
</defs>
</svg>
