<svg width="60" height="60" viewBox="0 0 60 60" fill="none" xmlns="http://www.w3.org/2000/svg">
<path d="M55.3125 1.87502H33.7125C33.2923 1.87359 32.8772 1.96632 32.4975 2.1464C32.1179 2.32648 31.7835 2.58933 31.5187 2.91564L23.4375 12.9281V12.1875C23.4375 11.9389 23.3387 11.7004 23.1629 11.5246C22.9871 11.3488 22.7486 11.25 22.5 11.25H9.375C9.12636 11.25 8.8879 11.3488 8.71209 11.5246C8.53627 11.7004 8.4375 11.9389 8.4375 12.1875V29.0625C8.43684 29.2277 8.47985 29.3902 8.56217 29.5334C8.64448 29.6766 8.76318 29.7955 8.90625 29.8781L13.125 32.2875V34.6875H7.5C7.5 34.4389 7.40123 34.2004 7.22541 34.0246C7.0496 33.8488 6.81114 33.75 6.5625 33.75H2.8125C2.56386 33.75 2.3254 33.8488 2.14959 34.0246C1.97377 34.2004 1.875 34.4389 1.875 34.6875V42.1875C1.875 42.4362 1.97377 42.6746 2.14959 42.8504C2.3254 43.0262 2.56386 43.125 2.8125 43.125H6.5625C6.81114 43.125 7.0496 43.0262 7.22541 42.8504C7.40123 42.6746 7.5 42.4362 7.5 42.1875H8.19375L4.71563 56.9719C4.6833 57.1096 4.68253 57.2527 4.71337 57.3907C4.74422 57.5287 4.80588 57.658 4.89375 57.7688C4.9804 57.88 5.09134 57.9699 5.21808 58.0316C5.34483 58.0934 5.48402 58.1253 5.625 58.125H12.1875C12.3981 58.1243 12.6024 58.0528 12.7674 57.9218C12.9324 57.7908 13.0484 57.6081 13.0969 57.4031L13.5938 55.3125H55.3125C56.0577 55.3103 56.7718 55.0133 57.2988 54.4863C57.8257 53.9593 58.1228 53.2453 58.125 52.5V4.68752C58.1228 3.94228 57.8257 3.2282 57.2988 2.70124C56.7718 2.17427 56.0577 1.87724 55.3125 1.87502ZM5.625 41.25H3.75V35.625H5.625V41.25ZM23.4375 22.8375L36.0656 7.50002H52.5V26.25H23.4375V22.8375ZM10.3125 13.125H21.5625V18.2344C21.272 18.1503 20.9897 18.0405 20.7188 17.9063C19.9193 17.4838 19.0259 17.2709 18.1219 17.2875C17.221 17.272 16.3308 17.4849 15.5344 17.9063C14.9869 18.2077 14.3685 18.3567 13.7437 18.3375C13.1221 18.3556 12.507 18.2067 11.9625 17.9063C11.4458 17.6344 10.8887 17.4476 10.3125 17.3531V13.125ZM10.3125 28.5188V19.2656C10.603 19.3497 10.8853 19.4595 11.1562 19.5938C11.9527 20.0152 12.8428 20.228 13.7437 20.2125C14.6478 20.2291 15.5412 20.0162 16.3406 19.5938C16.8847 19.2921 17.5001 19.1431 18.1219 19.1625C18.7438 19.1419 19.3595 19.291 19.9031 19.5938C20.4238 19.864 20.9838 20.0507 21.5625 20.1469V28.5188L17.3438 30.9281C17.2007 31.0107 17.082 31.1297 16.9997 31.2729C16.9174 31.4161 16.8743 31.5786 16.875 31.7438V34.6875H15V31.7438C15.0007 31.5786 14.9576 31.4161 14.8753 31.2729C14.793 31.1297 14.6743 31.0107 14.5312 30.9281L10.3125 28.5188ZM7.5 40.3125V36.5625H23.4375V40.3125H7.5ZM19.3781 42.1875L18.0469 46.875H15.5813L16.6781 42.1875H19.3781ZM11.4469 56.25H6.80625L10.1156 42.1875H14.7562L11.4469 56.25ZM56.25 52.5C56.25 52.7487 56.1512 52.9871 55.9754 53.1629C55.7996 53.3387 55.5611 53.4375 55.3125 53.4375H14.0344L15.1406 48.75H18.75C18.9541 48.7494 19.1524 48.6823 19.3148 48.5588C19.4772 48.4353 19.5949 48.2621 19.65 48.0656L21.3281 42.1875H23.4375C23.4375 42.4362 23.5363 42.6746 23.7121 42.8504C23.8879 43.0262 24.1264 43.125 24.375 43.125H27.1875C27.3558 43.125 27.5209 43.0796 27.6656 42.9938L32.3531 40.1813C32.4937 40.099 32.6102 39.9812 32.6908 39.8397C32.7714 39.6981 32.8134 39.5379 32.8125 39.375V37.5C32.8134 37.3371 32.7714 37.1769 32.6908 37.0354C32.6102 36.8938 32.4937 36.776 32.3531 36.6938L27.6656 33.8813C27.5209 33.7954 27.3558 33.7501 27.1875 33.75H24.375C24.1264 33.75 23.8879 33.8488 23.7121 34.0246C23.5363 34.2004 23.4375 34.4389 23.4375 34.6875H18.75V32.2875L22.9688 29.8781C23.1118 29.7955 23.2305 29.6766 23.3128 29.5334C23.3951 29.3902 23.4382 29.2277 23.4375 29.0625V28.125H53.4375C53.6861 28.125 53.9246 28.0262 54.1004 27.8504C54.2762 27.6746 54.375 27.4362 54.375 27.1875V6.56252C54.375 6.31388 54.2762 6.07542 54.1004 5.8996C53.9246 5.72379 53.6861 5.62502 53.4375 5.62502H35.625C35.4872 5.62427 35.3509 5.65416 35.2261 5.71253C35.1012 5.7709 34.9909 5.85629 34.9031 5.96252L23.4375 19.8844V15.9094L32.9813 4.09689C33.0684 3.98687 33.1796 3.89836 33.3064 3.83821C33.4332 3.77806 33.5722 3.74788 33.7125 3.75002H55.3125C55.5611 3.75002 55.7996 3.84879 55.9754 4.0246C56.1512 4.20042 56.25 4.43888 56.25 4.68752V52.5ZM25.3125 41.25V35.625H26.25V41.25H25.3125ZM28.125 40.5281V36.3469L30.9375 38.0344V38.8406L28.125 40.5281Z" fill="white"/>
<path d="M51.5625 30H48.75C48.0041 30 47.2887 30.2963 46.7613 30.8238C46.2338 31.3512 45.9375 32.0666 45.9375 32.8125C45.9375 33.5584 46.2338 34.2738 46.7613 34.8012C47.2887 35.3287 48.0041 35.625 48.75 35.625H51.5625C52.3084 35.625 53.0238 35.3287 53.5512 34.8012C54.0787 34.2738 54.375 33.5584 54.375 32.8125C54.375 32.0666 54.0787 31.3512 53.5512 30.8238C53.0238 30.2963 52.3084 30 51.5625 30ZM51.5625 33.75H48.75C48.5014 33.75 48.2629 33.6512 48.0871 33.4754C47.9113 33.2996 47.8125 33.0611 47.8125 32.8125C47.8125 32.5639 47.9113 32.3254 48.0871 32.1496C48.2629 31.9738 48.5014 31.875 48.75 31.875H51.5625C51.8111 31.875 52.0496 31.9738 52.2254 32.1496C52.4012 32.3254 52.5 32.5639 52.5 32.8125C52.5 33.0611 52.4012 33.2996 52.2254 33.4754C52.0496 33.6512 51.8111 33.75 51.5625 33.75Z" fill="white"/>
<path d="M35.625 37.5H37.5V39.375H35.625V37.5Z" fill="white"/>
<path d="M39.375 37.5H41.25V39.375H39.375V37.5Z" fill="white"/>
<path d="M43.125 37.5H45V39.375H43.125V37.5Z" fill="white"/>
<path d="M33.1929 41.0887L34.5188 39.7629L35.8446 41.0887L34.5188 42.4146L33.1929 41.0887Z" fill="white"/>
<path d="M35.8444 43.74L37.1702 42.4142L38.496 43.74L37.1702 45.0658L35.8444 43.74Z" fill="white"/>
<path d="M38.4945 46.3922L39.8203 45.0664L41.1462 46.3922L39.8203 47.718L38.4945 46.3922Z" fill="white"/>
<path d="M33.1931 35.7864L34.5189 34.4606L35.8448 35.7864L34.5189 37.1123L33.1931 35.7864Z" fill="white"/>
<path d="M35.8453 33.1341L37.1712 31.8083L38.497 33.1341L37.1712 34.4599L35.8453 33.1341Z" fill="white"/>
<path d="M38.4966 30.4839L39.8224 29.1581L41.1482 30.4839L39.8224 31.8098L38.4966 30.4839Z" fill="white"/>
</svg>
