<svg width="50" height="50" viewBox="0 0 50 50" fill="none" xmlns="http://www.w3.org/2000/svg">
<path fill-rule="evenodd" clip-rule="evenodd" d="M17.8957 34.0578C17.7947 33.2851 17.5505 32.528 17.1645 31.8269L15.5441 28.8886C15.3336 28.5068 14.8529 28.3679 14.4712 28.5784C14.0902 28.789 13.9512 29.2696 14.161 29.6507L15.7821 32.5897C16.0712 33.1146 16.2544 33.6823 16.3302 34.2619C16.3863 34.6935 16.7828 34.9987 17.2144 34.9426C17.6467 34.8865 17.9519 34.4901 17.8957 34.0578ZM15.8474 25.4353C16.86 27.2689 17.9772 29.2914 18.8621 30.8922C19.2515 31.5981 19.768 32.2135 20.3758 32.7139C20.7126 32.9904 21.2101 32.942 21.4873 32.6051C21.7638 32.2689 21.7154 31.7708 21.3785 31.4942C20.9238 31.1194 20.5364 30.6583 20.2445 30.1286C20.2438 30.1279 20.2438 30.1279 20.2438 30.1272C19.3589 28.5279 18.2417 26.5054 17.2297 24.6725C17.0192 24.2907 16.5386 24.1524 16.1575 24.3629C15.7758 24.5735 15.6368 25.0543 15.8474 25.4353Z" fill="white"/>
<path fill-rule="evenodd" clip-rule="evenodd" d="M0.299267 17.0016C1.82488 19.7679 5.18489 25.8612 6.71051 28.6276C7.01854 29.1869 7.53651 29.6002 8.14911 29.7771C8.76244 29.9546 9.42069 29.8809 9.97928 29.5728C12.5976 28.1293 18.166 25.0585 20.7835 23.6142C21.3429 23.3061 21.7561 22.7889 21.9337 22.1756C22.1106 21.5622 22.0368 20.904 21.7288 20.3454C20.2032 17.5791 16.8432 11.4858 15.3176 8.71945C15.0096 8.16085 14.4916 7.74682 13.879 7.56997C13.2656 7.39239 12.6074 7.46611 12.0488 7.77423C9.43051 9.21844 3.86212 12.2893 1.24391 13.7329C0.685233 14.0409 0.271858 14.5588 0.0943546 15.1714C-0.0824878 15.7847 -0.00884476 16.443 0.299267 17.0016ZM1.68173 16.2395C1.57572 16.0472 1.55046 15.8205 1.61155 15.61C1.67256 15.3995 1.81432 15.2213 2.0066 15.1152L12.8108 9.15734C13.0031 9.05134 13.2291 9.02608 13.4403 9.08651C13.6508 9.1476 13.829 9.29002 13.935 9.4823C15.4606 12.2486 18.8206 18.342 20.3462 21.1082C20.4521 21.2998 20.4774 21.5265 20.4164 21.737C20.3553 21.9483 20.2136 22.1258 20.0212 22.2317L9.21701 28.1903C9.02473 28.2963 8.79802 28.3215 8.5875 28.2605C8.37697 28.1994 8.19872 28.0569 8.0928 27.8654L1.68173 16.2395Z" fill="white"/>
<path fill-rule="evenodd" clip-rule="evenodd" d="M4.99332 19.0619L2.95617 20.1853C2.57515 20.3959 2.43621 20.8766 2.64599 21.2576C2.85652 21.6394 3.33726 21.7783 3.71893 21.5678L5.75543 20.445C6.13718 20.2344 6.27613 19.7538 6.0656 19.372C5.85508 18.9903 5.37442 18.8513 4.99332 19.0619ZM16.5919 12.6654L7.33793 17.7686C6.95683 17.9791 6.81789 18.4598 7.02849 18.8415C7.23828 19.2225 7.71902 19.3615 8.10078 19.1517L17.3549 14.0478C17.7366 13.838 17.8756 13.3572 17.665 12.9755C17.4544 12.5938 16.9737 12.4549 16.5919 12.6654Z" fill="white"/>
<path fill-rule="evenodd" clip-rule="evenodd" d="M11.1519 19.1209C9.92168 19.7988 9.47396 21.3483 10.1526 22.5785C10.8305 23.808 12.38 24.2564 13.6102 23.5778C14.8403 22.8993 15.2881 21.3504 14.6095 20.1203C13.9316 18.8901 12.3821 18.4424 11.1519 19.1209ZM11.9147 20.5034C12.3815 20.2458 12.9695 20.4157 13.227 20.8823C13.4845 21.3497 13.3147 21.9378 12.8473 22.1953C12.3806 22.4529 11.7926 22.2823 11.5351 21.8157C11.2776 21.349 11.4474 20.761 11.9147 20.5034Z" fill="white"/>
<path fill-rule="evenodd" clip-rule="evenodd" d="M14.7687 10.0248L1.48656 17.3497C1.1048 17.5595 0.965852 18.0402 1.17638 18.422C1.38691 18.8037 1.86765 18.9427 2.24932 18.7322L15.5307 11.4072C15.9125 11.1974 16.0514 10.7167 15.8409 10.3349C15.6305 9.95319 15.1498 9.81424 14.7687 10.0248Z" fill="white"/>
<path fill-rule="evenodd" clip-rule="evenodd" d="M33.2403 23.7153L29.6389 30.2458C28.5028 32.3055 28.4158 34.7827 29.4031 36.9167C29.4031 36.9175 29.4039 36.9189 29.4039 36.9195C30.3603 38.9659 30.3561 41.4248 29.1828 43.5525C27.2271 47.0985 22.7604 48.3898 19.2137 46.4346C15.6678 44.4788 14.3766 40.0121 16.3323 36.4655C17.5056 34.3371 19.5842 33.0213 21.825 32.7315H21.8256C24.1555 32.4283 26.2018 31.034 27.3365 28.9764C28.3947 27.0627 29.7316 24.6424 30.9429 22.4487C31.1534 22.0669 31.0144 21.5862 30.6327 21.3757C30.2517 21.1652 29.7709 21.3042 29.5604 21.6853C28.3499 23.8789 27.013 26.2986 25.9541 28.213C25.9541 28.213 25.9541 28.2136 25.9535 28.2136C25.0616 29.8312 23.4531 30.9274 21.6215 31.166C18.9001 31.5183 16.3752 33.1175 14.9492 35.7035C12.573 40.0123 14.1422 45.4403 18.4517 47.8172C22.7612 50.1934 28.1892 48.6242 30.5654 44.3147C31.9914 41.7295 31.997 38.7414 30.8363 36.2537C30.0595 34.5758 30.1289 32.6277 31.0215 31.0088L34.6229 24.4776C34.8335 24.0965 34.6945 23.6158 34.3128 23.4053C33.9316 23.1946 33.4508 23.3336 33.2403 23.7153Z" fill="white"/>
<path fill-rule="evenodd" clip-rule="evenodd" d="M49.7007 12.0788C50.0088 11.5202 50.0824 10.8613 49.9056 10.2486C49.7281 9.63527 49.3147 9.11804 48.7554 8.81001C45.6684 7.10681 38.3589 3.07601 35.2712 1.37347C34.7126 1.06544 34.0543 0.991711 33.441 1.16855C32.8277 1.34614 32.3104 1.75943 32.0024 2.31803C30.2094 5.56856 25.8165 13.5356 24.0235 16.7862C23.7153 17.3448 23.6417 18.003 23.8192 18.6163C23.996 19.2289 24.4101 19.7468 24.9687 20.0549C28.0564 21.7581 35.3659 25.789 38.4529 27.4915C39.0122 27.7995 39.6705 27.8732 40.2831 27.6957C40.8964 27.5189 41.4143 27.1056 41.7223 26.5463L49.7007 12.0788ZM48.3182 11.3159L40.3399 25.7841C40.2339 25.9756 40.0557 26.1181 39.8452 26.1791C39.634 26.2402 39.4079 26.2149 39.2157 26.1089C36.128 24.4057 28.8185 20.3749 25.7314 18.6725C25.5392 18.5666 25.3967 18.3882 25.3357 18.1778C25.2746 17.9673 25.3006 17.7406 25.4065 17.5484L33.3848 3.08096C33.4908 2.88868 33.6683 2.74693 33.8796 2.68591C34.0901 2.6249 34.3168 2.65017 34.5083 2.75609C37.5961 4.45855 44.9056 8.48943 47.9933 10.1926C48.1856 10.2986 48.3273 10.4761 48.3884 10.6874C48.4495 10.8977 48.4242 11.1244 48.3182 11.3159Z" fill="white"/>
<path fill-rule="evenodd" clip-rule="evenodd" d="M21.5014 36.4578C22.4804 36.1119 23.5969 36.1694 24.5773 36.7098C26.3976 37.714 27.0608 40.0074 26.0566 41.8284C25.0524 43.6494 22.759 44.3126 20.9379 43.3084C19.1169 42.3043 18.4537 40.0108 19.458 38.1898C19.6685 37.8081 19.5296 37.3273 19.1478 37.1169C18.7668 36.907 18.2861 37.046 18.0755 37.4271C16.6502 40.0109 17.5913 43.2663 20.1752 44.691C22.7597 46.1162 26.0145 45.1752 27.4398 42.5913C28.8643 40.0075 27.9232 36.752 25.3394 35.3274C23.9492 34.5604 22.3647 34.4783 20.9759 34.9688C20.5654 35.1141 20.3493 35.5653 20.4945 35.9758C20.639 36.3869 21.0909 36.6024 21.5014 36.4578Z" fill="white"/>
<path fill-rule="evenodd" clip-rule="evenodd" d="M34.4249 10.904L45.9442 17.2563C46.3253 17.4669 46.8059 17.3279 47.0164 16.9462C47.227 16.5644 47.088 16.0837 46.7063 15.8739L35.1869 9.52084C34.8059 9.31031 34.3252 9.44926 34.1146 9.83102C33.9042 10.2128 34.0431 10.6935 34.4249 10.904ZM29.6277 8.25842L32.0354 9.58614C32.4172 9.79667 32.8972 9.65772 33.1077 9.27597C33.3183 8.89421 33.1793 8.41347 32.7976 8.20369L30.3905 6.87596C30.0088 6.66544 29.528 6.80438 29.3182 7.18614C29.1077 7.56715 29.2467 8.0479 29.6277 8.25842Z" fill="white"/>
<path fill-rule="evenodd" clip-rule="evenodd" d="M35.0045 15.9348C35.3182 15.8534 35.6614 15.8864 35.9674 16.0555C36.6011 16.405 36.8319 17.2029 36.4824 17.8366C36.133 18.4702 35.3344 18.7012 34.7006 18.3517C34.3392 18.1524 34.1091 17.8071 34.0431 17.4296C33.9673 17.0001 33.5574 16.7131 33.128 16.7889C32.6992 16.8647 32.4122 17.2745 32.488 17.704C32.6347 18.5349 33.142 19.2949 33.9385 19.7341C35.335 20.5047 37.0944 19.9959 37.8649 18.5987C38.6354 17.2023 38.1267 15.4429 36.7295 14.6724C36.0558 14.3012 35.2979 14.2268 34.6074 14.4065C34.1856 14.516 33.9323 14.9475 34.0417 15.3693C34.152 15.791 34.5828 16.0443 35.0045 15.9348Z" fill="white"/>
<path fill-rule="evenodd" clip-rule="evenodd" d="M31.3603 5.11658L47.6761 14.1145C48.0579 14.325 48.5385 14.1861 48.7492 13.8043C48.9597 13.4233 48.8207 12.9426 48.439 12.732L32.1231 3.73412C31.7413 3.52359 31.2606 3.66254 31.0501 4.04429C30.8403 4.42605 30.9786 4.90605 31.3603 5.11658Z" fill="white"/>
</svg>
