<svg width="50" height="50" viewBox="0 0 50 50" fill="none" xmlns="http://www.w3.org/2000/svg">
<path d="M14.5193 16.9354H20.6186L26.2314 7.579C27.246 5.88867 29.1008 4.83867 31.0718 4.83867H50V3.22578H31.0718C28.5371 3.22578 26.1524 4.57578 24.8484 6.74912L23.3855 9.18779L15.5549 0.655566C15.0847 0.233105 14.4774 0 13.8451 0C12.4362 0 11.2902 1.146 11.2902 2.55488V10.4839C10.4007 10.4839 9.67734 11.2072 9.67734 12.0968V17.1879C8.58057 18.1726 7.77813 19.4854 7.44023 20.9862C7.37891 20.9813 7.32012 20.9677 7.25801 20.9677H4.03223C2.69834 20.9677 1.61289 22.0531 1.61289 23.387V25.9548C0.67666 26.2887 0 27.1758 0 28.2258V47.5807C0 48.9146 1.08545 50 2.41934 50H34.6774C36.0113 50 37.0968 48.9146 37.0968 47.5807V32.2581H50V30.6452H37.0968V29.0322H50V27.4193H36.9484C36.7049 26.7362 36.167 26.1983 35.4839 25.9548V23.387C35.4839 22.0531 34.3984 20.9677 33.0645 20.9677H29.8388C28.5049 20.9677 27.4194 22.0531 27.4194 23.387V24.2387C25.6009 22.533 24.492 20.2129 24.2912 17.7419H29.0323H30.6452H40.3227V18.5483C40.3227 19.8822 41.4081 20.9677 42.742 20.9677H44.3549C45.6888 20.9677 46.7742 19.8822 46.7742 18.5483V17.7419H50V16.129H45.1613H41.9355H30.6451V15.3226C30.6451 13.9887 29.5597 12.9032 28.2258 12.9032H26.7991L28.9975 9.23955C29.4321 8.51533 30.2265 8.06455 31.0717 8.06455H50V6.45166H31.0718C29.6637 6.45166 28.3387 7.20244 27.6137 8.40977L22.6322 16.7122V16.9355C22.6322 20.2396 24.0436 23.3984 26.5056 25.6024L26.7338 25.8064H24.1177C22.9717 23.8371 20.8476 22.5807 18.5483 22.5807C16.2483 22.5807 14.1241 23.8371 12.979 25.8064H9.67744V23.3871C9.67744 22.7138 9.4 22.1049 8.9541 21.6653C9.39922 18.9581 11.7589 16.9354 14.5193 16.9354ZM45.1613 17.7419V18.5483C45.1613 18.9935 44.7992 19.3548 44.3549 19.3548H42.742C42.2977 19.3548 41.9355 18.9935 41.9355 18.5483V17.7419H45.1613ZM28.2258 14.5161C28.6701 14.5161 29.0322 14.8774 29.0322 15.3226V16.129H24.8637L25.8314 14.5161H28.2258ZM2.41934 27.4193H34.6774C35.1218 27.4193 35.4839 27.7807 35.4839 28.2258V29.0322H1.61289V28.2258C1.61289 27.7807 1.975 27.4193 2.41934 27.4193ZM1.61289 45.1613V30.6451H3.22578V45.1612H1.61289V45.1613ZM4.83867 30.6451H6.45156V45.1612H4.83867V30.6451ZM8.06455 30.6451H9.67744V45.1612H8.06455V30.6451ZM11.2903 30.6451H25.8064V45.1612H11.2903V30.6451ZM27.4193 30.6451H29.0322V45.1612H27.4193V30.6451ZM30.6451 30.6451H32.258V45.1612H30.6451V30.6451ZM33.871 30.6451H35.4839V45.1612H33.871V30.6451ZM34.6774 48.3871H2.41934C1.975 48.3871 1.61289 48.0258 1.61289 47.5807V46.7742H35.4839V47.5807C35.4839 48.0258 35.1218 48.3871 34.6774 48.3871ZM29.8387 22.5807H33.0645C33.5088 22.5807 33.8709 22.942 33.8709 23.3871V25.8064H29.0322V23.3871C29.0322 22.9419 29.3943 22.5807 29.8387 22.5807ZM18.5483 24.1936C19.9362 24.1936 21.2451 24.8 22.1508 25.8064H14.9451C15.8517 24.8 17.1604 24.1936 18.5483 24.1936ZM3.22578 25.8064V23.3871C3.22578 22.942 3.58789 22.5807 4.03223 22.5807H7.25801C7.70234 22.5807 8.06445 22.942 8.06445 23.3871V25.8064H3.22578ZM13.8451 1.61289C14.0782 1.61289 14.3023 1.69834 14.4209 1.8L22.5201 10.6299L21.6483 12.0831L12.9032 2.90322V2.55488C12.9032 2.03545 13.3258 1.61289 13.8451 1.61289ZM12.9032 5.24111L20.7871 13.5178L19.7049 15.3227H14.5194C14.5187 15.3227 14.517 15.3227 14.5162 15.3227V12.0969C14.5162 11.2073 13.7929 10.484 12.9033 10.484V5.24111H12.9032ZM11.2903 12.0968H12.9032V15.5137C12.3396 15.6436 11.7983 15.8347 11.2903 16.0887V12.0968Z" fill="white"/>
<path d="M18.054 36.2903L19.3137 32.5128L17.7831 32.0032L15.8169 37.9032H18.8564L16.2137 43.1878L17.6572 43.9088L21.4661 36.2903H18.054Z" fill="white"/>
</svg>
