<svg width="158" height="260" viewBox="0 0 158 260" fill="none" xmlns="http://www.w3.org/2000/svg">
<g opacity="0.15">
<g opacity="0.3">
<path d="M179.801 241.15L173.12 240.982C171.746 285.013 185.972 329.404 212.506 364.595L205.387 369.942C165.481 317.639 153.606 245.921 173.795 183.458L197.135 190.884C179.368 245.924 189.797 309.187 224.964 355.236L217.843 360.582C192.213 326.57 178.47 283.721 179.801 241.15Z" fill="#B2B2B2"/>
<path d="M208.855 162.655C211.293 157.86 213.983 153.186 216.898 148.664L164.2 115.172C160.294 121.249 156.682 127.529 153.396 133.97L208.855 162.655Z" fill="#B2B2B2"/>
<path d="M561.444 199.465C535.955 93.2938 428.848 27.6509 322.68 53.1318C216.508 78.6207 150.862 185.731 176.347 291.904C201.832 398.075 308.944 463.715 415.116 438.229C521.286 412.746 586.929 305.634 561.444 199.465ZM322.905 54.0757C428.555 28.7163 535.14 94.0401 560.499 199.691C585.86 305.341 520.539 411.927 414.889 437.287C309.236 462.648 202.652 397.324 177.291 291.678C151.93 186.025 217.253 79.4419 322.905 54.0757Z" fill="#8C8C8C"/>
<path d="M268.182 140.783L163.395 32.639L163.049 32.9775C115.995 78.4815 85.0537 138.982 75.935 203.337L75.8634 203.814L224.892 225.388L224.959 224.906C229.352 193.346 244.575 163.593 267.832 141.119L268.182 140.783ZM224.074 224.288C223.144 224.156 77.9353 203.136 76.9698 202.995C86.126 139.19 116.793 79.2221 163.379 34.0202C164.061 34.7211 266.16 140.091 266.814 140.766C243.722 163.231 228.566 192.854 224.074 224.288Z" fill="#8C8C8C"/>
<path d="M188.551 300.256L188.418 299.794C183.184 281.854 180.517 264.075 180.487 246.951L180.486 246.461L114.902 246.965V247.447C114.983 270.781 118.572 294.708 125.575 318.565L125.712 319.032L188.551 300.256ZM126.383 317.819C119.538 294.371 116.006 270.862 115.884 247.923C116.842 247.916 178.617 247.446 179.536 247.438C179.612 264.358 182.241 281.9 187.361 299.601C186.481 299.861 127.319 317.539 126.383 317.819Z" fill="#8C8C8C"/>
<path d="M264.017 208.937L159.593 172.672L159.433 173.131C147.636 206.692 144.269 243.17 149.692 278.612L149.764 279.09L259.063 262.565L258.993 262.085C256.284 244.316 257.967 226.099 263.855 209.399L264.017 208.937ZM257.979 261.747C257.067 261.888 151.547 277.841 150.585 277.985C145.314 243.012 148.634 207.048 160.203 173.909C161.125 174.231 261.907 209.232 262.79 209.537C257.036 226.111 255.375 244.137 257.979 261.747Z" fill="#8C8C8C"/>
</g>
<path d="M152.998 53.944C151.801 48.6803 148.621 44.2016 144.042 41.337C139.477 38.4837 134.06 37.5761 128.788 38.7779C123.515 40.0046 119.046 43.1862 116.202 47.7297C110.302 57.1756 113.174 69.6667 122.599 75.5766C127.3 78.5185 132.859 79.3897 138.257 78.0244C143.332 76.7443 147.659 73.6036 150.444 69.1737C153.304 64.5882 154.214 59.178 152.998 53.944ZM117.805 48.7304C120.381 44.614 124.436 41.7311 129.216 40.6169C130.587 40.3045 131.972 40.1489 133.347 40.1489C136.752 40.1489 140.095 41.0973 143.04 42.9397C147.187 45.5363 150.069 49.5913 151.156 54.3688C152.257 59.1111 151.435 64.0157 148.843 68.1707C146.319 72.1815 142.396 75.0303 137.795 76.1957C132.903 77.4292 127.862 76.6432 123.602 73.975C115.058 68.6205 112.457 57.2971 117.805 48.7304Z" fill="#A4A7AB"/>
<path d="M148.008 55.0904C147.119 51.1818 144.754 47.8515 141.344 45.7104C137.926 43.5624 133.879 42.8707 129.945 43.7692C121.865 45.6434 116.795 53.7478 118.641 61.8306V61.834C120.523 69.9362 128.628 75.0032 136.702 73.1291C144.784 71.2799 149.856 63.1857 148.008 55.0904ZM120.485 61.4069C118.871 54.3361 123.306 47.2528 130.37 45.6115C133.807 44.8289 137.351 45.4298 140.34 47.3131C143.321 49.1816 145.389 52.0962 146.167 55.5106C147.783 62.5916 143.347 69.6715 136.276 71.2901C135.284 71.5195 134.291 71.632 133.314 71.632C127.332 71.632 121.899 67.4986 120.485 61.4069Z" fill="#A4A7AB"/>
<path d="M166.335 56.7471L164.095 57.0629C161.263 57.4673 158.551 55.5988 157.919 52.8023C157.269 50.0251 158.898 47.1627 161.628 46.2847L163.779 45.5975L162.77 43.5745C161.298 40.6326 159.361 37.919 157.017 35.5133L155.433 33.9048L154.082 35.7097C152.374 37.9962 149.136 38.5994 146.711 37.0785C144.294 35.5655 143.425 32.3805 144.732 29.8282L145.757 27.8177L143.614 27.1135C140.494 26.0844 137.221 25.5312 133.884 25.4721L131.624 25.429L131.93 27.6723C132.337 30.5643 130.516 33.2302 127.687 33.8742C124.894 34.516 122.031 32.8837 121.168 30.1565L120.477 27.9949L118.445 29.0149C115.466 30.5222 112.753 32.4475 110.387 34.7363L108.767 36.3083L110.569 37.6748C112.899 39.4251 113.495 42.6102 111.957 45.0739C110.436 47.4978 107.259 48.3701 104.729 47.0536L102.719 46.011L101.998 48.1577C100.962 51.2643 100.406 54.5413 100.344 57.8933L100.302 60.1695L102.551 59.8503C105.431 59.4437 108.093 61.2725 108.741 64.1087C109.389 66.8882 107.758 69.7403 105.029 70.6093L102.871 71.301L103.891 73.3309C105.393 76.2989 107.317 79.0056 109.617 81.3853L111.192 83.0244L112.557 81.2047C114.275 78.9181 117.518 78.3093 119.927 79.82C122.352 81.3466 123.23 84.5351 121.924 87.0749L120.879 89.0922L123.041 89.8032C126.196 90.8323 129.473 91.381 132.784 91.4309L135.056 91.4639L134.732 89.2171C134.324 86.3876 136.189 83.673 138.981 83.0391C141.805 82.3906 144.605 83.9898 145.492 86.7568L146.185 88.9218L148.208 87.8949C151.202 86.382 153.914 84.4533 156.265 82.1645L157.888 80.5822L156.075 79.2226C153.783 77.5085 153.183 74.2679 154.71 71.844C156.215 69.4212 159.393 68.5545 161.946 69.8619L163.964 70.8989L164.669 68.7465C165.706 65.607 166.258 62.3345 166.308 59.0075L166.335 56.7471ZM162.857 68.2069C162.853 68.2069 162.81 68.1831 162.81 68.1831C161.735 67.6276 160.572 67.3641 159.427 67.3641C156.928 67.3641 154.492 68.6181 153.112 70.8421C151.065 74.0896 151.871 78.432 154.943 80.7344C154.943 80.7344 154.985 80.764 154.989 80.7685C154.986 80.7708 154.948 80.8071 154.948 80.8071C152.732 82.9641 150.179 84.7804 147.356 86.2059C147.356 86.2059 147.313 86.2297 147.306 86.2331C147.306 86.2297 147.289 86.1832 147.289 86.1832C146.279 83.0244 143.414 81.0036 140.246 81.0036C139.69 81.0036 139.126 81.0661 138.559 81.1945C134.817 82.0475 132.313 85.6891 132.861 89.4863C132.861 89.4863 132.869 89.5363 132.869 89.542C132.864 89.5386 132.81 89.5386 132.81 89.5386C129.69 89.4931 126.599 88.9786 123.629 88.0086C123.629 88.0086 123.581 87.9892 123.575 87.9892C123.578 87.9869 123.601 87.9369 123.601 87.9369C125.352 84.535 124.181 80.2676 120.931 78.2174C119.728 77.4643 118.375 77.1054 117.03 77.1054C114.751 77.1054 112.494 78.1412 111.044 80.0688C111.044 80.0688 111.013 80.1074 111.012 80.112C111.008 80.1086 110.973 80.0711 110.973 80.0711C108.807 77.8311 106.992 75.2743 105.578 72.4812C105.578 72.4812 105.553 72.4323 105.551 72.4255C105.554 72.4255 105.604 72.4096 105.604 72.4096C109.259 71.2442 111.445 67.4119 110.579 63.6851C109.793 60.24 106.788 57.9035 103.358 57.9035C103.002 57.9035 102.644 57.9307 102.284 57.9796C102.284 57.9796 102.234 57.9898 102.229 57.9898C102.229 57.983 102.232 57.9307 102.232 57.9307C102.289 54.7639 102.813 51.6823 103.788 48.7575C103.788 48.7575 103.802 48.7098 103.805 48.703C103.813 48.7098 103.855 48.729 103.855 48.729C104.927 49.2867 106.086 49.5503 107.232 49.5503C109.724 49.5503 112.16 48.3031 113.558 46.0756C115.617 42.7691 114.822 38.5073 111.707 36.1663C111.707 36.1663 111.664 36.1334 111.662 36.1334C111.664 36.1266 111.702 36.0903 111.702 36.0903C113.931 33.9355 116.486 32.1193 119.295 30.7006C119.295 30.7006 119.342 30.6767 119.347 30.6744C119.348 30.6813 119.365 30.7301 119.365 30.7301C120.356 33.8481 123.294 35.8983 126.463 35.8983C127.006 35.8983 127.56 35.8381 128.112 35.7108C131.9 34.8487 134.345 31.2799 133.802 27.4122C133.802 27.4122 133.794 27.3645 133.793 27.3577C133.8 27.3577 133.85 27.3577 133.85 27.3577C136.995 27.4122 140.083 27.9336 143.021 28.9036C143.021 28.9036 143.067 28.9195 143.073 28.9195C143.072 28.923 143.049 28.9695 143.049 28.9695C141.3 32.385 142.467 36.6491 145.708 38.6789C146.921 39.4354 148.281 39.8011 149.634 39.8011C151.91 39.8011 154.158 38.7641 155.596 36.8399C155.596 36.8399 155.628 36.8002 155.631 36.7945C155.633 36.7968 155.667 36.8331 155.667 36.8331C157.874 39.0969 159.696 41.6458 161.08 44.4161C161.08 44.4161 161.1 44.4616 161.105 44.465C161.099 44.465 161.05 44.4809 161.05 44.4809C157.393 45.6588 155.207 49.5026 156.077 53.2226C156.846 56.6211 159.923 59.003 163.332 59.003C163.673 59.003 164.018 58.9803 164.361 58.9315C164.361 58.9315 164.414 58.9246 164.42 58.9246C164.42 58.9269 164.42 58.9746 164.42 58.9746C164.371 62.1062 163.854 65.1924 162.876 68.149C162.874 68.1536 162.859 68.2035 162.857 68.2069Z" fill="#A4A7AB"/>
<path d="M106.134 -200.37V-207.108H104.448V-200.37H106.134ZM106.134 -186.894V-193.632H104.448V-186.894H106.134ZM106.134 -173.418V-180.156H104.448V-173.418H106.134ZM106.134 -159.942V-166.68H104.448V-159.942H106.134ZM106.134 -146.466V-153.204H104.448V-146.466H106.134ZM106.134 -132.99V-139.728H104.448V-132.99H106.134ZM106.134 -119.514V-126.252H104.448V-119.514H106.134ZM106.134 -106.037V-112.775H104.448V-106.037H106.134ZM106.134 -92.5612V-99.2992H104.448V-92.5612H106.134ZM106.134 -79.0853V-85.8232H104.448V-79.0853H106.134ZM106.134 -65.6094V-72.3474H104.448V-65.6094H106.134ZM106.134 -52.1334V-58.8714H104.448V-52.1334H106.134ZM106.134 -38.6574V-45.3954H104.448V-38.6574H106.134ZM106.134 -25.1815V-31.9195H104.448V-25.1815H106.134ZM106.134 -11.7044V-18.4424H104.448V-11.7044H106.134ZM106.134 1.77155V-4.96643H104.448V1.77155H106.134ZM106.134 15.2474V8.50945H104.448V15.2474H106.134ZM106.134 28.7234V21.9854H104.448V28.7234H106.134ZM106.134 42.1994V35.4614H104.448V42.1994H106.134ZM106.134 55.6764V48.9384H104.448V55.6764H106.134ZM106.134 69.1524V62.4144H104.448V69.1524H106.134ZM106.134 82.6283V75.8904H104.448V82.6283H106.134ZM106.134 96.1042V89.3663H104.448V96.1042H106.134ZM106.134 109.58V102.842H104.448V109.58H106.134ZM106.134 123.056V116.317H104.448V123.056H106.134Z" fill="#B3B3B3"/>
<path d="M426.002 123.747H432.74V122.062H426.002V123.747ZM412.526 123.747H419.264V122.062H412.526V123.747ZM399.05 123.747H405.788V122.062H399.05V123.747ZM385.574 123.747H392.312V122.062H385.574V123.747ZM372.098 123.747H378.835V122.062H372.098V123.747ZM358.622 123.747H365.36V122.062H358.622V123.747ZM345.146 123.747H351.884V122.062H345.146V123.747ZM331.67 123.747H338.408V122.062H331.67V123.747ZM318.194 123.747H324.932V122.062H318.194V123.747ZM304.717 123.747H311.455V122.062H304.717V123.747ZM291.241 123.747H297.979V122.062H291.241V123.747ZM277.765 123.747H284.503V122.062H277.765V123.747ZM264.289 123.747H271.027V122.062H264.289V123.747ZM250.813 123.747H257.551V122.062H250.813V123.747ZM237.337 123.747H244.075V122.062H237.337V123.747ZM223.86 123.747H230.598V122.062H223.86V123.747ZM210.384 123.747H217.122V122.062H210.384V123.747ZM196.908 123.747H203.646V122.062H196.908V123.747ZM183.433 123.747H190.171V122.062H183.433V123.747ZM169.957 123.747H176.695V122.062H169.957V123.747ZM156.481 123.747H163.219V122.062H156.481V123.747ZM143.005 123.747H149.743V122.062H143.005V123.747ZM129.529 123.747H136.267V122.062H129.529V123.747ZM116.052 123.747H122.79V122.062H116.052V123.747ZM102.576 123.747H109.314V122.062H102.576V123.747Z" fill="#B3B3B3"/>
<path d="M105.29 116.317C101.569 116.317 98.5524 119.334 98.5524 123.056C98.5524 126.776 101.569 129.793 105.29 129.793C109.011 129.793 112.028 126.776 112.028 123.056C112.029 119.334 109.011 116.317 105.29 116.317Z" fill="#B3B3B3"/>
<g opacity="0.6">
<path d="M148.894 198.188C125.34 174.619 86.9666 174.625 63.353 198.203C51.916 209.617 45.6107 224.807 45.5994 240.995C45.5994 257.141 51.8955 272.325 63.3246 283.751C74.7321 295.165 89.9403 301.45 106.146 301.45C122.296 301.45 137.478 295.178 148.895 283.787V283.786C172.483 260.176 172.483 221.777 148.894 198.188ZM147.704 282.596C136.606 293.668 121.848 299.766 106.146 299.766C90.389 299.766 75.6045 293.655 64.5161 282.56C53.4039 271.452 47.2838 256.69 47.2838 240.974C47.2952 225.258 53.4255 210.493 64.5446 199.396C87.5005 176.474 124.806 176.467 147.704 199.38C170.634 222.312 170.634 259.642 147.704 282.596Z" fill="#A4A7AB"/>
<path d="M132.918 240.988C132.918 226.202 120.877 214.175 106.074 214.175C91.3102 214.175 79.3007 226.204 79.3007 240.988C79.3007 255.765 91.3102 267.787 106.074 267.787C120.877 267.787 132.918 255.765 132.918 240.988ZM80.9841 240.988C80.9841 227.132 92.2383 215.859 106.073 215.859C119.945 215.859 131.233 227.132 131.233 240.988C131.233 254.835 119.945 266.101 106.073 266.101C92.2383 266.102 80.9841 254.835 80.9841 240.988Z" fill="#A4A7AB"/>
<path d="M212.201 240.987L194.488 233.273C194.488 233.273 187.17 230.104 186.399 229.77C186.304 229.154 186.081 227.685 185.989 227.079C186.606 226.53 192.578 221.235 192.578 221.235L207.057 208.434L187.814 206.581C187.814 206.581 179.899 205.808 179.074 205.728C178.792 205.18 178.104 203.847 177.816 203.288C178.242 202.566 192.105 179.063 192.105 179.063L173.208 183.255C173.208 183.255 165.413 184.976 164.599 185.153C164.164 184.719 163.125 183.68 162.692 183.247C162.871 182.432 164.588 174.632 164.588 174.632L168.794 155.769C168.794 155.769 145.29 169.599 144.568 170.023C144.289 169.879 143.595 169.521 143.257 169.348C143.175 168.51 142.208 158.735 142.208 158.735L140.347 139.494L127.565 153.978C127.565 153.978 121.172 161.2 120.601 161.845C120.268 161.789 119.765 161.703 119.307 161.628C118.973 160.859 115.068 151.842 115.068 151.842L107.357 134.112L99.6489 151.842C99.6489 151.842 95.813 160.683 95.47 161.473C94.9714 161.546 94.2785 161.647 94.1853 161.661C93.6242 161.026 87.1237 153.665 87.1237 153.665L74.3065 139.203L72.4562 158.441C72.4562 158.441 71.5487 168.005 71.4669 168.858C71.0682 169.057 70.5627 169.309 70.5627 169.309C70.5627 169.309 70.4139 169.385 70.2742 169.456C69.5415 169.023 61.0918 164.046 61.0918 164.046L44.4627 154.239L48.6314 173.107C48.6314 173.107 50.7293 182.531 50.9156 183.367C50.6078 183.668 50.2988 183.973 49.9955 184.27C49.1743 184.087 39.5603 181.959 39.5603 181.959L20.6845 177.767L30.5199 194.418C30.5199 194.418 35.3996 202.717 35.829 203.453C35.6314 203.838 35.4303 204.226 35.2303 204.61C34.3909 204.69 24.6032 205.627 24.6032 205.627L5.38428 207.488L19.8552 220.286C19.8552 220.286 27.0669 226.683 27.7098 227.255C27.6689 227.496 27.5542 228.165 27.4917 228.54C26.7216 228.873 17.7233 232.777 17.7233 232.777L0.000274658 240.499C0.000274658 240.499 26.5614 252.032 27.3554 252.378C27.3713 252.485 27.4792 253.216 27.5474 253.669C26.9147 254.227 19.5463 260.723 19.5463 260.723L5.08325 273.536C5.08325 273.536 33.9071 276.311 34.7465 276.391C34.9487 276.783 35.1497 277.171 35.3497 277.56C34.9124 278.297 29.902 286.745 29.902 286.745L20.1018 303.398C20.1018 303.398 48.419 297.122 49.2527 296.937C49.5616 297.253 49.8501 297.546 50.1557 297.857C49.9717 298.678 47.8215 308.285 47.8215 308.285L43.6563 327.142C43.6563 327.142 68.5908 312.462 69.3235 312.029C69.7017 312.223 70.3367 312.552 70.4946 312.631C70.5775 313.474 71.5327 323.236 71.5327 323.236L73.3762 342.473L86.1832 327.98C86.1832 327.98 92.5543 320.783 93.1313 320.131C93.3426 320.169 93.94 320.275 94.4069 320.357C94.7385 321.12 98.6641 330.133 98.6641 330.133L106.355 347.845C106.355 347.845 117.912 321.293 118.252 320.508C118.681 320.444 119.124 320.378 119.548 320.314C120.107 320.946 139.412 342.786 139.412 342.786L141.256 323.537C141.256 323.537 142.196 313.959 142.281 313.115C142.659 312.925 143.29 312.604 143.454 312.52C144.187 312.953 152.626 317.929 152.626 317.929L169.286 327.731L165.081 308.859C165.081 308.859 163.011 299.436 162.83 298.604C163.137 298.301 163.437 298.004 163.743 297.703C164.566 297.885 174.153 300.021 174.153 300.021L193.054 304.195L183.224 287.544C183.224 287.544 178.323 279.265 177.884 278.525C178.092 278.127 178.299 277.733 178.5 277.351C179.333 277.271 189.11 276.331 189.11 276.331L208.354 274.473L193.869 261.673C193.869 261.673 186.645 255.276 186.015 254.718C186.104 254.125 186.305 252.804 186.397 252.211C187.169 251.876 194.488 248.698 194.488 248.698L212.201 240.987ZM184.213 255.369L192.756 262.931C192.756 262.931 202.042 271.139 204.335 273.164C201.291 273.46 188.952 274.651 188.952 274.651L177.886 275.714L177.427 275.769L175.959 278.572L181.776 288.399C181.776 288.399 188.08 299.077 189.635 301.711C186.647 301.051 174.52 298.374 174.52 298.374L163.663 295.956L163.205 295.865L160.987 298.058L163.438 309.221C163.438 309.221 166.135 321.322 166.8 324.31C164.163 322.759 153.484 316.474 153.484 316.474L143.911 310.83L143.518 310.59L142.347 311.192L140.697 312.026L139.58 323.37C139.58 323.37 138.4 335.711 138.107 338.761C136.08 336.465 120.204 318.509 120.204 318.509L117.083 318.978C117.083 318.978 107.581 340.811 106.361 343.618C105.141 340.811 100.211 329.457 100.211 329.457L95.7733 319.267L95.5779 318.85L93.2698 318.442L92.5043 318.299L84.9246 326.859C84.9246 326.859 76.7134 336.152 74.6859 338.447C74.394 335.399 73.2127 323.07 73.2127 323.07L72.129 312.005L72.0859 311.549L69.2735 310.103C69.2735 310.103 48.771 322.176 46.1392 323.725C46.7969 320.741 49.4685 308.649 49.4685 308.649L51.9015 297.776L51.9776 297.306L49.8013 295.089C49.8013 295.089 26.5058 300.251 23.5195 300.914C25.0712 298.28 31.3537 287.6 31.3537 287.6L37.0387 278.016L37.2715 277.602L35.8233 274.801C35.8233 274.801 12.1427 272.523 9.0997 272.23C11.3885 270.203 20.6663 261.985 20.6663 261.985L29.0103 254.63L29.35 254.301L29.0626 252.393L28.9013 251.21C28.9013 251.21 7.03583 241.714 4.23024 240.496C7.03242 239.273 18.4002 234.321 18.4002 234.321L28.5844 229.901L29.0081 229.695L29.2875 228.041L29.5385 226.616L20.9763 219.024C20.9763 219.024 11.6963 210.817 9.4064 208.79C12.4471 208.496 24.769 207.3 24.769 207.3L35.854 206.24L36.3162 206.188L37.7588 203.398L31.975 193.562C31.975 193.562 25.6709 182.89 24.1136 180.251C27.1032 180.916 39.1991 183.603 39.1991 183.603L50.0818 186.013L50.5316 186.108L52.7637 183.911L50.2795 172.742C50.2795 172.742 47.6068 160.644 46.948 157.656C49.581 159.213 60.2411 165.497 60.2411 165.497L69.8232 171.14L70.214 171.379L71.3408 170.802L73.0593 169.948L74.1372 158.6C74.1372 158.6 75.322 146.258 75.615 143.216C77.6437 145.505 85.8651 154.784 85.8651 154.784L93.5345 163.463L94.3773 163.335L96.6445 163.006L101.199 152.515C101.199 152.515 106.142 141.14 107.359 138.338C108.58 141.14 113.526 152.515 113.526 152.515L117.943 162.714L118.157 163.138L121.241 163.668L128.828 155.094C128.828 155.094 137.018 145.812 139.045 143.52C139.341 146.566 140.531 158.901 140.531 158.901L141.626 169.973L141.669 170.425L144.624 171.951C144.624 171.951 163.668 160.741 166.306 159.19C165.639 162.178 162.943 174.27 162.943 174.27L160.948 183.338L160.861 183.801L164.062 187.003L173.572 184.904C173.572 184.904 185.695 182.216 188.684 181.551C187.13 184.188 176.129 202.837 176.129 202.837L175.904 203.258L178 207.318L187.654 208.263C187.654 208.263 199.991 209.451 203.037 209.743C200.745 211.77 191.461 219.977 191.461 219.977L184.528 226.127L184.188 226.45L184.874 230.951L193.818 234.823C193.818 234.823 205.178 239.771 207.98 240.992C205.178 242.211 193.818 247.154 193.818 247.154L185.299 250.853L184.87 251.051L184.213 255.369Z" fill="#A4A7AB"/>
<path d="M150.938 196.148C126.238 171.459 86.0296 171.476 61.3051 196.184C49.3456 208.15 42.761 224.057 42.761 240.973C42.7383 257.912 49.324 273.826 61.3051 285.784C73.2579 297.741 89.1794 304.326 106.136 304.328C123.081 304.329 138.994 297.751 150.938 285.806C175.629 261.087 175.629 220.866 150.938 196.148ZM44.4455 240.974C44.4455 224.508 50.8563 209.024 62.4967 197.376C74.5369 185.344 90.3505 179.327 106.156 179.327C121.948 179.327 137.732 185.331 149.747 197.34C173.782 221.401 173.782 260.553 149.747 284.615C138.119 296.243 122.632 302.645 106.136 302.644C89.6292 302.642 74.1314 296.232 62.4967 284.592C50.8347 272.953 44.4228 257.462 44.4455 240.974Z" fill="#A4A7AB"/>
</g>
<g opacity="0.3">
</g>
<path d="M179.491 243.466C181.242 242.868 182.881 242.02 184.361 240.943L184.898 240.551L184.428 240.084C183.073 238.732 182.974 236.531 184.199 235.072C185.436 233.61 187.627 233.328 189.186 234.43L189.729 234.814L190.022 234.217C190.831 232.565 191.387 230.805 191.67 228.988L191.772 228.331L191.109 228.334C189.196 228.339 187.571 226.851 187.41 224.944C187.245 223.011 188.565 221.308 190.478 220.979L191.133 220.867L190.919 220.238C190.317 218.473 189.465 216.834 188.392 215.369L187.999 214.835L187.532 215.304C186.183 216.662 183.98 216.758 182.519 215.524C181.054 214.299 180.775 212.116 181.88 210.548L182.262 210.006L181.668 209.712C180.021 208.9 178.263 208.343 176.445 208.061L175.792 207.961V208.622C175.794 210.536 174.305 212.159 172.399 212.317C170.495 212.487 168.753 211.141 168.424 209.252L168.312 208.601L167.687 208.811C165.947 209.395 164.31 210.249 162.817 211.347L162.284 211.74L162.754 212.205C164.108 213.549 164.206 215.748 162.975 217.213C161.748 218.673 159.558 218.952 157.993 217.851L157.451 217.472L157.16 218.065C156.354 219.7 155.797 221.456 155.507 223.285L155.402 223.94L156.065 223.942C158.014 223.942 159.608 225.4 159.77 227.327V227.328C159.937 229.237 158.589 230.981 156.703 231.3L156.047 231.413L156.262 232.043C156.86 233.804 157.709 235.441 158.78 236.913L159.17 237.448L159.639 236.98C161.015 235.603 163.177 235.507 164.665 236.751C166.127 237.984 166.408 240.172 165.302 241.727L164.917 242.266L165.51 242.563C167.132 243.369 168.888 243.929 170.731 244.223L171.39 244.329L171.389 243.663C171.386 241.719 172.845 240.127 174.783 239.963C176.686 239.793 178.423 241.136 178.745 243.025L178.856 243.681L179.491 243.466ZM179.682 242.155C178.998 240.057 176.937 238.631 174.689 238.834C172.4 239.028 170.636 240.754 170.324 242.965C169.017 242.708 167.764 242.312 166.58 241.775C167.011 240.927 167.183 239.989 167.084 239.073C166.954 237.868 166.38 236.713 165.398 235.885C163.638 234.41 161.165 234.385 159.38 235.724C158.649 234.643 158.047 233.474 157.577 232.234C159.671 231.548 161.1 229.484 160.904 227.229C160.902 227.193 160.896 227.156 160.895 227.118C160.654 224.891 158.946 223.184 156.77 222.873C157.024 221.573 157.418 220.321 157.955 219.13C159.926 220.119 162.398 219.668 163.846 217.946C164.72 216.904 165.084 215.579 164.945 214.303C164.854 213.459 164.535 212.643 164.009 211.94C165.104 211.194 166.27 210.587 167.496 210.124C168.188 212.222 170.252 213.649 172.5 213.447C174.748 213.259 176.541 211.503 176.862 209.321C178.155 209.568 179.407 209.963 180.606 210.504C180.176 211.356 180.005 212.297 180.103 213.212C180.235 214.418 180.81 215.571 181.792 216.393C183.517 217.849 186.029 217.878 187.801 216.559C188.532 217.637 189.135 218.804 189.608 220.047C187.488 220.73 186.085 222.756 186.28 225.042C186.286 225.082 186.287 225.118 186.292 225.155C186.531 227.357 188.266 229.091 190.411 229.405C190.16 230.7 189.767 231.954 189.229 233.155C187.264 232.165 184.792 232.617 183.332 234.345C182.46 235.38 182.103 236.704 182.24 237.978C182.331 238.824 182.65 239.642 183.174 240.348C182.087 241.08 180.919 241.683 179.682 242.155Z" fill="#606060"/>
<path d="M132.275 205.563C135.062 206.247 136.786 208.976 136.265 211.76C137.907 211.963 139.559 212.065 141.193 212.083C141.044 209.263 143.105 206.775 145.95 206.456C148.81 206.139 151.344 208.126 151.832 210.921C153.423 210.536 155 210.07 156.552 209.517C155.451 206.92 156.55 203.888 159.115 202.611C161.683 201.357 164.741 202.327 166.155 204.798C167.526 203.895 168.833 202.919 170.117 201.877C168.203 199.812 168.186 196.576 170.163 194.514C172.14 192.434 175.366 192.317 177.535 194.151C178.491 192.833 179.407 191.473 180.253 190.033C177.742 188.747 176.62 185.737 177.775 183.107C178.924 180.492 181.908 179.271 184.558 180.247C185.04 178.657 185.424 177.051 185.754 175.461C182.926 175.112 180.839 172.649 181.029 169.794C181.219 166.932 183.609 164.774 186.426 164.779C186.325 163.125 186.161 161.5 185.894 159.892C183.124 160.51 180.344 158.914 179.539 156.156C178.739 153.419 180.223 150.57 182.891 149.607C182.243 148.101 181.52 146.617 180.722 145.202C178.341 146.724 175.167 146.186 173.464 143.873C171.774 141.567 172.21 138.367 174.399 136.557C173.275 135.369 172.075 134.229 170.823 133.148C169.126 135.412 165.949 136.001 163.556 134.402C161.184 132.812 160.515 129.66 161.916 127.215C161.207 126.855 160.457 126.507 159.69 126.171C158.941 125.842 158.178 125.52 157.417 125.236C156.576 127.929 153.789 129.566 151.009 128.885C148.228 128.21 146.508 125.472 147.011 122.678C145.366 122.489 143.727 122.378 142.109 122.361C142.237 125.189 140.175 127.675 137.333 127.989C134.485 128.305 131.936 126.329 131.461 123.543C129.862 123.924 128.286 124.39 126.738 124.925C127.834 127.547 126.746 130.565 124.181 131.83C121.613 133.097 118.546 132.121 117.134 129.668C115.776 130.559 114.447 131.531 113.168 132.578C115.087 134.665 115.105 137.875 113.121 139.942C111.135 142.01 107.925 142.148 105.773 140.302C104.794 141.612 103.891 142.991 103.046 144.418C105.543 145.707 106.659 148.731 105.514 151.343C104.356 153.972 101.374 155.18 98.7424 154.208C98.2585 155.8 97.8586 157.389 97.5542 158.995C100.363 159.348 102.44 161.794 102.256 164.66C102.076 167.52 99.6839 169.693 96.8636 169.679C96.9601 171.325 97.1373 172.961 97.402 174.577C100.158 173.941 102.954 175.545 103.754 178.279C104.564 181.038 103.067 183.893 100.4 184.839C101.048 186.358 101.772 187.832 102.572 189.27C104.943 187.729 108.125 188.267 109.822 190.579C111.508 192.89 111.084 196.094 108.904 197.893C110.011 199.082 111.196 200.223 112.461 201.3C114.166 199.038 117.351 198.464 119.725 200.056C122.107 201.643 122.791 204.791 121.379 207.238C122.098 207.605 122.843 207.967 123.594 208.292C124.36 208.628 125.13 208.935 125.871 209.213C126.723 206.517 129.501 204.889 132.275 205.563ZM147.987 196.497L145.955 178.053C147.778 177.328 149.412 176.157 150.679 174.588L167.677 182.059C163.362 189.654 156.086 194.74 147.987 196.497ZM143.793 162.329C146.504 163.517 147.721 166.678 146.537 169.372C145.349 172.079 142.203 173.309 139.489 172.114C136.784 170.93 135.566 167.775 136.752 165.073C137.94 162.375 141.089 161.137 143.793 162.329ZM170.181 176.366L153.18 168.895C153.474 166.914 153.236 164.914 152.535 163.084L167.504 152.096C171.682 159.259 172.851 168.055 170.181 176.366ZM153.697 139.792C157.687 141.545 161.091 144.065 163.834 147.092L148.867 158.069C148.1 157.471 147.268 156.943 146.34 156.532C145.417 156.127 144.459 155.867 143.509 155.715L141.477 137.262C145.559 137.243 149.716 138.046 153.697 139.792ZM135.307 137.949L137.329 156.4C135.513 157.123 133.882 158.29 132.614 159.855L115.621 152.384C119.933 144.793 127.204 139.703 135.307 137.949ZM113.114 158.073L130.108 165.543C129.817 167.532 130.051 169.538 130.753 171.353L115.791 182.346C111.607 175.186 110.436 166.386 113.114 158.073ZM129.586 194.645C125.601 192.896 122.199 190.377 119.455 187.346L134.426 176.372C135.182 176.972 136.02 177.499 136.946 177.903C137.873 178.316 138.821 178.574 139.779 178.734L141.814 197.181C137.728 197.202 133.569 196.398 129.586 194.645Z" fill="#606060"/>
</g>
</svg>
