<svg width="60" height="60" viewBox="0 0 60 60" fill="none" xmlns="http://www.w3.org/2000/svg">
<g clip-path="url(#clip0_1036_31933)">
<path d="M0.680176 56.0128L1.45795 57.7636L29.3677 46.1909L34.23 46.7745L35.9803 52.123L33.6465 54.3599C32.7713 55.1377 32.4798 56.4017 32.966 57.5689L33.9385 60L50.0809 53.679L49.2058 51.3452C48.8169 50.1781 47.7471 49.4976 46.4831 49.4976H43.2737L41.5235 45.3158L45.8022 43.1767C47.1636 42.4957 47.7471 40.9397 47.2609 39.5784L41.7182 24.6999C41.1346 23.1439 39.4812 22.463 37.9252 22.9492C37.9252 22.9492 37.8283 22.9492 37.8283 23.0465L33.7438 24.7968L33.1602 23.3381L35.3972 20.7127C36.9527 18.962 37.9252 16.8229 38.2172 14.4891L41.0373 11.0855C42.8848 8.94588 42.4959 5.73695 40.3563 3.8889C39.9675 3.59735 39.5786 3.3058 39.1897 3.11112C38.1199 2.62489 37.0501 2.52755 35.8834 2.81957L35.5914 1.94398C35.1052 0.388423 33.3549 -0.389829 31.8962 0.193741L11.3772 7.58453C9.8212 8.1681 9.04342 9.821 9.627 11.2797V11.377L10.1132 12.641C7.58473 13.8082 6.41759 16.7256 7.29271 19.254C7.97362 21.199 9.72386 22.5603 11.7661 22.8519L16.3369 23.3381C18.1845 24.6999 20.4209 25.575 22.6579 25.7692L25.8668 26.0613L26.4504 27.52C25.7694 27.9088 25.2832 28.5898 25.089 29.4649L24.4081 32.7711L0.680176 42.3984L1.36109 44.246L14.9755 38.8006L18.2818 48.7194L0.680176 56.0128ZM47.2609 51.9288L47.4556 52.5119L35.0078 57.4715L34.7163 56.888C34.6189 56.4991 34.7163 56.1102 34.9109 55.8186L38.2172 52.7066L42.3986 51.3452H46.2884C46.7747 51.3452 47.0667 51.5394 47.2609 51.9288ZM41.1346 49.5945L37.6336 50.7617L36.3696 47.0665C36.9527 47.1634 37.439 47.0665 37.9252 46.7745L39.5786 45.9967L41.1346 49.5945ZM38.5088 24.5052C38.995 24.3106 39.5786 24.5052 39.7732 24.9915L40.551 27.0337L35.7861 28.5898L36.3696 30.4373L41.1346 28.8813L42.3013 31.9934L37.731 33.5489L38.3146 35.397L42.9822 33.8409L44.1493 36.9525L39.6759 38.4112L40.2595 40.2593L44.8298 38.7032L45.316 39.9673C45.5107 40.4535 45.316 40.9397 44.8298 41.1344L37.1474 44.9269C36.9527 45.0242 36.7585 45.0242 36.5638 45.0242L29.9513 44.246L26.353 33.4521L27.0339 29.8538C27.1313 29.5622 27.3255 29.2702 27.6175 29.1729L38.5088 24.5052ZM38.4114 4.86136C39.9675 5.54227 40.7457 7.38985 40.0648 9.04322C39.9675 9.33477 39.7732 9.52945 39.5786 9.821L38.4114 11.2797C38.3146 10.3072 38.1199 9.43211 37.8283 8.45965L36.5638 4.66715C37.2448 4.56981 37.8283 4.66715 38.4114 4.86136ZM9.23763 18.7678C8.65454 17.1144 9.33497 15.3642 10.891 14.586L12.2524 17.8927C12.7386 19.0594 13.4195 20.2265 14.1973 21.199L12.155 21.0043C10.7937 20.9069 9.627 20.0318 9.23763 18.7678ZM23.0467 23.9217C19.0596 23.5328 15.5586 21.0043 14.0999 17.2118L11.5719 10.7935C11.3772 10.3072 11.5719 9.72366 12.0581 9.52945L32.5767 2.13866C32.8687 2.04132 33.0629 2.04132 33.3549 2.13866C33.5491 2.236 33.7438 2.43021 33.8411 2.72223L35.9803 9.14056C37.1474 12.7384 36.3696 16.6282 33.9385 19.4483L30.9238 22.9492L31.7989 25.283L28.2979 26.7417L27.3255 24.3106L23.0467 23.9217ZM16.8231 38.0223L19.0596 37.1472L21.4907 44.538L23.3383 43.9544L20.8103 36.3694L24.7001 34.8134L28.0064 44.6353L20.1294 47.9416L16.8231 38.0223Z" fill="#EB3300"/>
<path d="M48.7192 17.0171V17.9896H50.6642V17.0171C50.6642 14.2944 52.8038 12.1548 55.5265 12.1548V10.2099C52.8038 10.2099 50.6642 8.07075 50.6642 5.34758V4.37512H48.7192V5.34758C48.7192 8.07075 46.5801 10.2099 43.8569 10.2099V12.1548C46.5801 12.1548 48.7192 14.2944 48.7192 17.0171ZM49.6917 8.84853C50.2753 9.82099 51.053 10.5992 52.0255 11.1823C51.053 11.7659 50.2753 12.5442 49.6917 13.5166C49.1081 12.5442 48.3303 11.7659 47.3579 11.1823C48.3303 10.5992 49.1081 9.82099 49.6917 8.84853Z" fill="#EB3300"/>
<path d="M5.93115 36.4663V37.4388H7.87607V36.4663C7.87607 33.7436 10.0157 31.604 12.7384 31.604V29.6591C10.0157 29.6591 7.87607 27.52 7.87607 24.7968V23.8243H5.93115V24.7968C5.93115 27.52 3.79202 29.6591 1.06885 29.6591V31.604C3.79202 31.604 5.93115 33.7436 5.93115 36.4663ZM6.90361 28.2978C7.48718 29.2702 8.26496 30.0485 9.23742 30.6316C8.26496 31.2151 7.48718 31.9934 6.90361 32.9658C6.32004 31.9934 5.54226 31.2151 4.5698 30.6316C5.54226 30.0485 6.32004 29.2702 6.90361 28.2978Z" fill="#EB3300"/>
<path d="M54.5543 24.7968V23.8243H52.6094V24.7968C52.6094 27.52 50.4702 29.6591 47.7471 29.6591V31.604C50.4702 31.604 52.6094 33.7436 52.6094 36.4663V37.4388H54.5543V36.4663C54.5543 33.7436 56.6939 31.604 59.4166 31.604V29.6591C56.6939 29.6591 54.5543 27.52 54.5543 24.7968ZM53.5818 32.9658C52.9983 31.9934 52.2205 31.2151 51.248 30.6316C52.2205 30.0485 52.9983 29.2702 53.5818 28.2978C54.1654 29.2702 54.9432 30.0485 55.9156 30.6316C54.9432 31.2151 54.1654 31.9934 53.5818 32.9658Z" fill="#EB3300"/>
<path d="M29.5624 17.3091L30.9237 18.6704C36.2722 13.3219 31.3126 5.15335 31.021 4.86133L29.3677 5.93113C29.465 5.93113 33.8411 13.0304 29.5624 17.3091Z" fill="#EB3300"/>
</g>
<defs>
<clipPath id="clip0_1036_31933">
<rect width="60" height="60" fill="white"/>
</clipPath>
</defs>
</svg>
