<svg width="60" height="60" viewBox="0 0 60 60" fill="none" xmlns="http://www.w3.org/2000/svg">
<g clip-path="url(#clip0_610_8028)">
<path d="M58.9668 26H54.0469V20H58.9668C59.3247 20.0005 59.6553 19.8105 59.8345 19.501C60.0137 19.1914 60.0137 18.8096 59.835 18.5C58.3223 15.8867 55.5977 14.2085 52.583 14.0342L50.647 10.6758C50.1411 9.79297 49.0508 9.43359 48.1191 9.8418L42.9741 12.0679L45.1968 6.94482C45.6177 6.01172 45.2632 4.91211 44.377 4.3999L40.7109 2.29102C39.8315 1.7876 38.7148 2.021 38.1108 2.83496L34.7607 7.35986L34.1401 1.77295C34.021 0.762207 33.1646 0.000488516 32.147 2.3522e-07H27.8272C26.8101 -0.000488046 25.9536 0.759278 25.833 1.76904L25.2388 7.33008L25.2148 7.2998L21.9028 2.84277C21.3115 2.0127 20.1846 1.76953 19.3027 2.28223L15.6768 4.37305C14.7876 4.87305 14.4219 5.96533 14.8301 6.8999L17.0469 12.0049L11.9468 9.7832C11.021 9.37695 9.93799 9.73242 9.43311 10.6079L7.45313 14.04C4.46045 14.2319 1.76172 15.9053 0.258789 18.5C0.0800784 18.8096 0.0805666 19.1914 0.259278 19.501C0.438477 19.8105 0.769532 20.0005 1.12695 20H6.04688V26H1.12695C0.769532 25.9995 0.438477 26.1895 0.259278 26.499C0.0805666 26.8086 0.0800784 27.1904 0.258789 27.5C2.45361 31.3198 7.09717 32.981 11.2168 31.4199C11.1099 31.9365 11.0527 32.4624 11.0469 32.9902C11.0469 33.0718 11.0571 33.1528 11.0771 33.2319L13.085 41.272C14.103 44.2178 15.8032 46.8809 18.0469 49.0439V55C18.0503 57.7603 20.2871 59.9966 23.0469 60H37.0469C39.8071 59.9966 42.0435 57.7603 42.0469 55V49.3682C44.8359 47.0298 46.8799 43.9268 47.9268 40.4409C47.9409 40.396 47.9522 40.3496 47.96 40.3032L49.4121 31.6001C50.2651 31.8652 51.1533 32 52.0469 32C55.2603 31.9976 58.2285 30.2827 59.835 27.5C60.0137 27.1904 60.0137 26.8086 59.8345 26.499C59.6553 26.1895 59.3247 25.9995 58.9668 26ZM16.2471 13.8369C17.002 14.168 17.8828 14.002 18.4653 13.4189C19.0479 12.8354 19.2129 11.9546 18.8809 11.2002L16.6582 6.11523L20.2842 4.01514L23.5781 8.4541C23.6333 8.54639 23.7007 8.63086 23.7778 8.70605C23.8047 8.73291 23.833 8.75781 23.8628 8.78076C24.3921 9.27783 25.1499 9.44678 25.8398 9.22217C26.5889 8.9834 27.1231 8.32227 27.1992 7.54004L27.8272 2H32.1528L32.773 7.58008C32.8599 8.40088 33.4419 9.08447 34.2393 9.30029C35.0361 9.51611 35.8838 9.22021 36.3731 8.55518L39.7168 4.02588L43.3701 6.13184L41.1382 11.2759C40.8081 12.0308 40.9746 12.9106 41.5576 13.4922C42.1406 14.0742 43.021 14.2393 43.7749 13.9082L48.9111 11.6689L50.3521 14.1689C48.8716 14.4536 47.4868 15.1069 46.3262 16.0688C45.7617 15.3936 44.9272 15.002 44.0469 15H42.0469C41.3066 15.0024 40.5938 15.2808 40.0469 15.7798C39.5835 15.3628 39 15.1016 38.3799 15.0342C35.3613 12.5039 31.3574 11.4805 27.4946 12.2515C23.6318 13.0225 20.3281 15.5049 18.5122 19H16.105C14.853 16.4614 12.4707 14.668 9.68506 14.166L11.147 11.6182L16.2471 13.8369ZM41.0469 18C41.0469 17.4478 41.4946 17 42.0469 17H44.0469C44.5991 17 45.0469 17.4478 45.0469 18V28C45.0469 28.5522 44.5991 29 44.0469 29H42.0469C41.4946 29 41.0469 28.5522 41.0469 28V18ZM34.0469 15.7798C33.5005 15.2808 32.7876 15.0024 32.0469 15H30.0469C29.3066 15.0024 28.5938 15.2808 28.0469 15.7798C27.5005 15.2808 26.7876 15.0024 26.0469 15H25.4741C28.519 13.6025 32.0356 13.6729 35.022 15.1919C34.6621 15.3237 34.3311 15.5229 34.0469 15.7798ZM21.0469 19H20.8208C20.8931 18.8901 20.9712 18.7852 21.0469 18.6782V19ZM23.0469 18C23.0469 17.4478 23.4946 17 24.0469 17H26.0469C26.5991 17 27.0469 17.4478 27.0469 18V25H23.0469V18ZM29.0469 18C29.0469 17.4478 29.4946 17 30.0469 17H32.0469C32.5991 17 33.0469 17.4478 33.0469 18V25.1738C32.7256 25.0615 32.3877 25.0024 32.0469 25H29.0469V18ZM35.0469 18C35.0469 17.4478 35.4946 17 36.0469 17H38.0469C38.5991 17 39.0469 17.4478 39.0469 18V28C39.0469 28.5522 38.5991 29 38.0469 29H36.0469C35.4946 29 35.0469 28.5522 35.0469 28V18ZM3.15186 28H7.04688C7.59912 28 8.04688 27.5522 8.04688 27V19C8.04688 18.4478 7.59912 18 7.04688 18H3.15186C4.81787 16.3657 7.18994 15.6704 9.47461 16.1475C11.7593 16.624 13.6558 18.2095 14.5288 20.374C14.6816 20.7524 15.0488 21 15.457 21H21.0469V25H15.457C15.0518 25 14.6865 25.2441 14.5317 25.6191C14.3633 26.0391 14.1528 26.4414 13.9028 26.8188C13.3555 27.2856 12.8726 27.8237 12.4678 28.4189C9.7124 30.6821 5.69336 30.5015 3.15186 28ZM45.999 39.8999C44.9927 43.1533 43.0381 46.0327 40.3848 48.168C40.1699 48.3579 40.0469 48.6309 40.0469 48.918V55C40.0469 56.6567 38.7036 58 37.0469 58H23.0469C21.3901 58 20.0469 56.6567 20.0469 55V48.626C20.0479 48.3564 19.9395 48.0977 19.7471 47.9092C18.6279 46.8232 15.9258 43.9492 15.021 40.7578L13.0469 32.8711C13.0571 32.3198 13.1406 31.7725 13.2949 31.2432C13.9468 29.0142 15.8262 27.3613 18.1201 27H32.0469C32.3154 26.9893 32.5757 27.0913 32.7656 27.2812C32.9556 27.4712 33.0576 27.7319 33.0469 28C33.0435 30.7603 30.8071 32.9966 28.0469 33H21.0469V35H24.2349L24.5469 35.1909C26.6172 36.4531 28.4038 37.543 29.0772 40.2432C29.4395 41.7314 29.4395 43.2847 29.0772 44.7729L31.0249 45.2271C31.4629 43.4302 31.4629 41.5547 31.0249 39.7578C30.5606 37.8486 29.4385 36.1641 27.855 35H28.0469C30.9126 34.9956 33.4858 33.2432 34.5391 30.5781C34.9927 30.8496 35.5103 30.9951 36.0391 30.999H38.0469C38.7876 30.9966 39.5005 30.7183 40.0469 30.2192C40.5933 30.7188 41.3066 30.9971 42.0469 31H44.0469C45.4063 30.9946 46.5918 30.0767 46.937 28.7622C47.2002 29.1265 47.4448 29.5044 47.6689 29.894L45.999 39.8999ZM52.0469 30C51.2466 30.002 50.4517 29.8638 49.6992 29.5918C49.6856 29.4614 49.6475 29.335 49.5859 29.2192C48.9761 27.979 48.1108 26.8818 47.0469 26V18.1201C48.3399 16.7842 50.1128 16.0195 51.9722 15.9971C53.8311 15.9746 55.6221 16.6958 56.9468 18H53.0469C52.4946 18 52.0469 18.4478 52.0469 19V27C52.0469 27.5522 52.4946 28 53.0469 28H56.9468C55.6382 29.2822 53.8789 30.0005 52.0469 30Z" fill="#EB3300"/>
<path d="M33.0469 54V56C35.8071 55.9966 38.0435 53.7603 38.0469 51H36.0469C36.0469 52.6567 34.7036 54 33.0469 54Z" fill="#EB3300"/>
</g>
<defs>
<clipPath id="clip0_610_8028">
<rect width="60" height="60" fill="white"/>
</clipPath>
</defs>
</svg>
