<svg width="60" height="60" viewBox="0 0 60 60" fill="none" xmlns="http://www.w3.org/2000/svg">
<path d="M60 25.1613H57.8254L54.5843 26.8667C54.2195 26.6654 53.8401 26.4948 53.4309 26.3922L49.3539 25.372V24.9085C51.1575 23.6497 52.2581 21.5701 52.2581 19.3548V17.6632C52.2581 13.9037 49.3123 10.7576 45.6918 10.648C45.508 10.6433 45.327 10.6499 45.1451 10.6589L46.2021 8.18422L41.0775 3.06105L38.0566 5.02725C36.9089 4.38083 35.6949 3.87758 34.4342 3.5246L33.6881 0H26.3128L25.5667 3.52555C24.306 3.87853 23.0911 4.38177 21.9443 5.02819L18.9234 3.062L13.8031 8.18233L14.8422 10.6589C14.8025 10.657 14.7647 10.6499 14.725 10.6489C12.8717 10.5951 11.1262 11.2713 9.80028 12.5584C8.47247 13.8447 7.74194 15.5708 7.74194 17.4194V19.3548C7.74194 21.5701 8.84151 23.6487 10.6452 24.9075V25.372L7.98576 26.0369L3.16548 23.2258H0V43.2786L9.52054 46.4516H11.3747L11.6063 45.6408L14.5246 47.3924C14.5724 48.9792 15.8449 50.256 17.4302 50.3117C17.486 51.8904 18.7547 53.1592 20.3335 53.2149C20.3892 54.7937 21.658 56.0624 23.2367 56.1182C23.2943 57.7337 24.6174 59.0323 26.2462 59.0323C26.8511 59.0323 27.4441 58.8437 27.9426 58.5078L28.7998 59.2647C29.337 59.7378 30.0288 60 30.7471 60H30.9262C32.5365 60 33.8469 58.6982 33.8672 57.093C35.4601 57.0727 36.7501 55.7827 36.7704 54.1898C38.3643 54.1695 39.6552 52.8776 39.6736 51.2837C41.2821 51.2459 42.5807 49.9318 42.5807 48.3143C42.5807 48.217 42.5759 48.1211 42.566 48.0242L60 39.3079V25.1613ZM50.3226 17.6632V19.3548C50.3226 21.0725 49.3945 22.6772 47.9004 23.5424L47.4165 23.8221L47.4203 26.8846L52.2552 28.0924L41.6129 33.6938V31.0868C41.6129 29.7859 41.0875 28.5947 40.227 27.7144L43.5484 26.8846V23.8198L43.0655 23.5405C41.5723 22.6772 40.6452 21.0725 40.6452 19.3548V17.4194C40.6452 16.0996 41.1668 14.8653 42.1152 13.9463C43.0626 13.0277 44.3196 12.5324 45.6337 12.5835C48.2189 12.661 50.3226 14.94 50.3226 17.6632ZM31.4592 32.933L27.0783 31.5329C25.0819 30.8931 22.921 30.7976 20.8773 31.2503L20.3226 31.3732V31.0868C20.3226 29.7524 21.2275 28.5938 22.5213 28.2696L28.0645 26.8846V23.8198L27.5816 23.5405C26.0884 22.6772 25.1613 21.0725 25.1613 19.3548V17.4194C25.1613 16.0996 25.683 14.8653 26.6313 13.9463C27.5788 13.0277 28.8437 12.5324 30.1498 12.5835C32.735 12.661 34.8387 14.94 34.8387 17.6632V19.3548C34.8387 21.0725 33.9107 22.6772 32.4165 23.5424L31.9327 23.8221L31.9364 26.8846L37.4787 28.2696C38.7725 28.5938 39.6774 29.7524 39.6774 31.0868V34.713L39.4383 34.8387H38.8453L32.8957 33.1385C32.4269 33.0058 31.944 32.9514 31.4592 32.933ZM20.5395 14.484C22.3568 10.9627 26.0147 8.70968 30 8.70968C33.9475 8.70968 37.5898 10.9325 39.4208 14.406C38.9601 15.3298 38.7097 16.3529 38.7097 17.4194V19.3548C38.7097 21.5701 39.8093 23.6487 41.6129 24.9075V25.372L37.7419 26.3412L33.87 25.372V24.9085C35.6737 23.6497 36.7742 21.5701 36.7742 19.3548V17.6632C36.7742 13.9037 33.8284 10.7576 30.2079 10.648C28.3556 10.5937 26.6091 11.2703 25.2832 12.5575C23.9563 13.8447 23.2258 15.5708 23.2258 17.4194V19.3548C23.2258 21.5701 24.3254 23.6487 26.129 24.9075V25.372L22.2581 26.3412L18.3862 25.372V24.9085C20.1898 23.6497 21.2903 21.5701 21.2903 19.3548V17.6632C21.2903 16.5244 21.0163 15.4432 20.5395 14.484ZM16.0887 8.63124L19.1805 5.53947L21.9018 7.31052L22.4225 6.99109C23.7272 6.19156 25.1372 5.6061 26.6129 5.25312L27.2083 5.11041L27.8816 1.93548H32.1193L32.7908 5.10947L33.3862 5.2517C34.8619 5.60515 36.2719 6.19062 37.5766 6.99014L38.0973 7.30957L40.8186 5.53853L43.9066 8.62746L42.8089 11.1975C42.0618 11.5189 41.3691 11.9711 40.7661 12.5556C40.7264 12.5943 40.6924 12.6359 40.6537 12.6756C38.3737 9.05132 34.343 6.77419 30 6.77419C25.6258 6.77419 21.5838 9.07258 19.3095 12.7337C18.7009 12.0968 17.9769 11.5808 17.1746 11.2202L16.0887 8.63124ZM12.5806 26.8846V23.8198L12.0977 23.5405C10.6045 22.6772 9.67742 21.0725 9.67742 19.3548V17.4194C9.67742 16.0996 10.1991 14.8653 11.1475 13.9463C12.0949 13.0277 13.3547 12.5324 14.6659 12.5835C17.2511 12.661 19.3548 14.94 19.3548 17.6632V19.3548C19.3548 21.0725 18.4268 22.6772 16.9326 23.5424L16.4488 23.8221L16.4526 26.8846L19.773 27.7144C18.9126 28.5947 18.3871 29.7859 18.3871 31.0868V31.8037L15.3686 32.4746L15.447 32.2006L15.4839 30.412L10.3801 27.4346L12.5806 26.8846ZM1.93548 25.1613H2.64097L9.60087 29.2208L6.08903 43.2677L1.93548 41.8827V25.1613ZM9.8343 44.5161L7.92953 43.8815L11.3412 30.2363L13.5484 31.5234V31.7999L9.91558 44.5161H9.8343ZM16.4516 47.3022C16.4516 47.0168 16.5669 46.737 16.7692 46.5348L18.4703 44.8337C18.6725 44.6314 18.9522 44.5161 19.2377 44.5161C19.8359 44.5161 20.3226 45.0028 20.3226 45.6011C20.3226 45.8865 20.2073 46.1662 20.005 46.3685L18.3039 48.0696C18.1017 48.2718 17.822 48.3871 17.5365 48.3871C16.9383 48.3871 16.4516 47.9004 16.4516 47.3022ZM19.3548 50.2054C19.3548 49.92 19.4701 49.6403 19.6724 49.438L21.3735 47.7369C21.5757 47.5347 21.8555 47.4194 22.1409 47.4194C22.7391 47.4194 23.2258 47.9061 23.2258 48.5043C23.2258 48.7897 23.1105 49.0694 22.9083 49.2717L21.2072 50.9728C21.0049 51.175 20.7252 51.2903 20.4398 51.2903C19.8415 51.2903 19.3548 50.8036 19.3548 50.2054ZM22.2581 53.1086C22.2581 52.8232 22.3734 52.5435 22.5756 52.3412L24.2767 50.6401C24.479 50.4379 24.7587 50.3226 25.0441 50.3226C25.6423 50.3226 26.129 50.8093 26.129 51.4075C26.129 51.6929 26.0137 51.9727 25.8115 52.1749L24.1104 53.876C23.9081 54.0783 23.6284 54.1936 23.343 54.1936C22.7448 54.1936 22.2581 53.7068 22.2581 53.1086ZM26.2462 57.0968C25.648 57.0968 25.1613 56.6101 25.1613 56.0118C25.1613 55.7264 25.2766 55.4467 25.4788 55.2445L27.1799 53.5434C27.3822 53.3411 27.6619 53.2258 27.9473 53.2258C28.5456 53.2258 29.0323 53.7125 29.0323 54.3107C29.0323 54.5961 28.917 54.8759 28.7147 55.0781L27.0136 56.7792C26.8114 56.9815 26.5316 57.0968 26.2462 57.0968ZM30.9262 58.0645H30.7471C30.5004 58.0645 30.2641 57.9747 30.0803 57.8117L29.3564 57.1733L30.0832 56.4466C30.3426 56.1872 30.5439 55.8786 30.6927 55.5474L31.5726 56.2798C31.8027 56.4716 31.9355 56.7542 31.9355 57.0552C31.9355 57.6118 31.4828 58.0645 30.9262 58.0645ZM39.6047 49.3548H39.4374C39.1945 49.3548 38.9573 49.2688 38.7716 49.1129L33.5237 44.7396L32.2837 46.2272L37.38 50.4733C37.6092 50.6652 37.7419 50.9477 37.7419 51.2487C37.7419 51.8054 37.2893 52.2581 36.7326 52.2581H36.5214C36.2865 52.2581 36.0569 52.1749 35.8759 52.0237L30.6195 47.6438L29.3796 49.1313L34.4758 53.378C34.7059 53.5684 34.8387 53.851 34.8387 54.152C34.8387 54.7086 34.386 55.1613 33.8294 55.1613C33.458 55.1613 33.096 55.0295 32.8111 54.7927L30.6511 52.9924C30.1753 52.0199 29.1976 51.3418 28.0527 51.3012C27.9969 49.7225 26.7282 48.4537 25.1495 48.398C25.0937 46.8192 23.825 45.5505 22.2463 45.4947C22.1896 43.8792 20.8665 42.5807 19.2377 42.5807C18.4424 42.5807 17.6641 42.9029 17.1018 43.4652L15.4007 45.1663C15.2991 45.2679 15.215 45.3832 15.1295 45.4976L12.1568 43.7138L14.7628 34.593L21.296 33.1404C23.0099 32.7572 24.8168 32.8404 26.4882 33.3753L27.9138 33.8313L23.0807 36.2478C21.9764 36.8011 21.2903 37.912 21.2903 39.1472V39.3386C21.2903 41.1262 22.7448 42.5807 24.5324 42.5807C25.1197 42.5807 25.6976 42.4209 26.1999 42.118L29.8034 39.9572C30.5273 39.5234 31.4989 39.6184 32.124 40.1807L40.3007 47.5394C40.5195 47.7378 40.6452 48.0195 40.6452 48.3143C40.6452 48.8885 40.1788 49.3548 39.6047 49.3548ZM58.0645 38.1115L41.7608 46.264C41.7079 46.2078 41.6526 46.1544 41.5945 46.1024L33.4192 38.7437C32.7029 38.0973 31.7767 37.7419 30.8118 37.7419C30.1063 37.7419 29.4136 37.9338 28.8069 38.2976L25.2019 40.4595C24.9997 40.5814 24.7686 40.6452 24.5324 40.6452C23.8113 40.6452 23.2258 40.0597 23.2258 39.3386V39.1472C23.2258 38.6487 23.5027 38.2017 23.9478 37.9791L29.346 35.2801C30.2698 34.8174 31.3666 34.714 32.3622 35.0003L38.4436 36.7373L39.9165 36.7742L58.0645 27.2225V38.1115Z" fill="#EB3300"/>
</svg>
