<svg width="805" height="640" viewBox="0 0 805 640" fill="none" xmlns="http://www.w3.org/2000/svg">
<path fill-rule="evenodd" clip-rule="evenodd" d="M555.462 109.715C556.963 130.984 555.819 153.123 554.015 174.346C552.211 195.569 549.6 217.586 544.528 238.311C540.571 254.479 534.464 270.13 525.316 284.153C505.323 314.801 470.043 321.07 435.44 318.206C400.929 315.346 367.951 303.221 353.502 269.923C346.821 254.529 343.391 237.993 342.092 221.345C340.431 200.13 341.479 178.064 343.279 156.891C346.274 121.656 353.343 73.4804 374.461 43.8711C394.445 15.8494 428.895 10.7684 461.349 13.4567C495.682 16.2979 529.867 27.9135 544.264 61.3676C550.872 76.716 554.286 93.1181 555.462 109.715ZM468.182 98.472C465.676 93.0114 460.592 91.1119 454.789 90.6297C449.202 90.1663 443.886 91.0729 440.853 95.9862C436.89 102.876 434.28 110.274 433.297 118.141C431.586 131.842 430.028 145.583 428.856 159.343L428.27 166.25C427.152 179.381 426.089 192.609 425.55 205.775C425.39 209.67 425.271 213.599 425.341 217.498C425.371 219.233 425.398 221.61 425.783 223.303C426.798 227.78 428.044 232.352 429.767 236.618L429.801 236.699L429.833 236.783C432.126 243.133 438.691 244.932 444.913 245.45C453.822 246.185 458.067 241.1 460.518 233.11C462.827 225.574 464.153 217.019 465.267 209.233C467.149 196.124 468.441 182.864 469.566 169.671L470.152 162.762C471.157 150.944 472.107 139.027 472.538 127.175C472.663 123.652 472.751 120.094 472.654 116.572C472.612 115.004 472.561 112.842 472.189 111.316C471.122 106.985 469.85 102.62 468.182 98.472ZM297.467 261.184L308.64 316.027L222.532 333.114L197.364 320.301L211.362 278.271L107.752 298.833L82.584 286.019L87.042 241.099L147.295 45.5328L224.247 12.457L249.415 25.271L283.111 190.699L293.549 170.819L318.716 183.633L329.374 254.855L297.467 261.184ZM753.04 324.57L741.878 379.413L655.77 362.338L641.919 340.463L666.932 307.495L563.318 286.946L566.818 225.796L698.94 68.3957L787.214 66.7759L801.065 88.6454L767.388 254.081L789.149 239.269L802.996 261.142L784.947 330.897L753.04 324.57Z" fill="#EB3300"/>
<path fill-rule="evenodd" clip-rule="evenodd" d="M530.262 96.8935C531.764 118.162 530.622 140.3 528.814 161.524C527.01 182.748 524.399 204.763 519.329 225.488C515.371 241.657 509.265 257.308 500.115 271.332C480.123 301.979 444.844 308.248 410.241 305.383C375.73 302.523 342.751 290.398 328.303 257.101C321.622 241.706 318.192 225.171 316.892 208.524C315.232 187.308 316.279 165.243 318.08 144.069C321.075 108.833 328.144 60.6577 349.262 31.0484C369.246 3.02805 403.696 -2.05427 436.15 0.634058C470.482 3.47518 504.667 15.0909 519.065 48.5449C525.672 63.8949 529.087 80.2957 530.262 96.8935ZM442.981 85.6496C440.475 80.189 435.393 78.2895 429.589 77.8073C424.002 77.3439 418.687 78.2518 415.652 83.1654C411.691 90.054 409.08 97.4531 408.098 105.319C406.387 119.02 404.829 132.761 403.655 146.52L403.07 153.429C401.953 166.561 400.889 179.788 400.35 192.953C400.191 196.848 400.071 200.777 400.141 204.676C400.172 206.41 400.199 208.788 400.583 210.481C401.6 214.958 402.845 219.53 404.568 223.796L404.602 223.877L404.634 223.961C406.927 230.31 413.491 232.11 419.715 232.627C428.622 233.362 432.868 228.277 435.319 220.289C437.628 212.752 438.954 204.197 440.069 196.412C441.949 183.303 443.241 170.041 444.366 156.849L444.952 149.94C445.958 138.123 446.908 126.205 447.339 114.353C447.462 110.83 447.556 107.272 447.456 103.749C447.413 102.182 447.363 100.019 446.99 98.4953C445.923 94.1633 444.65 89.7968 442.981 85.6496ZM272.267 248.363L283.441 303.204L197.333 320.292L186.163 265.449L82.553 286.01L61.8418 228.276L122.095 32.7101L224.216 12.4483L257.912 177.876L293.517 170.81L304.174 242.032L272.267 248.363ZM174.1 194.508L163.664 143.264L146.274 200.029L174.1 194.508ZM739.161 302.688L727.995 357.531L641.887 340.454L653.053 285.612L549.439 265.062L552.935 203.917L685.062 46.5117L787.182 66.7669L753.51 232.197L789.118 239.26L771.066 309.015L739.161 302.688ZM669.698 215.577L680.126 164.335L641.872 210.059L669.698 215.577Z" fill="#0A0A0A"/>
<path fill-rule="evenodd" clip-rule="evenodd" d="M525.499 97.2356C526.706 114.347 526.228 135.646 524.059 161.135C521.895 186.629 518.767 207.71 514.69 224.383C510.608 241.053 504.412 255.851 496.11 268.772C479.915 293.411 451.437 304.042 410.676 300.665C370.535 297.34 344.56 282.198 332.754 255.242C326.744 241.138 323.067 225.444 321.716 208.167C320.362 190.89 320.757 169.66 322.899 144.478C327.287 92.8791 337.394 55.9856 353.223 33.789C369.053 11.5966 396.573 2.12218 435.778 5.36989C476.849 8.7704 503.147 23.7863 514.673 50.4085C520.68 64.5165 524.289 80.1214 525.499 97.2356ZM449.186 157.256L449.772 150.343C452.333 120.248 452.974 102.593 451.694 97.3855C450.413 92.1776 448.993 87.6505 447.441 83.8097C444.538 77.3844 438.735 73.8112 430.02 73.0912C421.31 72.367 415.138 74.9488 411.502 80.8349C407.09 88.5085 404.375 96.4818 403.359 104.746C401.431 120.052 399.944 133.847 398.902 146.131L398.314 153.04C395.467 186.517 394.672 206.013 395.924 211.532C397.182 217.046 398.587 221.726 400.139 225.567C402.676 232.579 409.078 236.513 419.347 237.362C429.614 238.212 436.481 232.981 439.949 221.672C443.417 210.36 446.498 188.888 449.186 157.256Z" fill="#FEFEFE"/>
<path fill-rule="evenodd" clip-rule="evenodd" d="M298.772 238.271L266.632 244.652L277.802 299.495L201.118 314.709L189.949 259.87L85.7136 280.554L66.9238 228.17L125.881 36.8079L220.471 18.0362L254.167 183.468L289.528 176.448L298.772 238.271ZM179.784 198.226L165.657 128.886L162.902 129.429L139.376 206.245L179.784 198.226Z" fill="#FEFEFE"/>
<path fill-rule="evenodd" clip-rule="evenodd" d="M767.574 303.476L735.43 297.104L724.269 351.946L647.584 336.739L658.746 281.893L554.508 261.225L557.682 205.739L686.967 51.7237L781.561 70.4805L747.884 235.916L783.245 242.928L767.574 303.476ZM673.498 221.16L687.612 151.815L684.857 151.272L633.09 213.149L673.498 221.16Z" fill="#FEFEFE"/>
<path fill-rule="evenodd" clip-rule="evenodd" d="M209.505 311.045C195.758 316.476 185.341 327.416 179.879 340.896C178.28 344.841 177.07 348.942 176.355 353.182C175.837 356.29 176.038 355.498 171.502 358.152C150.843 370.242 131.23 385.755 115.865 403.777C106.613 415.12 101.204 424.992 94.2288 437.573C93.7594 438.431 93.2817 439.181 92.7807 440.084C88.7349 447.4 83.598 454.835 78.8842 461.825C71.5001 473.796 66.8602 484.346 60.7927 497.064C57.9527 502.633 55.5697 509.085 52.3997 514.473L50.2659 518.192C45.9051 526.142 34.441 538.76 29.4011 546.924C26.4708 551.669 24.1397 555.843 21.687 560.895C19.6271 565.015 18.25 569.24 16.7214 573.807C15.7358 576.757 14.2029 585.603 14.7969 589.8C15.0419 591.52 14.7272 592.128 13.8265 593.902C11.4093 598.669 8.9388 603.184 6.6491 608.058C6.2385 608.939 5.95116 609.594 5.55143 610.396C2.84264 615.821 0 623.592 0 629.754C0 631.935 0.189011 633.526 0.391527 634.713C0.732411 636.723 1.0746 638.067 1.73013 640.001L22.421 634.926C27.4181 633.694 32.2647 632.442 37.2728 631.263C39.7557 630.672 42.1769 630.094 44.6678 629.481L141.151 605.841C151.122 603.383 160.93 601.005 170.893 598.546L204.248 590.359C205.505 590.048 206.672 589.731 207.996 589.436C215.588 587.736 222.816 585.836 230.382 583.952L289.763 569.427C309.476 564.564 329.317 559.753 349.112 554.867C353.977 553.668 358.928 552.489 363.863 551.27C368.74 550.068 373.695 548.721 378.746 547.636L401.241 542.432C403.153 541.961 407.209 540.748 409.012 540.854L607.041 555.733C611.755 556.234 625.846 557.517 630.348 556.866C632.462 556.559 634.789 556.165 636.551 555.092C637.083 554.771 636.783 554.847 637.303 554.847C640.865 554.874 643.015 553.921 646.331 552.603C650.848 550.807 655.217 549.276 659.722 547.491C664.214 545.711 668.587 544.129 673.083 542.352C677.58 540.57 681.995 539.013 686.469 537.235L713.22 526.984C715.405 526.119 717.685 525.291 719.839 524.441C727.933 521.224 725.379 522.404 728.25 514.768C729.422 511.646 730.57 508.521 731.715 505.392C754.31 443.688 777.826 382.136 800.834 320.569C803.309 313.817 809.532 298.239 799.394 295.646C795.918 294.857 792.543 294.298 789.085 293.49C782.358 291.92 775.204 290.787 768.437 289.209C765.074 288.424 761.583 287.877 758.094 287.084L737.441 282.805C734.679 282.266 734.85 282.155 733.981 284.728C732.67 288.619 730.423 294.34 728.887 298.201L651.737 502.612C651.496 503.217 651.05 504.344 650.918 504.887L645.196 504.547C608.302 502.593 571.39 500.894 534.485 498.89C566.164 474.729 552.037 446.782 557.051 403.842C563.603 347.667 515.835 303.117 460.207 303.117C460.839 301.819 459.729 298.813 458.53 296.427C454.698 288.783 449.316 286.594 446.015 285.95C440.804 282.178 433.987 276.959 428.16 274.113C421.405 270.811 414.84 267.193 407.694 264.685C403.077 263.065 398.584 261.445 393.781 260.262C376.427 255.981 359.01 254.797 340.868 257.431C320.708 260.362 292.65 275.94 276.611 288.57C237.226 319.585 246.518 296.421 209.505 311.045Z" fill="#0A0A0A"/>
<path fill-rule="evenodd" clip-rule="evenodd" d="M411.11 323.157C408.118 323.157 408.01 322.024 407.671 320.554C405.907 312.913 406.174 316.528 404.04 311.802C403.668 310.979 403.389 310.573 403.101 309.65C401.642 304.993 404.125 301.375 406.721 297.928C416.692 285.835 436.095 280.416 449.659 290.242C451.661 291.69 455.016 294.945 456.033 297.312C456.468 298.33 457.799 301.229 457.387 302.19C453.333 311.604 419.071 323.157 411.11 323.157Z" fill="#EB3300"/>
<path fill-rule="evenodd" clip-rule="evenodd" d="M638.09 552.339L731.861 298.047L734.945 289.782C736.889 284.636 735.605 285.217 740.602 286.206C741.898 286.459 743.252 286.765 744.622 287.033L797.262 297.935C805.414 298.958 800.684 313.285 798.311 319.633C775.245 381.301 752.203 442.967 729.142 504.633L725.727 513.759C723.337 520.155 725.126 519.566 719.12 521.843C717.001 522.647 714.914 523.444 712.757 524.294C708.067 526.152 699.077 529.687 694.251 531.376C693.408 531.67 692.822 531.927 692.008 532.249C691.174 532.578 690.421 532.837 689.626 533.152C674.335 539.153 658.618 544.993 643.242 550.917C641.827 551.461 639.898 552.296 638.09 552.339Z" fill="#D2D2D2"/>
<path fill-rule="evenodd" clip-rule="evenodd" d="M393.905 380.535C391.29 380.749 385.874 384.498 383.689 386.211L380.237 389.312C375.581 393.869 370.478 402.477 370.478 408.796C370.478 412.465 372.942 415.809 375.446 417.08C378.045 418.402 380.733 417.509 383.321 416.505C386.231 415.379 385.377 413.522 383.996 413.469C383.55 413.453 382.488 413.962 381.983 414.158C381.09 414.507 378.798 415.277 377.692 415.05C375.03 414.513 373.253 411.416 373.253 408.456C373.253 403.995 376.691 397.844 379.5 394.237C381.133 392.135 383.241 389.987 385.277 388.294C387.462 386.482 389.82 384.946 392.396 383.675C393.165 383.295 393.882 383.101 394.599 382.763C397.444 416.571 422.566 456.222 448.986 477.411C460.661 485.693 493.499 497.274 509.476 500.946C504.282 504.803 499.048 507.946 492.643 509.512C480.432 512.501 468.281 512.983 455.711 511.712C451.407 511.274 447.605 510.065 443.707 509.168C443.617 505.101 439.799 498.357 437.488 495.27C436.079 493.383 434.682 491.423 432.994 489.772C431.884 488.689 428.94 485.36 427.221 485.36C425.77 485.36 424.804 486.284 424.7 487.631C424.575 489.274 427.652 491.108 429.351 492.851C429.824 493.337 429.972 493.636 430.476 494.137C431.738 495.39 432.738 497.003 433.789 498.403C435.963 501.303 438.15 504.45 439.023 508.143C437.405 508.108 436.657 508.038 434.931 508.383C433.402 508.69 432.626 508.965 431.279 509.406C428.866 510.195 426.764 511.199 424.47 512.106C416.254 515.369 414.569 515.557 405.382 516.567C396.684 517.532 396.881 508.318 395.538 503.102C394.844 500.411 391.12 501.977 388.179 501.977C378.829 501.977 369.812 486.218 368.085 479.501C366.841 475.994 364.314 474.558 365.052 480.44C365.462 483.713 363.111 486.539 365.967 491.699C361.789 489.722 357.47 489.741 353.051 488.86C351.74 488.597 350.684 488.355 349.828 488.125C343.192 486.368 340.062 480.995 339.138 474.589C338.658 471.222 338.603 467.753 338.226 464.44L338.025 456.757C338.025 450.795 338.548 444.818 338.548 438.602C338.548 437.101 338.025 435.412 338.025 433.463C338.025 427.47 338.66 422.687 340.21 417.287C340.678 415.641 341.672 413.848 341.672 412.224C341.672 411.126 339.677 410.529 338.914 412.585C336.702 418.563 335.425 423.932 335.425 430.722C320.852 417.302 315.662 416.686 312.74 393.506C311.464 383.365 309.963 370.352 305.287 361.124C301.97 354.576 297.892 348.785 291.727 344.703C287.824 342.117 286.773 341.44 269.654 336.688C278.314 335.082 289.644 334.099 300.895 334.114C331.883 335.99 369.339 338.606 399.283 331.72C399.008 332.88 398.328 333.995 397.871 335.122C389.595 355.412 393.518 362.885 393.905 380.535ZM413.685 491.356C413.685 494.746 415.078 497.653 416.586 499.628C417.506 500.835 418.201 501.624 419.407 502.494C420.482 503.263 422.778 504.202 424.098 504.202C425.161 504.202 425.312 502.872 425.312 502.148C425.312 500.388 422.051 501.494 418.965 497.282C416.463 493.857 417.265 492.698 416.893 490.932C416.381 488.5 413.685 488.799 413.685 491.356Z" fill="#FEFEFE"/>
<path fill-rule="evenodd" clip-rule="evenodd" d="M627.316 537.097L378.295 525.619C379.276 525.007 395.412 521.311 397.939 520.687C402.152 519.657 402.023 519.703 406.377 519.255L415.087 518.088C420.577 517.187 429.648 512.129 435.789 511.006C439.479 510.329 450.761 513.894 454.49 514.304C464.721 515.426 471.196 515.399 481.199 514.314C490.106 513.35 499.185 511.396 506.436 506.165L508.272 504.894C515.679 515.804 526.437 507.441 531.57 500.717L646.757 507.457L649.834 507.747L649.244 509.241L641.699 529.197C639.863 533.229 636.643 537.097 627.316 537.097Z" fill="#FEFEFE"/>
<path fill-rule="evenodd" clip-rule="evenodd" d="M3.66179 636.785C2.81594 635.043 2.79688 631.689 2.79688 629.594C2.79688 624.221 4.52702 620.33 6.15695 615.78L7.94167 611.722C8.78752 610.075 15.4067 596.691 15.4642 596.021C16.0198 598.923 18.4166 605.241 18.6931 606.023C24.5045 622.428 35.1353 628.254 35.5926 628.909L27.6827 630.861C21.4045 632.408 13.7383 634.151 7.67368 635.779L3.66179 636.785ZM387.17 520.483C387.274 520.035 387.692 519.142 387.921 518.656C388.228 518.009 388.449 517.535 388.737 516.89C390.184 513.659 391.681 508.052 391.681 504.383C392.927 504.383 393.013 503.894 393.074 505.23C393.474 513.812 397.237 516.331 398.797 517.744C397.64 517.84 387.855 520.468 387.17 520.483ZM361.489 492.907C362.183 494.443 363.049 499.344 363.049 501.646C363.049 506.103 362.865 508.121 361.55 512.498C358.784 521.701 353.376 526.246 347.214 532.775C343.103 537.16 339.637 542.25 337.558 547.91C337.2 548.891 335.378 554.306 335.284 555.427C336.332 555.404 372.565 546.397 375.405 545.697C377.776 545.111 399.317 540.692 399.317 540.182L370.858 538.125C369.12 538.267 368.596 537.824 368.464 536.605C368.247 534.572 368.53 525.484 369.81 524.761L380.437 522.229C386.747 520.682 389.077 510.507 389.077 504.729C377.14 504.729 377.097 502.312 370.757 497.977C369.744 497.284 368.856 496.66 367.906 495.994C363.956 493.22 364.128 494.159 361.489 492.907ZM122.707 437.826C122.058 433.165 121.992 428.406 122.563 423.741C122.73 422.401 122.714 420.624 124.27 420.624C124.976 420.624 125.558 421.349 125.577 421.983C125.589 422.344 125.372 423.492 125.31 424.052C124.851 428.099 124.748 433.142 125.31 437.21C125.907 441.564 127.285 445.956 129.4 449.475C130.291 450.953 131.111 452.558 132.251 453.857C132.41 451.98 142.586 429.393 143.755 426.671C144.224 425.58 144.394 423.367 145.963 423.367C148.357 423.367 145.834 428.21 145.144 429.926C141.275 439.496 136.077 450.139 132.794 459.868C127.998 474.073 123.044 487.897 118.928 502.366C111.253 529.328 107.606 551.631 104.324 579.247C103.778 586.381 101.97 606.777 103.272 612.291C104.569 612.264 114.187 609.684 115.416 609.381C117.422 608.887 119.319 608.415 121.387 607.906L175.347 594.706C179.355 593.66 183.383 592.738 187.297 591.773C191.309 590.781 195.251 589.744 199.235 588.828C199.297 588.089 199.643 587.441 199.857 586.699C200.093 585.868 200.221 585.381 200.523 584.616C203.623 576.723 206.429 569.658 210.281 562.048L221.565 540.811C224.563 535.253 228.273 529.493 232.078 524.469C236.77 518.733 236.493 518.184 243.892 514.548C246.297 513.364 248.365 512.008 250.527 510.476C252.645 508.979 254.538 507.259 256.37 505.455C260.195 501.68 265.01 494.192 267.012 489.237C267.764 487.377 267.717 485.695 270.035 486.227C270.181 486.526 270.384 486.986 270.384 487.427C270.384 489.099 267.958 493.581 267.205 494.908C265.883 497.241 264.629 499.183 263.164 501.37C259.613 506.662 254.918 510.824 249.596 514.351C240.052 520.674 239.496 518.142 232.31 528.808L226.076 538.416C222.713 543.981 219.744 549.767 216.648 555.484C216.012 556.66 215.515 557.709 214.91 558.908C211.069 566.487 203.845 580.376 202.01 588.143C203.325 588.032 266.93 572.25 267.225 572.177C267.613 572.081 330.912 556.399 332.333 556.281C332.356 555.259 332.805 553.983 333.065 553.063C334.45 548.2 336.165 543.513 338.827 539.228C342.923 532.63 353.753 523.087 356.398 517.86C359.323 512.08 361.078 505.459 360.154 498.849C359.226 492.217 359.057 492.412 357.008 492.19C356.574 492.14 355.91 492.06 355.312 491.979C352.964 491.654 350.993 491.294 349.232 490.773C340.072 488.061 337.651 482.62 336.398 474.44C335.809 470.58 335.444 465.892 335.456 463.277C335.471 460.803 335.285 458.93 335.285 456.422C335.285 451.846 336.871 438.025 334.695 434.227C332.654 430.664 328.033 428.336 325.422 425.22C325.026 424.748 324.235 424.27 323.711 423.83C313.689 415.94 311.839 406.094 310.147 394.017C309.538 389.662 309.041 385.316 308.386 381.403C306.387 369.43 300.328 351.723 289.01 346.06C281.522 342.314 275.958 340.625 267.757 339.441C237.214 335.041 205.377 341.065 178.79 356.939C174.964 359.225 171.173 361.442 167.445 363.897C148.46 376.631 134.676 386.335 119.288 403.892C110.873 413.692 105.349 422.247 99.5675 433.582L98.2988 435.93C92.7625 446.787 86.4267 454.403 80.5058 464.1C73.9497 474.834 68.7731 486.752 63.3613 498.049C62.9576 498.853 62.6359 499.661 62.2049 500.5L60.4132 504.386C57.8865 509.446 55.4161 515.43 52.3229 520.041C49.8675 523.707 47.4421 527.387 44.7662 530.906C37.3396 540.679 31.016 548.373 25.529 559.195C20.9589 568.209 17.5453 577.374 17.5453 587.798C17.5453 606.042 28.0242 622.148 38.3209 627.414C39.509 628.322 40.1139 627.835 41.4594 627.502L86.6486 616.439C88.2117 616.052 99.3899 613.502 100.494 612.976C100.494 612.095 100.301 610.116 100.196 609.335C99.7771 606.244 100.103 603.38 100.141 600.297C100.247 591.902 101.488 582.348 102.063 573.93C103.273 556.211 107.331 538.558 111.153 521.241L114.587 507.672C117.818 496.05 121.648 484.772 125.245 473.318L125.981 471.131C127.064 467.643 128.457 464.157 129.629 460.684C129.865 459.987 130.855 457.766 130.855 457.315C126.116 448.68 123.676 444.835 122.707 437.826Z" fill="#EB3300"/>
</svg>
