<svg width="361" height="130" viewBox="0 0 361 130" fill="none" xmlns="http://www.w3.org/2000/svg">
<g opacity="0.7">
<g opacity="0.05">
<path d="M-19.8026 -126.953L-24.2174 -121.06L166.028 17.6543L190.731 58.3085L331.472 304.136L337.815 300.394L190.731 58.3085L166.97 16.8113L-19.8026 -126.953Z" fill="white"/>
<path d="M-28.0848 -121.522L-32.4412 -115.597L163.585 22.9065L187.312 62.8845L318.731 313.05L325.087 309.508L187.312 62.8845L164.512 22.083L-28.0848 -121.522Z" fill="white"/>
<path d="M-36.3666 -116.087L-40.663 -110.132L161.143 28.1615L183.895 67.4614L305.99 321.965L312.36 318.623L183.895 67.4614L162.055 27.3573L-36.3666 -116.087Z" fill="white"/>
<path d="M-44.6488 -110.657L-48.8864 -104.67L158.7 33.4128L180.476 72.0368L293.249 330.879L299.633 327.736L180.476 72.0368L159.598 32.6284L-44.6488 -110.657Z" fill="white"/>
<path d="M-52.9297 -105.222L-57.1081 -99.2029L156.259 38.6683L177.059 76.6153L280.51 339.796L286.907 336.853L177.059 76.6153L157.142 37.9026L-52.9297 -105.222Z" fill="white"/>
<path d="M-61.211 -99.7887L-65.3301 -93.7378L153.817 43.9228L173.642 81.1933L267.77 348.713L274.181 345.969L173.642 81.1933L154.686 43.1767L-61.211 -99.7887Z" fill="white"/>
<path d="M-69.4934 -94.3579L-73.5533 -88.2757L151.374 49.1748L170.224 85.7677L255.03 357.626L261.453 355.082L170.224 85.7677L152.229 48.4477L-69.4934 -94.3579Z" fill="white"/>
<path d="M-77.7745 -88.9236L-81.7758 -82.8096L148.932 54.4298L166.807 90.3464L242.289 366.543L248.727 364.199L166.807 90.3464L149.772 53.7223L-77.7745 -88.9236Z" fill="white"/>
<path d="M-86.0569 -83.4924L-89.9998 -77.3465L146.488 59.6825L163.387 94.9218L229.548 375.457L235.999 373.313L163.387 94.9218L147.314 58.9945L-86.0569 -83.4924Z" fill="white"/>
<path d="M-94.3379 -78.0592L-98.2209 -71.8822L144.047 64.9364L159.972 99.4993L216.809 384.373L223.273 382.428L159.972 99.4993L144.858 64.2677L-94.3379 -78.0592Z" fill="white"/>
<path d="M-102.62 -72.6272L-106.445 -66.4174L141.604 70.1899L156.552 104.076L204.067 393.288L210.546 391.542L156.552 104.076L142.4 69.5408L-102.62 -72.6272Z" fill="white"/>
<path d="M-110.901 -67.1946L-114.666 -60.9532L139.162 75.4435L153.136 108.653L191.328 402.203L197.82 400.658L153.136 108.653L139.945 74.8132L-110.901 -67.1946Z" fill="white"/>
<path d="M-119.181 -61.7604L-122.889 -55.4872L136.721 80.699L149.719 113.231L178.588 411.12L185.094 409.774L149.719 113.231L137.489 80.0879L-119.181 -61.7604Z" fill="white"/>
<path d="M-127.464 -56.3295L-131.112 -50.0252L134.278 85.9504L146.301 117.806L165.848 420.034L172.366 418.887L146.301 117.806L135.031 85.359L-127.464 -56.3295Z" fill="white"/>
<path d="M-135.746 -50.8944L-139.334 -44.5588L131.835 91.206L142.882 122.385L153.106 428.951L159.639 428.003L142.882 122.385L132.574 90.6339L-135.746 -50.8944Z" fill="white"/>
<path d="M-144.028 -45.4639L-147.558 -39.096L129.392 96.4577L139.464 126.96L140.365 437.864L146.911 437.116L139.464 126.96L130.116 95.9052L-144.028 -45.4639Z" fill="white"/>
<path d="M-152.309 -40.0298L-155.78 -33.6309L126.95 101.713L136.047 131.538L127.626 446.781L134.185 446.232L136.047 131.538L127.66 101.18L-152.309 -40.0298Z" fill="white"/>
<path d="M-160.592 -34.5981L-164.003 -28.1671L124.507 106.966L132.629 136.114L114.886 455.696L121.459 455.348L132.629 136.114L125.202 106.452L-160.592 -34.5981Z" fill="white"/>
<path d="M-168.872 -29.1652L-172.225 -22.7024L122.066 112.219L129.212 140.691L102.145 464.611L108.733 464.462L129.212 140.691L122.747 111.725L-168.872 -29.1652Z" fill="white"/>
<path d="M-177.153 -23.7315L-180.447 -17.2367L119.624 117.475L125.795 145.269L89.4055 473.527L96.0064 473.578L125.795 145.269L120.29 116.999L-177.153 -23.7315Z" fill="white"/>
<path d="M-185.437 -18.2995L-188.671 -11.7738L117.181 122.727L122.376 149.845L76.6638 482.441L83.2781 482.692L122.376 149.845L117.832 122.271L-185.437 -18.2995Z" fill="white"/>
<path d="M-193.717 -12.8658L-196.893 -6.30798L114.74 127.981L118.959 154.423L63.9244 491.359L70.5525 491.808L118.959 154.423L115.376 127.545L-193.717 -12.8658Z" fill="white"/>
<path d="M-201.999 -7.43183L-205.115 -0.842652L112.298 133.236L115.542 159.001L51.1849 500.276L57.8259 500.925L115.542 159.001L112.92 132.82L-201.999 -7.43183Z" fill="white"/>
<path d="M-210.281 -2.00062L-213.338 4.62047L109.854 138.489L112.124 163.577L38.4434 509.19L45.0989 510.038L112.124 163.577L110.462 138.092L-210.281 -2.00062Z" fill="white"/>
<path d="M-218.563 3.4335L-221.561 10.0866L107.412 143.744L108.706 168.155L25.7039 518.106L32.3729 519.154L108.706 168.155L108.006 143.366L-218.563 3.4335Z" fill="white"/>
<path d="M-226.844 8.86454L-229.784 15.5492L104.97 148.996L105.288 172.73L12.9623 527.02L19.645 528.267L105.288 172.73L105.548 148.637L-226.844 8.86454Z" fill="white"/>
<path d="M-235.126 14.2982L-238.006 21.0145L102.528 154.251L101.871 177.308L0.22253 535.936L6.91905 537.383L101.871 177.308L103.092 153.911L-235.126 14.2982Z" fill="white"/>
<path d="M-243.407 19.7288L-246.229 26.4769L100.085 159.502L98.4525 181.882L-12.518 544.849L-5.80886 546.495L98.4525 181.882L100.635 159.182L-243.407 19.7288Z" fill="white"/>
<path d="M-251.69 25.1634L-254.451 31.9424L97.6431 164.758L95.0348 186.461L-25.2586 553.767L-18.5344 555.613L95.0348 186.461L98.178 164.457L-251.69 25.1634Z" fill="white"/>
<path d="M-259.969 30.5968L-262.673 37.4079L95.2019 170.012L91.6191 191.039L-37.9972 562.683L-31.2601 564.728L91.6191 191.039L95.7226 169.731L-259.969 30.5968Z" fill="white"/>
<path d="M-268.252 36.0285L-270.896 42.8715L92.7582 175.265L88.2 195.615L-50.7383 571.597L-43.9881 573.842L88.2 195.615L93.2648 175.003L-268.252 36.0285Z" fill="white"/>
<path d="M-276.533 41.4621L-279.118 48.3368L90.3163 180.519L84.782 200.193L-63.4782 580.513L-56.7147 582.958L84.782 200.193L90.8083 180.277L-276.533 41.4621Z" fill="white"/>
<path d="M-284.816 46.8935L-287.342 53.7999L87.8736 185.772L81.3647 204.768L-76.2197 589.427L-69.4418 592.071L81.3647 204.768L88.3506 185.549L-284.816 46.8935Z" fill="white"/>
<path d="M-293.097 52.327L-295.564 59.2649L85.4315 191.026L77.9474 209.346L-88.9593 598.344L-82.1682 601.188L77.9474 209.346L85.8944 190.822L-293.097 52.327Z" fill="white"/>
</g>
</g>
</svg>
