<svg width="47" height="40" viewBox="0 0 47 40" fill="none" xmlns="http://www.w3.org/2000/svg">
<path d="M32.9262 8.34495C31.0539 7.11093 29.0025 6.26934 26.8856 5.81958L25.4156 0H24.3578H22.0424H20.9845L19.5146 5.81943C17.3976 6.26919 15.3462 7.11078 13.4739 8.3448L8.36182 5.28061L7.61375 6.03614L5.97654 7.68968L5.22846 8.44522L8.2624 13.6083C7.04056 15.4993 6.20728 17.5711 5.76197 19.7092L0 21.1938V22.2622V24.6007V25.6691L5.76212 27.1537C6.07282 28.6454 6.57234 30.1048 7.26082 31.4931C7.83805 32.6569 7.80451 34.034 7.14657 35.1536L5.22846 38.4177L5.97654 39.1732L6.79514 40L12.5152 34.2229C13.6861 33.0403 13.9155 31.1956 13.0435 29.7739C10.1431 25.0453 10.7833 18.7307 14.9641 14.7023C19.5477 10.286 26.8522 10.286 31.4357 14.7023C35.6167 18.7306 36.2569 25.0453 33.3564 29.7739C32.4843 31.1956 32.7139 33.0403 33.8848 34.2229L39.6049 40L40.4235 39.1732L41.1715 38.4177L39.2534 35.1536C38.5956 34.0342 38.562 32.6571 39.1392 31.4931C39.8277 30.1048 40.3273 28.6453 40.638 27.1537L46.4 25.6691V24.6007V22.2622V21.1938L40.6379 19.7092C40.1926 17.5711 39.3593 15.4993 38.1375 13.6083L41.1714 8.44522L40.4233 7.68968L38.7864 6.0363L38.0383 5.28076L32.9262 8.34495Z" fill="#EB3300"/>
</svg>
