<svg width="182" height="40" viewBox="0 0 182 40" fill="none" xmlns="http://www.w3.org/2000/svg">
<path d="M72.084 35L65.209 12.5977H65.0332C65.0592 13.1315 65.0983 13.9388 65.1504 15.0195C65.2155 16.0872 65.2741 17.2266 65.3262 18.4375C65.3783 19.6484 65.4043 20.7422 65.4043 21.7188V35H59.9941V6.44531H68.2363L74.9941 28.2812H75.1113L82.2793 6.44531H90.5215V35H84.877V21.4844C84.877 20.5859 84.89 19.5508 84.916 18.3789C84.9551 17.207 85.0007 16.0938 85.0527 15.0391C85.1048 13.9714 85.1439 13.1706 85.1699 12.6367H84.9941L77.6309 35H72.084ZM106.205 12.7148C109.135 12.7148 111.381 13.3529 112.943 14.6289C114.506 15.9049 115.287 17.8451 115.287 20.4492V35H111.127L109.975 32.0312H109.818C109.193 32.8125 108.555 33.4505 107.904 33.9453C107.253 34.4401 106.505 34.8047 105.658 35.0391C104.812 35.2734 103.783 35.3906 102.572 35.3906C101.283 35.3906 100.124 35.1432 99.0957 34.6484C98.0801 34.1536 97.2793 33.3984 96.6934 32.3828C96.1074 31.3542 95.8145 30.0521 95.8145 28.4766C95.8145 26.1589 96.6283 24.4531 98.2559 23.3594C99.8835 22.2526 102.325 21.6406 105.58 21.5234L109.369 21.4062V20.4492C109.369 19.3034 109.07 18.4635 108.471 17.9297C107.872 17.3958 107.038 17.1289 105.971 17.1289C104.916 17.1289 103.881 17.2786 102.865 17.5781C101.85 17.8776 100.834 18.2552 99.8184 18.7109L97.8457 14.6875C99.0046 14.0755 100.3 13.5938 101.732 13.2422C103.178 12.8906 104.669 12.7148 106.205 12.7148ZM109.369 24.8828L107.064 24.9609C105.137 25.013 103.796 25.3581 103.041 25.9961C102.299 26.6341 101.928 27.474 101.928 28.5156C101.928 29.4271 102.195 30.0781 102.729 30.4688C103.262 30.8464 103.959 31.0352 104.818 31.0352C106.094 31.0352 107.169 30.6576 108.041 29.9023C108.926 29.1471 109.369 28.0729 109.369 26.6797V24.8828ZM127.396 35H121.439V4.60938H127.396V35ZM142.67 12.7539C144.688 12.7539 146.426 13.1445 147.885 13.9258C149.343 14.694 150.469 15.8138 151.264 17.2852C152.058 18.7565 152.455 20.5534 152.455 22.6758V25.5664H138.373C138.438 27.2461 138.939 28.5677 139.877 29.5312C140.827 30.4818 142.143 30.957 143.822 30.957C145.215 30.957 146.492 30.8138 147.65 30.5273C148.809 30.2409 150.001 29.8112 151.225 29.2383V33.8477C150.144 34.3815 149.011 34.7721 147.826 35.0195C146.654 35.2669 145.229 35.3906 143.549 35.3906C141.361 35.3906 139.421 34.987 137.729 34.1797C136.049 33.3724 134.727 32.1419 133.764 30.4883C132.813 28.8346 132.338 26.7513 132.338 24.2383C132.338 21.6862 132.768 19.5638 133.627 17.8711C134.499 16.1654 135.71 14.8893 137.26 14.043C138.809 13.1836 140.613 12.7539 142.67 12.7539ZM142.709 16.9922C141.55 16.9922 140.587 17.3633 139.818 18.1055C139.063 18.8477 138.627 20.013 138.51 21.6016H146.869C146.856 20.7161 146.693 19.9284 146.381 19.2383C146.081 18.5482 145.626 18.0013 145.014 17.5977C144.415 17.194 143.646 16.9922 142.709 16.9922ZM169.701 12.7539C172.032 12.7539 173.907 13.3919 175.326 14.668C176.745 15.931 177.455 17.9622 177.455 20.7617V35H171.498V22.2461C171.498 20.6836 171.212 19.5052 170.639 18.7109C170.079 17.9167 169.193 17.5195 167.982 17.5195C166.16 17.5195 164.916 18.138 164.252 19.375C163.588 20.612 163.256 22.3958 163.256 24.7266V35H157.299V13.1641H161.85L162.65 15.957H162.982C163.451 15.2018 164.031 14.5898 164.721 14.1211C165.424 13.6523 166.199 13.3073 167.045 13.0859C167.904 12.8646 168.79 12.7539 169.701 12.7539Z" fill="white"/>
<path d="M32.9262 8.34495C31.0539 7.11093 29.0025 6.26934 26.8856 5.81958L25.4156 0H24.3578H22.0424H20.9845L19.5146 5.81943C17.3976 6.26919 15.3462 7.11078 13.4739 8.3448L8.36182 5.2806L7.61375 6.03614L5.97654 7.68968L5.22846 8.44522L8.2624 13.6083C7.04056 15.4993 6.20728 17.5711 5.76197 19.7092L0 21.1938V22.2622V24.6007V25.6691L5.76212 27.1537C6.07282 28.6454 6.57233 30.1048 7.26082 31.4931C7.83805 32.6569 7.80451 34.034 7.14657 35.1536L5.22846 38.4177L5.97654 39.1732L6.79514 40L12.5152 34.2229C13.6861 33.0403 13.9155 31.1956 13.0434 29.7739C10.1431 25.0453 10.7833 18.7307 14.9641 14.7023C19.5477 10.286 26.8522 10.286 31.4357 14.7023C35.6167 18.7306 36.2569 25.0453 33.3564 29.7739C32.4843 31.1956 32.7139 33.0403 33.8848 34.2229L39.6049 40L40.4235 39.1732L41.1715 38.4177L39.2534 35.1536C38.5956 34.0342 38.562 32.6571 39.1392 31.4931C39.8277 30.1048 40.3273 28.6453 40.638 27.1537L46.4 25.6691V24.6007V22.2622V21.1938L40.6379 19.7092C40.1926 17.5711 39.3593 15.4993 38.1375 13.6083L41.1714 8.44522L40.4233 7.68968L38.7864 6.0363L38.0383 5.28076L32.9262 8.34495Z" fill="#EB3300"/>
<path d="M26.0695 31.7764V28.593H26.064C26.0652 28.1059 26.1992 27.8201 26.6385 27.5813C31.2866 25.4644 29.6297 18.9626 25.8035 16.9473C25.4967 18.4858 25.7491 20.1508 25.6296 21.7239C24.0006 21.7266 22.3976 21.7292 20.7469 21.7318C20.8182 20.2281 20.7565 18.7032 20.7707 17.195C20.7409 16.4831 19.9903 17.3036 19.7 17.4425C17.3949 19.5082 15.6646 23.764 18.1473 26.3054C18.66 27.0059 20.2299 27.5646 20.3658 28.324C20.3664 28.4028 20.366 28.4935 20.3645 28.5929V31.7687C16.021 32.711 12.4568 35.7714 10.7852 39.8287H17.6414C19.0266 38.3225 21.0034 37.3788 23.1994 37.3788C25.3954 37.3788 27.3722 38.3223 28.7574 39.8287H35.6137C33.9465 35.7826 30.397 32.7276 26.0695 31.7764Z" fill="white"/>
</svg>
