<svg width="176" height="40" viewBox="0 0 176 40" fill="none" xmlns="http://www.w3.org/2000/svg">
<path d="M59.0399 35V5.2H65.0399L76.1999 20H73.3999L84.2399 5.2H90.2399V35H84.0399V12.04L86.5199 12.6L75.0399 27.4H74.2399L63.1599 12.6L65.2399 12.04V35H59.0399ZM101.844 35.48C100.271 35.48 98.9109 35.2267 97.7643 34.72C96.6176 34.2133 95.7376 33.4933 95.1243 32.56C94.5109 31.6 94.2043 30.4667 94.2043 29.16C94.2043 27.9333 94.4843 26.8533 95.0443 25.92C95.6043 24.96 96.4576 24.16 97.6043 23.52C98.7776 22.88 100.231 22.4267 101.964 22.16L108.644 21.08V25.48L103.044 26.48C102.191 26.64 101.538 26.92 101.084 27.32C100.631 27.6933 100.404 28.24 100.404 28.96C100.404 29.6267 100.658 30.1467 101.164 30.52C101.671 30.8933 102.298 31.08 103.044 31.08C104.031 31.08 104.898 30.8667 105.644 30.44C106.391 30.0133 106.964 29.44 107.364 28.72C107.791 27.9733 108.004 27.16 108.004 26.28V20.6C108.004 19.7733 107.671 19.08 107.004 18.52C106.364 17.96 105.484 17.68 104.364 17.68C103.298 17.68 102.351 17.9733 101.524 18.56C100.724 19.1467 100.138 19.92 99.7643 20.88L94.9643 18.6C95.3909 17.3733 96.0709 16.32 97.0043 15.44C97.9376 14.56 99.0576 13.88 100.364 13.4C101.671 12.92 103.098 12.68 104.644 12.68C106.484 12.68 108.111 13.0133 109.524 13.68C110.938 14.3467 112.031 15.28 112.804 16.48C113.604 17.6533 114.004 19.0267 114.004 20.6V35H108.404V31.48L109.764 31.24C109.124 32.2 108.418 33 107.644 33.64C106.871 34.2533 106.004 34.7067 105.044 35C104.084 35.32 103.018 35.48 101.844 35.48ZM118.405 35V4.72H124.405V35H118.405ZM139.315 35.48C136.995 35.48 134.982 34.9733 133.275 33.96C131.569 32.92 130.249 31.5333 129.315 29.8C128.382 28.0667 127.915 26.1467 127.915 24.04C127.915 21.8533 128.395 19.9067 129.355 18.2C130.342 16.4933 131.662 15.1467 133.315 14.16C134.969 13.1733 136.835 12.68 138.915 12.68C140.649 12.68 142.182 12.96 143.515 13.52C144.849 14.0533 145.969 14.8133 146.875 15.8C147.809 16.7867 148.515 17.9333 148.995 19.24C149.475 20.52 149.715 21.92 149.715 23.44C149.715 23.8667 149.689 24.2933 149.635 24.72C149.609 25.12 149.542 25.4667 149.435 25.76H133.075V21.36H146.035L143.195 23.44C143.462 22.2933 143.449 21.28 143.155 20.4C142.862 19.4933 142.342 18.7867 141.595 18.28C140.875 17.7467 139.982 17.48 138.915 17.48C137.875 17.48 136.982 17.7333 136.235 18.24C135.489 18.7467 134.929 19.4933 134.555 20.48C134.182 21.4667 134.035 22.6667 134.115 24.08C134.009 25.3067 134.155 26.3867 134.555 27.32C134.955 28.2533 135.569 28.9867 136.395 29.52C137.222 30.0267 138.222 30.28 139.395 30.28C140.462 30.28 141.369 30.0667 142.115 29.64C142.889 29.2133 143.489 28.6267 143.915 27.88L148.715 30.16C148.289 31.2267 147.609 32.16 146.675 32.96C145.769 33.76 144.689 34.3867 143.435 34.84C142.182 35.2667 140.809 35.48 139.315 35.48ZM153.248 35V13.16H158.848V17.48L158.528 16.52C159.035 15.2133 159.848 14.2533 160.968 13.64C162.115 13 163.448 12.68 164.968 12.68C166.622 12.68 168.062 13.0267 169.288 13.72C170.542 14.4133 171.515 15.3867 172.208 16.64C172.902 17.8667 173.248 19.3067 173.248 20.96V35H167.248V22.24C167.248 21.3867 167.075 20.6533 166.728 20.04C166.408 19.4267 165.942 18.9467 165.328 18.6C164.742 18.2533 164.048 18.08 163.248 18.08C162.475 18.08 161.782 18.2533 161.168 18.6C160.555 18.9467 160.075 19.4267 159.728 20.04C159.408 20.6533 159.248 21.3867 159.248 22.24V35H153.248Z" fill="#0A0A0A"/>
<path d="M32.9262 8.34495C31.0539 7.11093 29.0026 6.26934 26.8856 5.81958L25.4156 0H24.3578H22.0424H20.9845L19.5146 5.81943C17.3976 6.26919 15.3462 7.11078 13.4739 8.3448L8.36182 5.2806L7.61375 6.03614L5.97654 7.68968L5.22846 8.44522L8.2624 13.6083C7.04056 15.4993 6.20728 17.5711 5.76197 19.7092L0 21.1938V22.2622V24.6007V25.6691L5.76212 27.1537C6.07282 28.6454 6.57234 30.1048 7.26082 31.4931C7.83805 32.6569 7.80451 34.034 7.14657 35.1536L5.22846 38.4177L5.97654 39.1732L6.79514 40L12.5152 34.2229C13.6861 33.0403 13.9155 31.1956 13.0435 29.7739C10.1431 25.0453 10.7833 18.7307 14.9641 14.7023C19.5477 10.286 26.8522 10.286 31.4357 14.7023C35.6167 18.7306 36.2569 25.0453 33.3564 29.7739C32.4843 31.1956 32.7139 33.0403 33.8848 34.2229L39.6049 40L40.4235 39.1732L41.1715 38.4177L39.2534 35.1536C38.5956 34.0342 38.562 32.6571 39.1392 31.4931C39.8277 30.1048 40.3273 28.6453 40.638 27.1537L46.4 25.6691V24.6007V22.2622V21.1938L40.6379 19.7092C40.1926 17.5711 39.3593 15.4993 38.1375 13.6083L41.1714 8.44522L40.4233 7.68968L38.7864 6.0363L38.0383 5.28076L32.9262 8.34495Z" fill="#EB3300"/>
<path d="M26.0705 31.776V28.5927H26.065C26.0662 28.1056 26.2002 27.8197 26.6395 27.5809C31.2876 25.464 29.6306 18.9623 25.8044 16.947C25.4976 18.4854 25.7501 20.1505 25.6306 21.7236C24.0016 21.7263 22.3986 21.7289 20.7479 21.7314C20.8191 20.2278 20.7575 18.7029 20.7717 17.1947C20.7419 16.4827 19.9913 17.3033 19.7009 17.4421C17.3959 19.5079 15.6656 23.7636 18.1483 26.305C18.661 27.0055 20.2308 27.5643 20.3668 28.3236C20.3674 28.4024 20.3669 28.4932 20.3655 28.5925V31.7683C16.0219 32.7106 12.4578 35.771 10.7861 39.8284H17.6424C19.0276 38.3221 21.0044 37.3785 23.2004 37.3785C25.3964 37.3785 27.3732 38.322 28.7584 39.8284H35.6147C33.9475 35.7822 30.398 32.7273 26.0705 31.776Z" fill="#0A0A0A"/>
</svg>
