<svg width="218" height="53" viewBox="0 0 218 53" fill="none" xmlns="http://www.w3.org/2000/svg">
<path d="M85.3066 39.1053L77.5723 13.9026H77.3745C77.4038 14.5032 77.4478 15.4114 77.5063 16.6272C77.5796 17.8284 77.6455 19.1101 77.7041 20.4724C77.7627 21.8347 77.792 23.0652 77.792 24.1638V39.1053H71.7056V6.98123H80.978L88.5806 31.5467H88.7124L96.7764 6.98123H106.049V39.1053H99.6987V23.9002C99.6987 22.8894 99.7134 21.7249 99.7427 20.4065C99.7866 19.0882 99.8379 17.8357 99.8965 16.6492C99.9551 15.448 99.999 14.5471 100.028 13.9466H99.8306L91.5469 39.1053H85.3066ZM125.043 14.0345C128.339 14.0345 130.866 14.7522 132.623 16.1878C134.381 17.6233 135.26 19.8059 135.26 22.7356V39.1053H130.58L129.284 35.7654H129.108C128.405 36.6443 127.687 37.3621 126.954 37.9187C126.222 38.4754 125.38 38.8855 124.428 39.1492C123.475 39.4129 122.318 39.5447 120.956 39.5447C119.506 39.5447 118.202 39.2664 117.045 38.7097C115.902 38.1531 115.001 37.3035 114.342 36.1609C113.683 35.0037 113.353 33.5388 113.353 31.7664C113.353 29.159 114.269 27.24 116.1 26.0096C117.931 24.7644 120.678 24.076 124.34 23.9441L128.602 23.8123V22.7356C128.602 21.4466 128.266 20.5017 127.592 19.9012C126.918 19.3006 125.98 19.0003 124.779 19.0003C123.593 19.0003 122.428 19.1687 121.286 19.5056C120.143 19.8426 119 20.2674 117.858 20.7801L115.639 16.2537C116.942 15.5652 118.4 15.0232 120.011 14.6277C121.637 14.2322 123.314 14.0345 125.043 14.0345ZM128.602 27.7234L126.01 27.8113C123.842 27.8699 122.333 28.2581 121.483 28.9759C120.648 29.6936 120.231 30.6385 120.231 31.8103C120.231 32.8357 120.531 33.5681 121.132 34.0076C121.732 34.4324 122.516 34.6448 123.483 34.6448C124.918 34.6448 126.127 34.22 127.108 33.3704C128.104 32.5208 128.602 31.3123 128.602 29.7449V27.7234ZM150.233 39.1053H143.532V4.9158H150.233V39.1053ZM168.766 14.0784C171.036 14.0784 172.992 14.5179 174.633 15.3968C176.273 16.261 177.54 17.5208 178.434 19.1761C179.327 20.8313 179.774 22.8528 179.774 25.2405V28.4925H163.932C164.005 30.3821 164.569 31.8689 165.624 32.9529C166.693 34.0222 168.173 34.5569 170.062 34.5569C171.63 34.5569 173.065 34.3958 174.369 34.0735C175.673 33.7513 177.013 33.2679 178.39 32.6233V37.8089C177.174 38.4095 175.9 38.8489 174.567 39.1272C173.248 39.4055 171.644 39.5447 169.755 39.5447C167.294 39.5447 165.111 39.0906 163.207 38.1824C161.317 37.2742 159.83 35.8899 158.746 34.0296C157.677 32.1692 157.142 29.8255 157.142 26.9983C157.142 24.1272 157.626 21.7395 158.592 19.8352C159.574 17.9163 160.936 16.4807 162.679 15.5286C164.423 14.5618 166.451 14.0784 168.766 14.0784ZM168.81 18.8465C167.506 18.8465 166.422 19.2639 165.558 20.0989C164.708 20.9339 164.217 22.2449 164.086 24.032H173.49C173.475 23.0359 173.292 22.1497 172.941 21.3733C172.604 20.597 172.091 19.9817 171.403 19.5276C170.729 19.0735 169.864 18.8465 168.81 18.8465ZM200.526 14.0784C203.148 14.0784 205.257 14.7962 206.854 16.2317C208.451 17.6526 209.249 19.9378 209.249 23.0872V39.1053H202.547V24.7571C202.547 22.9993 202.225 21.6736 201.581 20.7801C200.951 19.8865 199.955 19.4397 198.592 19.4397C196.542 19.4397 195.143 20.1355 194.396 21.5271C193.649 22.9187 193.275 24.9256 193.275 27.5476V39.1053H186.573V14.5398H191.693L192.594 17.6819H192.967C193.495 16.8323 194.147 16.1438 194.923 15.6165C195.714 15.0891 196.586 14.701 197.538 14.4519C198.504 14.2029 199.501 14.0784 200.526 14.0784Z" fill="white"/>
<path d="M39.123 9.38807C36.8983 7.99979 34.4609 7.05301 31.9455 6.54703L30.1989 0H28.9419H26.1908H24.9338L23.1872 6.54686C20.6719 7.05284 18.2344 7.99962 16.0097 9.3879L9.93553 5.94068L9.04666 6.79066L7.10133 8.65089L6.21246 9.50087L9.81739 15.3094C8.3656 17.4367 7.3755 19.7675 6.84638 22.1728L0 23.843V25.045V27.6758V28.8778L6.84656 30.5479C7.21573 32.2261 7.80925 33.8679 8.62731 35.4297C9.31318 36.7391 9.27332 38.2883 8.49156 39.5478L6.21246 43.2199L7.10133 44.0699L8.07399 45L14.8706 38.5008C16.2619 37.1703 16.5344 35.0951 15.4982 33.4957C12.052 28.176 12.8128 21.0721 17.7804 16.5401C23.2265 11.5717 31.9058 11.5717 37.352 16.5401C42.3198 21.0719 43.0805 28.176 39.6341 33.4957C38.5979 35.0951 38.8707 37.1703 40.262 38.5008L47.0585 45L48.0312 44.0699L48.9201 43.2199L46.641 39.5478C45.8594 38.2885 45.8194 36.7392 46.5052 35.4297C47.3233 33.8679 47.917 32.226 48.2862 30.5479L55.1325 28.8778V27.6758V25.045V23.843L48.286 22.1728C47.7569 19.7675 46.7668 17.4367 45.315 15.3094L48.9199 9.50087L48.031 8.65089L46.086 6.79083L45.1972 5.94085L39.123 9.38807Z" fill="#EB3300"/>
<path d="M30.9766 35.748V32.1668H30.97C30.9714 31.6188 31.1307 31.2972 31.6527 31.0286C37.1755 28.6471 35.2067 21.3326 30.6604 19.0654C30.2959 20.7961 30.5959 22.6693 30.4539 24.439C28.5183 24.4421 26.6136 24.445 24.6522 24.4479C24.7369 22.7562 24.6636 21.0408 24.6805 19.3441C24.6451 18.5431 23.7532 19.4662 23.4082 19.6224C20.6694 21.9464 18.6134 26.7341 21.5634 29.5932C22.1726 30.3812 24.0379 31.0099 24.1994 31.8641C24.2001 31.9527 24.1996 32.0548 24.1978 32.1666V35.7394C19.0369 36.7995 14.8019 40.2424 12.8157 44.8069H20.9623C22.6082 43.1124 24.957 42.0508 27.5663 42.0508C30.1756 42.0508 32.5245 43.1122 34.1704 44.8069H42.3169C40.336 40.255 36.1185 36.8182 30.9766 35.748Z" fill="#EB3300"/>
</svg>
