<svg width="40" height="40" viewBox="0 0 40 40" fill="none" xmlns="http://www.w3.org/2000/svg">
<g clip-path="url(#clip0_1299_9480)">
<path d="M13.3715 36.3167C12.8654 36.3167 12.4551 35.9064 12.4551 35.4003V27.9865C12.4551 26.5851 13.5912 25.449 14.9927 25.449C16.3941 25.449 17.5302 26.5851 17.5302 27.9865V35.4003C17.5302 35.9064 17.1199 36.3167 16.6138 36.3167H13.3715Z" fill="#373C41"/>
<path d="M30.8881 36.3167C30.382 36.3167 29.9717 35.9064 29.9717 35.4003V27.7841C29.9717 26.4944 31.1078 25.4489 32.5093 25.4489C33.9107 25.4489 35.0468 26.4944 35.0468 27.7841V35.4003C35.0468 35.9064 34.6365 36.3167 34.1304 36.3167H30.8881Z" fill="#272A2E"/>
<path d="M14.4079 32.4437H13.3801V36.3169H14.4079V32.4437Z" fill="#50555A"/>
<path d="M16.6054 32.4437H15.5776V36.3169H16.6054V32.4437Z" fill="#50555A"/>
<path d="M31.9242 32.4437H30.8965V36.3169H31.9242V32.4437Z" fill="#50555A"/>
<path d="M34.1215 32.4437H33.0938V36.3169H34.1215V32.4437Z" fill="#50555A"/>
<path d="M13.1849 22.9859C12.9705 22.9859 12.7563 22.9012 12.5971 22.7332L10.3368 20.35C10.029 20.0255 10.0425 19.5127 10.3671 19.2049C10.6917 18.897 11.2044 18.9106 11.5123 19.2352L13.7726 21.6184C14.0804 21.943 14.0669 22.4557 13.7423 22.7635C13.5855 22.9121 13.385 22.9859 13.1849 22.9859Z" fill="#D72846"/>
<path d="M8.63001 20.8324H10.9032C11.539 20.8324 12.0545 20.317 12.0545 19.6812V18.8052C12.0545 18.1694 11.539 17.6539 10.9032 17.6539H8.63001C7.99423 17.6539 7.47876 18.1694 7.47876 18.8052V19.6812C7.47884 20.317 7.99423 20.8324 8.63001 20.8324Z" fill="#F75C66"/>
<path d="M34.294 22.9859C34.0939 22.9859 33.8935 22.9122 33.7368 22.7636C33.4122 22.4558 33.3986 21.9431 33.7064 21.6185L35.9666 19.2353C36.2745 18.9108 36.7872 18.8971 37.1117 19.205C37.4363 19.5128 37.4499 20.0256 37.1421 20.3501L34.8819 22.7333C34.7226 22.9011 34.5086 22.9859 34.294 22.9859Z" fill="#D72846"/>
<path d="M38.8488 20.8324H36.5756C35.9398 20.8324 35.4243 20.317 35.4243 19.6812V18.8052C35.4243 18.1694 35.9398 17.6539 36.5756 17.6539H38.8488C39.4846 17.6539 40 18.1694 40 18.8052V19.6812C40 20.317 39.4846 20.8324 38.8488 20.8324Z" fill="#E64B55"/>
<path d="M34.1529 21.7371H13.3555L14.9253 12.4871H32.583L34.1529 21.7371Z" fill="#A0EBFF"/>
<path d="M25.1433 15.8087H22.3355C22.1283 15.8087 21.9602 15.6406 21.9602 15.4334V14.702C21.9602 14.4947 22.1283 14.3267 22.3355 14.3267H25.1433C25.3505 14.3267 25.5186 14.4947 25.5186 14.702V15.4334C25.5186 15.6407 25.3506 15.8087 25.1433 15.8087Z" fill="#373C41"/>
<path d="M35.4066 22.4868C35.4637 22.7926 35.3817 23.1079 35.1829 23.3472C34.984 23.5865 34.6892 23.7249 34.3781 23.7249H13.1237C12.8126 23.7249 12.5177 23.5865 12.3189 23.3472C12.1201 23.1079 12.0381 22.7926 12.0951 22.4868L13.9826 12.3682C14.0751 11.8729 14.5073 11.5139 15.0112 11.5139H32.4907C32.9945 11.5139 33.4268 11.8729 33.5192 12.3682L35.4066 22.4868ZM14.3831 21.6324H33.1187L31.6215 13.6064H15.8803L14.3831 21.6324Z" fill="#D72846"/>
<path d="M28.129 17.5628C26.3146 17.5628 24.8384 19.039 24.8384 20.8535C24.8384 22.668 26.3146 24.1441 28.129 24.1441C29.9435 24.1441 31.4196 22.668 31.4196 20.8535C31.4198 19.0391 29.9435 17.5628 28.129 17.5628ZM28.129 23.0976C26.8917 23.0976 25.8849 22.091 25.8849 20.8536C25.8849 20.1095 26.2494 19.4501 26.8088 19.0422C27.1385 18.8019 27.6057 19.0359 27.6057 19.4479C27.5826 19.8509 27.6744 20.1023 27.4708 20.3907C27.3784 20.5216 27.324 20.6811 27.324 20.8535C27.324 21.0981 27.4335 21.3169 27.6057 21.4645V22.0108H28.6523V21.4645C28.8246 21.3169 28.9341 21.0981 28.9341 20.8534C28.9341 20.6811 28.8797 20.5215 28.7873 20.3906C28.5835 20.1021 28.6754 19.8469 28.6524 19.4478C28.6524 19.0378 29.1191 18.8014 29.4492 19.0421C30.0088 19.4499 30.3731 20.1094 30.3731 20.8535C30.3731 22.0909 29.3664 23.0976 28.129 23.0976Z" fill="#696E73"/>
<path d="M28.129 24.1442C26.3146 24.1442 24.8384 22.6681 24.8384 20.8536C24.8384 19.0392 26.3146 17.563 28.129 17.563C29.9435 17.563 31.4196 19.0392 31.4196 20.8536C31.4197 22.6681 29.9435 24.1442 28.129 24.1442ZM28.129 18.6096C26.8917 18.6096 25.8849 19.6163 25.8849 20.8536C25.8849 22.091 26.8916 23.0977 28.129 23.0977C29.3664 23.0977 30.3731 22.091 30.3731 20.8536C30.3731 19.6161 29.3665 18.6096 28.129 18.6096Z" fill="#373C41"/>
<g opacity="0.22">
<path d="M17.5302 34.0947V27.9864C17.5302 26.585 16.3941 25.4489 14.9927 25.4489C13.5912 25.4489 12.4551 26.5849 12.4551 27.9864V33.1528L17.5302 34.0947Z" fill="black"/>
<path d="M35.0468 34.0947V27.9864C35.0468 26.585 33.9107 25.4489 32.5093 25.4489C31.1078 25.4489 29.9717 26.5849 29.9717 27.9864V33.1528L35.0468 34.0947Z" fill="black"/>
</g>
<path d="M37.2412 30.4092C37.2412 31.5327 36.3304 32.4435 35.2069 32.4435H12.2948C11.1713 32.4435 10.2605 31.5327 10.2605 30.4092V26.18C10.2605 23.178 12.6941 20.7444 15.696 20.7444H31.8057C34.8077 20.7444 37.2412 23.178 37.2412 26.18V30.4092Z" fill="#E64B55"/>
<path d="M10.3696 31.0504C10.6378 31.859 11.396 32.4436 12.2948 32.4436H35.2069C36.1057 32.4436 36.8638 31.8591 37.1321 31.0504H10.3696Z" fill="#50555A"/>
<path d="M27.7639 31.0504H19.8159C19.3802 31.0504 19.0271 30.6973 19.0271 30.2617V26.2797C19.0271 25.8441 19.3802 25.491 19.8159 25.491H27.7639C28.1995 25.491 28.5526 25.8441 28.5526 26.2797V30.2617C28.5526 30.6973 28.1994 31.0504 27.7639 31.0504Z" fill="#D72846"/>
<path d="M14.925 29.4626C16.1544 29.4626 17.151 28.4653 17.151 27.2352C17.151 26.005 16.1544 25.0078 14.925 25.0078C13.6956 25.0078 12.699 26.005 12.699 27.2352C12.699 28.4653 13.6956 29.4626 14.925 29.4626Z" fill="#D72846"/>
<path d="M32.5761 29.4626C33.8055 29.4626 34.8021 28.4653 34.8021 27.2352C34.8021 26.005 33.8055 25.0078 32.5761 25.0078C31.3467 25.0078 30.3501 26.005 30.3501 27.2352C30.3501 28.4653 31.3467 29.4626 32.5761 29.4626Z" fill="#D72846"/>
<path d="M14.925 28.9393C16.1544 28.9393 17.151 27.942 17.151 26.7119C17.151 25.4817 16.1544 24.4844 14.925 24.4844C13.6956 24.4844 12.699 25.4817 12.699 26.7119C12.699 27.942 13.6956 28.9393 14.925 28.9393Z" fill="#FAC855"/>
<path d="M32.5761 28.9393C33.8055 28.9393 34.8021 27.942 34.8021 26.7119C34.8021 25.4817 33.8055 24.4844 32.5761 24.4844C31.3467 24.4844 30.3501 25.4817 30.3501 26.7119C30.3501 27.942 31.3467 28.9393 32.5761 28.9393Z" fill="#FAC855"/>
<path d="M25.9899 31.4195H21.5894C21.3348 31.4195 21.1284 31.2131 21.1284 30.9585V29.7988C21.1284 29.5442 21.3348 29.3378 21.5894 29.3378H25.9899C26.2445 29.3378 26.4509 29.5442 26.4509 29.7988V30.9585C26.4508 31.213 26.2444 31.4195 25.9899 31.4195Z" fill="#B9B9BE"/>
<path d="M25.9899 29.3378H21.5894C21.3348 29.3378 21.1284 29.5442 21.1284 29.7988V30.3221C21.1284 30.0674 21.3348 29.8611 21.5894 29.8611H25.9899C26.2445 29.8611 26.4509 30.0674 26.4509 30.3221V29.7988C26.4508 29.5442 26.2444 29.3378 25.9899 29.3378Z" fill="#D2D2D7"/>
<path d="M32.5761 27.975C33.2732 27.975 33.8384 27.4095 33.8384 26.7119C33.8384 26.0143 33.2732 25.4487 32.5761 25.4487C31.8789 25.4487 31.3137 26.0143 31.3137 26.7119C31.3137 27.4095 31.8789 27.975 32.5761 27.975Z" fill="#FAF58C"/>
<path d="M14.9249 27.975C15.6221 27.975 16.1873 27.4095 16.1873 26.7119C16.1873 26.0143 15.6221 25.4487 14.9249 25.4487C14.2278 25.4487 13.6626 26.0143 13.6626 26.7119C13.6626 27.4095 14.2278 27.975 14.9249 27.975Z" fill="#FAF58C"/>
<path d="M26.8745 26.4404H20.7051C20.3458 26.4404 20.0544 26.7317 20.0544 27.0909C20.0544 27.4502 20.3458 27.7415 20.7051 27.7415H26.8745C27.2338 27.7415 27.5251 27.4502 27.5251 27.0909C27.5251 26.7316 27.2338 26.4404 26.8745 26.4404Z" fill="#E64B55"/>
<path d="M30.5567 22.9588C30.0467 23.6669 29.2273 24.0865 28.3547 24.0865H18.701C18.1083 24.0865 17.5518 23.8015 17.2056 23.3206L15.3501 20.7444H32.1517L30.5567 22.9588Z" fill="#F75C66"/>
<path d="M12.4552 29.3269C12.4552 29.0434 12.2254 28.8137 11.9419 28.8137H10.2795V30.6835H11.9419C12.2254 30.6835 12.4552 30.4537 12.4552 30.1702V29.3269Z" fill="#FA870A"/>
<path d="M35.5965 28.8136C35.313 28.8136 35.0833 29.0434 35.0833 29.3269V30.1701C35.0833 30.4536 35.313 30.6834 35.5965 30.6834H37.2222C37.2343 30.5936 37.2411 30.5022 37.2411 30.4092V28.8135H35.5965V28.8136Z" fill="#FA870A"/>
<path d="M24.4305 13.6063H23.1484V14.3266H24.4305V13.6063Z" fill="#696E73"/>
<g opacity="0.38">
<path d="M22.3788 13.6064H20.3904L16.5181 20.7444H18.5065L22.3788 13.6064Z" fill="white"/>
</g>
<g opacity="0.36">
<path d="M24.5767 13.6064H23.4255L19.5532 20.7444H20.7045L24.5767 13.6064Z" fill="white"/>
</g>
<path d="M22.0534 6.93886C22.1349 6.3998 21.9943 5.87855 21.7004 5.46761C21.6552 5.40433 21.5759 5.3748 21.5002 5.39292C21.4245 5.41105 21.3674 5.47331 21.3558 5.55026L21.2093 6.51909L19.9978 6.99386L18.9809 6.18214L19.124 5.2362C19.1357 5.1587 19.0989 5.08183 19.0311 5.04237C18.9633 5.00292 18.8783 5.00886 18.8167 5.05737C18.4289 5.36269 18.1519 5.81026 18.0723 6.3369C17.9573 7.09745 18.2842 7.82245 18.8605 8.25237L17.9995 13.9462C17.9213 14.4636 18.2774 14.9464 18.7947 15.0247C19.3121 15.1029 19.7949 14.7469 19.8732 14.2296L20.7342 8.53573C21.4117 8.29519 21.9384 7.69933 22.0534 6.93886Z" fill="#696E73"/>
<path d="M21.2289 10.0531C20.7007 9.40419 19.7463 9.30654 19.0974 9.83482L16.1545 12.231L15.292 10.4063C14.6502 9.04857 13.289 8.15607 11.7953 8.10029V8.09747C11.0123 8.09747 4.44953 8.09747 3.66453 8.09747C1.65383 8.09747 0.00992187 9.70794 0 11.6876C0 11.6902 0 11.6928 0 11.6953V22.8971C0 23.7392 0.682734 24.4219 1.52477 24.4219C2.36687 24.4219 3.04953 23.7392 3.04953 22.8971V11.7005C3.05273 11.4105 3.34516 11.1471 3.66461 11.1471H3.71914V22.741H11.7954V11.1391C12.1216 11.1886 12.4094 11.3983 12.5527 11.7015L14.2417 15.2747C14.6614 16.1626 15.8052 16.4234 16.5681 15.802L21.0108 12.1845C21.6595 11.6562 21.7573 10.702 21.2289 10.0531Z" fill="#FFB69E"/>
<path d="M15.2921 10.4065C14.6503 9.04875 13.2891 8.15617 11.7954 8.10047V8.09766H9.58078C9.61602 9.14305 8.64453 10.0298 7.63031 10.0298C6.5432 10.0298 5.73703 9.14641 5.68133 8.09766H3.66453C1.65391 8.09766 0.01 9.70813 0 11.6878C0 11.6904 0 11.693 0 11.6955V14.6984H3.04945V11.7005C3.05266 11.4105 3.34508 11.147 3.66453 11.147H3.71906C3.71906 13.422 3.71906 20.2646 3.71906 22.7409H11.7953C11.7953 21.3609 11.7953 12.3614 11.7953 11.1391C12.1215 11.1887 12.4093 11.3984 12.5526 11.7015L13.5334 13.7762L16.044 11.9972L15.2921 10.4065Z" fill="#64AFFF"/>
<path d="M11.7953 22.741V17.7678H10.6516V12.0775H4.59774V17.7678H3.71899V22.741V37.366C3.71899 38.3765 4.53821 39.1957 5.54868 39.1957C6.55915 39.1957 7.37837 38.3765 7.37837 37.366V22.741H8.13595V37.366C8.13595 38.3765 8.95517 39.1957 9.96563 39.1957C10.9761 39.1957 11.7953 38.3765 11.7953 37.366V22.741Z" fill="#5F6E9B"/>
<path d="M7.75822 7.12448C9.50349 7.12448 10.9183 5.70966 10.9183 3.9644C10.9183 2.21914 9.50349 0.804321 7.75822 0.804321C6.01296 0.804321 4.59814 2.21914 4.59814 3.9644C4.59814 5.70966 6.01296 7.12448 7.75822 7.12448Z" fill="#FFB69E"/>
<path d="M9.23797 13.3239H6.22852V15.0349H9.23797V13.3239Z" fill="#414B82"/>
<path d="M5.67291 8.09735H4.59814V13.0231H5.67291V8.09735Z" fill="#414B82"/>
<path d="M10.6517 8.09735H9.5769V13.0231H10.6517V8.09735Z" fill="#414B82"/>
<path d="M5.12609 12.6796C5.25075 12.6796 5.3518 12.5785 5.3518 12.4539C5.3518 12.3292 5.25075 12.2281 5.12609 12.2281C5.00144 12.2281 4.90039 12.3292 4.90039 12.4539C4.90039 12.5785 5.00144 12.6796 5.12609 12.6796Z" fill="#5F6E9B"/>
<path d="M10.1127 12.6796C10.2373 12.6796 10.3384 12.5785 10.3384 12.4539C10.3384 12.3292 10.2373 12.2281 10.1127 12.2281C9.98801 12.2281 9.88696 12.3292 9.88696 12.4539C9.88696 12.5785 9.98801 12.6796 10.1127 12.6796Z" fill="#5F6E9B"/>
</g>
<defs>
<clipPath id="clip0_1299_9480">
<rect width="40" height="40" fill="white"/>
</clipPath>
</defs>
</svg>
