<svg width="150" height="150" viewBox="0 0 150 150" fill="none" xmlns="http://www.w3.org/2000/svg">
<g opacity="0.1">
<path d="M70.9999 55.4532C70.9999 54.1751 69.9624 53.1392 68.6859 53.1392H65.9187C64.6406 53.1392 63.6046 54.1767 63.6046 55.4532C63.6046 56.7314 64.6421 57.7673 65.9187 57.7673H68.6859C69.9624 57.7689 70.9999 56.7314 70.9999 55.4532Z" fill="#1E1E1E"/>
<path d="M85.2812 57.7688H88.0484C89.3265 57.7688 90.3625 56.7313 90.3625 55.4547C90.3625 54.1766 89.325 53.1406 88.0484 53.1406H85.2812C84.0031 53.1406 82.9672 54.1781 82.9672 55.4547C82.9656 56.7313 84.0031 57.7688 85.2812 57.7688Z" fill="#1E1E1E"/>
<path d="M70.9969 69.6953C72.4047 71.5688 74.6437 72.6875 76.9828 72.6875C79.3219 72.6875 81.5578 71.5688 82.9656 69.6953C83.7344 68.6735 83.5297 67.2219 82.5078 66.4531C81.4859 65.6844 80.0343 65.8907 79.2672 66.9125C78.1875 68.3438 75.7734 68.3438 74.6984 66.9125C73.9297 65.8907 72.4765 65.6844 71.4562 66.4531C70.4343 67.2219 70.2281 68.6735 70.9969 69.6953Z" fill="#1E1E1E"/>
<path d="M73.7531 136.703C74.2109 137.231 74.8546 137.5 75.5015 137.5C76.039 137.5 76.5812 137.313 77.0187 136.931C77.9828 136.094 78.0859 134.631 77.2484 133.667L66.0593 120.789C65.4437 119.098 64.2218 117.656 62.6109 116.784C63.1343 113.491 64.7 110.567 67.0312 108.409L87.4421 132.395C87.9 132.933 88.5515 133.211 89.2046 133.211C89.7359 133.211 90.2687 133.03 90.7046 132.659C90.9625 132.439 91.15 132.172 91.2875 131.886C93.3187 133.655 95.864 134.663 98.5875 134.663H125.177C127.32 134.663 129.455 133.989 131.066 132.577C133.028 130.855 134.066 128.434 133.966 125.864C133.502 113.7 133.148 106.722 132.914 105.136C131.152 92.836 115.35 89.3891 114.792 89.275C113.777 89.0078 100.833 86.0484 99.1437 85.5359C95.9421 84.5516 93.2734 82.311 91.6843 79.3922C95.6546 76.6172 98.9281 72.6578 101.302 67.7969H104.828C107.247 67.7969 109.659 67.0578 111.498 65.4859C114.256 63.1281 115.461 59.5703 114.784 56.1172C113.906 51.6344 110.011 48.375 105.467 48.236C105.467 48.236 105.317 44.4172 105.094 43.1219C105.412 42.8781 107.281 40.7984 107.375 40.5172C107.862 39.0484 109.572 33.8688 110.817 29.6422C113.255 21.0719 106.039 17.5313 105.922 17.4813C100.519 15.1922 91.1562 12.4125 76.9937 12.5031C56.5093 12.6328 47.6328 17.5328 47.3937 17.65C43.3625 20.1766 41.5828 25.0609 43.0656 29.6031L46.7437 40.9047L46.7671 40.8969C47.0453 41.8734 48.3078 42.6641 48.825 43.0656C48.6093 44.4031 48.464 48.2391 48.464 48.2391C43.9343 48.3906 40.0546 51.6453 39.1765 56.1188C38.5015 59.5734 39.7078 63.1297 42.4656 65.4859C44.3046 67.0578 46.7187 67.7969 49.139 67.7969H52.7078C55.0921 72.6531 58.35 76.6281 62.325 79.3672C60.1062 83.7922 54.2015 85.7 53.9375 85.7781L29.9156 57.1844V52.8844C29.9156 51.6922 29.4687 50.5422 28.664 49.6609L24.3421 44.9297C23.4234 43.9203 22.175 43.3656 20.8312 43.3656C20.7703 43.3656 20.7156 43.3813 20.6562 43.3844V35.0922C20.6562 33.8141 19.6187 32.7781 18.3421 32.7781C17.0625 32.7781 16.0281 33.8156 16.0281 35.0922V48.1547V77.1625V90.6469C16.0281 91.925 17.064 92.9609 18.3421 92.9609C19.6203 92.9609 20.6562 91.9234 20.6562 90.6469V81.9297C20.7078 81.9313 25.1312 81.9453 25.1312 81.9453C25.5609 81.9453 25.9703 81.8703 26.3656 81.7625L34.0437 90.9516C29.3109 92.9266 22.1562 97.1766 21.0187 105.136C20.7359 107.12 20.2968 117.506 19.9781 125.853C19.8656 128.409 20.8875 130.822 22.8343 132.552C24.4375 133.977 26.5687 134.661 28.714 134.661H55.0625C57.8953 134.661 60.6859 133.716 62.8062 131.836C63.5515 131.175 65.4906 128.256 65.775 127.517L73.7531 136.703ZM58.0281 115.803H52.2937C52.6015 113.53 54.1796 109.138 54.2171 109.031C58.0578 100.392 66.7328 96.3281 69.3093 95.5016C69.3656 95.4859 72.3156 94.2906 76.9843 94.2906C80.739 94.2906 84.6046 95.4859 84.6578 95.5016C93.6296 98.3797 100.373 106.163 101.672 115.803H95.9375C94.3812 106.709 86.475 99.8781 76.9828 99.8781C67.4906 99.8781 59.5843 106.708 58.0281 115.803ZM70.9328 105.852C72.7828 105.013 74.8171 104.508 76.9828 104.508C84.25 104.508 90.2406 109.792 91.3531 116.775C89.1406 117.983 87.5843 120.208 87.4328 122.836C87.3828 123.723 87.4609 124.598 87.6171 125.458L70.9328 105.852ZM113.731 93.7781C113.864 93.8063 127.027 96.6656 128.334 105.802C128.536 107.172 128.905 114.548 129.341 126.041C129.383 127.092 129.003 128.091 128.273 128.848C127.537 129.611 126.55 130.031 125.486 130.031H98.5875C96.8359 130.031 95.1937 129.352 93.9578 128.116C92.6406 126.798 91.9468 124.97 92.0562 123.1C92.1406 121.628 93.4906 120.431 95.0687 120.431L120.192 120.525C121.47 120.525 122.506 119.488 122.506 118.211C122.506 116.933 121.469 115.897 120.192 115.897H116.334V104.323C116.334 103.045 115.297 102.009 114.02 102.009C112.741 102.009 111.706 103.047 111.706 104.323V115.805H106.312C105.164 105.691 99 97.2188 90.3671 92.8531C91.9828 91.6406 93.4281 90.2297 94.6562 88.6344C95.6531 89.1703 96.6968 89.6281 97.7922 89.9641C100.095 90.6609 112.639 93.4953 113.731 93.7781ZM90.9468 85.8859C89.3609 87.925 87.3218 89.6047 85.0109 90.7766C82.4562 90.0625 79.7687 89.6609 76.9828 89.6609C74.1953 89.6609 71.5046 90.0641 68.9484 90.7781C66.6484 89.6219 64.639 87.9688 63.025 85.9016C63.2406 85.6969 65.5968 82.9703 66.3171 81.6797C67.0625 82.0235 67.8531 82.35 68.7609 82.6531C71.275 83.5141 74.039 83.95 76.9796 83.95C79.9187 83.95 82.6843 83.5125 85.1609 82.6641C86.0234 82.3859 86.8562 82.0453 87.6765 81.6734C88.55 83.25 89.6531 84.6609 90.9468 85.8859ZM110.244 57.0063C110.542 58.5266 110.147 60.0844 109.159 61.2859C108.18 62.4797 106.727 63.1656 105.177 63.1656H103.197C104.267 59.9938 104.995 56.5406 105.352 52.8688C107.734 52.9531 109.781 54.6531 110.244 57.0063ZM51.7718 39.5234C53.7359 38.0375 56.1406 37.1672 58.6187 37.1672H95.3718C97.85 37.1672 100.255 38.0375 102.219 39.5234C100.256 41.0094 97.8515 41.8781 95.3718 41.8781H58.6187C56.139 41.8781 53.7359 41.0078 51.7718 39.5234ZM49.7953 21.6078C57.4453 18.6359 66.5921 17.1297 76.9937 17.1297C90.5203 17.1297 99.2922 19.6734 104.006 21.6734C106.231 22.9844 107.25 25.7172 106.403 28.2484C105.722 30.5609 104.911 33.1234 104.234 35.2234C101.625 33.4938 98.5234 32.5359 95.3718 32.5359H58.6187C55.4703 32.5359 52.3718 33.4922 49.764 35.2203L47.4687 28.1672C46.6562 25.6813 47.614 23.0109 49.7953 21.6078ZM48.789 63.1656C47.239 63.1656 45.7875 62.4797 44.8046 61.2828C43.8187 60.0844 43.425 58.5266 43.7218 57.0078C44.1828 54.6578 46.2187 52.9641 48.5968 52.8719C48.9578 56.5344 49.7125 59.9781 50.7968 63.1656H48.789ZM53.0937 51.6985C53.0937 51.6985 53.1406 46.0438 53.1828 45.4891C54.9218 46.1203 56.7531 46.5063 58.6187 46.5063H95.3718C97.2187 46.5063 99.0265 46.125 100.747 45.5078C100.791 46.0516 100.847 51.5266 100.847 51.5266C100.062 62.0297 95.1562 74.5688 83.7015 78.275C79.6421 79.6641 74.3421 79.6703 70.2437 78.2688C69.0343 77.8656 68.0765 77.4531 67.1484 76.925C59.2656 72.8656 54.0093 63.3688 53.0937 51.6985ZM59.2828 88.6016C60.5312 90.2281 61.9765 91.6469 63.5859 92.8563C62.7265 93.2906 61.889 93.7641 61.0812 94.2781L57.1234 89.5672C57.8843 89.2828 58.6093 88.9734 59.2828 88.6016ZM57.3796 97.0891C55.0953 99.1109 53.1171 101.469 51.5515 104.114L29.6921 78.525C29.8234 78.0906 29.9156 64.3938 29.9156 64.3938L57.3796 97.0891ZM25.2859 77.1625C25.2859 77.2469 20.6562 77.1625 20.6562 77.1625L20.925 48.0516L25.2859 52.8875V77.1625ZM55.3781 130.033H28.4328C27.375 130.033 26.3859 129.611 25.6531 128.845C24.9296 128.089 24.5578 127.1 24.6046 126.045C25.0421 114.55 25.4046 107.169 25.6031 105.792C26.5281 99.3016 33.5515 95.9844 37.2015 94.6859L49.3781 108.672C48.5234 110.927 47.9343 113.314 47.6515 115.805H42.2625V104.323C42.2625 103.045 41.225 102.009 39.9484 102.009C38.6687 102.009 37.6343 103.047 37.6343 104.323V115.897H33.7765C32.4968 115.897 31.4625 116.934 31.4625 118.211C31.4625 119.489 32.4984 120.525 33.7765 120.525L58.8984 120.431C61.575 120.431 61.9171 122.995 61.9265 123.07C61.9906 124.536 59.7656 130.033 55.3781 130.033Z" fill="#1E1E1E"/>
</g>
</svg>
