<svg width="105" height="128" viewBox="0 0 105 128" fill="none" xmlns="http://www.w3.org/2000/svg">
<g opacity="0.07">
<mask id="path-1-inside-1_1300_12414" fill="white">
<path d="M124.549 43.1231C125.494 40.1881 128.548 38.547 131.49 39.316C131.832 37.571 132.067 35.8101 132.21 34.0581C129.177 34.0051 126.668 31.608 126.542 28.535C126.418 25.445 128.738 22.8831 131.77 22.5721C131.478 20.8371 131.099 19.114 130.622 17.406C127.757 18.392 124.592 16.9831 123.417 14.1401C122.272 11.2901 123.54 8.08706 126.296 6.76106C125.434 5.22506 124.484 3.74807 123.466 2.29307C121.11 4.18807 117.641 3.96006 115.577 1.68406C113.5 -0.590939 113.618 -4.05493 115.748 -6.24193C114.407 -7.36693 113.019 -8.45093 111.542 -9.46593C109.972 -6.87193 106.663 -5.89694 103.931 -7.33694C101.218 -8.76594 100.136 -12.054 101.381 -14.823C99.7153 -15.459 98.0232 -15.9919 96.3412 -16.4669C95.7552 -13.4629 92.9583 -11.4139 89.9113 -11.8319C86.8593 -12.2529 84.7303 -14.9759 84.9463 -17.9969C83.1683 -18.0139 81.4113 -17.9619 79.6703 -17.7949C80.1223 -14.7809 78.2023 -11.9229 75.1862 -11.2689C72.1922 -10.6209 69.2513 -12.4229 68.4203 -15.3579C66.7593 -14.7789 65.1133 -14.115 63.5352 -13.37C64.9852 -10.703 64.1702 -7.33995 61.5612 -5.69295C58.9622 -4.05495 55.5653 -4.76495 53.7913 -7.24795C52.4343 -6.13095 51.1222 -4.93294 49.8672 -3.67394C52.1662 -1.68594 52.5542 1.76405 50.6602 4.20805C48.7782 6.62805 45.3483 7.10505 42.8343 5.42005C42.3953 6.15205 41.9632 6.93107 41.5443 7.72807C41.1372 8.50507 40.7343 9.29705 40.3713 10.0921C43.1953 11.1981 44.7373 14.3101 43.7973 17.2361C42.8623 20.1641 39.7983 21.8 36.8423 21.048C36.5163 22.798 36.2733 24.5451 36.1302 26.2791C39.1722 26.3571 41.6783 28.7531 41.7993 31.8221C41.9193 34.9001 39.6093 37.4831 36.5903 37.7801C36.8753 39.5221 37.2563 41.2451 37.7113 42.9461C40.6043 41.9691 43.7563 43.3621 44.9173 46.2091C46.0803 49.0571 44.8043 52.2691 42.0653 53.5931C42.9163 55.1211 43.8593 56.614 44.8833 58.066C47.2643 56.17 50.7033 56.3941 52.7693 58.674C54.8353 60.9611 54.7402 64.4111 52.6003 66.5761C53.9263 67.7261 55.3363 68.7961 56.8043 69.8101C58.3733 67.2331 61.7002 66.264 64.4102 67.69C67.1413 69.132 68.2103 72.418 66.9683 75.165C68.6373 75.805 70.3093 76.354 72.0083 76.802C72.5983 73.819 75.3773 71.7791 78.4333 72.1931C81.4843 72.6031 83.6323 75.33 83.4033 78.3511C85.1723 78.3741 86.9383 78.309 88.6913 78.147C88.2183 75.144 90.1493 72.2731 93.1413 71.6201C96.1573 70.9611 99.1043 72.7831 99.9183 75.7111C101.593 75.1311 103.228 74.466 104.829 73.717C103.356 71.0611 104.177 67.694 106.783 66.049C109.385 64.416 112.788 65.1141 114.548 67.5861C115.904 66.4911 117.22 65.3071 118.47 64.0331C116.173 62.0361 115.8 58.5811 117.684 56.1571C119.567 53.7221 122.99 53.2271 125.507 54.928C125.955 54.184 126.397 53.4161 126.804 52.6361C127.223 51.8411 127.609 51.038 127.966 50.264C125.15 49.144 123.613 46.0461 124.549 43.1231ZM116.025 25.6011L96.1042 26.3791C95.4682 24.3691 94.3363 22.53 92.7493 21.053L102.045 3.40306C109.856 8.60706 114.754 16.7881 116.025 25.6011ZM79.0923 27.505C80.5723 24.689 84.0513 23.625 86.8463 25.1C89.6572 26.575 90.7363 30.0421 89.2533 32.8561C87.7793 35.6651 84.3063 36.7321 81.4973 35.2561C78.7003 33.779 77.6113 30.31 79.0923 27.505ZM96.1343 0.294046L86.8412 17.9441C84.7402 17.4781 82.5803 17.582 80.5653 18.195L69.9253 1.32005C77.9173 -2.61195 87.4323 -3.19795 96.1343 0.294046ZM55.6913 15.182C57.8753 11.04 60.8333 7.58406 64.2863 4.87306L74.9123 21.7441C74.2143 22.5171 73.5843 23.3701 73.0733 24.3361C72.5713 25.2931 72.2193 26.3021 71.9833 27.3061L52.0553 28.0841C52.3423 23.7081 53.5213 19.317 55.6913 15.182ZM52.3203 34.7491L72.2493 33.983C72.8843 35.983 74.0133 37.8201 75.5933 39.2951L66.2982 56.9381C58.4932 51.7411 53.5903 43.5651 52.3203 34.7491ZM72.2063 60.0541L81.4993 42.4091C83.6093 42.8761 85.7753 42.7761 87.7743 42.1631L98.4193 59.0281C90.4303 62.9681 80.9113 63.5571 72.2063 60.0541ZM112.644 45.178C110.467 49.313 107.51 52.7691 104.057 55.4811L93.4303 38.6061C94.1333 37.8401 94.7583 36.9801 95.2623 36.0211C95.7743 35.0571 96.1212 34.0621 96.3672 33.0471L116.285 32.264C116.003 36.647 114.824 41.04 112.644 45.178Z"/>
<path d="M147.532 58.1881C145.416 56.1371 142.645 55.1681 139.907 55.2691C137.318 55.3641 134.76 56.4181 132.813 58.4161C130.878 60.4201 129.838 63.0491 129.887 65.8181C129.923 68.6061 131.046 71.2001 133.042 73.135C135.037 75.064 137.667 76.1061 140.452 76.0671C143.243 76.0151 145.836 74.8951 147.759 72.9091C151.749 68.7841 151.646 62.1801 147.532 58.1881ZM130.957 65.811C130.916 63.319 131.849 60.961 133.583 59.164C137.175 55.473 143.096 55.3791 146.782 58.9571C150.475 62.5411 150.566 68.463 146.988 72.164C145.264 73.941 142.937 74.948 140.433 74.996C137.937 75.028 135.576 74.0941 133.787 72.3661C131.998 70.6301 130.993 68.303 130.957 65.811Z"/>
<path d="M140.165 58.0321C135.967 58.0951 132.596 61.5671 132.653 65.7761C132.712 69.9811 136.189 73.356 140.406 73.2961C144.609 73.2221 147.978 69.7431 147.919 65.5431C147.844 61.3291 144.366 57.9591 140.165 58.0321ZM140.036 59.1101C140.084 59.1071 140.133 59.108 140.182 59.105C143.793 59.0441 146.781 61.9401 146.845 65.5641C146.896 69.1711 144 72.1611 140.387 72.2241C136.764 72.2771 133.776 69.376 133.723 65.764C133.676 62.195 136.495 59.2401 140.036 59.1101Z"/>
<path d="M157.032 61.2501C156.585 59.5581 155.894 57.9541 154.976 56.4861L154.643 55.9521L154.17 56.3651C152.805 57.5531 150.72 57.5 149.425 56.244C148.128 54.9781 148.008 52.893 149.152 51.496L149.551 51.0081L149.007 50.692C147.501 49.819 145.879 49.176 144.181 48.787L143.569 48.648L143.527 49.273C143.405 51.079 141.891 52.514 140.081 52.537C138.246 52.562 136.726 51.205 136.543 49.376L136.482 48.751L135.874 48.9091C134.168 49.3591 132.564 50.054 131.109 50.971L130.579 51.3061L130.99 51.778C132.183 53.143 132.126 55.226 130.863 56.523C129.609 57.825 127.53 57.9421 126.123 56.7931L125.637 56.399L125.32 56.9391C124.443 58.4401 123.801 60.0621 123.412 61.7581L123.274 62.368L123.899 62.412C125.705 62.538 127.138 64.0511 127.16 65.8621C127.193 67.6701 125.807 69.2241 124.002 69.4091L123.381 69.471L123.537 70.074C123.972 71.755 124.669 73.3571 125.605 74.8401L125.941 75.369L126.413 74.9561C127.771 73.7681 129.853 73.823 131.154 75.084C132.45 76.339 132.567 78.424 131.424 79.828L131.031 80.3141L131.57 80.6281C133.059 81.4991 134.679 82.141 136.386 82.536L136.997 82.6801L137.043 82.054C137.174 80.2141 138.656 78.8081 140.486 78.7841H140.487C142.299 78.7541 143.857 80.1421 144.031 81.9441L144.093 82.571L144.703 82.41C146.404 81.962 148.006 81.272 149.467 80.358L149.998 80.0251L149.587 79.552C148.38 78.161 148.433 76.1151 149.708 74.7931C150.97 73.4951 153.052 73.376 154.447 74.523L154.931 74.923L155.25 74.382C156.12 72.9051 156.766 71.285 157.167 69.566L157.311 68.9521L156.683 68.9081C154.847 68.7811 153.442 67.2981 153.416 65.4571C153.384 63.6501 154.767 62.099 156.571 61.923L157.198 61.86L157.032 61.2501ZM155.807 60.983C153.781 61.489 152.299 63.3381 152.338 65.4741C152.369 67.6471 153.881 69.4281 155.946 69.8701C155.617 71.0871 155.159 72.242 154.573 73.325C153.801 72.86 152.927 72.637 152.055 72.669C150.909 72.711 149.78 73.175 148.933 74.0461C147.424 75.6101 147.235 77.943 148.38 79.717C147.311 80.334 146.168 80.824 144.967 81.186C144.459 79.162 142.606 77.6761 140.464 77.7111C140.43 77.7101 140.394 77.713 140.358 77.713C138.24 77.791 136.514 79.2901 136.076 81.3231C134.865 80.9961 133.71 80.54 132.62 79.954C133.686 78.16 133.425 75.7961 131.896 74.3141C130.972 73.4191 129.744 72.9891 128.532 73.0331C127.729 73.065 126.936 73.31 126.238 73.76C125.608 72.676 125.111 71.536 124.758 70.347C126.784 69.835 128.268 67.98 128.228 65.845C128.201 63.711 126.664 61.901 124.625 61.453C124.945 60.249 125.401 59.092 125.991 57.997C126.767 58.459 127.644 58.6841 128.513 58.6511C129.66 58.6091 130.787 58.1431 131.628 57.2701C133.118 55.7401 133.313 53.37 132.185 51.609C133.251 50.992 134.393 50.5011 135.599 50.1371C136.101 52.1831 137.921 53.643 140.09 53.61C140.128 53.608 140.163 53.608 140.198 53.608C142.292 53.528 144.045 52.007 144.484 50.002C145.69 50.325 146.847 50.78 147.946 51.368C146.88 53.157 147.142 55.521 148.675 57.015C149.594 57.906 150.82 58.3321 152.032 58.2881C152.837 58.2571 153.63 58.0131 154.331 57.5641C154.953 58.6401 155.445 59.783 155.807 60.983Z"/>
<path d="M77.0783 96.203C72.0733 96.537 68.2873 100.874 68.6203 105.874C68.9623 110.889 73.2943 114.668 78.2993 114.327C83.3053 113.992 87.0923 109.664 86.7603 104.653C86.4193 99.652 82.0853 95.866 77.0783 96.203ZM82.0312 104.973C82.1892 107.369 80.3783 109.441 77.9823 109.602C75.5873 109.765 73.5123 107.955 73.3513 105.556C73.1903 103.163 75.0033 101.087 77.3963 100.927C79.7943 100.768 81.8672 102.581 82.0312 104.973Z"/>
<path d="M97.8733 100.42C97.5653 99.148 97.1573 97.922 96.6313 96.755L98.2323 95.6801L94.3542 89.897L92.7483 90.971C91.8573 90.036 90.8823 89.182 89.8363 88.429L90.6862 86.6931L84.4373 83.622L83.5883 85.36C82.3613 84.991 81.0933 84.7431 79.7913 84.6111L79.6602 82.6801L72.7083 83.1501L72.8383 85.078C71.5683 85.382 70.3433 85.799 69.1803 86.324L68.1042 84.722L62.3193 88.5981L63.3953 90.205C62.4623 91.095 61.6073 92.072 60.8533 93.122L59.1133 92.265L56.0473 98.515L57.7803 99.369C57.4153 100.595 57.1663 101.864 57.0373 103.161L55.1063 103.289L55.5753 110.245L57.5043 110.116C57.8083 111.386 58.2243 112.612 58.7483 113.771L57.1463 114.852L61.0263 120.637L62.6333 119.555C63.5273 120.488 64.4953 121.345 65.5413 122.101L64.6913 123.84L70.9413 126.911L71.7943 125.176C73.0192 125.541 74.2863 125.783 75.5903 125.924L75.7173 127.85L82.6673 127.383L82.5403 125.451C83.8143 125.149 85.0363 124.734 86.1973 124.21L87.2773 125.813L93.0603 121.932L91.9823 120.325C92.9203 119.435 93.7693 118.459 94.5283 117.412L96.2653 118.264L99.3353 112.012L97.6042 111.163C97.9652 109.936 98.2072 108.67 98.3412 107.368L100.277 107.237L99.8083 100.287L97.8733 100.42ZM89.7143 115.78C86.9093 118.99 83.0123 120.924 78.7563 121.209C74.5013 121.492 70.3852 120.098 67.1732 117.289C60.5402 111.491 59.8603 101.374 65.6543 94.746C71.4493 88.119 81.5683 87.435 88.2073 93.234C94.8383 99.027 95.5193 109.149 89.7143 115.78ZM66.2103 95.233C60.6773 101.56 61.3293 111.2 67.6593 116.74C70.7223 119.416 74.6493 120.746 78.7093 120.475C78.7093 120.475 78.7113 120.474 78.7162 120.476C82.7772 120.196 86.4853 118.364 89.1633 115.295C91.9273 112.129 93.1523 108.129 92.8913 104.233C92.6283 100.341 90.8833 96.5501 87.7263 93.7841C81.3923 88.2511 71.7403 88.907 66.2103 95.233ZM90.5733 104.393C91.0463 111.516 85.6673 117.666 78.5513 118.139C71.4433 118.626 65.2853 113.254 64.8023 106.133C64.3293 99.0231 69.7073 92.864 76.8183 92.39C83.9323 91.912 90.0893 97.291 90.5733 104.393Z"/>
<path d="M43.4203 62.218C42.0853 61.066 41.9133 59.081 42.9673 57.708C42.1343 57.149 41.2653 56.62 40.3713 56.1581C39.6583 57.7351 37.8413 58.5121 36.1943 57.8881C34.5503 57.2681 33.7103 55.47 34.2263 53.816C33.2553 53.571 32.2593 53.3841 31.2663 53.2541C31.1243 54.9721 29.6763 56.327 27.9263 56.304C26.1633 56.275 24.7703 54.8781 24.6913 53.1381C23.6903 53.2431 22.6913 53.41 21.7023 53.614C22.1733 55.293 21.2763 57.059 19.6123 57.636C17.9483 58.207 16.1643 57.376 15.4953 55.773C14.5933 56.215 13.7083 56.7011 12.8533 57.2451C13.8543 58.6541 13.6193 60.6121 12.2583 61.7281C10.8933 62.8371 8.92426 62.6671 7.75126 61.3871C7.04526 62.1251 6.38026 62.888 5.76926 63.674C7.20236 64.655 7.64828 66.58 6.74628 68.091C5.83828 69.595 3.93428 70.113 2.39228 69.311C1.97728 70.239 1.62028 71.1851 1.30628 72.1411C2.99628 72.5701 4.06828 74.2291 3.74528 75.9561C3.40128 77.6781 1.79228 78.815 0.0732796 78.588C0.00227956 79.602 -0.0187202 80.606 0.0172798 81.617C1.74928 81.448 3.32828 82.634 3.60728 84.367C3.89228 86.104 2.75228 87.7341 1.05228 88.1121C1.32928 89.0731 1.66626 90.0261 2.04526 90.9611C3.61326 90.2121 5.50528 90.7891 6.36228 92.3271C7.21728 93.8661 6.70927 95.7741 5.24827 96.7061C5.53827 97.1091 5.84426 97.5121 6.16526 97.9051C6.48826 98.3021 6.81928 98.6841 7.15528 99.0551C8.36828 97.8181 10.3413 97.711 11.6723 98.858C13.0083 100.017 13.1803 101.985 12.1133 103.358C12.9603 103.931 13.8253 104.453 14.7163 104.915C15.4293 103.332 17.2573 102.555 18.8953 103.183C20.5353 103.812 21.3753 105.6 20.8593 107.262C21.8443 107.509 22.8363 107.683 23.8303 107.821C23.9633 106.098 25.4113 104.748 27.1643 104.781C28.9203 104.802 30.3213 106.203 30.4063 107.933C31.4013 107.827 32.4013 107.663 33.3893 107.454C32.9223 105.781 33.8183 104.017 35.4783 103.449C37.1453 102.873 38.9343 103.704 39.5973 105.3C40.5003 104.862 41.3863 104.378 42.2393 103.828C41.2403 102.422 41.4733 100.454 42.8333 99.3521C44.1983 98.246 46.1663 98.4111 47.3443 99.6851C48.0523 98.9521 48.7113 98.187 49.3253 97.402C47.8953 96.423 47.4383 94.502 48.3443 92.996C49.2483 91.474 51.1573 90.96 52.7013 91.764C53.1223 90.84 53.4733 89.8891 53.7683 88.9301C52.1033 88.5071 51.0123 86.8461 51.3493 85.1161C51.6783 83.4001 53.3023 82.2531 55.0143 82.4781C55.0913 81.4711 55.1073 80.471 55.0763 79.455C53.3403 79.627 51.7603 78.4351 51.4873 76.705C51.2003 74.954 52.3333 73.3331 54.0373 72.9641C53.7593 71.996 53.4263 71.0431 53.0423 70.1021C51.4693 70.8591 49.5813 70.289 48.7263 68.748C47.8683 67.208 48.3803 65.2991 49.8443 64.3621C49.5443 63.9571 49.2433 63.5581 48.9303 63.1671C48.6053 62.7691 48.2723 62.384 47.9383 62.006C46.7223 63.253 44.7433 63.3661 43.4203 62.218ZM13.0563 68.183L14.7883 69.869C12.0653 72.663 10.7503 76.3 10.8013 79.912L8.38328 79.9481C8.32128 75.7161 9.87628 71.455 13.0563 68.183ZM26.9633 99.699C22.7263 99.762 18.4693 98.212 15.1913 95.027L16.8743 93.291C19.6733 96.015 23.3053 97.34 26.9233 97.286L26.9633 99.699ZM42.0263 92.894L40.2973 91.2151C43.0213 88.4071 44.3513 84.779 44.2883 81.161L46.7093 81.1241C46.7663 85.3561 45.2113 89.618 42.0263 92.894ZM37.6573 72.32C42.1903 77.902 41.3423 86.114 35.7563 90.656C30.1763 95.188 21.9623 94.334 17.4313 88.751C12.9003 83.178 13.7273 74.9721 19.3253 70.4311C24.9123 65.8941 33.1153 66.727 37.6573 72.32ZM39.8983 66.0461C39.8983 66.0461 39.8983 66.046 39.9013 66.049L38.2123 67.787C35.4153 65.0591 31.7813 63.734 28.1603 63.795L28.1283 61.377C32.3653 61.309 36.6223 62.8671 39.8983 66.0461Z"/>
</mask>
<path d="M124.549 43.1231C125.494 40.1881 128.548 38.547 131.49 39.316C131.832 37.571 132.067 35.8101 132.21 34.0581C129.177 34.0051 126.668 31.608 126.542 28.535C126.418 25.445 128.738 22.8831 131.77 22.5721C131.478 20.8371 131.099 19.114 130.622 17.406C127.757 18.392 124.592 16.9831 123.417 14.1401C122.272 11.2901 123.54 8.08706 126.296 6.76106C125.434 5.22506 124.484 3.74807 123.466 2.29307C121.11 4.18807 117.641 3.96006 115.577 1.68406C113.5 -0.590939 113.618 -4.05493 115.748 -6.24193C114.407 -7.36693 113.019 -8.45093 111.542 -9.46593C109.972 -6.87193 106.663 -5.89694 103.931 -7.33694C101.218 -8.76594 100.136 -12.054 101.381 -14.823C99.7153 -15.459 98.0232 -15.9919 96.3412 -16.4669C95.7552 -13.4629 92.9583 -11.4139 89.9113 -11.8319C86.8593 -12.2529 84.7303 -14.9759 84.9463 -17.9969C83.1683 -18.0139 81.4113 -17.9619 79.6703 -17.7949C80.1223 -14.7809 78.2023 -11.9229 75.1862 -11.2689C72.1922 -10.6209 69.2513 -12.4229 68.4203 -15.3579C66.7593 -14.7789 65.1133 -14.115 63.5352 -13.37C64.9852 -10.703 64.1702 -7.33995 61.5612 -5.69295C58.9622 -4.05495 55.5653 -4.76495 53.7913 -7.24795C52.4343 -6.13095 51.1222 -4.93294 49.8672 -3.67394C52.1662 -1.68594 52.5542 1.76405 50.6602 4.20805C48.7782 6.62805 45.3483 7.10505 42.8343 5.42005C42.3953 6.15205 41.9632 6.93107 41.5443 7.72807C41.1372 8.50507 40.7343 9.29705 40.3713 10.0921C43.1953 11.1981 44.7373 14.3101 43.7973 17.2361C42.8623 20.1641 39.7983 21.8 36.8423 21.048C36.5163 22.798 36.2733 24.5451 36.1302 26.2791C39.1722 26.3571 41.6783 28.7531 41.7993 31.8221C41.9193 34.9001 39.6093 37.4831 36.5903 37.7801C36.8753 39.5221 37.2563 41.2451 37.7113 42.9461C40.6043 41.9691 43.7563 43.3621 44.9173 46.2091C46.0803 49.0571 44.8043 52.2691 42.0653 53.5931C42.9163 55.1211 43.8593 56.614 44.8833 58.066C47.2643 56.17 50.7033 56.3941 52.7693 58.674C54.8353 60.9611 54.7402 64.4111 52.6003 66.5761C53.9263 67.7261 55.3363 68.7961 56.8043 69.8101C58.3733 67.2331 61.7002 66.264 64.4102 67.69C67.1413 69.132 68.2103 72.418 66.9683 75.165C68.6373 75.805 70.3093 76.354 72.0083 76.802C72.5983 73.819 75.3773 71.7791 78.4333 72.1931C81.4843 72.6031 83.6323 75.33 83.4033 78.3511C85.1723 78.3741 86.9383 78.309 88.6913 78.147C88.2183 75.144 90.1493 72.2731 93.1413 71.6201C96.1573 70.9611 99.1043 72.7831 99.9183 75.7111C101.593 75.1311 103.228 74.466 104.829 73.717C103.356 71.0611 104.177 67.694 106.783 66.049C109.385 64.416 112.788 65.1141 114.548 67.5861C115.904 66.4911 117.22 65.3071 118.47 64.0331C116.173 62.0361 115.8 58.5811 117.684 56.1571C119.567 53.7221 122.99 53.2271 125.507 54.928C125.955 54.184 126.397 53.4161 126.804 52.6361C127.223 51.8411 127.609 51.038 127.966 50.264C125.15 49.144 123.613 46.0461 124.549 43.1231ZM116.025 25.6011L96.1042 26.3791C95.4682 24.3691 94.3363 22.53 92.7493 21.053L102.045 3.40306C109.856 8.60706 114.754 16.7881 116.025 25.6011ZM79.0923 27.505C80.5723 24.689 84.0513 23.625 86.8463 25.1C89.6572 26.575 90.7363 30.0421 89.2533 32.8561C87.7793 35.6651 84.3063 36.7321 81.4973 35.2561C78.7003 33.779 77.6113 30.31 79.0923 27.505ZM96.1343 0.294046L86.8412 17.9441C84.7402 17.4781 82.5803 17.582 80.5653 18.195L69.9253 1.32005C77.9173 -2.61195 87.4323 -3.19795 96.1343 0.294046ZM55.6913 15.182C57.8753 11.04 60.8333 7.58406 64.2863 4.87306L74.9123 21.7441C74.2143 22.5171 73.5843 23.3701 73.0733 24.3361C72.5713 25.2931 72.2193 26.3021 71.9833 27.3061L52.0553 28.0841C52.3423 23.7081 53.5213 19.317 55.6913 15.182ZM52.3203 34.7491L72.2493 33.983C72.8843 35.983 74.0133 37.8201 75.5933 39.2951L66.2982 56.9381C58.4932 51.7411 53.5903 43.5651 52.3203 34.7491ZM72.2063 60.0541L81.4993 42.4091C83.6093 42.8761 85.7753 42.7761 87.7743 42.1631L98.4193 59.0281C90.4303 62.9681 80.9113 63.5571 72.2063 60.0541ZM112.644 45.178C110.467 49.313 107.51 52.7691 104.057 55.4811L93.4303 38.6061C94.1333 37.8401 94.7583 36.9801 95.2623 36.0211C95.7743 35.0571 96.1212 34.0621 96.3672 33.0471L116.285 32.264C116.003 36.647 114.824 41.04 112.644 45.178Z" stroke="#0A0A0A" stroke-width="2" mask="url(#path-1-inside-1_1300_12414)"/>
<path d="M147.532 58.1881C145.416 56.1371 142.645 55.1681 139.907 55.2691C137.318 55.3641 134.76 56.4181 132.813 58.4161C130.878 60.4201 129.838 63.0491 129.887 65.8181C129.923 68.6061 131.046 71.2001 133.042 73.135C135.037 75.064 137.667 76.1061 140.452 76.0671C143.243 76.0151 145.836 74.8951 147.759 72.9091C151.749 68.7841 151.646 62.1801 147.532 58.1881ZM130.957 65.811C130.916 63.319 131.849 60.961 133.583 59.164C137.175 55.473 143.096 55.3791 146.782 58.9571C150.475 62.5411 150.566 68.463 146.988 72.164C145.264 73.941 142.937 74.948 140.433 74.996C137.937 75.028 135.576 74.0941 133.787 72.3661C131.998 70.6301 130.993 68.303 130.957 65.811Z" stroke="#0A0A0A" stroke-width="2" mask="url(#path-1-inside-1_1300_12414)"/>
<path d="M140.165 58.0321C135.967 58.0951 132.596 61.5671 132.653 65.7761C132.712 69.9811 136.189 73.356 140.406 73.2961C144.609 73.2221 147.978 69.7431 147.919 65.5431C147.844 61.3291 144.366 57.9591 140.165 58.0321ZM140.036 59.1101C140.084 59.1071 140.133 59.108 140.182 59.105C143.793 59.0441 146.781 61.9401 146.845 65.5641C146.896 69.1711 144 72.1611 140.387 72.2241C136.764 72.2771 133.776 69.376 133.723 65.764C133.676 62.195 136.495 59.2401 140.036 59.1101Z" stroke="#0A0A0A" stroke-width="2" mask="url(#path-1-inside-1_1300_12414)"/>
<path d="M157.032 61.2501C156.585 59.5581 155.894 57.9541 154.976 56.4861L154.643 55.9521L154.17 56.3651C152.805 57.5531 150.72 57.5 149.425 56.244C148.128 54.9781 148.008 52.893 149.152 51.496L149.551 51.0081L149.007 50.692C147.501 49.819 145.879 49.176 144.181 48.787L143.569 48.648L143.527 49.273C143.405 51.079 141.891 52.514 140.081 52.537C138.246 52.562 136.726 51.205 136.543 49.376L136.482 48.751L135.874 48.9091C134.168 49.3591 132.564 50.054 131.109 50.971L130.579 51.3061L130.99 51.778C132.183 53.143 132.126 55.226 130.863 56.523C129.609 57.825 127.53 57.9421 126.123 56.7931L125.637 56.399L125.32 56.9391C124.443 58.4401 123.801 60.0621 123.412 61.7581L123.274 62.368L123.899 62.412C125.705 62.538 127.138 64.0511 127.16 65.8621C127.193 67.6701 125.807 69.2241 124.002 69.4091L123.381 69.471L123.537 70.074C123.972 71.755 124.669 73.3571 125.605 74.8401L125.941 75.369L126.413 74.9561C127.771 73.7681 129.853 73.823 131.154 75.084C132.45 76.339 132.567 78.424 131.424 79.828L131.031 80.3141L131.57 80.6281C133.059 81.4991 134.679 82.141 136.386 82.536L136.997 82.6801L137.043 82.054C137.174 80.2141 138.656 78.8081 140.486 78.7841H140.487C142.299 78.7541 143.857 80.1421 144.031 81.9441L144.093 82.571L144.703 82.41C146.404 81.962 148.006 81.272 149.467 80.358L149.998 80.0251L149.587 79.552C148.38 78.161 148.433 76.1151 149.708 74.7931C150.97 73.4951 153.052 73.376 154.447 74.523L154.931 74.923L155.25 74.382C156.12 72.9051 156.766 71.285 157.167 69.566L157.311 68.9521L156.683 68.9081C154.847 68.7811 153.442 67.2981 153.416 65.4571C153.384 63.6501 154.767 62.099 156.571 61.923L157.198 61.86L157.032 61.2501ZM155.807 60.983C153.781 61.489 152.299 63.3381 152.338 65.4741C152.369 67.6471 153.881 69.4281 155.946 69.8701C155.617 71.0871 155.159 72.242 154.573 73.325C153.801 72.86 152.927 72.637 152.055 72.669C150.909 72.711 149.78 73.175 148.933 74.0461C147.424 75.6101 147.235 77.943 148.38 79.717C147.311 80.334 146.168 80.824 144.967 81.186C144.459 79.162 142.606 77.6761 140.464 77.7111C140.43 77.7101 140.394 77.713 140.358 77.713C138.24 77.791 136.514 79.2901 136.076 81.3231C134.865 80.9961 133.71 80.54 132.62 79.954C133.686 78.16 133.425 75.7961 131.896 74.3141C130.972 73.4191 129.744 72.9891 128.532 73.0331C127.729 73.065 126.936 73.31 126.238 73.76C125.608 72.676 125.111 71.536 124.758 70.347C126.784 69.835 128.268 67.98 128.228 65.845C128.201 63.711 126.664 61.901 124.625 61.453C124.945 60.249 125.401 59.092 125.991 57.997C126.767 58.459 127.644 58.6841 128.513 58.6511C129.66 58.6091 130.787 58.1431 131.628 57.2701C133.118 55.7401 133.313 53.37 132.185 51.609C133.251 50.992 134.393 50.5011 135.599 50.1371C136.101 52.1831 137.921 53.643 140.09 53.61C140.128 53.608 140.163 53.608 140.198 53.608C142.292 53.528 144.045 52.007 144.484 50.002C145.69 50.325 146.847 50.78 147.946 51.368C146.88 53.157 147.142 55.521 148.675 57.015C149.594 57.906 150.82 58.3321 152.032 58.2881C152.837 58.2571 153.63 58.0131 154.331 57.5641C154.953 58.6401 155.445 59.783 155.807 60.983Z" stroke="#0A0A0A" stroke-width="2" mask="url(#path-1-inside-1_1300_12414)"/>
<path d="M77.0783 96.203C72.0733 96.537 68.2873 100.874 68.6203 105.874C68.9623 110.889 73.2943 114.668 78.2993 114.327C83.3053 113.992 87.0923 109.664 86.7603 104.653C86.4193 99.652 82.0853 95.866 77.0783 96.203ZM82.0312 104.973C82.1892 107.369 80.3783 109.441 77.9823 109.602C75.5873 109.765 73.5123 107.955 73.3513 105.556C73.1903 103.163 75.0033 101.087 77.3963 100.927C79.7943 100.768 81.8672 102.581 82.0312 104.973Z" stroke="#0A0A0A" stroke-width="2" mask="url(#path-1-inside-1_1300_12414)"/>
<path d="M97.8733 100.42C97.5653 99.148 97.1573 97.922 96.6313 96.755L98.2323 95.6801L94.3542 89.897L92.7483 90.971C91.8573 90.036 90.8823 89.182 89.8363 88.429L90.6862 86.6931L84.4373 83.622L83.5883 85.36C82.3613 84.991 81.0933 84.7431 79.7913 84.6111L79.6602 82.6801L72.7083 83.1501L72.8383 85.078C71.5683 85.382 70.3433 85.799 69.1803 86.324L68.1042 84.722L62.3193 88.5981L63.3953 90.205C62.4623 91.095 61.6073 92.072 60.8533 93.122L59.1133 92.265L56.0473 98.515L57.7803 99.369C57.4153 100.595 57.1663 101.864 57.0373 103.161L55.1063 103.289L55.5753 110.245L57.5043 110.116C57.8083 111.386 58.2243 112.612 58.7483 113.771L57.1463 114.852L61.0263 120.637L62.6333 119.555C63.5273 120.488 64.4953 121.345 65.5413 122.101L64.6913 123.84L70.9413 126.911L71.7943 125.176C73.0192 125.541 74.2863 125.783 75.5903 125.924L75.7173 127.85L82.6673 127.383L82.5403 125.451C83.8143 125.149 85.0363 124.734 86.1973 124.21L87.2773 125.813L93.0603 121.932L91.9823 120.325C92.9203 119.435 93.7693 118.459 94.5283 117.412L96.2653 118.264L99.3353 112.012L97.6042 111.163C97.9652 109.936 98.2072 108.67 98.3412 107.368L100.277 107.237L99.8083 100.287L97.8733 100.42ZM89.7143 115.78C86.9093 118.99 83.0123 120.924 78.7563 121.209C74.5013 121.492 70.3852 120.098 67.1732 117.289C60.5402 111.491 59.8603 101.374 65.6543 94.746C71.4493 88.119 81.5683 87.435 88.2073 93.234C94.8383 99.027 95.5193 109.149 89.7143 115.78ZM66.2103 95.233C60.6773 101.56 61.3293 111.2 67.6593 116.74C70.7223 119.416 74.6493 120.746 78.7093 120.475C78.7093 120.475 78.7113 120.474 78.7162 120.476C82.7772 120.196 86.4853 118.364 89.1633 115.295C91.9273 112.129 93.1523 108.129 92.8913 104.233C92.6283 100.341 90.8833 96.5501 87.7263 93.7841C81.3923 88.2511 71.7403 88.907 66.2103 95.233ZM90.5733 104.393C91.0463 111.516 85.6673 117.666 78.5513 118.139C71.4433 118.626 65.2853 113.254 64.8023 106.133C64.3293 99.0231 69.7073 92.864 76.8183 92.39C83.9323 91.912 90.0893 97.291 90.5733 104.393Z" stroke="#0A0A0A" stroke-width="2" mask="url(#path-1-inside-1_1300_12414)"/>
<path d="M43.4203 62.218C42.0853 61.066 41.9133 59.081 42.9673 57.708C42.1343 57.149 41.2653 56.62 40.3713 56.1581C39.6583 57.7351 37.8413 58.5121 36.1943 57.8881C34.5503 57.2681 33.7103 55.47 34.2263 53.816C33.2553 53.571 32.2593 53.3841 31.2663 53.2541C31.1243 54.9721 29.6763 56.327 27.9263 56.304C26.1633 56.275 24.7703 54.8781 24.6913 53.1381C23.6903 53.2431 22.6913 53.41 21.7023 53.614C22.1733 55.293 21.2763 57.059 19.6123 57.636C17.9483 58.207 16.1643 57.376 15.4953 55.773C14.5933 56.215 13.7083 56.7011 12.8533 57.2451C13.8543 58.6541 13.6193 60.6121 12.2583 61.7281C10.8933 62.8371 8.92426 62.6671 7.75126 61.3871C7.04526 62.1251 6.38026 62.888 5.76926 63.674C7.20236 64.655 7.64828 66.58 6.74628 68.091C5.83828 69.595 3.93428 70.113 2.39228 69.311C1.97728 70.239 1.62028 71.1851 1.30628 72.1411C2.99628 72.5701 4.06828 74.2291 3.74528 75.9561C3.40128 77.6781 1.79228 78.815 0.0732796 78.588C0.00227956 79.602 -0.0187202 80.606 0.0172798 81.617C1.74928 81.448 3.32828 82.634 3.60728 84.367C3.89228 86.104 2.75228 87.7341 1.05228 88.1121C1.32928 89.0731 1.66626 90.0261 2.04526 90.9611C3.61326 90.2121 5.50528 90.7891 6.36228 92.3271C7.21728 93.8661 6.70927 95.7741 5.24827 96.7061C5.53827 97.1091 5.84426 97.5121 6.16526 97.9051C6.48826 98.3021 6.81928 98.6841 7.15528 99.0551C8.36828 97.8181 10.3413 97.711 11.6723 98.858C13.0083 100.017 13.1803 101.985 12.1133 103.358C12.9603 103.931 13.8253 104.453 14.7163 104.915C15.4293 103.332 17.2573 102.555 18.8953 103.183C20.5353 103.812 21.3753 105.6 20.8593 107.262C21.8443 107.509 22.8363 107.683 23.8303 107.821C23.9633 106.098 25.4113 104.748 27.1643 104.781C28.9203 104.802 30.3213 106.203 30.4063 107.933C31.4013 107.827 32.4013 107.663 33.3893 107.454C32.9223 105.781 33.8183 104.017 35.4783 103.449C37.1453 102.873 38.9343 103.704 39.5973 105.3C40.5003 104.862 41.3863 104.378 42.2393 103.828C41.2403 102.422 41.4733 100.454 42.8333 99.3521C44.1983 98.246 46.1663 98.4111 47.3443 99.6851C48.0523 98.9521 48.7113 98.187 49.3253 97.402C47.8953 96.423 47.4383 94.502 48.3443 92.996C49.2483 91.474 51.1573 90.96 52.7013 91.764C53.1223 90.84 53.4733 89.8891 53.7683 88.9301C52.1033 88.5071 51.0123 86.8461 51.3493 85.1161C51.6783 83.4001 53.3023 82.2531 55.0143 82.4781C55.0913 81.4711 55.1073 80.471 55.0763 79.455C53.3403 79.627 51.7603 78.4351 51.4873 76.705C51.2003 74.954 52.3333 73.3331 54.0373 72.9641C53.7593 71.996 53.4263 71.0431 53.0423 70.1021C51.4693 70.8591 49.5813 70.289 48.7263 68.748C47.8683 67.208 48.3803 65.2991 49.8443 64.3621C49.5443 63.9571 49.2433 63.5581 48.9303 63.1671C48.6053 62.7691 48.2723 62.384 47.9383 62.006C46.7223 63.253 44.7433 63.3661 43.4203 62.218ZM13.0563 68.183L14.7883 69.869C12.0653 72.663 10.7503 76.3 10.8013 79.912L8.38328 79.9481C8.32128 75.7161 9.87628 71.455 13.0563 68.183ZM26.9633 99.699C22.7263 99.762 18.4693 98.212 15.1913 95.027L16.8743 93.291C19.6733 96.015 23.3053 97.34 26.9233 97.286L26.9633 99.699ZM42.0263 92.894L40.2973 91.2151C43.0213 88.4071 44.3513 84.779 44.2883 81.161L46.7093 81.1241C46.7663 85.3561 45.2113 89.618 42.0263 92.894ZM37.6573 72.32C42.1903 77.902 41.3423 86.114 35.7563 90.656C30.1763 95.188 21.9623 94.334 17.4313 88.751C12.9003 83.178 13.7273 74.9721 19.3253 70.4311C24.9123 65.8941 33.1153 66.727 37.6573 72.32ZM39.8983 66.0461C39.8983 66.0461 39.8983 66.046 39.9013 66.049L38.2123 67.787C35.4153 65.0591 31.7813 63.734 28.1603 63.795L28.1283 61.377C32.3653 61.309 36.6223 62.8671 39.8983 66.0461Z" stroke="#0A0A0A" stroke-width="2" mask="url(#path-1-inside-1_1300_12414)"/>
</g>
</svg>
