<svg width="60" height="60" viewBox="0 0 60 60" fill="none" xmlns="http://www.w3.org/2000/svg">
<g clip-path="url(#clip0_745_10305)">
<path d="M36.4399 38.2807C36.2869 38.1276 36.1052 38.0062 35.9053 37.9234C35.7053 37.8406 35.491 37.798 35.2746 37.798C35.0582 37.798 34.8439 37.8406 34.644 37.9234C34.4441 38.0062 34.2624 38.1276 34.1094 38.2807L28.1281 44.2619C28.0736 44.3161 28.0019 44.3496 27.9254 44.3567C27.8488 44.3639 27.7722 44.3441 27.7086 44.3009C22.9928 41.0859 18.9218 37.015 15.7068 32.2992C15.6636 32.2356 15.6439 32.1589 15.651 32.0823C15.6581 32.0058 15.6916 31.9341 15.7459 31.8795L21.7265 25.8992C21.8797 25.7462 22.0012 25.5645 22.0842 25.3646C22.1671 25.1646 22.2098 24.9502 22.2099 24.7337C22.21 24.5172 22.1674 24.3028 22.0846 24.1028C22.0017 23.9027 21.8803 23.721 21.7272 23.5679L11.0187 12.8596C10.7095 12.551 10.2904 12.3777 9.85344 12.3777C9.4165 12.3777 8.99741 12.551 8.68812 12.8596L1.90812 19.6396C1.18162 20.3699 0.639405 21.2626 0.32634 22.2439C0.0132744 23.2252 -0.0616471 24.267 0.107772 25.283C1.42367 33.1992 5.75293 41.1641 12.2984 47.7093C18.8203 54.2307 26.7518 58.5627 34.6336 59.9075C35.653 60.0814 36.6992 60.0091 37.685 59.6967C38.6708 59.3842 39.5677 58.8406 40.3007 58.1111L47.12 51.2918C47.273 51.1387 47.3944 50.9571 47.4772 50.7571C47.5601 50.5572 47.6027 50.3429 47.6027 50.1265C47.6027 49.9101 47.5601 49.6958 47.4772 49.4959C47.3944 49.2959 47.273 49.1143 47.12 48.9612L36.4399 38.2807ZM38.2334 56.0436C37.8313 56.4434 37.3393 56.7411 36.7986 56.9118C36.2579 57.0826 35.6842 57.1214 35.1254 57.025C27.8354 55.7812 20.4629 51.7382 14.366 45.6418C8.24879 39.5246 4.20887 32.1236 2.99223 24.8036C2.89859 24.2465 2.93896 23.6751 3.10999 23.1366C3.28102 22.5982 3.5778 22.1082 3.97578 21.7072L9.85344 15.8294L18.7571 24.7331L13.6783 29.8125C13.1439 30.3481 12.8126 31.053 12.7412 31.8063C12.6697 32.5595 12.8626 33.3141 13.2867 33.9407C16.7097 38.963 21.0451 43.2981 26.0675 46.721C26.6941 47.1451 27.4487 47.338 28.2019 47.2665C28.9551 47.1951 29.66 46.8638 30.1957 46.3294L35.2746 41.2507L44.1505 50.1266L38.2334 56.0436Z" fill="#EB3300"/>
<path d="M49.3318 31.1731V21.6217C49.3318 21.2339 49.1778 20.8621 48.9036 20.5879C48.6294 20.3137 48.2576 20.1597 47.8698 20.1597C47.4821 20.1597 47.1102 20.3137 46.836 20.5879C46.5618 20.8621 46.4078 21.2339 46.4078 21.6217V24.7281H41.6098L44.7963 16.0317C44.8624 15.8515 44.8923 15.6599 44.8843 15.4681C44.8764 15.2763 44.8307 15.0879 44.7499 14.9137C44.6692 14.7395 44.5549 14.5829 44.4136 14.4529C44.2723 14.3229 44.1068 14.222 43.9266 14.1559C43.7463 14.0899 43.5548 14.0599 43.3629 14.0679C43.1711 14.0759 42.9827 14.1215 42.8085 14.2023C42.6343 14.2831 42.4778 14.3973 42.3477 14.5386C42.2177 14.6799 42.1168 14.8454 42.0508 15.0257L38.6302 24.3609L38.6109 24.417C38.4916 24.7886 38.4618 25.1831 38.5238 25.5684C38.5859 25.9537 38.7381 26.3189 38.968 26.6343C39.198 26.9496 39.4992 27.2062 39.8471 27.3831C40.195 27.56 40.5798 27.6522 40.97 27.6522H46.4075V31.1731C46.4075 31.5608 46.5616 31.9327 46.8358 32.2069C47.1099 32.4811 47.4818 32.6351 47.8696 32.6351C48.2573 32.6351 48.6292 32.4811 48.9034 32.2069C49.1776 31.9327 49.3316 31.5608 49.3316 31.1731H49.3318Z" fill="#EB3300"/>
<path d="M29.94 25.7243C27.9403 27.3797 26.2116 28.8109 25.7107 30.3662C25.6222 30.6241 25.5966 30.8995 25.636 31.1693C25.6754 31.4391 25.7786 31.6957 25.9371 31.9176C26.0955 32.1395 26.3047 32.3204 26.5471 32.4452C26.7896 32.57 27.0583 32.6351 27.331 32.6352H35.8648C36.2526 32.6352 36.6245 32.4811 36.8987 32.207C37.1728 31.9328 37.3269 31.5609 37.3269 31.1731C37.3269 30.7854 37.1728 30.4135 36.8987 30.1393C36.6245 29.8651 36.2526 29.7111 35.8648 29.7111H29.787C30.4157 29.1263 31.1676 28.5041 31.8045 27.9767C34.3343 25.8825 36.9501 23.717 36.9501 21.2535V19.4426C36.9435 18.0212 36.3742 16.6602 35.3667 15.6575C34.3593 14.6547 32.9957 14.0918 31.5743 14.0918C30.1529 14.0918 28.7893 14.6547 27.7819 15.6575C26.7745 16.6602 26.2052 18.0212 26.1985 19.4426V19.8715C26.202 20.2569 26.3575 20.6254 26.6313 20.8968C26.9051 21.1682 27.275 21.3204 27.6605 21.3204C28.046 21.3204 28.4159 21.1682 28.6897 20.8968C28.9635 20.6254 29.119 20.2569 29.1225 19.8715V19.4426C29.1225 18.7923 29.3808 18.1687 29.8406 17.7089C30.3004 17.2491 30.924 16.9908 31.5743 16.9908C32.2245 16.9908 32.8481 17.2491 33.3079 17.7089C33.7677 18.1687 34.0261 18.7923 34.0261 19.4426V21.2533C34.0261 22.3415 31.5671 24.3772 29.94 25.7243Z" fill="#EB3300"/>
<path d="M52.5638 7.41622C50.0837 4.93604 47.1154 2.99819 43.8469 1.72553C40.5785 0.452877 37.0814 -0.12683 33.5771 0.0231643C30.0729 0.173159 26.638 1.04958 23.4903 2.59687C20.3426 4.14417 17.5507 6.32857 15.2916 9.01161C15.1679 9.15841 15.0743 9.32814 15.0161 9.51111C14.958 9.69408 14.9365 9.88672 14.9528 10.078C14.9691 10.2693 15.0229 10.4555 15.1112 10.626C15.1995 10.7965 15.3205 10.9479 15.4673 11.0716C15.6141 11.1954 15.7838 11.289 15.9668 11.3471C16.1498 11.4052 16.3424 11.4268 16.5337 11.4105C16.725 11.3942 16.9112 11.3403 17.0817 11.252C17.2522 11.1638 17.4036 11.0428 17.5273 10.896C19.6279 8.39726 22.2502 6.38874 25.2098 5.0115C28.1694 3.63425 31.3947 2.92168 34.6591 2.92383C47.0089 2.92383 57.0562 12.9711 57.0562 25.3209C57.0625 28.6747 56.3126 31.9868 54.8621 35.0107C53.4117 38.0346 51.298 40.6926 48.6785 42.7868C48.5278 42.9067 48.4024 43.0552 48.3094 43.2238C48.2163 43.3923 48.1575 43.5776 48.1362 43.7689C48.1149 43.9603 48.1317 44.1539 48.1855 44.3388C48.2393 44.5237 48.329 44.6961 48.4496 44.8462C48.5702 44.9962 48.7193 45.121 48.8882 45.2133C49.0572 45.3056 49.2427 45.3636 49.4342 45.3841C49.6256 45.4045 49.8192 45.3869 50.0038 45.3323C50.1884 45.2777 50.3604 45.1871 50.51 45.0659C53.2843 42.839 55.5582 40.0524 57.1835 36.8879C58.8087 33.7233 59.7489 30.2518 59.9427 26.6996C60.1365 23.1474 59.5795 19.5942 58.3081 16.2716C57.0367 12.949 55.0794 9.93168 52.5638 7.41622Z" fill="#EB3300"/>
</g>
<defs>
<clipPath id="clip0_745_10305">
<rect width="60" height="60" fill="white"/>
</clipPath>
</defs>
</svg>
