<svg width="59" height="60" viewBox="0 0 59 60" fill="none" xmlns="http://www.w3.org/2000/svg">
<path d="M58.6215 13.7874L55.5795 9.33979C55.3052 8.93889 54.8913 8.66877 54.414 8.57924C53.9367 8.48994 53.4528 8.59143 53.052 8.86553L51.792 9.72721C51.3911 10.0014 51.1209 10.4153 51.0313 10.8928C50.9417 11.3701 51.0435 11.8538 51.3176 12.2548L51.4197 12.4041L49.6174 13.6194L48.2608 11.636C47.5171 10.549 46.0279 10.2693 44.9408 11.013L41.6102 13.291L40.6231 11.8223C40.46 11.5797 40.1869 11.434 39.8945 11.4337L37.848 11.4316V9.42463C38.7889 9.18815 39.4886 8.33748 39.4886 7.32428C39.4886 6.84112 39.3278 6.39604 39.0597 6.03522C39.3278 5.6744 39.4886 5.22932 39.4886 4.74615C39.4886 4.60588 39.4741 4.46901 39.4485 4.336H40.1331C41.3286 4.336 42.3011 3.36346 42.3011 2.16803C42.3011 0.9726 41.3286 6.10352e-05 40.1331 6.10352e-05H18.805C17.6096 6.10352e-05 16.637 0.9726 16.637 2.16803C16.637 3.36346 17.6096 4.336 18.805 4.336H19.4896C19.4641 4.46901 19.4495 4.60588 19.4495 4.74615C19.4495 5.22932 19.6103 5.6744 19.8785 6.03522C19.6103 6.39604 19.4495 6.84112 19.4495 7.32428C19.4495 8.3376 20.1493 9.18826 21.0902 9.42463V11.4149L19.1399 11.413H19.139C18.8474 11.413 18.5747 11.5576 18.4113 11.7991L17.378 13.3251L13.9973 11.0129C12.9105 10.2694 11.4209 10.5488 10.6774 11.6358L9.3208 13.6192L7.51846 12.404L7.62053 12.2547C7.89474 11.8537 7.99646 11.3699 7.90682 10.8926C7.81717 10.4152 7.54705 10.0013 7.14603 9.72709L5.88627 8.86541C5.48525 8.59119 5.00162 8.48971 4.5242 8.57912C4.04689 8.66877 3.63299 8.93877 3.35865 9.33967L0.316699 13.7876C-0.249082 14.6152 -0.0362698 15.7489 0.791308 16.315L2.05107 17.1767C2.36443 17.3909 2.7215 17.4936 3.07506 17.4936C3.6556 17.4936 4.22678 17.2168 4.57869 16.7024L4.64443 16.6063L6.43225 17.843L4.67771 20.4084C3.93416 21.4954 4.21377 22.9847 5.30068 23.7283L8.74107 26.0813L7.1826 28.3831C6.99721 28.6569 6.98115 29.0114 7.141 29.3007L19.0457 50.8604C19.2002 51.1403 19.4946 51.3141 19.8144 51.3145L20.856 51.3154V55.3339C20.856 56.5499 21.8452 57.5391 23.0613 57.5391H26.2212C26.5645 58.9496 27.8376 60.0001 29.3521 60.0001C30.8667 60.0001 32.1398 58.9496 32.483 57.5391H35.643C36.859 57.5391 37.8482 56.5499 37.8482 55.3339V51.3306L38.8544 51.3316H38.8552C39.1749 51.3316 39.4694 51.158 39.6243 50.8783L42.0483 46.4984L52.4456 46.4063C52.4476 46.4063 52.4494 46.406 52.4513 46.406C54.6097 46.3986 56.3635 44.6406 56.3635 42.4805C56.3635 40.8413 55.3532 39.4342 53.9228 38.8474L49.7283 32.6206L51.6686 29.1148C51.8282 28.8263 51.813 28.4728 51.629 28.199L50.2031 26.0773L53.6375 23.7284C54.7244 22.9849 55.004 21.4955 54.2604 20.4084L52.506 17.8431L54.2938 16.6065L54.3596 16.7026C54.7115 17.217 55.2826 17.4937 55.8632 17.4937C56.2169 17.4937 56.5738 17.391 56.8871 17.1768L58.1471 16.3151C58.9744 15.749 59.1874 14.6152 58.6215 13.7874ZM18.805 2.57819C18.5788 2.57819 18.3949 2.3942 18.3949 2.16803C18.3949 1.94186 18.5788 1.75787 18.805 1.75787H40.1331C40.3593 1.75787 40.5433 1.94186 40.5433 2.16803C40.5433 2.3942 40.3593 2.57819 40.1331 2.57819H18.805ZM21.6175 7.73444C21.3913 7.73444 21.2074 7.55045 21.2074 7.32428C21.2074 7.09811 21.3913 6.91412 21.6175 6.91412H37.3206C37.5468 6.91412 37.7308 7.09811 37.7308 7.32428C37.7308 7.55045 37.5468 7.73444 37.3206 7.73444H21.6175ZM36.0902 9.49225V11.3672H22.848V9.49225H36.0902ZM37.3206 5.15631H21.6175C21.3913 5.15631 21.2074 4.97233 21.2074 4.74615C21.2074 4.51998 21.3913 4.336 21.6175 4.336H37.3206C37.5468 4.336 37.7308 4.51998 37.7308 4.74615C37.7308 4.97233 37.5468 5.15631 37.3206 5.15631ZM3.6951 14.8806C3.69498 14.8808 3.69498 14.8808 3.69486 14.8809C3.69475 14.881 3.69475 14.8811 3.69463 14.8812L3.12779 15.71C3.10869 15.7375 3.07084 15.7443 3.0433 15.7258L1.78353 14.8641C1.756 14.8453 1.74873 14.8073 1.7676 14.7797L4.80955 10.3321C4.81295 10.3271 4.82373 10.3114 4.84846 10.3068C4.85279 10.3059 4.85678 10.3055 4.86053 10.3055C4.87822 10.3055 4.88971 10.3133 4.89404 10.3163L6.15381 11.178C6.18146 11.1969 6.18861 11.2347 6.16975 11.2624L3.6951 14.8806ZM5.63666 15.1556L6.52611 13.8551L8.32857 15.0704L7.42447 16.3923L5.63666 15.1556ZM6.29314 22.2775C6.00603 22.0811 5.93232 21.6878 6.12861 21.4008L12.1284 12.6285C12.2504 12.4502 12.4485 12.3541 12.65 12.3541C12.7726 12.3541 12.8965 12.3897 13.0051 12.464L16.2568 14.6881L9.54486 24.5014L6.29314 22.2775ZM29.3519 58.2422C28.8234 58.2422 28.3607 57.9599 28.103 57.5391H30.6006C30.3431 57.9599 29.8804 58.2422 29.3519 58.2422ZM36.0902 55.3339C36.0902 55.5806 35.8894 55.7813 35.6427 55.7813H23.061C22.8144 55.7813 22.6136 55.5806 22.6136 55.3339V53.8565H30.1722C30.6577 53.8565 31.0511 53.4631 31.0511 52.9776C31.0511 52.4921 30.6577 52.0987 30.1722 52.0987H22.6136V51.3282L36.0902 51.329V55.3339ZM41.0067 44.7496L31.0968 44.8373C32.9953 43.3223 34.2151 40.9911 34.2151 38.379C34.2151 33.8234 30.5089 30.1172 25.9533 30.1172C24.9195 30.1172 23.9302 30.3099 23.0173 30.6582L27.5896 22.6436C28.2681 25.5785 30.9013 27.7735 34.0394 27.7735C37.3389 27.7735 40.0818 25.3474 40.5794 22.1855L47.6696 32.7107L41.0067 44.7496ZM25.9577 44.8828H25.9515C22.3661 44.8817 19.4495 41.9644 19.4495 38.3788C19.4495 34.7926 22.3672 31.8749 25.9535 31.8749C29.5397 31.8749 32.4574 34.7926 32.4574 38.3788C32.4574 41.9638 29.542 44.8805 25.9577 44.8828ZM29.1761 21.1524C29.1761 18.4708 31.3578 16.2891 34.0394 16.2891C36.721 16.2891 38.9027 18.4708 38.9027 21.1524C38.9027 23.834 36.721 26.0157 34.0394 26.0157C31.3578 26.0157 29.1761 23.834 29.1761 21.1524ZM54.6058 42.4805C54.6058 43.676 53.6333 44.6485 52.4378 44.6485C51.2424 44.6485 50.2699 43.676 50.2699 42.4805C50.2699 41.2851 51.2424 40.3126 52.4378 40.3126C53.6333 40.3126 54.6058 41.2851 54.6058 42.4805ZM51.6588 38.6327C49.866 38.9951 48.512 40.5826 48.512 42.4805C48.512 43.2937 48.7606 44.0499 49.1858 44.6772L43.0257 44.7317L48.7724 34.3479L51.6588 38.6327ZM52.8097 21.4006C53.006 21.6877 52.9322 22.0811 52.6451 22.2774L49.3934 24.5014L47.4729 21.6935C47.1383 21.2041 46.4431 21.1337 46.0176 21.5466C46.0117 21.5524 46.0059 21.558 46 21.5636C45.6678 21.8859 45.6138 22.3996 45.872 22.7839L49.8706 28.7336L48.6255 30.9833L39.7539 17.8135C39.7533 17.8127 39.7526 17.8119 39.752 17.811C38.6011 15.851 36.4721 14.5313 34.0394 14.5313C31.6061 14.5313 29.4766 15.8517 28.3258 17.8127C28.3134 17.8311 28.301 17.8495 28.2897 17.869L19.594 33.1114C18.4067 34.5422 17.6917 36.3786 17.6917 38.379C17.6917 42.9344 21.3978 46.6406 25.9532 46.6407H25.9612L40.029 46.5162L38.337 49.5733C38.326 49.573 38.3371 49.573 38.326 49.573L20.3338 49.5572L8.93994 28.9226L19.6051 13.1713L39.425 13.191L42.8876 18.3433C43.2201 18.838 43.9213 18.906 44.3428 18.4846C44.6649 18.1625 44.7119 17.6567 44.4548 17.2808L42.6814 14.6879L45.933 12.4638C46.2202 12.2676 46.6136 12.3412 46.8098 12.6283L48.6558 15.3274L52.8097 21.4006ZM51.5137 16.3921L50.6096 15.0703L52.4119 13.855L53.3014 15.1555L51.5137 16.3921ZM57.1547 14.8642L55.8947 15.7259C55.8673 15.7444 55.8293 15.7378 55.8104 15.7101L55.2435 14.8813C55.2434 14.8812 55.2434 14.8811 55.2433 14.881C55.2433 14.8809 55.2432 14.8809 55.2431 14.8808L52.7684 11.2626C52.7495 11.2351 52.7566 11.1971 52.7842 11.1782L54.0442 10.3165C54.0493 10.3129 54.0643 10.3015 54.0897 10.3071C54.1144 10.3116 54.1252 10.3273 54.1286 10.3324L57.1704 14.7797C57.1894 14.8073 57.1822 14.8454 57.1547 14.8642Z" fill="#161921"/>
</svg>
