<svg width="60" height="60" viewBox="0 0 60 60" fill="none" xmlns="http://www.w3.org/2000/svg">
<path d="M55.5803 37.7603L52.3868 34.5667C50.019 32.1988 47.2079 30.3204 44.1141 29.0389C41.0204 27.7574 37.7045 27.0978 34.3558 27.0978C31.0071 27.0978 27.6912 27.7574 24.5975 29.0389C21.5037 30.3204 18.6927 32.1988 16.3248 34.5667L13.1477 37.7419H7.74194C5.68935 37.7442 3.7215 38.5606 2.27011 40.012C0.818711 41.4634 0.00230527 43.4312 0 45.4838V48.387C0.00153664 49.6699 0.511821 50.8997 1.41892 51.8068C2.32602 52.7139 3.55588 53.2242 4.83871 53.2257H9.74419C9.97852 55.0961 10.8877 56.8165 12.301 58.0638C13.7143 59.311 15.5344 59.9993 17.4194 59.9993C19.3043 59.9993 21.1244 59.311 22.5377 58.0638C23.951 56.8165 24.8602 55.0961 25.0945 53.2257H38.7765C39.0108 55.0961 39.92 56.8165 41.3333 58.0638C42.7466 59.311 44.5667 59.9993 46.4516 59.9993C48.3366 59.9993 50.1567 59.311 51.57 58.0638C52.9832 56.8165 53.8924 55.0961 54.1268 53.2257H56.129C57.1557 53.2257 58.1403 52.8179 58.8662 52.092C59.5922 51.366 60 50.3814 60 49.3548V42.5806C59.9986 41.3702 59.5442 40.2042 58.7263 39.3121C57.9083 38.42 56.786 37.8664 55.5803 37.7603ZM58.0645 42.5806V43.5483H55.1613C54.9046 43.5483 54.6585 43.4464 54.477 43.2649C54.2955 43.0834 54.1935 42.8372 54.1935 42.5806V39.6773H55.1613C55.9313 39.6773 56.6697 39.9832 57.2142 40.5277C57.7586 41.0721 58.0645 41.8106 58.0645 42.5806ZM52.8252 37.7419H35.8064V29.0815C41.5468 29.4182 46.9619 31.8577 51.0174 35.9341L52.8252 37.7419ZM17.6961 35.9341C21.9872 31.6222 27.7887 29.1508 33.871 29.0438V37.7419H15.8845L17.6961 35.9341ZM7.74194 39.6773V42.5806C7.74194 43.0939 7.53802 43.5862 7.17505 43.9492C6.81207 44.3121 6.31977 44.5161 5.80645 44.5161H2.02258C2.2522 43.1646 2.95212 41.9377 3.99868 41.0523C5.04524 40.1669 6.37108 39.6799 7.74194 39.6773ZM17.4194 58.0644C16.2709 58.0644 15.1483 57.7239 14.1935 57.0859C13.2386 56.4479 12.4944 55.541 12.0549 54.48C11.6154 53.419 11.5004 52.2516 11.7245 51.1252C11.9485 49.9989 12.5015 48.9643 13.3136 48.1522C14.1256 47.3402 15.1602 46.7872 16.2866 46.5631C17.4129 46.3391 18.5804 46.4541 19.6414 46.8935C20.7024 47.333 21.6092 48.0772 22.2472 49.0321C22.8853 49.987 23.2258 51.1096 23.2258 52.258C23.2243 53.7975 22.612 55.2735 21.5234 56.3621C20.4349 57.4507 18.9588 58.0629 17.4194 58.0644ZM46.4516 58.0644C45.3032 58.0644 44.1806 57.7239 43.2257 57.0859C42.2709 56.4479 41.5266 55.541 41.0872 54.48C40.6477 53.419 40.5327 52.2516 40.7567 51.1252C40.9808 49.9989 41.5338 48.9643 42.3458 48.1522C43.1579 47.3402 44.1925 46.7872 45.3188 46.5631C46.4452 46.3391 47.6127 46.4541 48.6736 46.8935C49.7346 47.333 50.6415 48.0772 51.2795 49.0321C51.9175 49.987 52.2581 51.1096 52.2581 52.258C52.2565 53.7975 51.6443 55.2735 50.5557 56.3621C49.4671 57.4507 47.9911 58.0629 46.4516 58.0644ZM56.129 51.2903H54.1268C53.8924 49.4199 52.9832 47.6995 51.57 46.4522C50.1567 45.205 48.3366 44.5167 46.4516 44.5167C44.5667 44.5167 42.7466 45.205 41.3333 46.4522C39.92 47.6995 39.0108 49.4199 38.7765 51.2903H25.0945C24.8602 49.4199 23.951 47.6995 22.5377 46.4522C21.1244 45.205 19.3043 44.5167 17.4194 44.5167C15.5344 44.5167 13.7143 45.205 12.301 46.4522C10.8877 47.6995 9.97852 49.4199 9.74419 51.2903H4.83871C4.06873 51.2903 3.33028 50.9844 2.78582 50.4399C2.24136 49.8955 1.93548 49.157 1.93548 48.387V46.4515H5.80645C6.8331 46.4515 7.81769 46.0437 8.54364 45.3178C9.26959 44.5918 9.67742 43.6072 9.67742 42.5806V39.6773H52.2581V42.5806C52.2581 43.3506 52.5639 44.089 53.1084 44.6335C53.6529 45.1779 54.3913 45.4838 55.1613 45.4838H58.0645V49.3548C58.0645 49.8681 57.8606 50.3604 57.4976 50.7234C57.1347 51.0863 56.6424 51.2903 56.129 51.2903Z" fill="#161921"/>
<path d="M7.47885 7.74194C7.26582 7.37295 6.93698 7.08457 6.54335 6.92152C6.14972 6.75847 5.71328 6.72987 5.30173 6.84014C4.89018 6.95042 4.52652 7.19341 4.26715 7.53143C4.00778 7.86945 3.86719 8.28361 3.86719 8.70968C3.86719 9.13574 4.00778 9.5499 4.26715 9.88793C4.52652 10.2259 4.89018 10.4689 5.30173 10.5792C5.71328 10.6895 6.14972 10.6609 6.54335 10.4978C6.93698 10.3348 7.26582 10.0464 7.47885 9.67742H17.4253V11.6129H13.5543C13.4311 11.6129 13.3089 11.6363 13.1943 11.6816L9.90401 12.9987C9.56901 12.7355 9.15652 12.5901 8.73051 12.5852C8.30449 12.5803 7.88876 12.7161 7.54778 12.9715C7.2068 13.227 6.95963 13.5878 6.8446 13.998C6.72956 14.4082 6.75309 14.8449 6.91154 15.2404C7.06999 15.6359 7.3545 15.968 7.72096 16.1854C8.08741 16.4027 8.51532 16.493 8.93834 16.4423C9.36136 16.3917 9.75585 16.2029 10.0606 15.9052C10.3654 15.6075 10.5634 15.2175 10.624 14.7958L13.7401 13.5484H17.4253V15.4839C16.6553 15.4839 15.9169 15.7897 15.3724 16.3342C14.828 16.8787 14.5221 17.6171 14.5221 18.3871C14.5236 19.6699 15.0339 20.8998 15.941 21.8069C16.8481 22.714 18.078 23.2243 19.3608 23.2258H40.6511C41.9339 23.2243 43.1638 22.714 44.0709 21.8069C44.978 20.8998 45.4883 19.6699 45.4898 18.3871C45.4898 17.6171 45.1839 16.8787 44.6395 16.3342C44.095 15.7897 43.3566 15.4839 42.5866 15.4839V13.5484H46.2718L49.3889 14.7958C49.4488 15.2197 49.647 15.612 49.9527 15.9117C50.2585 16.2114 50.6546 16.4017 51.0797 16.4531C51.5047 16.5045 51.9348 16.4141 52.3032 16.1959C52.6716 15.9777 52.9576 15.644 53.1168 15.2466C53.276 14.8492 53.2996 14.4103 53.1837 13.9982C53.0679 13.586 52.8192 13.2236 52.4762 12.9673C52.1333 12.711 51.7153 12.5752 51.2872 12.5809C50.8591 12.5865 50.4449 12.7334 50.1089 12.9987L46.8185 11.6816C46.7036 11.6361 46.5811 11.6128 46.4576 11.6129H42.5866V9.67742H52.5331C52.7461 10.0464 53.0749 10.3348 53.4686 10.4978C53.8622 10.6609 54.2986 10.6895 54.7102 10.5792C55.1217 10.4689 55.4854 10.2259 55.7448 9.88793C56.0041 9.5499 56.1447 9.13574 56.1447 8.70968C56.1447 8.28361 56.0041 7.86945 55.7448 7.53143C55.4854 7.19341 55.1217 6.95042 54.7102 6.84014C54.2986 6.72987 53.8622 6.75847 53.4686 6.92152C53.0749 7.08457 52.7461 7.37295 52.5331 7.74194H42.5866V5.80645H46.4576C46.5808 5.80641 46.703 5.78309 46.8176 5.73774L50.1079 4.42065C50.4429 4.68387 50.8554 4.82921 51.2814 4.83412C51.7074 4.83903 52.1231 4.70324 52.4641 4.44781C52.8051 4.19238 53.0523 3.83158 53.1673 3.42136C53.2823 3.01114 53.2588 2.57443 53.1004 2.17894C52.9419 1.78346 52.6574 1.45131 52.2909 1.234C51.9245 1.01668 51.4966 0.926352 51.0736 0.977013C50.6505 1.02767 50.2561 1.2165 49.9513 1.51419C49.6465 1.81189 49.4485 2.20184 49.3879 2.62355L46.2718 3.87097H42.5866V2.90323C42.5866 2.13324 42.2807 1.3948 41.7363 0.850335C41.1918 0.305875 40.4534 0 39.6834 0H20.3285C19.5585 0 18.8201 0.305875 18.2756 0.850335C17.7312 1.3948 17.4253 2.13324 17.4253 2.90323V3.87097H13.7401L10.623 2.62355C10.5631 2.19963 10.3649 1.80736 10.0592 1.50768C9.75342 1.20799 9.35725 1.01767 8.93222 0.96627C8.50719 0.914873 8.07708 1.00528 7.70871 1.22344C7.34033 1.44161 7.05432 1.77532 6.8951 2.17274C6.73587 2.57016 6.71235 3.00904 6.82818 3.4212C6.94402 3.83336 7.19272 4.19573 7.53567 4.45202C7.87861 4.70831 8.2966 4.84417 8.72469 4.8385C9.15278 4.83282 9.56701 4.68593 9.90304 4.42065L13.1934 5.73774C13.3083 5.78321 13.4308 5.80653 13.5543 5.80645H17.4253V7.74194H7.47885ZM43.5543 18.3871C43.5543 19.1571 43.2485 19.8955 42.704 20.44C42.1595 20.9844 41.4211 21.2903 40.6511 21.2903H19.3608C18.5908 21.2903 17.8524 20.9844 17.3079 20.44C16.7634 19.8955 16.4576 19.1571 16.4576 18.3871C16.4576 18.1304 16.5595 17.8843 16.741 17.7028C16.9225 17.5213 17.1686 17.4194 17.4253 17.4194H42.5866C42.8433 17.4194 43.0894 17.5213 43.2709 17.7028C43.4524 17.8843 43.5543 18.1304 43.5543 18.3871ZM36.7801 15.4839H23.2318V5.80645H36.7801V15.4839ZM20.3285 1.93548H39.6834C39.94 1.93548 40.1862 2.03744 40.3677 2.21893C40.5492 2.40042 40.6511 2.64656 40.6511 2.90323V15.4839H38.7156V4.83871C38.7156 4.58205 38.6137 4.3359 38.4322 4.15441C38.2507 3.97293 38.0046 3.87097 37.7479 3.87097H22.264C22.0074 3.87097 21.7612 3.97293 21.5797 4.15441C21.3982 4.3359 21.2963 4.58205 21.2963 4.83871V15.4839H19.3608V2.90323C19.3608 2.64656 19.4627 2.40042 19.6442 2.21893C19.8257 2.03744 20.0719 1.93548 20.3285 1.93548Z" fill="#161921"/>
</svg>
