<svg width="60" height="60" viewBox="0 0 60 60" fill="none" xmlns="http://www.w3.org/2000/svg">
<path d="M0.0800004 41.6078C0.115001 42.0478 0.434002 42.4128 0.866005 42.5058L4.35102 43.2578C4.47402 43.8518 4.63003 44.4378 4.81903 45.0098L2.18101 47.3998C1.85401 47.6958 1.76001 48.1718 1.95001 48.5708C2.43201 49.5848 2.96902 50.5218 3.54602 51.3558C3.79602 51.7178 4.25402 51.8738 4.67503 51.7388L8.06204 50.6478C8.46705 51.1018 8.89805 51.5328 9.35205 51.9378L8.26105 55.3248C8.12604 55.7438 8.28105 56.2028 8.64405 56.4538C9.47805 57.0308 10.4151 57.5679 11.4291 58.0499C11.8291 58.2399 12.3041 58.1449 12.6001 57.8189L14.9901 55.1808C15.5631 55.3688 16.1491 55.5258 16.7431 55.6488L17.4951 59.1339C17.5881 59.5649 17.9531 59.8839 18.3921 59.9199C18.9241 59.9619 19.4571 59.9999 20.0001 59.9999C20.5431 59.9999 21.0761 59.9619 21.6081 59.9199C22.0481 59.8849 22.4131 59.5659 22.5061 59.1339L23.2581 55.6488C23.8521 55.5258 24.4391 55.3698 25.0111 55.1808L27.4011 57.8189C27.6982 58.1459 28.1742 58.2409 28.5722 58.0499C29.5862 57.5679 30.5232 57.0298 31.3572 56.4538C31.7202 56.2028 31.8752 55.7438 31.7402 55.3248L30.6492 51.9378C31.1032 51.5328 31.5342 51.1018 31.9392 50.6488L35.3262 51.7398C35.7452 51.8758 36.2042 51.7198 36.4552 51.3568C37.0322 50.5228 37.5692 49.5858 38.0512 48.5718C38.2412 48.1728 38.1472 47.6968 37.8202 47.4008L35.1822 45.0108C35.3702 44.4378 35.5272 43.8518 35.6502 43.2578L39.1352 42.5058C39.5662 42.4128 39.8852 42.0478 39.9212 41.6088C39.9622 41.0758 40.0002 40.5428 40.0002 39.9998C40.0002 39.4568 39.9622 38.9237 39.9202 38.3917C39.8852 37.9517 39.5662 37.5867 39.1342 37.4937L35.6492 36.7417C35.5262 36.1477 35.3702 35.5607 35.1812 34.9887L37.8192 32.5987C38.1462 32.3027 38.2402 31.8267 38.0502 31.4277C37.5682 30.4137 37.0302 29.4767 36.4542 28.6427C36.2032 28.2797 35.7442 28.1237 35.3252 28.2597L31.9382 29.3507C31.5332 28.8967 31.1022 28.4657 30.6482 28.0607L31.7392 24.6737C31.8742 24.2547 31.7192 23.7957 31.3562 23.5447C30.5222 22.9677 29.5852 22.4307 28.5712 21.9487C28.1712 21.7577 27.6962 21.8527 27.4002 22.1797L25.0101 24.8177C24.4371 24.6297 23.8511 24.4727 23.2571 24.3497L22.5051 20.8646C22.4121 20.4336 22.0471 20.1146 21.6081 20.0786C20.5431 19.9926 19.4561 19.9946 18.3911 20.0786C17.9511 20.1136 17.5861 20.4326 17.4931 20.8646L16.7411 24.3497C16.1471 24.4727 15.5611 24.6287 14.9891 24.8177L12.5991 22.1797C12.3031 21.8527 11.8281 21.7587 11.4281 21.9487C10.4141 22.4307 9.47705 22.9677 8.64305 23.5447C8.28005 23.7957 8.12504 24.2547 8.26005 24.6737L9.35105 28.0607C8.89705 28.4657 8.46605 28.8967 8.06104 29.3507L4.67503 28.2597C4.25502 28.1237 3.79602 28.2797 3.54602 28.6427C2.96902 29.4767 2.43201 30.4137 1.95001 31.4277C1.76001 31.8267 1.85401 32.3027 2.18101 32.5987L4.81903 34.9887C4.63103 35.5617 4.47402 36.1477 4.35102 36.7417L0.866005 37.4937C0.435002 37.5867 0.116001 37.9517 0.0800004 38.3907C0.0380001 38.9237 0 39.4568 0 39.9998C0 40.5428 0.0380001 41.0758 0.0800004 41.6078ZM2.02101 39.2908L5.42303 38.5557C5.82503 38.4687 6.13303 38.1447 6.19903 37.7387C6.34904 36.8167 6.59104 35.9117 6.91804 35.0477C7.06404 34.6637 6.95904 34.2287 6.65404 33.9527L4.08502 31.6247C4.30902 31.1957 4.54302 30.7847 4.78503 30.3957L8.08104 31.4577C8.47105 31.5827 8.90105 31.4577 9.16205 31.1397C9.75205 30.4177 10.4181 29.7527 11.1401 29.1617C11.4581 28.9017 11.5851 28.4727 11.4581 28.0807L10.3961 24.7847C10.7851 24.5417 11.1951 24.3077 11.6251 24.0847L13.9531 26.6547C14.2301 26.9597 14.6661 27.0647 15.0491 26.9187C15.9111 26.5917 16.8161 26.3497 17.7391 26.1997C18.1451 26.1337 18.4691 25.8257 18.5561 25.4237L19.2901 22.0217C19.7611 21.9967 20.2401 21.9957 20.7091 22.0217L21.4441 25.4237C21.5311 25.8257 21.8551 26.1337 22.2611 26.1997C23.1831 26.3497 24.0881 26.5917 24.9521 26.9187C25.3341 27.0647 25.7701 26.9607 26.0471 26.6547L28.3752 24.0857C28.8042 24.3097 29.2152 24.5437 29.6042 24.7857L28.5422 28.0817C28.4162 28.4737 28.5422 28.9017 28.8602 29.1627C29.5822 29.7527 30.2472 30.4187 30.8382 31.1407C31.0992 31.4597 31.5282 31.5867 31.9192 31.4587L35.2152 30.3967C35.4582 30.7857 35.6922 31.1957 35.9152 31.6247L33.3452 33.9527C33.0402 34.2287 32.9352 34.6637 33.0812 35.0487C33.4082 35.9107 33.6502 36.8157 33.8002 37.7387C33.8662 38.1447 34.1742 38.4687 34.5762 38.5557L37.9782 39.2898C37.9912 39.5248 38.0002 39.7618 38.0002 39.9998C38.0002 40.2378 37.9922 40.4748 37.9792 40.7088L34.5772 41.4438C34.1752 41.5308 33.8672 41.8548 33.8012 42.2608C33.6512 43.1828 33.4092 44.0878 33.0822 44.9518C32.9362 45.3358 33.0412 45.7708 33.3462 46.0468L35.9152 48.3748C35.6912 48.8038 35.4572 49.2148 35.2152 49.6038L31.9192 48.5418C31.5262 48.4138 31.0992 48.5408 30.8382 48.8598C30.2492 49.5798 29.5832 50.2458 28.8602 50.8378C28.5422 51.0978 28.4162 51.5268 28.5422 51.9178L29.6042 55.2138C29.2152 55.4568 28.8052 55.6908 28.3762 55.9138L26.0481 53.3438C25.7721 53.0388 25.3371 52.9358 24.9521 53.0798C24.0901 53.4068 23.1851 53.6488 22.2621 53.7988C21.8561 53.8648 21.5321 54.1728 21.4451 54.5748L20.7111 57.9769C20.2401 58.0019 19.7611 58.0029 19.2921 57.9769L18.5571 54.5748C18.4701 54.1728 18.1461 53.8648 17.7401 53.7988C16.8181 53.6488 15.9131 53.4068 15.0491 53.0798C14.6661 52.9338 14.2301 53.0378 13.9541 53.3438L11.6261 55.9128C11.1971 55.6888 10.7861 55.4548 10.3971 55.2128L11.4591 51.9168C11.5851 51.5248 11.4591 51.0968 11.1411 50.8358C10.4191 50.2458 9.75405 49.5798 9.16305 48.8578C8.90205 48.5388 8.47205 48.4128 8.08204 48.5398L4.78603 49.6018C4.54302 49.2128 4.30902 48.8028 4.08602 48.3728L6.65604 46.0448C6.96104 45.7688 7.06604 45.3338 6.92004 44.9488C6.59304 44.0868 6.35104 43.1818 6.20103 42.2588C6.13503 41.8528 5.82703 41.5288 5.42503 41.4418L2.02101 40.7098C2.00901 40.4748 2.00001 40.2378 2.00001 39.9998C2.00001 39.7618 2.00801 39.5248 2.02101 39.2908Z" fill="#161921"/>
<path d="M52.2191 14.2346C52.5951 14.1166 52.8671 13.7876 52.9121 13.3956C52.9721 12.8906 53.0001 12.4336 53.0001 11.9996C53.0001 11.5656 52.9721 11.1086 52.9131 10.6036C52.8681 10.2116 52.5961 9.88256 52.2201 9.76455L49.4471 8.89355C49.3641 8.66655 49.2721 8.44355 49.1711 8.22555L50.5151 5.65053C50.6971 5.30153 50.6571 4.87753 50.4131 4.56753C49.8341 3.83552 49.1681 3.16952 48.4341 2.58851C48.1241 2.34351 47.7001 2.30451 47.3511 2.48551L44.7741 3.82952C44.5561 3.72952 44.3331 3.63752 44.1061 3.55452L43.2351 0.781504C43.1171 0.405502 42.7881 0.133501 42.3961 0.0885005C41.3841 -0.0295002 40.6151 -0.0295002 39.6031 0.0885005C39.2111 0.133501 38.8821 0.405502 38.7641 0.781504L37.8931 3.55452C37.666 3.63752 37.443 3.72952 37.225 3.83052L34.65 2.48651C34.301 2.30551 33.878 2.34451 33.567 2.58851C32.835 3.16752 32.169 3.83352 31.588 4.56753C31.343 4.87753 31.303 5.30053 31.485 5.65053L32.828 8.22555C32.728 8.44355 32.636 8.66655 32.553 8.89355L29.78 9.76455C29.404 9.88256 29.132 10.2116 29.087 10.6036C29.028 11.1086 29 11.5656 29 11.9996C29 12.4336 29.028 12.8906 29.087 13.3956C29.132 13.7876 29.404 14.1166 29.78 14.2346L32.553 15.1056C32.636 15.3326 32.728 15.5556 32.829 15.7736L31.485 18.3486C31.303 18.6976 31.343 19.1216 31.587 19.4316C32.166 20.1636 32.832 20.8296 33.566 21.4106C33.875 21.6556 34.3 21.6946 34.649 21.5136L37.224 20.1706C37.442 20.2706 37.665 20.3626 37.892 20.4456L38.7631 23.2186C38.8811 23.5946 39.2101 23.8666 39.6021 23.9116C40.1091 23.9716 40.5661 23.9996 41.0001 23.9996C41.4341 23.9996 41.8911 23.9716 42.3961 23.9126C42.7881 23.8676 43.1171 23.5956 43.2351 23.2196L44.1061 20.4466C44.3331 20.3636 44.5561 20.2716 44.7741 20.1706L47.3491 21.5146C47.6981 21.6966 48.1221 21.6576 48.4321 21.4126C49.1641 20.8336 49.8301 20.1676 50.4111 19.4336C50.6561 19.1236 50.6961 18.7006 50.5141 18.3506L49.1701 15.7756C49.2711 15.5576 49.3631 15.3346 49.4461 15.1076L52.2191 14.2346ZM48.3591 13.3506C48.0431 13.4506 47.7971 13.6996 47.7011 14.0176C47.5651 14.4696 47.3851 14.9046 47.1671 15.3116C47.0101 15.6036 47.0071 15.9546 47.1611 16.2476L48.4301 18.6796C48.1931 18.9426 47.9421 19.1936 47.6801 19.4296L45.2481 18.1606C44.9541 18.0066 44.6031 18.0106 44.3121 18.1666C43.9051 18.3846 43.4701 18.5646 43.0181 18.7006C42.7011 18.7956 42.4511 19.0426 42.3511 19.3586L41.5271 21.9826C41.1621 22.0046 40.8391 22.0046 40.4731 21.9826L39.6491 19.3586C39.5491 19.0426 39.3001 18.7966 38.9821 18.7006C38.5291 18.5646 38.094 18.3846 37.689 18.1666C37.397 18.0096 37.046 18.0066 36.752 18.1606L34.32 19.4296C34.057 19.1926 33.806 18.9416 33.57 18.6796L34.839 16.2476C34.992 15.9546 34.99 15.6026 34.833 15.3116C34.615 14.9046 34.435 14.4696 34.299 14.0176C34.204 13.7006 33.957 13.4506 33.641 13.3506L31.017 12.5266C31.005 12.3436 31 12.1686 31 11.9996C31 11.8306 31.005 11.6556 31.017 11.4726L33.641 10.6486C33.957 10.5486 34.203 10.2996 34.299 9.98156C34.435 9.52855 34.615 9.09355 34.833 8.68855C34.99 8.39655 34.993 8.04554 34.839 7.75154L33.57 5.31953C33.807 5.05653 34.058 4.80553 34.32 4.56953L36.752 5.83853C37.045 5.99153 37.397 5.98853 37.688 5.83253C38.095 5.61453 38.5301 5.43453 38.9821 5.29853C39.2991 5.20353 39.5491 4.95653 39.6491 4.64053L40.4731 2.01651C40.8381 1.99451 41.1611 1.99451 41.5271 2.01651L42.3511 4.64053C42.4511 4.95653 42.7001 5.20253 43.0181 5.29853C43.4711 5.43453 43.9061 5.61453 44.3111 5.83253C44.6031 5.98953 44.9541 5.99253 45.2481 5.83853L47.6801 4.56953C47.9431 4.80653 48.1941 5.05753 48.4301 5.31953L47.1611 7.75154C47.0081 8.04455 47.0101 8.39655 47.1671 8.68755C47.3851 9.09455 47.5651 9.52955 47.7011 9.98156C47.7961 10.2986 48.0431 10.5486 48.3591 10.6486L50.9831 11.4726C50.9951 11.6556 51.0001 11.8306 51.0001 11.9996C51.0001 12.1686 50.9951 12.3436 50.9831 12.5266L48.3591 13.3506Z" fill="#161921"/>
<path d="M59.2621 32.9637L57.5441 32.3537C57.4461 32.0747 57.3341 31.8017 57.2071 31.5367L57.9881 29.8916C58.1511 29.5496 58.1061 29.1456 57.8721 28.8476C57.3721 28.2086 56.7941 27.6296 56.1531 27.1276C55.8541 26.8936 55.4481 26.8496 55.1081 27.0116L53.4621 27.7926C53.1981 27.6666 52.9251 27.5536 52.6461 27.4566L52.0351 25.7386C51.9081 25.3816 51.5891 25.1266 51.2131 25.0806C50.3221 24.9736 49.6771 24.9736 48.786 25.0806C48.41 25.1256 48.091 25.3806 47.964 25.7386L47.354 27.4566C47.075 27.5546 46.802 27.6666 46.537 27.7936L44.892 27.0126C44.552 26.8506 44.147 26.8956 43.848 27.1286C43.209 27.6286 42.63 28.2066 42.128 28.8476C41.895 29.1456 41.85 29.5506 42.012 29.8926L42.793 31.5387C42.667 31.8027 42.554 32.0757 42.457 32.3547L40.739 32.9657C40.382 33.0927 40.127 33.4117 40.081 33.7877C40.026 34.2307 40 34.6277 40 34.9997C40 35.3717 40.026 35.7677 40.08 36.2127C40.125 36.5887 40.38 36.9077 40.738 37.0347L42.456 37.6447C42.554 37.9237 42.666 38.1967 42.793 38.4617L42.012 40.1067C41.849 40.4487 41.894 40.8527 42.128 41.1507C42.628 41.7897 43.206 42.3687 43.847 42.8707C44.145 43.1037 44.551 43.1487 44.892 42.9867L46.538 42.2057C46.802 42.3317 47.075 42.4447 47.354 42.5417L47.965 44.2597C48.092 44.6167 48.411 44.8717 48.787 44.9177C49.232 44.9737 49.6281 44.9997 50.0001 44.9997C50.3721 44.9997 50.7681 44.9737 51.2131 44.9197C51.5891 44.8747 51.9081 44.6197 52.0351 44.2617L52.6451 42.5437C52.9241 42.4457 53.1971 42.3337 53.4621 42.2067L55.1071 42.9877C55.4481 43.1507 55.8541 43.1067 56.1511 42.8717C56.7901 42.3717 57.3691 41.7937 57.8711 41.1527C58.1041 40.8547 58.1491 40.4497 57.9871 40.1077L57.2061 38.4617C57.3321 38.1977 57.4451 37.9247 57.5421 37.6457L59.2601 37.0347C59.6171 36.9077 59.8721 36.5887 59.9181 36.2127C59.9741 35.7677 60.0001 35.3717 60.0001 34.9997C60.0001 34.6277 59.9741 34.2317 59.9201 33.7867C59.8751 33.4097 59.6201 33.0917 59.2621 32.9637ZM57.9901 35.3647L56.4051 35.9277C56.0981 36.0367 55.8631 36.2887 55.7761 36.6027C55.6451 37.0777 55.4581 37.5307 55.2211 37.9497C55.0611 38.2327 55.0491 38.5767 55.1881 38.8707L55.9061 40.3837C55.7401 40.5657 55.5661 40.7397 55.3851 40.9047L53.8721 40.1867C53.5801 40.0477 53.2351 40.0597 52.9511 40.2197C52.5311 40.4577 52.0781 40.6437 51.6051 40.7747C51.2911 40.8617 51.0391 41.0967 50.9291 41.4037L50.3661 42.9887C50.1241 43.0017 49.8781 43.0017 49.6361 42.9887L49.0731 41.4037C48.9641 41.0967 48.712 40.8617 48.398 40.7747C47.923 40.6437 47.47 40.4567 47.051 40.2197C46.768 40.0607 46.425 40.0487 46.13 40.1867L44.617 40.9047C44.435 40.7387 44.261 40.5647 44.096 40.3837L44.814 38.8707C44.954 38.5767 44.941 38.2327 44.781 37.9497C44.543 37.5297 44.357 37.0767 44.226 36.6037C44.139 36.2897 43.904 36.0377 43.597 35.9277L42.012 35.3647C42.004 35.2437 42 35.1227 42 34.9997C42 34.8767 42.004 34.7547 42.01 34.6347L43.595 34.0707C43.902 33.9617 44.137 33.7097 44.223 33.3957C44.355 32.9197 44.542 32.4677 44.779 32.0487C44.939 31.7657 44.951 31.4217 44.812 31.1276L44.094 29.6146C44.26 29.4326 44.434 29.2586 44.615 29.0936L46.128 29.8116C46.422 29.9516 46.766 29.9396 47.049 29.7786C47.469 29.5406 47.922 29.3546 48.395 29.2236C48.709 29.1366 48.961 28.9016 49.071 28.5946L49.6341 27.0096C49.8761 26.9966 50.1221 26.9966 50.3641 27.0096L50.9271 28.5946C51.0361 28.9016 51.2881 29.1366 51.6021 29.2236C52.0771 29.3546 52.5301 29.5416 52.9491 29.7786C53.2331 29.9396 53.5761 29.9516 53.8701 29.8116L55.3831 29.0936C55.5651 29.2596 55.7391 29.4336 55.9041 29.6146L55.1861 31.1276C55.0461 31.4217 55.0591 31.7657 55.2191 32.0487C55.4571 32.4687 55.6431 32.9217 55.7741 33.3947C55.8611 33.7087 56.0961 33.9607 56.4031 34.0707L57.9881 34.6337C57.9961 34.7557 58.0001 34.8767 58.0001 34.9997C58.0001 35.1227 57.9961 35.2437 57.9901 35.3647Z" fill="#161921"/>
<path d="M20.0001 50.9998C26.0651 50.9998 31.0001 46.0647 31.0001 39.9997C31.0001 33.9347 26.0651 28.9996 20.0001 28.9996C13.935 28.9996 9 33.9347 9 39.9997C9 46.0647 13.935 50.9998 20.0001 50.9998ZM20.0001 30.9996C24.9621 30.9996 29.0001 35.0377 29.0001 39.9997C29.0001 44.9617 24.9621 48.9997 20.0001 48.9997C15.038 48.9997 11 44.9617 11 39.9997C11 35.0377 15.038 30.9996 20.0001 30.9996Z" fill="#161921"/>
<path d="M0.0214844 23.3587L1.55749 24.6397C6.13652 19.1486 12.8576 15.9996 19.9996 15.9996C20.5086 15.9996 21.0166 16.0286 21.5246 16.0606L20.2926 17.2926L21.7066 18.7066L24.7066 15.7066C25.0976 15.3156 25.0976 14.6836 24.7066 14.2926L21.7066 11.2926L20.2926 12.7066L21.6516 14.0656C21.1016 14.0306 20.5506 13.9996 19.9996 13.9996C12.2636 13.9996 4.98151 17.4106 0.0214844 23.3587Z" fill="#161921"/>
<path d="M41 6.99957C38.243 6.99957 36 9.24259 36 11.9996C36 14.7566 38.243 16.9996 41 16.9996C43.757 16.9996 46.0001 14.7566 46.0001 11.9996C46.0001 9.24259 43.757 6.99957 41 6.99957ZM41 14.9996C39.346 14.9996 38 13.6536 38 11.9996C38 10.3456 39.346 8.99958 41 8.99958C42.654 8.99958 44 10.3456 44 11.9996C44 13.6536 42.654 14.9996 41 14.9996Z" fill="#161921"/>
<path d="M50 30.9997C47.794 30.9997 46 32.7937 46 34.9997C46 37.2057 47.794 38.9997 50 38.9997C52.206 38.9997 54 37.2057 54 34.9997C54 32.7937 52.206 30.9997 50 30.9997ZM50 36.9997C48.897 36.9997 48 36.1027 48 34.9997C48 33.8967 48.897 32.9997 50 32.9997C51.103 32.9997 52 33.8967 52 34.9997C52 36.1027 51.103 36.9997 50 36.9997Z" fill="#161921"/>
<path d="M59.1985 3.01948L54.1985 2.01948C53.6545 1.90948 53.1295 2.26248 53.0215 2.80348L52.0215 7.80351L53.9825 8.19651L54.5215 5.5045C55.4905 7.52051 56.0025 9.74252 56.0025 11.9995C56.0025 15.4476 54.8645 18.6896 52.7125 21.3746L54.2735 22.6256C56.6785 19.6246 58.0025 15.8516 58.0025 11.9995C58.0025 9.38052 57.3975 6.7985 56.2465 4.46849L58.8065 4.98049L59.1985 3.01948Z" fill="#161921"/>
</svg>
