<svg width="71" height="60" viewBox="0 0 71 60" fill="none" xmlns="http://www.w3.org/2000/svg">
<path d="M66.3671 11.3325H62.453V8.09728C62.453 7.4915 61.9619 7.00035 61.3561 7.00035H60.8626V1.09693C60.8626 0.491151 60.3714 0 59.7657 0H52.854C52.2482 0 51.7571 0.491151 51.7571 1.09693V7.00035H51.2635C50.6577 7.00035 50.1665 7.4915 50.1665 8.09728V11.3327H20.0371V8.09728C20.0371 7.4915 19.546 7.00035 18.9402 7.00035H18.4467V1.09693C18.4467 0.491151 17.9555 0 17.3498 0H10.438C9.83221 0 9.34106 0.491151 9.34106 1.09693V7.00035H8.84758C8.2418 7.00035 7.75065 7.4915 7.75065 8.09728V11.3327H3.83652C1.72095 11.3327 0 13.0538 0 15.1692V56.1635C0 58.2791 1.72109 60 3.83652 60H66.3671C68.4827 60 70.2037 58.2789 70.2037 56.1635V15.1692C70.2037 13.0536 68.4826 11.3325 66.3671 11.3325ZM53.951 2.19386H58.6687V7.00035H53.951V2.19386ZM52.3604 9.19421H60.259V11.3327H52.3604V9.19421ZM11.5349 2.19386H16.2528V7.00035H11.5349V2.19386ZM9.94451 9.19421H17.8431V11.3327H9.94451V9.19421ZM3.83652 13.5264H66.3671C67.2729 13.5264 68.0098 14.2633 68.0098 15.1691V18.89H2.19386V15.1691C2.19386 14.2633 2.93073 13.5264 3.83652 13.5264ZM68.0098 21.084V50.2224H2.19386V21.084H68.0098ZM66.3671 57.8061H3.83652C2.93073 57.8061 2.19386 57.0693 2.19386 56.1635V52.4162H68.0098V56.1635C68.0098 57.0693 67.2729 57.8061 66.3671 57.8061ZM48.2391 30.7578C48.2391 30.1521 48.7303 29.6609 49.336 29.6609H53.1795V25.8174C53.1795 25.2116 53.6707 24.7205 54.2765 24.7205C54.8823 24.7205 55.3734 25.2116 55.3734 25.8174V29.6609H59.2168C59.8226 29.6609 60.3137 30.1521 60.3137 30.7578C60.3137 31.3636 59.8226 31.8548 59.2168 31.8548H55.3734V35.6982C55.3734 36.3039 54.8823 36.7951 54.2765 36.7951C53.6707 36.7951 53.1795 36.3039 53.1795 35.6982V31.8548H49.336C48.7303 31.8548 48.2391 31.3636 48.2391 30.7578ZM9.88994 31.4192C9.88994 30.8134 10.3811 30.3222 10.9869 30.3222H20.8678C21.4735 30.3222 21.9647 30.8134 21.9647 31.4192C21.9647 32.0249 21.4735 32.5161 20.8678 32.5161H10.9869C10.3811 32.5161 9.88994 32.0249 9.88994 31.4192ZM27.2577 38.3445H32.9512L32.0802 45.8069C32.0237 46.2919 32.2945 46.7559 32.7447 46.9453C32.8823 47.0031 33.0267 47.0311 33.1694 47.031C33.4935 47.031 33.8098 46.8871 34.023 46.6236L43.7991 34.5305C44.0649 34.2018 44.1181 33.7497 43.9358 33.3681C43.7537 32.9868 43.3687 32.7438 42.946 32.7438H37.1828L37.6069 25.4621C37.6348 24.983 37.3479 24.5414 36.8989 24.3721C36.4502 24.2029 35.9428 24.3452 35.6474 24.7233L26.3933 36.5725C26.1351 36.903 26.0879 37.3518 26.2718 37.7287C26.4557 38.1054 26.8382 38.3445 27.2577 38.3445ZM35.2123 28.8444L34.9251 33.7771C34.9075 34.0785 35.015 34.374 35.2222 34.5937C35.4295 34.8133 35.7182 34.9378 36.0201 34.9378H40.6487L34.6984 42.2984L35.2729 37.375C35.3093 37.0638 35.211 36.7523 35.0027 36.5184C34.7946 36.2846 34.4965 36.1508 34.1833 36.1508H29.5061L35.2123 28.8444Z" fill="#161921"/>
</svg>
