<svg width="70" height="60" viewBox="0 0 70 60" fill="none" xmlns="http://www.w3.org/2000/svg">
<path d="M4.92073 50.7214C3.71913 51.923 3.71913 53.8782 4.92073 55.0798C5.52153 55.6806 6.31076 55.981 7.09985 55.981C7.88907 55.981 8.6783 55.6806 9.2791 55.0798C10.4806 53.8782 10.4806 51.923 9.2791 50.7214C8.07764 49.5198 6.12246 49.5198 4.92073 50.7214ZM7.84122 53.642C7.64317 53.8399 7.37991 53.9491 7.09985 53.9491C6.81978 53.9491 6.55652 53.8399 6.35847 53.642C6.16042 53.444 6.0513 53.1807 6.0513 52.9006C6.0513 52.6206 6.16042 52.3573 6.35847 52.1593C6.55652 51.9613 6.81978 51.8522 7.09985 51.8522C7.37991 51.8522 7.64317 51.9613 7.84109 52.1593C8.25007 52.568 8.25007 53.2332 7.84122 53.642Z" fill="#161921"/>
<path d="M65.8175 26.1449C64.4266 23.9222 62.9937 22.4877 62.2493 21.8197C62.8535 18.7062 61.4533 15.9978 58.0797 13.7614C55.1563 11.8236 51.1459 10.4604 47.6077 9.25769C46.559 8.90117 45.5661 8.56335 44.6474 8.2273C37.4702 2.37466 30.7554 0.155958 30.4258 0.0494084C29.9294 -0.110958 29.3921 0.130473 29.1822 0.608184C25.3674 9.29618 20.9481 15.5018 19.4354 17.5103C18.1822 16.9732 16.6725 17.2143 15.6509 18.2356C14.8113 19.0754 14.4986 20.2453 14.7122 21.3313C13.7664 22.1498 12.8659 23.0231 12.0299 23.9355C11.6505 24.3495 11.6785 24.9926 12.0925 25.3719C12.2876 25.5507 12.5338 25.6391 12.7791 25.6391C13.0542 25.6391 13.3284 25.5281 13.5289 25.3093C14.2152 24.5603 14.9479 23.839 15.7152 23.1556L36.8433 44.2837C35.7273 45.5351 34.5054 46.7003 33.1972 47.7536C31.5667 49.0648 29.2474 48.9866 27.684 47.5691C27.1842 47.114 26.6844 46.6573 26.1892 46.1999C25.1512 45.2398 23.7514 44.8066 22.3487 45.0119C20.9482 45.2167 19.7333 46.0306 19.0154 47.2451C17.1519 50.3981 14.7717 53.6787 13.2273 55.2233C10.16 58.2918 5.76799 58.8923 3.43705 56.5626C1.10746 54.2319 1.70826 49.8398 4.7761 46.7718C6.31741 45.2307 9.59863 42.8511 12.7561 40.985C13.97 40.2665 14.7836 39.0516 14.9882 37.6518C15.1932 36.2497 14.7605 34.8501 13.8011 33.812C13.3418 33.3149 12.8853 32.8151 12.4315 32.317C11.4383 31.2214 11.0779 29.6645 11.491 28.2536C11.6488 27.7148 11.3399 27.15 10.801 26.9922C10.2622 26.8346 9.69745 27.1434 9.53966 27.6822C8.9291 29.7674 9.46008 32.0668 10.9268 33.6844C11.3853 34.1877 11.8451 34.6912 12.3078 35.192C12.8484 35.7768 13.092 36.5661 12.9764 37.3577C12.861 38.1467 12.4032 38.831 11.7211 39.2347C8.38171 41.2085 5.01306 43.6595 3.33849 45.334C-0.5221 49.1946 -1.1229 54.8765 1.99944 58.0004C3.34568 59.3459 5.16611 60.0001 7.11179 60C9.68145 59.9999 12.4688 58.8583 14.6654 56.6609C16.343 54.9834 18.7947 51.6151 20.766 48.2797C21.1696 47.597 21.8537 47.1392 22.643 47.0237C23.4344 46.9079 24.2237 47.1517 24.8091 47.6931C25.3083 48.1543 25.8117 48.6141 26.3166 49.0741C28.6274 51.1691 32.057 51.28 34.472 49.3379C35.9878 48.1175 37.3959 46.7575 38.6674 45.2899C38.8856 45.3327 39.1094 45.3548 39.3367 45.3548C40.2539 45.3548 41.116 44.9976 41.7646 44.3493C42.4131 43.7007 42.7703 42.8385 42.7703 41.9213C42.7703 41.4467 42.6739 40.987 42.4917 40.5638C44.4157 39.1148 50.1819 35.0061 58.2873 31.3127C58.323 31.6196 58.3447 31.999 58.3315 32.4545C58.2925 33.8041 57.9333 36.0984 56.4427 39.3654C56.2096 39.8764 56.4348 40.4793 56.9456 40.7125C57.0824 40.7748 57.2258 40.8045 57.367 40.8045C57.753 40.8045 58.122 40.5836 58.2926 40.2096C61.361 33.484 60.2166 30.1593 59.9321 29.517C59.6435 28.6503 56.571 19.8351 48.4932 11.7095C51.4942 12.7458 54.6515 13.9285 56.9562 15.4563C59.823 17.3567 60.8338 19.4111 60.1376 21.9216C60.0267 22.3214 60.1716 22.7498 60.5012 23.0021C60.5197 23.0163 62.3807 24.4585 64.1423 27.3015C66.4936 31.0962 67.5665 35.4582 67.3312 40.2668C67.0061 46.9162 63.7173 48.9565 62.3183 49.5251C60.5523 50.2427 58.6395 49.9883 57.4455 48.8761C56.2268 47.7411 55.9397 45.9371 56.6372 43.7967C56.8111 43.2629 56.5194 42.6891 55.9855 42.515C55.4514 42.3411 54.8779 42.6328 54.7038 43.1666C53.761 46.0602 54.2551 48.6835 56.0597 50.364C57.1846 51.4118 58.7073 51.9594 60.3088 51.9593C61.228 51.9593 62.1736 51.7787 63.084 51.4087C64.8444 50.6932 68.9799 48.1851 69.3623 40.366C69.6832 33.8065 67.6117 29.0121 65.8175 26.1449ZM40.3268 42.9115C40.0623 43.176 39.7108 43.3216 39.3368 43.3216C38.9628 43.3216 38.6112 43.176 38.3467 42.9115L17.089 21.6538C16.5431 21.1079 16.5431 20.2196 17.089 19.6737C17.362 19.4006 17.7205 19.2643 18.0791 19.2643C18.4376 19.2643 18.7962 19.4008 19.0692 19.6737L40.327 40.9315C40.5914 41.196 40.737 41.5475 40.737 41.9215C40.737 42.2955 40.5914 42.647 40.3268 42.9115ZM41.2334 38.9623L38.9337 36.6625C39.9901 35.7879 42.0067 34.1663 44.7273 32.196C45.1821 31.8666 45.2838 31.2309 44.9544 30.7762C44.6251 30.3214 43.9895 30.2198 43.5347 30.5492C40.6142 32.6643 38.5214 34.3576 37.4889 35.2178L34.1856 31.9145C34.941 31.2042 36.231 30.0014 37.9133 28.47C38.3285 28.0919 38.3588 27.4489 37.9808 27.0337C37.6029 26.6186 36.9598 26.5884 36.5446 26.9662C34.8204 28.5357 33.5034 29.7647 32.7472 30.476L29.5235 27.2524C30.2348 26.4962 31.4638 25.1791 33.0333 23.4551C33.4113 23.0399 33.381 22.3968 32.9658 22.0188C32.5506 21.6409 31.9076 21.671 31.5296 22.0863C29.9983 23.7686 28.7953 25.0586 28.085 25.8141L24.7818 22.5108C25.6421 21.4784 27.3353 19.3856 29.4505 16.4651C29.7799 16.0103 29.6782 15.3747 29.2234 15.0453C28.7686 14.7158 28.1331 14.8177 27.8036 15.2723C25.8332 17.993 24.2117 20.0096 23.337 21.066L21.0382 18.7672C22.5497 16.7759 26.7977 10.8417 30.6552 2.29888C33.0996 3.25132 40.3595 6.45052 46.9547 13.0458C53.5504 19.6415 56.7496 26.9017 57.7017 29.3453C49.1589 33.2026 43.2245 37.4508 41.2334 38.9623Z" fill="#161921"/>
</svg>
