<svg width="100" height="100" viewBox="0 0 100 100" fill="none" xmlns="http://www.w3.org/2000/svg">
<path d="M99.7338 69.3413C96.2143 58.9287 97.889 48.8396 98.0172 48.1087C98.6115 45.4681 98.9083 42.7498 98.8983 40.0276C98.8427 24.2928 88.7795 10.5362 73.8579 5.79682C73.0881 5.55268 72.2634 5.9784 72.0177 6.74897C71.7728 7.5203 72.1993 8.34351 72.9706 8.58918C86.6753 12.9417 95.9175 25.5806 95.9687 40.0383C95.9778 42.5514 95.7032 45.06 95.1523 47.496C95.1477 47.5174 95.1432 47.5388 95.1393 47.5601C95.0562 48.0217 93.1427 58.9905 96.959 70.2797C97.1924 70.9717 97.0589 71.6934 96.5912 72.2595C96.122 72.8279 95.4056 73.1087 94.6747 73.008C91.5818 72.5868 88.9077 71.7781 86.7256 70.6047C83.5976 68.9224 79.8836 68.7767 76.7891 70.2149C72.2168 72.3404 67.3226 73.3727 62.2307 73.2803C53.6034 73.1255 45.4781 69.6381 39.3509 63.4605C33.2245 57.2838 29.802 49.1295 29.715 40.5006C29.6265 31.6956 32.956 23.3727 39.09 17.0647C45.2118 10.7697 53.4127 7.20902 62.1819 7.03736C63.9008 7.00379 65.6281 7.10068 67.3149 7.32575C68.1153 7.43409 68.853 6.86875 68.9598 6.0669C69.0667 5.26505 68.5028 4.52805 67.701 4.42124C65.8676 4.1771 63.9916 4.07258 62.1247 4.10843C52.5795 4.29459 43.6531 8.17032 36.9896 15.0223C34.2461 17.8436 32.0191 21.0358 30.3521 24.4827C22.2534 26.014 14.872 30.3246 9.55508 36.6333C4.1344 43.0657 1.13223 51.2833 1.10171 59.774C1.0918 62.4962 1.38858 65.2153 1.98291 67.8558C2.11185 68.5867 3.78726 78.6705 0.266296 89.0877C-0.291413 90.7372 0.0389403 92.5255 1.14978 93.8706C2.26901 95.2271 3.978 95.8954 5.72131 95.6574C9.16293 95.1881 12.1712 94.2711 14.6622 92.9314C16.9815 91.6832 19.7159 91.5665 21.9765 92.6178C26.7517 94.838 32.7698 95.9557 37.822 95.9557C43.5097 95.9557 49.16 94.3733 54.1657 91.6756C59.0103 89.0648 63.2698 85.3127 66.4849 80.8251C66.9564 80.1674 66.8053 79.2519 66.1476 78.7811C65.49 78.3096 64.5745 78.4615 64.1037 79.1184C61.1466 83.2459 57.2296 86.6959 52.7756 89.0961C48.1797 91.5741 42.9901 92.9329 37.7701 93.0267C32.6836 93.1183 27.7832 92.0868 23.2117 89.9613C20.118 88.5223 16.4032 88.6688 13.2752 90.3511C11.0939 91.5245 8.41907 92.3332 5.32535 92.7544C4.59521 92.8543 3.87881 92.5743 3.40884 92.0059C2.94192 91.4398 2.80765 90.7181 3.04187 90.0261C6.84818 78.7651 4.95609 67.833 4.86148 67.3096C4.85767 67.2875 4.85309 67.2646 4.84851 67.2424C4.29767 64.8064 4.02301 62.2971 4.0314 59.7839C4.05963 51.9798 6.81689 44.4283 11.7951 38.5208C16.2506 33.2344 22.284 29.4746 28.9559 27.7885C27.4872 31.8161 26.7411 36.1168 26.7853 40.5304C26.8807 49.926 30.6046 58.802 37.2711 65.5235C43.9385 72.245 52.7825 76.2093 62.1781 76.2093C67.9993 76.2093 73.2483 75.0916 78.0243 72.8714C80.2849 71.8201 83.0193 71.9376 85.3379 73.1842C87.8296 74.5247 90.8379 75.4417 94.2795 75.911C96.0221 76.1475 97.731 75.4799 98.851 74.1242C99.9611 72.7791 100.291 70.9908 99.7338 69.3413Z" fill="#F5F5F5"/>
<path d="M52.3544 29.1328H47.7401C44.7296 29.1328 42.2798 31.5826 42.2798 34.5932V40.1123C42.2798 43.1236 44.7296 45.5734 47.7485 45.5734H47.7493C47.7913 45.5734 50.0908 45.594 51.1451 47.7424C51.6822 48.838 52.0286 50.0168 52.1728 51.2451C52.3567 52.8137 53.3043 54.4471 55.7914 54.4471C57.0533 54.4471 58.2176 53.7925 58.8882 52.6596C60.8772 49.295 62.7731 43.5569 60.5102 35.3225C59.5077 31.678 56.1546 29.1328 52.3544 29.1328ZM56.3659 51.168C56.134 51.5594 55.7678 51.5297 55.6213 51.4984C55.4412 51.4602 55.1323 51.3321 55.0819 50.9033C54.8988 49.3446 54.4593 47.847 53.775 46.4515C51.9371 42.7055 47.9919 42.6429 47.747 42.6429C47.7447 42.6429 47.7424 42.6429 47.7401 42.6429C46.3447 42.6429 45.2095 41.5077 45.2095 40.1123V34.5932C45.2095 33.1978 46.3447 32.0625 47.7401 32.0625H52.3544C54.8393 32.0625 57.032 33.7219 57.6851 36.0984C59.2834 41.9143 58.8394 46.9848 56.3659 51.168Z" fill="#F5F5F5"/>
<path d="M64.1388 34.5932V40.1123C64.1388 43.1236 66.5886 45.5734 69.5953 45.5734C69.6915 45.5742 71.9666 45.6268 73.0041 47.7424C73.542 48.838 73.8876 50.0168 74.0318 51.2451C74.2157 52.8137 75.2991 54.4471 77.6504 54.4471C78.9131 54.4471 80.0774 53.7925 80.748 52.6596C82.737 49.2958 84.6329 43.5569 82.3692 35.3225C81.3675 31.6787 78.0144 29.1328 74.2142 29.1328H69.5999C66.5886 29.1328 64.1388 31.5826 64.1388 34.5932ZM67.0685 34.5932C67.0685 33.1978 68.2045 32.0625 69.5999 32.0625H74.2142C76.6991 32.0625 78.891 33.7219 79.5441 36.0992C81.1424 41.9143 80.6992 46.9848 78.2257 51.168C77.9938 51.5594 77.6268 51.5297 77.4803 51.4984C77.301 51.4602 76.992 51.3321 76.9417 50.9033C76.7586 49.3446 76.3191 47.8462 75.6348 46.4515C73.7961 42.7055 69.8509 42.6429 69.6068 42.6429C69.6037 42.6429 69.6014 42.6429 69.5999 42.6429C68.2037 42.6429 67.0685 41.5077 67.0685 40.1123V34.5932Z" fill="#F5F5F5"/>
</svg>
