<svg width="58" height="57" viewBox="0 0 58 57" fill="none" xmlns="http://www.w3.org/2000/svg">
<path d="M36.5991 0C36.0748 0 35.6492 0.425607 35.6492 0.949962C35.6492 1.47432 36.0748 1.89992 36.5991 1.89992C47.0758 1.89992 55.5992 10.4233 55.5992 20.8999C55.5992 21.4243 56.0248 21.8499 56.5491 21.8499C57.0745 21.8499 57.4991 21.4243 57.4991 20.8999C57.4991 9.3756 48.1236 0 36.5991 0Z" fill="white"/>
<path d="M36.5991 5.70007C36.0748 5.70007 35.6492 6.12568 35.6492 6.65004C35.6492 7.17439 36.0748 7.6 36.5991 7.6C43.9331 7.6 49.8992 13.566 49.8992 20.9C49.8992 21.4244 50.3248 21.85 50.8491 21.85C51.3745 21.85 51.7991 21.4244 51.7991 20.9C51.7991 12.5192 44.9809 5.70007 36.5991 5.70007Z" fill="white"/>
<path d="M36.5991 11.4C36.0748 11.4 35.6492 11.8256 35.6492 12.35C35.6492 12.8743 36.0748 13.2999 36.5991 13.2999C40.7896 13.2999 44.1992 16.7095 44.1992 20.9C44.1992 21.4243 44.6248 21.8499 45.1491 21.8499C45.6745 21.8499 46.0991 21.4243 46.0991 20.9C46.0991 15.6618 41.8373 11.4 36.5991 11.4Z" fill="white"/>
<path d="M51.9075 35.6488C49.3225 35.3087 46.7737 34.6742 44.3321 33.7649C41.9676 32.8786 39.281 33.4504 37.4817 35.226L34.4787 38.2223C28.1821 34.5097 22.922 29.2601 19.2008 22.9758L22.2057 19.9776C23.9822 18.185 24.5559 15.5013 23.6678 13.1424C22.7568 10.7048 22.1212 8.16162 21.7792 5.5728C21.3241 2.36365 18.5453 -0.0123094 15.2973 4.79808e-05H6.98582C6.792 4.79808e-05 6.59818 0.00951086 6.40636 0.0266554C4.68011 0.182515 3.11739 1.00044 2.00679 2.32859C0.896289 3.65762 0.36993 5.33912 0.527682 7.07851C1.44825 15.7311 4.44075 24.1642 9.17653 31.4602C13.4762 38.2128 19.3254 44.0505 26.0846 48.337C33.3673 53.0509 41.7776 56.0368 50.4255 56.9744C50.6212 56.9915 50.8178 57 51.0154 57C51.0211 57 51.0267 57 51.0334 57C54.6131 56.9847 57.5124 54.0664 57.4981 50.4972V42.2142C57.5733 38.9301 55.1754 36.1086 51.9075 35.6488ZM55.5982 42.18C55.5982 42.1876 55.5982 42.1962 55.5982 42.2037V50.502C55.6077 53.0271 53.5567 55.0905 51.0269 55.101C50.8787 55.0953 50.7362 55.0953 50.6107 55.0838C42.2755 54.1794 34.151 51.2952 27.1087 46.7371C20.5765 42.5942 14.9297 36.9587 10.7744 30.4322C6.19628 23.3796 3.30643 15.2343 2.41814 6.89237C2.30793 5.67444 2.67943 4.48701 3.46507 3.5474C4.25071 2.6078 5.35553 2.02934 6.57725 1.91912C6.71307 1.90676 6.849 1.90008 6.98571 1.90008H15.3058C15.3211 1.90008 15.3362 1.90008 15.3515 1.90008C17.6277 1.90008 19.578 3.58637 19.8962 5.83019C20.2562 8.55193 20.926 11.2366 21.8883 13.8102C22.5163 15.4783 22.1106 17.3746 20.8594 18.6371L17.3407 22.1483C17.0366 22.4513 16.9739 22.9188 17.1858 23.2912C21.2119 30.3592 27.0839 36.2188 34.1642 40.2363C34.5366 40.4482 35.0021 40.3836 35.3042 40.0825L38.8192 36.5751C40.0893 35.3221 41.9921 34.9183 43.6661 35.5453C46.2424 36.5048 48.9319 37.1746 51.6498 37.5317C53.9585 37.8566 55.6561 39.8545 55.5982 42.18Z" fill="white"/>
<path d="M14.7501 3.80017H6.98573C6.9059 3.80017 6.82708 3.80396 6.74826 3.81153C5.78027 3.89892 5.18833 4.44799 4.92237 4.76628C4.70862 5.02177 4.22034 5.71913 4.30584 6.67678C4.66498 10.0465 5.31469 13.3248 6.23905 16.4219C6.36251 16.8332 6.73969 17.1002 7.14916 17.1002C7.23944 17.1002 7.33062 17.0878 7.4218 17.0603C7.92433 16.9103 8.21033 16.3811 8.06015 15.8786C7.16908 12.8937 6.54208 9.73017 6.19719 6.49164C6.17537 6.25039 6.33212 6.04232 6.38055 5.98342C6.45848 5.89035 6.63226 5.72982 6.98573 5.70032H14.7482C14.7492 5.70032 14.7492 5.70032 14.7492 5.70032C15.2735 5.70032 15.6991 5.27571 15.6991 4.75125C15.7 4.22667 15.2744 3.80017 14.7501 3.80017Z" fill="white"/>
<path d="M52.7491 41.8C52.2248 41.8 51.7992 42.2257 51.7992 42.75L51.7982 50.501C51.7992 50.7147 51.7175 50.9161 51.5683 51.0662C51.4191 51.2163 51.2215 51.299 51.0335 51.2999L50.9461 51.298C47.7 50.9455 44.5631 50.3204 41.6228 49.4398C41.1221 49.2888 40.5911 49.5748 40.44 50.0773C40.289 50.5798 40.575 51.109 41.0775 51.26C44.128 52.1739 47.3798 52.8219 50.758 53.1886C50.836 53.1961 50.9946 53.1999 51.0174 53.1999C51.7366 53.197 52.411 52.9149 52.9175 52.4048C53.4238 51.8937 53.7012 51.2154 53.6983 50.4972L53.6992 42.75C53.6992 42.2257 53.2736 41.8 52.7491 41.8Z" fill="white"/>
</svg>
