<svg width="60" height="57" viewBox="0 0 60 57" fill="none" xmlns="http://www.w3.org/2000/svg">
<path d="M50.2933 47.6144C50.1247 46.3884 49.4145 45.34 48.3445 44.7382L38.1315 38.9934C36.5682 38.114 34.5905 38.3857 33.322 39.654L29.7357 43.2404C29.001 43.975 27.8248 44.0666 26.9994 43.4534C24.5216 41.6123 22.0999 39.5135 19.8015 37.215C17.5032 34.9167 15.4044 32.4949 13.5632 30.0171C12.95 29.1918 13.0415 28.0155 13.7762 27.2809L17.3625 23.6945C18.631 22.4261 18.9026 20.4483 18.0231 18.885L12.2785 8.67203C11.6767 7.60204 10.6284 6.89183 9.40225 6.72336C8.11755 6.54693 6.84508 6.98155 5.91082 7.91616L2.12821 11.6988C-0.544045 14.371 -0.684496 19.1551 1.73257 25.1699C4.04471 30.9238 8.44447 37.219 14.1211 42.8956C19.7978 48.5724 26.0928 52.9721 31.8467 55.2841C34.6959 56.429 37.2685 57.0001 39.4717 57.0001C41.9195 57.0001 43.9113 56.2949 45.3178 54.8885L49.1004 51.1059C50.0349 50.1715 50.4696 48.8989 50.2933 47.6144ZM47.7479 49.7535L47.0868 50.4143L38.38 45.6652C37.9162 45.4119 37.3354 45.5831 37.0825 46.0468C36.8295 46.5105 37.0004 47.0915 37.4642 47.3443L45.6771 51.8241L43.9652 53.5361C41.8993 55.6018 37.7422 55.592 32.5597 53.5095C27.0398 51.2913 20.9718 47.0417 15.4734 41.5432C9.97524 36.0447 5.72539 29.9766 3.50724 24.4567C1.42469 19.274 1.415 15.117 3.48071 13.0513L5.1923 11.3393L6.10788 13.0178C6.28155 13.3361 6.60961 13.5164 6.94828 13.5164C7.10292 13.5164 7.25997 13.4788 7.40527 13.3995C7.86894 13.1465 8.03995 12.5656 7.78695 12.1019L6.60235 9.92963L7.2632 9.26877C7.6977 8.83451 8.26181 8.59823 8.84564 8.59823C8.944 8.59823 9.04305 8.60503 9.14199 8.61853C9.76987 8.70478 10.3056 9.06605 10.6114 9.60998L16.3561 19.823C16.8166 20.642 16.6744 21.6778 16.01 22.3421L14.3035 24.0488L9.82511 15.8383C9.57222 15.3746 8.99128 15.2036 8.52761 15.4566C8.06393 15.7095 7.89293 16.2904 8.14592 16.7541L12.8938 25.4583L12.4238 25.9284C11.0234 27.3287 10.8533 29.577 12.028 31.1579C13.9247 33.7103 16.085 36.2034 18.449 38.5676C20.8131 40.9317 23.3062 43.0921 25.8586 44.9885C27.4395 46.1633 29.6876 45.9931 31.0882 44.5928L31.5582 44.1227L33.73 45.3073C33.8755 45.3868 34.0324 45.4243 34.187 45.4243C34.5257 45.4243 34.8537 45.2439 35.0274 44.9257C35.2804 44.462 35.1095 43.881 34.6457 43.6282L32.9678 42.7128L34.6743 41.0063C35.3386 40.342 36.3746 40.1997 37.1937 40.6602L47.4067 46.4049C47.9505 46.7108 48.3119 47.2464 48.3981 47.8743C48.4925 48.561 48.2555 49.2459 47.7479 49.7535Z" fill="white"/>
<path d="M45.8593 24.4828H44.7754V16.2581C44.7754 15.73 44.3473 15.3017 43.819 15.3017C43.2909 15.3017 42.8626 15.7299 42.8626 16.2581V24.4828H37.8704L39.652 16.4656C39.7665 15.95 39.4414 15.439 38.9257 15.3245C38.4099 15.2098 37.8993 15.5351 37.7847 16.0507L35.7445 25.2317C35.6815 25.515 35.7505 25.8113 35.9321 26.0377C36.1136 26.2639 36.3879 26.3956 36.6781 26.3956H42.8625V29.5196C42.8625 30.0478 43.2907 30.4761 43.8189 30.4761C44.347 30.4761 44.7753 30.0479 44.7753 29.5196V26.3955H45.8591C46.3873 26.3955 46.8155 25.9673 46.8155 25.4391C46.8155 24.9109 46.3874 24.4828 45.8593 24.4828Z" fill="white"/>
<path d="M33.6177 28.5633H26.5791C26.9952 27.4677 28.1725 26.771 29.8706 25.8443C31.9662 24.7008 34.5741 23.2776 34.5741 20.0471C34.5741 17.4305 32.3145 15.3018 29.5372 15.3018C26.7599 15.3018 24.5004 17.4304 24.5004 20.0471C24.5004 20.5752 24.9285 21.0035 25.4568 21.0035C25.9849 21.0035 26.4132 20.5754 26.4132 20.0471C26.4132 18.4852 27.8147 17.2144 29.5372 17.2144C31.2598 17.2144 32.6613 18.4851 32.6613 20.0471C32.6612 22.0014 31.2608 22.9066 28.9542 24.1653C26.8666 25.3046 24.5002 26.5959 24.5002 29.5196C24.5002 30.0477 24.9284 30.476 25.4566 30.476H33.6176C34.1457 30.476 34.574 30.0478 34.574 29.5196C34.574 28.9913 34.1458 28.5633 33.6177 28.5633Z" fill="white"/>
<path d="M53.8324 39.8032L51.9698 40.1756C56.4959 35.7799 59.0567 29.7679 59.0567 23.3989C59.0567 10.4968 48.56 0 35.6578 0C28.0539 0 20.8971 3.71653 16.5136 9.9418C16.2095 10.3736 16.3131 10.9703 16.7449 11.2745C17.1766 11.5786 17.7733 11.475 18.0775 11.0432C22.1034 5.32595 28.6754 1.91269 35.6579 1.91269C47.5054 1.91269 57.1441 11.5513 57.1441 23.3989C57.1441 29.3328 54.7217 34.9282 50.4511 38.9796L50.8775 36.8479C50.981 36.33 50.6451 35.8262 50.1271 35.7226C49.6093 35.6189 49.1054 35.955 49.0018 36.473L47.9817 41.5736C47.919 41.8871 48.0171 42.2113 48.2433 42.4374C48.4243 42.6184 48.6684 42.7175 48.9195 42.7175C48.9819 42.7175 49.0446 42.7114 49.1071 42.6989L54.2077 41.6787C54.7257 41.5751 55.0616 41.0713 54.958 40.5534C54.854 40.0355 54.3501 39.6999 53.8324 39.8032Z" fill="white"/>
<path d="M35.6578 4.08044C35.1297 4.08044 34.7014 4.5086 34.7014 5.03685V7.07708C34.7014 7.60521 35.1296 8.03348 35.6578 8.03348C36.186 8.03348 36.6142 7.60532 36.6142 7.07708V5.03685C36.6141 4.50872 36.1861 4.08044 35.6578 4.08044Z" fill="white"/>
<path d="M54.0198 22.4426H51.9796C51.4515 22.4426 51.0232 22.8708 51.0232 23.399C51.0232 23.9272 51.4514 24.3554 51.9796 24.3554H54.0198C54.548 24.3554 54.9762 23.9273 54.9762 23.399C54.9762 22.8708 54.548 22.4426 54.0198 22.4426Z" fill="white"/>
<path d="M22.0008 14.4099L20.234 13.3898C19.7764 13.1256 19.1917 13.2824 18.9276 13.7398C18.6635 14.1972 18.8202 14.7821 19.2776 15.0462L21.0444 16.0662C21.195 16.1532 21.3594 16.1944 21.5217 16.1944C21.8522 16.1944 22.1736 16.0229 22.3508 15.7161C22.6148 15.2588 22.4581 14.6739 22.0008 14.4099Z" fill="white"/>
<path d="M52.0379 31.7518L50.2711 30.7316C49.8137 30.4674 49.2288 30.6242 48.9647 31.0816C48.7007 31.5389 48.8573 32.1239 49.3147 32.388L51.0815 33.408C51.2321 33.495 51.3966 33.5362 51.5588 33.5362C51.8893 33.5362 52.2108 33.3647 52.3879 33.0579C52.6521 32.6007 52.4954 32.0158 52.0379 31.7518Z" fill="white"/>
<path d="M45.317 6.66873C44.8596 6.40455 44.2747 6.56138 44.0106 7.01871L42.9906 8.78553C42.7265 9.24297 42.8832 9.82784 43.3406 10.0919C43.4912 10.1789 43.6555 10.2201 43.8178 10.2201C44.1483 10.2201 44.4698 10.0485 44.6469 9.74182L45.6671 7.975C45.9312 7.51778 45.7745 6.9328 45.317 6.66873Z" fill="white"/>
<path d="M27.975 36.7058C27.5175 36.4417 26.9328 36.5985 26.6686 37.0558L25.6485 38.8226C25.3845 39.2801 25.5412 39.865 25.9985 40.129C26.1491 40.216 26.3135 40.2572 26.4758 40.2572C26.8063 40.2572 27.1278 40.0857 27.3049 39.7789L28.3251 38.0121C28.5891 37.5548 28.4324 36.9699 27.975 36.7058Z" fill="white"/>
<path d="M52.388 13.7398C52.1239 13.2824 51.5388 13.1256 51.0816 13.3898L49.3148 14.41C48.8573 14.6741 48.7006 15.2589 48.9648 15.7164C49.1419 16.0232 49.4634 16.1947 49.7939 16.1947C49.9561 16.1947 50.1206 16.1534 50.2712 16.0665L52.038 15.0464C52.4953 14.7821 52.652 14.1971 52.388 13.7398Z" fill="white"/>
<path d="M22.3508 31.0818C22.0868 30.6243 21.5018 30.4675 21.0445 30.7318L19.2776 31.752C18.8202 32.016 18.6635 32.6009 18.9277 33.0583C19.1048 33.3652 19.4263 33.5367 19.7568 33.5367C19.919 33.5367 20.0834 33.4954 20.234 33.4084L22.0009 32.3884C22.4582 32.1241 22.6149 31.5391 22.3508 31.0818Z" fill="white"/>
<path d="M28.325 8.78563L27.305 7.01881C27.0409 6.56125 26.4559 6.40454 25.9986 6.66883C25.5411 6.9329 25.3844 7.51788 25.6486 7.97521L26.6688 9.74203C26.846 10.0489 27.1675 10.2204 27.4979 10.2204C27.6601 10.2204 27.8246 10.1791 27.9752 10.0921C28.4324 9.82794 28.5891 9.24296 28.325 8.78563Z" fill="white"/>
<path d="M45.6671 38.8227L44.647 37.0558C44.3829 36.5984 43.798 36.4417 43.3406 36.7059C42.8832 36.9699 42.7265 37.5548 42.9907 38.0122L44.0107 39.7791C44.1878 40.0859 44.5093 40.2574 44.8398 40.2574C45.0021 40.2574 45.1665 40.2161 45.3171 40.1292C45.7744 39.865 45.9311 39.2801 45.6671 38.8227Z" fill="white"/>
</svg>
