<svg width="58" height="57" viewBox="0 0 58 57" fill="none" xmlns="http://www.w3.org/2000/svg">
<path d="M57.4456 55.8685L49.096 33.8734C49.0266 33.6907 48.8954 33.5382 48.7253 33.4424L39.8317 28.4319L42.4282 24.315C44.0218 21.7863 44.8642 18.8641 44.8642 15.8642C44.8642 7.11664 37.7475 0 28.9999 0C20.2523 0 13.1357 7.11664 13.1357 15.8642C13.1357 18.8649 13.9784 21.7872 15.5729 24.3153C15.6155 24.3831 18.1687 28.4322 18.1687 28.4322L9.27484 33.4424C9.10462 33.5382 8.97336 33.6907 8.90401 33.8734L0.554407 55.8685C0.429609 56.1971 0.524126 56.5688 0.790534 56.798C1.05728 57.0273 1.43857 57.0651 1.74484 56.8924L15.1674 49.3303L28.59 56.8924C28.8444 57.0357 29.1553 57.0357 29.4097 56.8924L42.8323 49.3303L56.2549 56.8924C56.3829 56.9645 56.5242 56.9999 56.6647 56.9999C56.8602 56.9999 57.0541 56.9315 57.2093 56.7981C57.476 56.5688 57.5704 56.1971 57.4456 55.8685ZM29.835 43.2744C30.3574 43.0901 30.8102 42.7349 31.1176 42.2483C31.16 42.1815 38.2681 30.9113 38.2681 30.9113L41.8884 47.9454L29.835 54.736V43.2744ZM16.9854 23.4243C15.5594 21.1632 14.8057 18.549 14.8057 15.8641C14.8057 8.03732 21.1732 1.66981 29 1.66981C36.8269 1.66981 43.1944 8.03732 43.1944 15.8641C43.1944 18.5485 42.4409 21.1629 41.0158 23.4243C40.9044 23.601 29.9027 41.0474 29.7108 41.3488C29.709 41.3513 29.7074 41.354 29.7058 41.3566C29.5509 41.6015 29.2872 41.7479 29 41.7479C28.7127 41.7479 28.4477 41.6008 28.2927 41.357C28.1811 41.1801 17.1575 23.6992 16.9892 23.4304C16.988 23.4284 16.9866 23.4264 16.9854 23.4243ZM10.3578 34.7488L18.1414 30.3639L16.7855 36.7435C16.6896 37.1946 16.9775 37.6379 17.4285 37.7338C17.4871 37.7463 17.5455 37.7523 17.603 37.7523C17.9887 37.7523 18.3354 37.4832 18.4188 37.0908L19.7321 30.9119L26.8817 42.2505C27.1902 42.7358 27.6434 43.0902 28.1649 43.2743V54.7362L16.1117 47.9455L17.7245 40.3575C17.8204 39.9064 17.5325 39.4631 17.0815 39.3671C16.6299 39.2707 16.187 39.5593 16.0911 40.0102L14.4291 47.8294L2.93382 54.3058L10.3578 34.7488ZM43.5709 47.8295L39.8589 30.3638L47.6421 34.7488L55.0663 54.3058L43.5709 47.8295Z" fill="white"/>
<path d="M38.1846 15.8641C38.1846 10.7998 34.0643 6.67957 29 6.67957C23.9357 6.67957 19.8154 10.7998 19.8154 15.8641C19.8154 20.9285 23.9357 25.0487 29 25.0487C34.0643 25.0487 38.1846 20.9285 38.1846 15.8641ZM21.4854 15.8641C21.4854 11.7205 24.8564 8.34949 29 8.34949C33.1436 8.34949 36.5147 11.7205 36.5147 15.8641C36.5147 20.0078 33.1436 23.3788 29 23.3788C24.8564 23.3788 21.4854 20.0078 21.4854 15.8641Z" fill="white"/>
<path d="M34.8447 15.8641C34.8447 12.6414 32.2227 10.0194 29 10.0194C25.7773 10.0194 23.1553 12.6414 23.1553 15.8641C23.1553 19.0869 25.7773 21.7089 29 21.7089C32.2227 21.7089 34.8447 19.0869 34.8447 15.8641ZM24.8252 15.8641C24.8252 13.5621 26.698 11.6893 29 11.6893C31.302 11.6893 33.1748 13.5621 33.1748 15.8641C33.1748 18.1662 31.302 20.0389 29 20.0389C26.698 20.0389 24.8252 18.1662 24.8252 15.8641Z" fill="white"/>
</svg>
