<svg width="45" height="40" viewBox="0 0 45 40" fill="none" xmlns="http://www.w3.org/2000/svg">
<path d="M38.2452 26.0933L30.3369 29.4343C30.351 29.3356 30.3651 29.2369 30.3651 29.1312C30.3651 27.5946 29.1175 26.3471 27.5809 26.3471H21.8858C21.6532 26.3471 21.4276 26.2977 21.2162 26.199L16.388 24.014C15.6338 23.6757 14.795 23.4924 13.9704 23.4924H10.0373V24.9021H13.9704C14.5977 24.9021 15.232 25.036 15.81 25.2968L20.6382 27.4819C21.0329 27.6581 21.4558 27.7497 21.8928 27.7497H27.588C28.3492 27.7497 28.9624 28.37 28.9624 29.1242C28.9624 29.8783 28.3422 30.4986 27.588 30.4986H20.2082V31.9083H27.5809C28.0673 31.9083 28.5184 31.7744 28.9131 31.5559V31.5629L38.788 27.3832C39.6056 27.0378 40.5008 27.0449 41.3113 27.3973C41.9316 27.6722 42.4391 28.1162 42.7774 28.6942L25.3466 37.9418C24.0144 38.6466 22.4285 38.7876 20.9906 38.3294L12.462 35.5876L10.0303 35.5523V36.962H12.1378L20.5607 39.6686C21.2585 39.8942 21.9774 39.9999 22.7034 39.9999C23.8452 39.9999 24.9871 39.725 26.0021 39.1823L44.5748 29.3427L44.3704 28.7647C43.9404 27.5664 43.0523 26.6219 41.8823 26.1074C40.7122 25.607 39.4223 25.5929 38.2452 26.0933Z" fill="white"/>
<path d="M8.50749 38.0686V23.1048C8.50749 22.3294 7.87313 21.6951 7.0978 21.6951H0V23.1048H7.0978V38.0757H0V39.4854H7.0978C7.87313 39.4783 8.50749 38.844 8.50749 38.0686Z" fill="white"/>
<path d="M5.2438 35.8766C5.2438 36.4194 4.79975 36.8634 4.25702 36.8634C3.70724 36.8634 3.26318 36.4194 3.26318 35.8766C3.26318 35.3269 3.70724 34.8828 4.25702 34.8828C4.79975 34.8828 5.2438 35.3269 5.2438 35.8766Z" fill="white"/>
<path d="M16.6769 16.7753L17.4381 17.3392L22.6822 14.4352L27.4258 17.2899L27.8346 17.5295L28.5958 16.9797L27.454 11.1013L31.6478 7.46432L31.9861 7.14009L31.6901 6.26608L25.7553 5.53304L23.5985 0.429956L23.4011 0.00704828L22.95 0H22.4707L19.9403 5.43436L14.4143 5.89956L13.9421 5.95595L13.6602 6.837L18.0372 10.9181L16.6769 16.7753ZM16.0778 7.17533L20.4619 6.79471L20.8778 6.74537L22.9007 2.40352L24.6135 6.44229L24.7897 6.82996L29.5544 7.41498L26.2558 10.2767L25.9245 10.5586L26.8408 15.2811L23.0628 13.0044L22.7033 12.8141L18.5236 15.133L19.5033 10.904L19.6232 10.467L16.0778 7.17533Z" fill="white"/>
<path d="M7.40802 14.1743L6.386 18.5655L6.24503 19.073L7.0415 19.658L11.4327 17.2263L15.3093 19.5523L15.7463 19.8272L16.5287 19.2563L15.5701 14.3294L16.5922 13.4484L15.6688 12.384L14.3085 13.5611L14.1041 13.8008V14.0827L14.7666 17.5858L11.9049 15.8589L11.7569 15.718L11.1578 15.7039L11.0168 15.8448L8.09172 17.466L8.88115 14.0404V13.6246L6.1393 11.073L9.49437 10.777L9.8186 10.7699L10.1146 10.4739L11.616 7.24571L12.9693 10.4387L13.1878 10.8545H13.5825L15.2811 11.066L15.4574 9.66334L14.097 9.50122L12.3067 5.27215L12.0671 4.82104L11.0944 4.89858L10.9604 5.31444L9.05736 9.40959L4.57454 9.79726L4.01771 9.82545L3.72168 10.8545L4.10934 11.1083L7.40802 14.1743Z" fill="white"/>
<path d="M30.5759 9.50135L30.7028 10.904L32.0632 10.7771L32.3803 10.763L32.6764 10.467L34.1777 7.23879L35.4676 10.2767L35.4817 10.8476H36.1442L39.5063 11.2635L36.8914 13.5331L36.6588 13.7798V14.0828L37.3284 17.5789L34.4596 15.8591L34.3116 15.711L33.6914 15.7181L33.5645 15.852L30.6535 17.4661L31.4499 14.0406L31.4429 13.6247L29.6385 11.9401L28.6729 12.9692L29.9627 14.1745L28.9477 18.5657L28.8068 19.0379L29.5751 19.6723L33.9944 17.2265L37.8781 19.5595L38.3151 19.8273L39.0834 19.2494L38.1248 14.3295L41.5151 11.3903C41.7477 11.2071 41.8464 10.8969 41.7689 10.615L41.6068 10.1146L36.6588 9.5084L34.8543 5.26522L34.6429 4.87756L33.8041 4.84937L33.5856 5.19474L31.6121 9.40972L30.5759 9.50135Z" fill="white"/>
</svg>
