<svg width="57" height="64" viewBox="0 0 57 64" fill="none" xmlns="http://www.w3.org/2000/svg">
<path d="M4.04168 54.1026C3.05471 55.3843 3.05471 57.4698 4.04168 58.7515C4.53516 59.3923 5.18342 59.7127 5.83156 59.7127C6.47982 59.7127 7.12807 59.3923 7.62156 58.7515C8.60841 57.4698 8.60841 55.3843 7.62156 54.1026C6.6347 52.8209 5.02876 52.8209 4.04168 54.1026V54.1026ZM6.44051 57.2179C6.27784 57.429 6.0616 57.5454 5.83156 57.5454C5.60152 57.5454 5.38529 57.429 5.22261 57.2179C5.05994 57.0066 4.9703 56.7258 4.9703 56.4271C4.9703 56.1284 5.05994 55.8476 5.22261 55.6363C5.38529 55.4252 5.60152 55.3088 5.83156 55.3088C6.0616 55.3088 6.27784 55.4252 6.4404 55.6363C6.77633 56.0723 6.77633 56.7818 6.44051 57.2179V57.2179Z" fill="#E81C2E"/>
<path d="M54.0612 27.8879C52.9187 25.517 51.7418 23.9869 51.1304 23.2743C51.6266 19.9533 50.4765 17.0644 47.7055 14.6788C45.3043 12.6118 42.0103 11.1577 39.104 9.87486C38.2427 9.49458 37.427 9.13424 36.6725 8.77579C30.7773 2.53297 25.2619 0.166355 24.9912 0.0527023C24.5834 -0.118356 24.142 0.139171 23.9697 0.64873C20.8363 9.91593 17.2063 16.5353 15.9638 18.6776C14.9345 18.1047 13.6945 18.362 12.8554 19.4514C12.1657 20.3471 11.9088 21.595 12.0843 22.7534C11.3074 23.6264 10.5678 24.5579 9.88111 25.5312C9.56945 25.9728 9.5925 26.6588 9.93255 27.0634C10.0928 27.2541 10.295 27.3484 10.4965 27.3484C10.7224 27.3484 10.9477 27.2299 11.1124 26.9966C11.6761 26.1977 12.2779 25.4283 12.9082 24.6993L30.2624 47.2359C29.3457 48.5708 28.342 49.8136 27.2675 50.9371C25.9283 52.3358 24.0232 52.2524 22.7391 50.7403C22.3286 50.2549 21.918 49.7678 21.5113 49.2799C20.6587 48.2557 19.5089 47.7937 18.3567 48.0127C17.2064 48.2312 16.2086 49.0993 15.6189 50.3948C14.0882 53.7579 12.1332 57.2573 10.8646 58.9048C8.3452 62.1779 4.73771 62.8185 2.82312 60.3335C0.909645 57.8474 1.40313 53.1625 3.92299 49.89C5.189 48.246 7.88412 45.7078 10.4776 43.7173C11.4747 42.9509 12.143 41.655 12.311 40.1619C12.4794 38.6664 12.1239 37.1734 11.3359 36.0661C10.9587 35.5359 10.5837 35.0027 10.211 34.4715C9.39519 33.3029 9.09912 31.6422 9.43851 30.1372C9.56811 29.5624 9.31436 28.96 8.87176 28.7917C8.42916 28.6236 7.96529 28.9529 7.83568 29.5277C7.33418 31.7519 7.77032 34.2046 8.97509 35.93C9.35166 36.4669 9.72934 37.0039 10.1094 37.5381C10.5534 38.1619 10.7535 39.0039 10.6585 39.8482C10.5638 40.6899 10.1878 41.4198 9.62746 41.8504C6.88457 43.9557 4.11763 46.5702 2.74217 48.3562C-0.428843 52.4742 -0.922327 58.535 1.6423 61.8671C2.74807 63.3023 4.24334 64.0001 5.84148 64C7.95215 63.9999 10.2416 62.7822 12.0459 60.4383C13.4238 58.6489 15.4376 55.0561 17.0568 51.4983C17.3883 50.7701 17.9502 50.2818 18.5985 50.1586C19.2485 50.0351 19.8969 50.2951 20.3777 50.8726C20.7878 51.3646 21.2012 51.855 21.6159 52.3457C23.5139 54.5804 26.331 54.6987 28.3146 52.627C29.5597 51.3254 30.7162 49.8746 31.7607 48.3092C31.9398 48.3549 32.1236 48.3785 32.3104 48.3785C33.0637 48.3785 33.7719 47.9975 34.3046 47.3059C34.8373 46.6141 35.1306 45.6944 35.1306 44.716C35.1306 44.2098 35.0515 43.7195 34.9018 43.268C36.4822 41.7224 41.2184 37.3398 47.8761 33.4002C47.9053 33.7275 47.9232 34.1323 47.9124 34.6181C47.8803 36.0577 47.5852 38.505 46.3609 41.9898C46.1695 42.5348 46.3544 43.1779 46.774 43.4266C46.8863 43.4932 47.0041 43.5248 47.1201 43.5248C47.4371 43.5248 47.7402 43.2891 47.8804 42.8902C50.4007 35.7163 49.4607 32.1699 49.227 31.4848C48.99 30.5603 46.4663 21.1575 39.8313 12.4902C42.2963 13.5955 44.8897 14.8571 46.7826 16.4867C49.1374 18.5138 49.9677 20.7052 49.3958 23.3831C49.3047 23.8095 49.4238 24.2664 49.6945 24.5355C49.7097 24.5507 51.2383 26.0891 52.6852 29.1215C54.6165 33.1692 55.4978 37.8221 55.3045 42.9512C55.0375 50.044 52.3361 52.2203 51.187 52.8267C49.7364 53.5922 48.1653 53.3208 47.1846 52.1345C46.1836 50.9238 45.9478 48.9995 46.5207 46.7165C46.6635 46.1471 46.4239 45.535 45.9854 45.3493C45.5467 45.1638 45.0756 45.475 44.9326 46.0444C44.1582 49.1308 44.5641 51.9291 46.0463 53.7216C46.9703 54.8392 48.221 55.4234 49.5365 55.4232C50.2915 55.4232 51.0681 55.2306 51.8159 54.8359C53.2619 54.0727 56.6587 51.3974 56.9728 43.0571C57.2363 36.0603 55.5349 30.9462 54.0612 27.8879V27.8879ZM33.1236 45.7723C32.9064 46.0544 32.6177 46.2097 32.3105 46.2097C32.0033 46.2097 31.7145 46.0544 31.4972 45.7723L14.0365 23.0974C13.5881 22.5151 13.5881 21.5675 14.0365 20.9852C14.2608 20.694 14.5553 20.5486 14.8498 20.5486C15.1443 20.5486 15.4388 20.6942 15.6631 20.9852L33.1238 43.6603C33.341 43.9424 33.4606 44.3174 33.4606 44.7163C33.4606 45.1152 33.341 45.4902 33.1236 45.7723ZM33.8683 41.5598L31.9793 39.1067C32.8471 38.1737 34.5034 36.4441 36.7381 34.3424C37.1117 33.991 37.1952 33.313 36.9247 32.828C36.6542 32.3429 36.1321 32.2344 35.7585 32.5858C33.3597 34.8419 31.6407 36.6481 30.7926 37.5657L28.0793 34.0422C28.6999 33.2845 29.7594 32.0015 31.1412 30.368C31.4823 29.9647 31.5071 29.2789 31.1967 28.836C30.8863 28.3932 30.358 28.361 30.017 28.764C28.6008 30.4381 27.5191 31.749 26.8979 32.5077L24.2501 29.0692C24.8343 28.2626 25.8437 26.8577 27.1329 25.0188C27.4433 24.5759 27.4185 23.8899 27.0775 23.4868C26.7364 23.0836 26.2083 23.1157 25.8977 23.5588C24.64 25.3532 23.6519 26.7292 23.0685 27.535L20.3553 24.0115C21.0619 22.9103 22.4527 20.678 24.19 17.5628C24.4606 17.0777 24.3771 16.3996 24.0035 16.0483C23.63 15.6969 23.108 15.8055 22.8373 16.2905C21.2189 19.1925 19.887 21.3435 19.1686 22.4704L17.2804 20.0183C18.5219 17.8943 22.0111 11.5645 25.1796 2.45214C27.1874 3.46808 33.1505 6.88056 38.5677 13.9155C43.9852 20.951 46.613 28.6951 47.395 31.3016C40.3782 35.4161 35.5038 39.9475 33.8683 41.5598V41.5598Z" fill="#E81C2E"/>
</svg>
