<svg width="64" height="64" viewBox="0 0 64 64" fill="none" xmlns="http://www.w3.org/2000/svg">
<path d="M58.6667 0H13.8667C10.9224 0.00377155 8.53698 2.47144 8.53333 5.51723V48.5516H1.06667C0.477604 48.5516 0 49.0457 0 49.6551V51.862C0.00364584 54.9078 2.38906 57.3754 5.33333 57.3792H38.4255V62.8964C38.4255 63.3145 38.6536 63.6965 39.0151 63.8835C39.3766 64.0705 39.8089 64.0301 40.1323 63.779L43.7589 60.9654L47.3854 63.779C47.5698 63.9228 47.7948 64.0004 48.0255 63.9999C48.1911 64.0015 48.3547 63.9638 48.5036 63.8894C48.8667 63.7014 49.0948 63.3162 49.0922 62.8964V57.3792H50.1333C53.0776 57.3754 55.463 54.9078 55.4667 51.862V8.82757H62.9333C63.5224 8.82757 64 8.3335 64 7.72412V5.51723C63.9964 2.47144 61.6109 0.00377155 58.6667 0ZM38.4255 55.1723H5.33333C3.56615 55.1723 2.13333 53.6901 2.13333 51.862V50.7585H38.4255V55.1723ZM46.9589 60.6895L44.399 58.7036C44.0198 58.4088 43.4984 58.4088 43.1188 58.7036L40.5589 60.6895V48.3652C40.7651 48.3819 40.9724 48.3781 41.1776 48.3528C41.7932 49.1745 42.7417 49.6551 43.7464 49.6551C44.751 49.6551 45.699 49.1745 46.3146 48.3528C46.5271 48.3792 46.7417 48.3835 46.9547 48.3652L46.9589 60.6895ZM48.3307 43.0123C48.0464 43.1168 47.8177 43.3415 47.7026 43.6298C47.587 43.9186 47.5948 44.244 47.725 44.5263C47.9266 44.9638 47.8411 45.4854 47.5109 45.8291C47.1802 46.1729 46.6766 46.2645 46.2526 46.0581C45.9802 45.9234 45.6651 45.9148 45.3859 46.0339C45.1063 46.1535 44.8896 46.39 44.788 46.6847C44.6323 47.1416 44.2146 47.4477 43.7464 47.4477C43.2776 47.4477 42.8599 47.1416 42.7042 46.6847C42.6031 46.39 42.3859 46.1535 42.1068 46.0339C41.8271 45.9148 41.512 45.9234 41.2396 46.0581C40.8156 46.2645 40.312 46.1729 39.9818 45.8291C39.651 45.4854 39.5656 44.9638 39.7677 44.5263C39.8974 44.2445 39.9057 43.9186 39.7901 43.6303C39.675 43.3415 39.4469 43.1174 39.1625 43.0123C38.7203 42.8496 38.4245 42.4164 38.4245 41.931C38.4245 41.4455 38.7203 41.0123 39.1625 40.8496C39.4469 40.7445 39.6745 40.5204 39.7896 40.2322C39.9052 39.9439 39.8969 39.6185 39.7677 39.3367C39.5646 38.8992 39.65 38.3771 39.9807 38.0328C40.3109 37.6891 40.8151 37.5969 41.2396 37.8038C41.512 37.9385 41.8271 37.9471 42.1068 37.8281C42.3859 37.7084 42.6031 37.4719 42.7042 37.1772C42.8599 36.7203 43.2776 36.4143 43.7464 36.4143C44.2146 36.4143 44.6323 36.7203 44.788 37.1772C44.8896 37.4719 45.1063 37.7084 45.3859 37.8281C45.6651 37.9471 45.9802 37.9385 46.2526 37.8038C46.6766 37.5975 47.1802 37.6891 47.5109 38.0328C47.8411 38.3765 47.9266 38.8981 47.725 39.3356C47.5948 39.6179 47.587 39.9434 47.7026 40.2322C47.8177 40.5204 48.0464 40.7451 48.3307 40.8496C48.7719 41.0134 49.0667 41.446 49.0667 41.931C49.0667 42.4159 48.7719 42.8485 48.3307 43.0123ZM54.3177 2.34482C54.2573 2.43319 54.2036 2.52694 54.1484 2.61961C54.0344 2.80818 53.9323 3.00323 53.8411 3.2042C53.7932 3.31465 53.7484 3.41648 53.7068 3.52424C53.6276 3.74083 53.5609 3.96174 53.5083 4.18642C53.4839 4.28932 53.4526 4.38846 53.4339 4.49299C53.3693 4.83081 53.3359 5.17348 53.3333 5.51723V51.862C53.3333 53.6901 51.9005 55.1723 50.1333 55.1723C49.7776 55.1653 49.426 55.0969 49.0922 54.9692V47.2936C49.7557 46.5716 50.0688 45.5786 49.9458 44.5904C50.7385 43.952 51.2021 42.9703 51.2021 41.931C51.2021 40.8916 50.7385 39.91 49.9458 39.2715C50.0719 38.2413 49.7307 37.2085 49.0219 36.4725C48.313 35.737 47.3156 35.3814 46.3188 35.5091C45.7031 34.6874 44.7552 34.2068 43.7505 34.2068C42.7458 34.2068 41.7974 34.6874 41.1818 35.5091C40.1854 35.3819 39.188 35.7375 38.4792 36.473C37.7708 37.2085 37.4297 38.2413 37.5552 39.2715C36.7625 39.91 36.2984 40.8916 36.2984 41.931C36.2984 42.9703 36.7625 43.952 37.5552 44.5904C37.4292 45.5926 37.7521 46.5996 38.4318 47.3259V48.5516H10.6667V5.51723C10.6667 3.68911 12.0995 2.20689 13.8667 2.20689H54.4C54.3703 2.25 54.3479 2.29957 54.3177 2.34482ZM61.8667 6.62068H55.4667V5.51723C55.4667 3.68911 56.8995 2.20689 58.6667 2.20689C60.4339 2.20689 61.8667 3.68911 61.8667 5.51723V6.62068Z" fill="#E81C2E"/>
<path d="M35.2001 8.82751H39.4668V11.0343H35.2001V8.82751Z" fill="#E81C2E"/>
<path d="M24.5334 8.82751H33.0667V11.0343H24.5334V8.82751Z" fill="#E81C2E"/>
<path d="M21.3334 14.3448H42.6667V16.5517H21.3334V14.3448Z" fill="#E81C2E"/>
<path d="M16 20.9656H21.3332V23.1724H16V20.9656Z" fill="#E81C2E"/>
<path d="M16 26.4828H27.7333V28.6897H16V26.4828Z" fill="#E81C2E"/>
<path d="M23.4667 20.9656H48V23.1724H23.4667V20.9656Z" fill="#E81C2E"/>
<path d="M29.8667 26.4828H48V28.6897H29.8667V26.4828Z" fill="#E81C2E"/>
<path d="M16 32H37.3333V34.2069H16V32Z" fill="#E81C2E"/>
<path d="M16 37.5171H34.1333V39.7239H16V37.5171Z" fill="#E81C2E"/>
</svg>
