<svg width="56" height="64" viewBox="0 0 56 64" fill="none" xmlns="http://www.w3.org/2000/svg">
<path d="M37.8016 26.7262C38.8347 25.6707 39.4759 24.2075 39.4759 22.5921C39.4759 19.3836 36.9466 16.7733 33.8377 16.7733C31.4421 16.7733 29.3188 18.3409 28.526 20.6381C28.1938 20.5748 27.8519 20.5401 27.5021 20.5401C27.1522 20.5401 26.8105 20.5748 26.4781 20.6381C25.6853 18.3408 23.5619 16.7733 21.1664 16.7733C18.0576 16.7733 15.5283 19.3836 15.5283 22.5921C15.5283 24.2075 16.1696 25.6707 17.2026 26.7262C14.7246 28.1833 13.1293 30.9426 13.1293 33.9435C13.1293 34.4614 13.5359 34.881 14.0375 34.881C14.5391 34.881 14.9457 34.4614 14.9457 33.9435C14.9457 31.2931 16.5532 28.8863 18.9492 27.9425C19.6302 28.2443 20.3797 28.4121 21.1665 28.4121C21.5131 28.4121 21.8563 28.3776 22.1922 28.3136C22.4793 29.1425 22.9431 29.885 23.5372 30.4925C21.0366 31.954 19.4652 34.6929 19.4652 37.7106C19.4652 38.2285 19.8718 38.6481 20.3734 38.6481C20.8749 38.6481 21.2816 38.2285 21.2816 37.7106C21.2816 35.124 22.773 32.8014 25.081 31.7936C25.1428 31.7666 25.1998 31.733 25.2524 31.6946C25.942 32.0057 26.7026 32.1795 27.5021 32.1795C28.2892 32.1795 29.0388 32.0116 29.7198 31.7096C32.1147 32.6535 33.7226 35.0627 33.7226 37.7106C33.7226 38.2285 34.1292 38.6481 34.6308 38.6481C35.1323 38.6481 35.539 38.2285 35.539 37.7106C35.539 34.7125 33.9433 31.951 31.466 30.4933C32.0605 29.8857 32.5247 29.1428 32.8119 28.3136C33.148 28.3776 33.491 28.4121 33.8376 28.4121C34.6245 28.4121 35.3739 28.2443 36.0548 27.9425C38.4508 28.8863 40.0583 31.2928 40.0583 33.9435C40.0583 34.4614 40.465 34.881 40.9665 34.881C41.4681 34.881 41.8747 34.4614 41.8747 33.9435C41.875 30.9425 40.2797 28.1833 37.8016 26.7262V26.7262ZM21.8644 26.3598C21.8644 26.3967 21.8665 26.433 21.8671 26.4696C21.6383 26.5136 21.404 26.5371 21.1665 26.5371C19.0593 26.5371 17.3448 24.7675 17.3448 22.5921C17.3448 20.4176 19.0593 18.6483 21.1665 18.6483C22.7924 18.6483 24.2325 19.7132 24.7685 21.2725C23.0381 22.2672 21.8644 24.1743 21.8644 26.3598V26.3598ZM23.6808 26.3598C23.6808 24.1848 25.395 22.4152 27.5022 22.4152C29.6094 22.4152 31.3236 24.1847 31.3236 26.3598C31.3236 28.535 29.6094 30.3045 27.5022 30.3045C25.395 30.3045 23.6808 28.5348 23.6808 26.3598ZM33.1372 26.4696C33.1378 26.433 33.1399 26.3966 33.1399 26.3598C33.1399 24.1743 31.9662 22.2673 30.2358 21.2726C30.7717 19.7133 32.2119 18.6484 33.8377 18.6484C35.945 18.6484 37.6595 20.4176 37.6595 22.5922C37.6595 24.7675 35.945 26.5372 33.8377 26.5372C33.6003 26.5371 33.3659 26.5136 33.1372 26.4696V26.4696Z" fill="#E81C2E"/>
<path d="M51.0223 40.5173V23.4763C53.2862 23.0353 55.0043 20.9798 55.0043 18.5167C55.0043 15.7329 52.8104 13.4683 50.1136 13.4683C48.6316 13.4683 47.3023 14.1533 46.4048 15.2316L32.1172 6.7159C32.2949 6.19352 32.3927 5.63252 32.3927 5.04814C32.3927 2.26463 30.1988 0 27.5022 0C24.8055 0 22.6116 2.26463 22.6116 5.04827C22.6116 5.63265 22.7093 6.19352 22.8871 6.71603L8.59951 15.2316C7.70196 14.1533 6.37271 13.4683 4.89063 13.4683C2.19386 13.4683 0 15.7329 0 18.5167C0 20.9798 1.71809 23.0352 3.98194 23.4763V40.5173C1.71809 40.9583 0 43.0138 0 45.4769C0 48.2607 2.19386 50.5253 4.89063 50.5253C6.3704 50.5253 7.69772 49.8424 8.59527 48.7672L22.8869 57.2844C22.7093 57.8066 22.6116 58.3675 22.6116 58.9516C22.6116 61.7354 24.8054 64 27.5022 64C30.199 64 32.3928 61.7354 32.3928 58.9516C32.3928 58.3675 32.2951 57.8066 32.1175 57.2844L46.4091 48.7672C47.3067 49.8426 48.634 50.5253 50.1138 50.5253C52.8105 50.5253 55.0044 48.2607 55.0044 45.4769C55.0043 43.0137 53.2861 40.9583 51.0223 40.5173V40.5173ZM50.1136 15.3433C51.8087 15.3433 53.1879 16.7669 53.1879 18.5167C53.1879 20.2665 51.8087 21.6901 50.1136 21.6901C48.4186 21.6901 47.0394 20.2665 47.0394 18.5167C47.0394 16.7669 48.4186 15.3433 50.1136 15.3433ZM27.5022 1.87501C29.1973 1.87501 30.5764 3.29851 30.5764 5.04827C30.5764 6.7964 29.1998 8.21891 27.5069 8.22153C27.5053 8.22153 27.5038 8.22128 27.5022 8.22128C27.5006 8.22128 27.4991 8.22153 27.4975 8.22153C25.8046 8.21891 24.428 6.7964 24.428 5.04827C24.428 3.29851 25.807 1.87501 27.5022 1.87501V1.87501ZM1.81641 18.5167C1.81641 16.7669 3.19556 15.3433 4.89063 15.3433C6.58571 15.3433 7.96485 16.7669 7.96485 18.5167C7.96485 20.2665 6.58571 21.6901 4.89063 21.6901C3.19556 21.6901 1.81641 20.2665 1.81641 18.5167ZM4.89063 48.6502C3.19556 48.6502 1.81641 47.2266 1.81641 45.4768C1.81641 43.727 3.19556 42.3034 4.89063 42.3034C6.58571 42.3034 7.96485 43.727 7.96485 45.4768C7.96485 47.2266 6.58571 48.6502 4.89063 48.6502ZM27.5022 62.1249C25.8071 62.1249 24.428 60.7012 24.428 58.9515C24.428 57.2017 25.8071 55.7781 27.5022 55.7781C29.1973 55.7781 30.5764 57.2017 30.5764 58.9515C30.5764 60.7012 29.1973 62.1249 27.5022 62.1249ZM31.2071 55.6617C30.4978 54.8117 29.52 54.2078 28.4103 53.9918V50.3801C28.4103 49.8622 28.0036 49.4426 27.5021 49.4426C27.0005 49.4426 26.5939 49.8622 26.5939 50.3801V53.9918C25.4843 54.208 24.5064 54.8117 23.7971 55.6617L9.50566 47.1447C9.68342 46.6222 9.78114 46.0613 9.78114 45.4769C9.78114 44.8921 9.68318 44.3305 9.50517 43.8077L12.5362 42.0008C12.9705 41.7418 13.1192 41.1684 12.8684 40.72C12.6177 40.2717 12.0622 40.1183 11.6277 40.377L8.59406 42.1855C7.88481 41.3363 6.90734 40.733 5.79823 40.5172V23.4765C6.9077 23.2606 7.88541 22.657 8.59466 21.8073L11.6324 23.6182C11.7754 23.7035 11.9317 23.744 12.0858 23.744C12.3996 23.744 12.7048 23.5758 12.873 23.2752C13.124 22.8268 12.9751 22.2533 12.5408 21.9945L9.50529 20.185C9.68306 19.6623 9.7809 19.1012 9.7809 18.5167C9.7809 17.9347 9.68391 17.3759 9.50747 16.8553L23.7971 8.33841C24.5063 9.18816 25.484 9.79191 26.5935 10.0079V13.6201C26.5935 14.1379 27.0001 14.5576 27.5017 14.5576C28.0033 14.5576 28.4099 14.1379 28.4099 13.6201V10.0079C29.5194 9.79191 30.4971 9.18816 31.2063 8.33841L45.496 16.8553C45.3196 17.3759 45.2225 17.9347 45.2225 18.5167C45.2225 19.1012 45.3204 19.6623 45.4981 20.185L42.4627 21.9945C42.0283 22.2533 41.8795 22.8268 42.1304 23.2752C42.2986 23.5758 42.6039 23.744 42.9176 23.744C43.0716 23.744 43.228 23.7035 43.371 23.6182L46.4088 21.8073C47.1181 22.657 48.0958 23.2606 49.2052 23.4765V40.5172C48.0961 40.733 47.1187 41.3363 46.4094 42.1855L43.3757 40.377C42.9413 40.1185 42.3859 40.2717 42.135 40.72C41.8841 41.1684 42.0329 41.7418 42.4673 42.0008L45.4983 43.8077C45.3202 44.3305 45.2223 44.8921 45.2223 45.4769C45.2223 46.0613 45.32 46.6223 45.4978 47.1447L31.2071 55.6617ZM50.1136 48.6502C48.4186 48.6502 47.0394 47.2266 47.0394 45.4768C47.0394 43.727 48.4186 42.3034 50.1136 42.3034C51.8087 42.3034 53.1879 43.727 53.1879 45.4768C53.1879 47.2266 51.8087 48.6502 50.1136 48.6502Z" fill="#E81C2E"/>
<path d="M35.1091 41.6863H32.4063C31.9047 41.6863 31.4981 42.1059 31.4981 42.6238C31.4981 43.1416 31.9047 43.5613 32.4063 43.5613H35.1091C35.6106 43.5613 36.0173 43.1416 36.0173 42.6238C36.0173 42.1059 35.6106 41.6863 35.1091 41.6863Z" fill="#E81C2E"/>
<path d="M35.109 45.3584H19.8952C19.3936 45.3584 18.987 45.778 18.987 46.2959C18.987 46.8138 19.3936 47.2334 19.8952 47.2334H35.1091C35.6107 47.2334 36.0173 46.8138 36.0173 46.2959C36.0173 45.778 35.6106 45.3584 35.109 45.3584Z" fill="#E81C2E"/>
<path d="M19.8952 43.5613H19.9078C20.4093 43.5613 20.816 43.1416 20.816 42.6238C20.816 42.1059 20.4093 41.6863 19.9078 41.6863H19.8952C19.3936 41.6863 18.987 42.1059 18.987 42.6238C18.987 43.1416 19.3936 43.5613 19.8952 43.5613Z" fill="#E81C2E"/>
<path d="M23.0535 43.5613C23.5551 43.5613 23.9618 43.1416 23.9618 42.6238C23.9618 42.1059 23.5551 41.6863 23.0535 41.6863H23.041C22.5394 41.6863 22.1328 42.1059 22.1328 42.6238C22.1328 43.1416 22.5394 43.5613 23.041 43.5613H23.0535Z" fill="#E81C2E"/>
<path d="M26.1993 43.5613C26.7009 43.5613 27.1075 43.1416 27.1075 42.6238C27.1075 42.1059 26.7009 41.6863 26.1993 41.6863H26.1867C25.6852 41.6863 25.2785 42.1059 25.2785 42.6238C25.2785 43.1416 25.6852 43.5613 26.1867 43.5613H26.1993Z" fill="#E81C2E"/>
</svg>
