<svg width="53" height="53" viewBox="0 0 53 53" fill="none" xmlns="http://www.w3.org/2000/svg">
<path d="M51.5508 37.5859C51.0947 36.7977 50.3449 36.2223 49.4655 35.9855C48.5861 35.7487 47.6488 35.87 46.8586 36.3227L38.4797 41.1609C38.0221 40.4753 37.3325 39.9779 36.5375 39.7602L23.7156 36.3312C22.7289 36.065 21.6904 36.0561 20.6992 36.3055L16.1875 37.4313V35.9531C16.1875 35.7252 16.097 35.5066 15.9358 35.3455C15.7746 35.1843 15.556 35.0938 15.3281 35.0938H8.45312C8.2252 35.0938 8.00662 35.1843 7.84546 35.3455C7.68429 35.5066 7.59375 35.7252 7.59375 35.9531V36.8125H1.57812C1.3502 36.8125 1.13162 36.903 0.970455 37.0642C0.809291 37.2254 0.71875 37.444 0.71875 37.6719V49.7031C0.71875 49.931 0.809291 50.1496 0.970455 50.3108C1.13162 50.472 1.3502 50.5625 1.57812 50.5625H7.59375V51.4219C7.59375 51.6498 7.68429 51.8684 7.84546 52.0295C8.00662 52.1907 8.2252 52.2812 8.45312 52.2812H15.3281C15.556 52.2812 15.7746 52.1907 15.9358 52.0295C16.097 51.8684 16.1875 51.6498 16.1875 51.4219V50.2359L17.2961 50.7859C18.1319 51.202 19.0523 51.4196 19.9859 51.4219H32.8508C33.9073 51.4242 34.9454 51.1454 35.8586 50.6141L50.2961 42.2781C51.0825 41.8203 51.6559 41.0699 51.8909 40.1907C52.126 39.3116 52.0037 38.3752 51.5508 37.5859ZM7.59375 48.8438H2.4375V38.5312H7.59375V48.8438ZM14.4688 50.5625H9.3125V36.8125H14.4688V50.5625ZM49.4367 40.7914L34.9992 49.1273C34.3463 49.5052 33.6051 49.7038 32.8508 49.7031H19.9859C19.3174 49.7045 18.658 49.5485 18.0609 49.2477L16.1875 48.3109V39.2016L21.1117 37.9727C21.8203 37.7935 22.5631 37.7994 23.2687 37.9898L36.0906 41.4273C36.4205 41.513 36.7173 41.6952 36.9429 41.9506C37.1686 42.2061 37.3128 42.523 37.3571 42.861C37.4014 43.1989 37.3438 43.5423 37.1917 43.8473C37.0395 44.1523 36.7998 44.4048 36.5031 44.5727C36.3094 44.6869 36.0947 44.761 35.8718 44.7905C35.6488 44.8201 35.4222 44.8044 35.2055 44.7445L24.9531 41.9945C24.732 41.9353 24.4965 41.9663 24.2982 42.0807C24.1 42.1951 23.9554 42.3836 23.8961 42.6047C23.8368 42.8258 23.8678 43.0613 23.9823 43.2596C24.0967 43.4578 24.2852 43.6025 24.5063 43.6617L34.7586 46.4031C35.0501 46.4816 35.3505 46.522 35.6523 46.5234C36.2536 46.5243 36.8441 46.3641 37.3625 46.0594C37.7553 45.835 38.0996 45.5349 38.3755 45.1764C38.6513 44.8179 38.8533 44.4082 38.9695 43.9711C39.0649 43.5922 39.0968 43.2002 39.0641 42.8109L47.718 37.818C48.1128 37.5988 48.5774 37.5417 49.0136 37.6588C49.4498 37.7758 49.8234 38.0579 50.0555 38.4453C50.2837 38.8387 50.3467 39.3064 50.2308 39.7462C50.1148 40.1859 49.8293 40.5618 49.4367 40.7914Z" fill="#E81C2E"/>
<path d="M11.8906 49.7031C12.1185 49.7031 12.3371 49.6126 12.4983 49.4514C12.6595 49.2903 12.75 49.0717 12.75 48.8438V47.9844C12.75 47.7565 12.6595 47.5379 12.4983 47.3767C12.3371 47.2155 12.1185 47.125 11.8906 47.125C11.6627 47.125 11.4441 47.2155 11.283 47.3767C11.1218 47.5379 11.0312 47.7565 11.0312 47.9844V48.8438C11.0312 49.0717 11.1218 49.2903 11.283 49.4514C11.4441 49.6126 11.6627 49.7031 11.8906 49.7031Z" fill="#E81C2E"/>
<path d="M38.5312 13.6094H35.3086L35.1539 13.2484L37.4398 10.9711C37.6008 10.8088 37.6912 10.5895 37.6912 10.3609C37.6912 10.1324 37.6008 9.91304 37.4398 9.75078L33.7961 6.10703C33.6338 5.94603 33.4145 5.85568 33.1859 5.85568C32.9574 5.85568 32.738 5.94603 32.5758 6.10703L30.2984 8.39297L29.9375 8.23828V5.01562C29.9375 4.7877 29.847 4.56912 29.6858 4.40796C29.5246 4.24679 29.306 4.15625 29.0781 4.15625H23.9219C23.694 4.15625 23.4754 4.24679 23.3142 4.40796C23.153 4.56912 23.0625 4.7877 23.0625 5.01562V8.23828L22.7016 8.39297L20.4242 6.10703C20.262 5.94603 20.0426 5.85568 19.8141 5.85568C19.5855 5.85568 19.3662 5.94603 19.2039 6.10703L15.5602 9.75078C15.3992 9.91304 15.3088 10.1324 15.3088 10.3609C15.3088 10.5895 15.3992 10.8088 15.5602 10.9711L17.8461 13.2484L17.6914 13.6094H14.4688C14.2408 13.6094 14.0222 13.6999 13.8611 13.8611C13.6999 14.0222 13.6094 14.2408 13.6094 14.4688V19.625C13.6094 19.8529 13.6999 20.0715 13.8611 20.2327C14.0222 20.3938 14.2408 20.4844 14.4688 20.4844H17.6914L17.8461 20.8453L15.5602 23.1227C15.4019 23.2865 15.3126 23.505 15.3109 23.7328C15.3143 23.9603 15.4033 24.1782 15.5602 24.343L19.2039 27.9867C19.3678 28.145 19.5862 28.2342 19.8141 28.2359C20.0416 28.2326 20.2594 28.1436 20.4242 27.9867L22.7016 25.7008L23.0625 25.8555V29.0781C23.0625 29.306 23.153 29.5246 23.3142 29.6858C23.4754 29.847 23.694 29.9375 23.9219 29.9375H29.0781C29.306 29.9375 29.5246 29.847 29.6858 29.6858C29.847 29.5246 29.9375 29.306 29.9375 29.0781V25.8555L30.2984 25.7008L32.5758 27.9867C32.742 28.1401 32.9598 28.2252 33.1859 28.2252C33.4121 28.2252 33.6299 28.1401 33.7961 27.9867L37.4398 24.343C37.5967 24.1782 37.6857 23.9603 37.6891 23.7328C37.6874 23.505 37.5981 23.2865 37.4398 23.1227L35.1539 20.8453L35.3086 20.4844H38.5312C38.7592 20.4844 38.9778 20.3938 39.1389 20.2327C39.3001 20.0715 39.3906 19.8529 39.3906 19.625V14.4688C39.3906 14.2408 39.3001 14.0222 39.1389 13.8611C38.9778 13.6999 38.7592 13.6094 38.5312 13.6094ZM37.6719 18.7656H34.6984C34.5172 18.7658 34.3407 18.8232 34.194 18.9297C34.0474 19.0362 33.9382 19.1863 33.882 19.3586C33.7492 19.7904 33.5735 20.2078 33.3578 20.6047C33.2702 20.7685 33.2371 20.956 33.2634 21.1399C33.2897 21.3239 33.3739 21.4946 33.5039 21.6273L35.618 23.7328L33.1859 26.1648L31.0805 24.0508C30.9477 23.9208 30.777 23.8365 30.5931 23.8103C30.4091 23.784 30.2216 23.8171 30.0578 23.9047C29.6609 24.1204 29.2435 24.296 28.8117 24.4289C28.6394 24.4851 28.4893 24.5943 28.3828 24.7409C28.2763 24.8875 28.2189 25.0641 28.2188 25.2453V28.2188H24.7812V25.2453C24.7811 25.0641 24.7237 24.8875 24.6172 24.7409C24.5107 24.5943 24.3606 24.4851 24.1883 24.4289C23.7565 24.296 23.3391 24.1204 22.9422 23.9047C22.7784 23.8171 22.5909 23.784 22.4069 23.8103C22.223 23.8365 22.0523 23.9208 21.9195 24.0508L19.8141 26.1648L17.382 23.7328L19.4961 21.6273C19.6261 21.4946 19.7103 21.3239 19.7366 21.1399C19.7629 20.956 19.7298 20.7685 19.6422 20.6047C19.4265 20.2078 19.2508 19.7904 19.118 19.3586C19.0618 19.1863 18.9526 19.0362 18.806 18.9297C18.6593 18.8232 18.4828 18.7658 18.3016 18.7656H15.3281V15.3281H18.3016C18.4828 15.328 18.6593 15.2706 18.806 15.1641C18.9526 15.0576 19.0618 14.9075 19.118 14.7352C19.2508 14.3034 19.4265 13.886 19.6422 13.4891C19.7298 13.3252 19.7629 13.1377 19.7366 12.9538C19.7103 12.7699 19.6261 12.5991 19.4961 12.4664L17.382 10.3609L19.8141 7.92891L21.9195 10.043C22.0523 10.173 22.223 10.2572 22.4069 10.2835C22.5909 10.3098 22.7784 10.2767 22.9422 10.1891C23.3391 9.97333 23.7565 9.79772 24.1883 9.66484C24.3606 9.60866 24.5107 9.49946 24.6172 9.35283C24.7237 9.2062 24.7811 9.02966 24.7812 8.84844V5.875H28.2188V8.84844C28.2189 9.02966 28.2763 9.2062 28.3828 9.35283C28.4893 9.49946 28.6394 9.60866 28.8117 9.66484C29.2435 9.79772 29.6609 9.97333 30.0578 10.1891C30.2216 10.2767 30.4091 10.3098 30.5931 10.2835C30.777 10.2572 30.9477 10.173 31.0805 10.043L33.1859 7.92891L35.618 10.3609L33.5039 12.4664C33.3739 12.5991 33.2897 12.7699 33.2634 12.9538C33.2371 13.1377 33.2702 13.3252 33.3578 13.4891C33.5735 13.886 33.7492 14.3034 33.882 14.7352C33.9382 14.9075 34.0474 15.0576 34.194 15.1641C34.3407 15.2706 34.5172 15.328 34.6984 15.3281H37.6719V18.7656Z" fill="#E81C2E"/>
<path d="M31.6562 17.0469C31.6562 16.0271 31.3538 15.0302 30.7873 14.1822C30.2207 13.3343 29.4154 12.6734 28.4732 12.2831C27.531 11.8929 26.4943 11.7907 25.4941 11.9897C24.4939 12.1887 23.5751 12.6797 22.854 13.4009C22.1329 14.122 21.6418 15.0407 21.4428 16.0409C21.2439 17.0412 21.346 18.0779 21.7362 19.0201C22.1265 19.9623 22.7874 20.7676 23.6353 21.3341C24.4833 21.9007 25.4802 22.2031 26.5 22.2031C27.8671 22.2018 29.1778 21.6581 30.1445 20.6914C31.1112 19.7247 31.6549 18.414 31.6562 17.0469ZM23.0625 17.0469C23.0625 16.367 23.2641 15.7024 23.6418 15.1371C24.0195 14.5718 24.5564 14.1312 25.1845 13.871C25.8126 13.6109 26.5038 13.5428 27.1706 13.6754C27.8374 13.8081 28.4499 14.1355 28.9307 14.6162C29.4114 15.0969 29.7388 15.7094 29.8714 16.3763C30.0041 17.0431 29.936 17.7342 29.6758 18.3624C29.4157 18.9905 28.9751 19.5273 28.4098 19.9051C27.8445 20.2828 27.1799 20.4844 26.5 20.4844C25.5883 20.4844 24.714 20.1222 24.0693 19.4776C23.4247 18.8329 23.0625 17.9586 23.0625 17.0469Z" fill="#E81C2E"/>
<path d="M46.2656 18.7656H44.5469C44.5469 13.9793 42.6455 9.389 39.2611 6.00456C35.8766 2.62011 31.2863 0.71875 26.5 0.71875C21.7137 0.71875 17.1234 2.62011 13.7389 6.00456C10.3545 9.389 8.45312 13.9793 8.45312 18.7656H6.73438C5.36685 18.7656 4.05534 19.3089 3.08836 20.2759C2.12137 21.2428 1.57813 22.5544 1.57812 23.9219C1.57813 25.2894 2.12137 26.6009 3.08836 27.5679C4.05534 28.5349 5.36685 29.0781 6.73438 29.0781H11.0312C11.2592 29.0781 11.4778 28.9876 11.6389 28.8264C11.8001 28.6653 11.8906 28.4467 11.8906 28.2188V19.625C11.8906 19.3971 11.8001 19.1785 11.6389 19.0173C11.4778 18.8562 11.2592 18.7656 11.0312 18.7656H10.1719C10.1719 14.4351 11.8922 10.282 14.9543 7.2199C18.0164 4.15778 22.1695 2.4375 26.5 2.4375C30.8305 2.4375 34.9836 4.15778 38.0457 7.2199C41.1078 10.282 42.8281 14.4351 42.8281 18.7656H41.9688C41.7408 18.7656 41.5222 18.8562 41.3611 19.0173C41.1999 19.1785 41.1094 19.3971 41.1094 19.625V28.2188C41.1094 28.4467 41.1999 28.6653 41.3611 28.8264C41.5222 28.9876 41.7408 29.0781 41.9688 29.0781H42.8281V31.6562C42.8281 31.8842 42.7376 32.1028 42.5764 32.2639C42.4153 32.4251 42.1967 32.5156 41.9688 32.5156H35.7984C35.6201 32.0148 35.2917 31.5812 34.8581 31.2736C34.4245 30.9661 33.9066 30.7996 33.375 30.7969H31.6562C30.9725 30.7969 30.3167 31.0685 29.8332 31.552C29.3497 32.0355 29.0781 32.6912 29.0781 33.375C29.0781 34.0588 29.3497 34.7145 29.8332 35.198C30.3167 35.6815 30.9725 35.9531 31.6562 35.9531H33.375C33.9066 35.9504 34.4245 35.7839 34.8581 35.4764C35.2917 35.1688 35.6201 34.7352 35.7984 34.2344H41.9688C42.6519 34.2323 43.3065 33.9601 43.7895 33.477C44.2726 32.994 44.5448 32.3394 44.5469 31.6562V29.0781H46.2656C47.6331 29.0781 48.9447 28.5349 49.9116 27.5679C50.8786 26.6009 51.4219 25.2894 51.4219 23.9219C51.4219 22.5544 50.8786 21.2428 49.9116 20.2759C48.9447 19.3089 47.6331 18.7656 46.2656 18.7656ZM6.73438 27.3594C5.82269 27.3594 4.94835 26.9972 4.3037 26.3526C3.65904 25.7079 3.29688 24.8336 3.29688 23.9219C3.29688 23.0102 3.65904 22.1359 4.3037 21.4912C4.94835 20.8465 5.82269 20.4844 6.73438 20.4844V27.3594ZM10.1719 27.3594H8.45312V20.4844H10.1719V27.3594ZM33.375 34.2344H31.6562C31.4283 34.2344 31.2097 34.1438 31.0486 33.9827C30.8874 33.8215 30.7969 33.6029 30.7969 33.375C30.7969 33.1471 30.8874 32.9285 31.0486 32.7673C31.2097 32.6062 31.4283 32.5156 31.6562 32.5156H33.375C33.6029 32.5156 33.8215 32.6062 33.9827 32.7673C34.1438 32.9285 34.2344 33.1471 34.2344 33.375C34.2344 33.6029 34.1438 33.8215 33.9827 33.9827C33.8215 34.1438 33.6029 34.2344 33.375 34.2344ZM44.5469 27.3594H42.8281V20.4844H44.5469V27.3594ZM46.2656 27.3594V20.4844C47.1773 20.4844 48.0516 20.8465 48.6963 21.4912C49.341 22.1359 49.7031 23.0102 49.7031 23.9219C49.7031 24.8336 49.341 25.7079 48.6963 26.3526C48.0516 26.9972 47.1773 27.3594 46.2656 27.3594Z" fill="#E81C2E"/>
</svg>
