<svg width="57" height="64" viewBox="0 0 57 64" fill="none" xmlns="http://www.w3.org/2000/svg">
<path d="M56.0981 24.5793L50.8107 24.0487C50.2497 21.7047 49.3438 19.4649 48.1261 17.4084L51.4964 13.1718C51.8274 12.7561 51.7999 12.1469 51.4336 11.7654L45.7146 5.80995C45.3483 5.42847 44.7632 5.40038 44.364 5.74458L40.2924 9.25496C38.314 7.99614 36.1655 7.05344 33.9183 6.4585L33.4082 0.945259C33.3587 0.40905 32.9257 0 32.4082 0H24.5922C24.0748 0 23.6423 0.40905 23.5927 0.945259L23.0822 6.4585C20.835 7.05293 18.6865 7.99614 16.7081 9.25496L12.6365 5.74356C12.2378 5.39936 11.6527 5.42745 11.2858 5.80892L5.56691 11.7649C5.20056 12.1469 5.17309 12.7561 5.50413 13.1718L8.8734 17.4079C7.65468 19.4644 6.74836 21.7047 6.18682 24.0492L0.902411 24.5803C0.388439 24.6324 -0.00243575 25.0833 1.65051e-05 25.6211V34.0635C-0.00292615 34.6008 0.387948 35.0522 0.901921 35.1043L6.1927 35.6354C6.76307 37.9748 7.66792 40.2126 8.87634 42.2726L5.50364 46.5117C5.15789 46.9463 5.20546 47.5882 5.61154 47.9626L9.94941 51.9576C10.1637 52.1552 10.4492 52.2481 10.7341 52.2129C11.0186 52.1772 11.275 52.0168 11.4389 51.7722L17.6732 42.4575C17.9513 42.0418 17.9032 41.478 17.559 41.1195C11.5776 34.8913 11.5772 24.7927 17.559 18.564C23.5408 12.3353 33.239 12.3353 39.2208 18.564C45.2026 24.7927 45.2026 34.8913 39.2208 41.1195C38.8721 41.4826 38.828 42.0551 39.1164 42.4713L45.57 51.7855C45.7357 52.025 45.9913 52.1802 46.2733 52.2129C46.5553 52.2456 46.8372 52.1526 47.0496 51.9571L51.3889 47.9636C51.795 47.5898 51.8431 46.9473 51.4968 46.5122L48.1251 42.2726C49.334 40.2126 50.2394 37.9753 50.8102 35.6354L56.0981 35.1043C56.612 35.0522 57.0029 34.6008 57 34.0635V25.62C57.0024 25.0828 56.612 24.6314 56.0981 24.5793ZM54.9912 33.1132L49.8971 33.6249C49.4645 33.6683 49.1084 33.9977 49.0157 34.4399C48.4621 37.0551 47.4552 39.5431 46.0452 41.7829C45.8039 42.1669 45.8314 42.6699 46.1124 43.0228L49.3296 47.0668L46.5503 49.6253L41.2331 41.9509C47.39 34.8786 47.1928 23.9067 40.6411 17.0846C33.8859 10.0506 22.8939 10.0506 16.1387 17.0846C9.58355 23.9103 9.38983 34.8903 15.556 41.9616L10.4354 49.6125L7.67037 47.0663L10.8871 43.0223C11.1681 42.6684 11.1951 42.1659 10.9538 41.7819C9.54333 39.5426 8.53598 37.0546 7.98082 34.4399C7.8896 33.9982 7.53452 33.6688 7.10294 33.6249L2.00883 33.1132V26.5709L7.10294 26.0587C7.53747 26.0148 7.8945 25.6834 7.98523 25.2386C8.52569 22.6229 9.53254 20.1364 10.9528 17.9068C11.1971 17.5223 11.1706 17.0167 10.8881 16.6618L7.63408 12.5708L12.0597 7.96193L15.9886 11.3497C16.328 11.6429 16.811 11.671 17.1794 11.4192C19.3299 9.95049 21.7193 8.90157 24.2303 8.324C24.6555 8.22595 24.9713 7.85418 25.013 7.40325L25.5044 2.09223H31.496L31.988 7.40325C32.0296 7.85418 32.3455 8.22595 32.7702 8.324C35.2817 8.90157 37.6711 9.95101 39.8216 11.4197C40.1899 11.6715 40.673 11.6434 41.0124 11.3503L44.9408 7.96244L49.3664 12.5708L46.1129 16.6618C45.8309 17.0167 45.8049 17.5223 46.0491 17.9063C47.4699 20.1359 48.4768 22.6229 49.0177 25.2386C49.107 25.6828 49.463 26.0148 49.8966 26.0587L54.9912 26.5704V33.1132Z" fill="#E81C2E"/>
<path d="M32.0027 48.2472V32.3667C34.5343 30.8444 36.1963 27.9545 36.1963 24.9763C36.1963 20.9067 33.9614 17.9428 30.218 17.0486C29.9061 16.974 29.5794 17.0583 29.3372 17.2753C29.0954 17.4928 28.9669 17.8171 28.9914 18.1491L29.3234 22.5873C28.4848 23.0454 27.4843 23.0459 26.6452 22.5884L27.0022 18.1256C27.0297 17.7824 26.8933 17.4474 26.6373 17.2293C26.3813 17.0113 26.039 16.9383 25.7217 17.0343C22.298 18.0668 20.1651 21.1329 20.1651 25.037C20.1651 28.6204 21.9709 31.519 24.9841 32.7753V48.5944C22.8497 49.9063 20.7933 52.5685 20.8257 55.9558C20.8257 59.9922 23.0356 62.976 26.7305 63.9386C27.0444 64.0204 27.3764 63.9402 27.6236 63.7231C27.8708 63.5061 28.0027 63.1788 27.9782 62.8433L27.6476 58.4055C28.4858 57.9474 29.4867 57.9469 30.3259 58.404L29.9688 62.8673C29.9414 63.2104 30.0777 63.5454 30.3337 63.7635C30.5897 63.9815 30.932 64.0546 31.2494 63.9586C34.6564 62.9306 36.7937 59.8798 36.828 55.9854C36.8285 52.4015 34.9992 49.5034 32.0027 48.2472ZM32.1101 61.301L32.3773 57.9566C32.4058 57.6007 32.2582 57.2544 31.9855 57.0379L31.9477 57.0078C30.1792 55.6101 27.729 55.6269 25.9787 57.0486C25.7158 57.2646 25.5736 57.6032 25.5996 57.951L25.8561 61.3914C23.9223 60.3879 22.8409 58.4709 22.8409 55.9456C22.8149 53.1941 24.6756 51.0252 26.421 50.1734C26.7727 50.0008 26.9958 49.6311 26.9934 49.2261V32.0343C26.9958 31.5742 26.708 31.1672 26.2852 31.0329C23.7492 30.2357 22.1773 27.9382 22.1773 25.036C22.1773 22.6987 23.1759 20.7663 24.8595 19.6908L24.5932 23.0352C24.5648 23.3916 24.7129 23.7384 24.9865 23.9544L25.0238 23.984C26.7899 25.3812 29.2376 25.3664 30.9875 23.9483C30.9963 23.9411 31.0061 23.933 31.0144 23.9258C31.2646 23.7088 31.398 23.3789 31.3729 23.0408L31.113 19.5636C33.0855 20.5263 34.1885 22.4346 34.1885 24.9768C34.1885 27.3463 32.7 29.7373 30.5686 30.7913C30.2185 30.9644 29.9953 31.3321 29.9953 31.7361V48.9876C29.9953 49.4488 30.2857 49.8553 30.7094 49.9886C33.2459 50.7862 34.8207 53.0838 34.8207 55.9762C34.7991 58.3034 33.7922 60.2291 32.1105 61.301H32.1101Z" fill="#E81C2E"/>
</svg>
