<svg width="55" height="55" viewBox="0 0 55 55" fill="none" xmlns="http://www.w3.org/2000/svg">
<path d="M52.9896 24.145C51.8529 23.0083 50.4634 22.5692 49.4979 22.4009C48.3977 22.2086 47.316 22.7881 46.8672 23.809L42.8099 33.0387C42.3455 34.0951 42.6968 35.3393 43.6451 35.9972L45.7564 37.4616C45.3188 38.2676 44.2733 39.9085 42.0882 42.0937C39.9225 44.2594 38.2661 45.3155 37.4543 45.7592L35.9917 43.6506C35.334 42.7023 34.0896 42.3512 33.0332 42.8155L30.7178 43.8334C30.3105 44.0125 30.1254 44.4878 30.3045 44.8951C30.4836 45.3025 30.959 45.4877 31.3662 45.3085L33.6816 44.2907C34.0339 44.1359 34.4486 44.253 34.6679 44.569L36.524 47.245C36.7344 47.5486 37.1244 47.6701 37.4698 47.5399C37.5649 47.5041 39.8362 46.6247 43.2277 43.2333C46.6192 39.8419 47.4986 37.5704 47.5343 37.4753C47.6644 37.1298 47.5429 36.74 47.2395 36.5295L44.5635 34.6735C44.2474 34.4541 44.1303 34.0394 44.2851 33.6873L48.3423 24.4577C48.4921 24.1173 48.8535 23.9243 49.2213 23.9885C49.9577 24.1169 51.0117 24.4459 51.8504 25.2846C53.456 26.8902 53.8204 30.0763 52.8255 33.8075C51.7192 37.9558 49.1789 42.1716 45.6726 45.678C42.1662 49.1844 37.9504 51.7248 33.802 52.831C30.0709 53.8258 26.8847 53.4613 25.2792 51.8558C24.4404 51.0171 24.1113 49.9632 23.9831 49.2268C23.9189 48.8589 24.1119 48.4974 24.4523 48.3478L28.458 46.587C28.8653 46.4079 29.0504 45.9326 28.8713 45.5252C28.6924 45.1179 28.2172 44.9328 27.8096 45.1119L23.8039 46.8727C22.7831 47.3215 22.204 48.4033 22.3959 49.5035C22.4008 49.5319 22.4068 49.562 22.4123 49.5912C20.4274 49.1373 18.522 48.4189 16.726 47.4466C17.2961 46.4591 17.6241 45.3151 17.6241 44.0953C17.6241 42.3363 16.9494 40.6728 15.7242 39.4112C14.502 38.1528 12.8644 37.4292 11.1131 37.3738C10.7356 37.3603 10.3998 37.6142 10.3068 37.9806C10.2137 38.347 10.3879 38.7289 10.7256 38.8987C11.9992 39.5394 12.7903 40.8214 12.7903 42.2445C12.7903 44.3087 11.111 45.9881 9.0466 45.9881C7.62341 45.9881 6.34138 45.197 5.70085 43.9234C5.53091 43.5857 5.14915 43.4116 4.78275 43.5046C4.41634 43.5977 4.16402 43.9331 4.17594 44.3109C4.23137 46.0622 4.95494 47.6998 6.21345 48.922C7.47496 50.1472 9.13844 50.8219 10.8974 50.8219C12.8017 50.8219 14.5224 50.0252 15.7473 48.7492C18.012 50.0041 20.4427 50.8792 22.9855 51.3563C23.2538 51.9125 23.6247 52.4797 24.14 52.995C25.4648 54.3198 27.4702 54.9998 29.902 54.9997C31.2275 54.9997 32.6802 54.7976 34.2173 54.3877C38.6354 53.2095 43.1083 50.5208 46.8121 46.8171C50.5158 43.1134 53.2044 38.6404 54.3827 34.2223C55.5442 29.8651 55.0365 26.192 52.9896 24.145ZM10.897 49.2106C9.17431 49.2106 7.65682 48.3747 6.73131 47.0777C7.43898 47.4158 8.22614 47.5994 9.04616 47.5994C11.9989 47.5994 14.4012 45.1972 14.4012 42.2445C14.4012 41.4245 14.2177 40.6373 13.8794 39.9295C15.1766 40.855 16.0124 42.3726 16.0124 44.0952C16.0124 46.9159 13.7177 49.2106 10.897 49.2106Z" fill="white"/>
<path d="M10.1016 44.0651C10.2946 44.0651 10.4883 43.9961 10.6424 43.8563C10.9721 43.5575 10.997 43.048 10.6982 42.7183C6.91311 38.5438 4.82855 33.1389 4.82855 27.4991C4.82855 15.0015 14.9961 4.83393 27.4937 4.83393C29.0322 4.83393 30.5692 4.98882 32.0624 5.29443C32.4981 5.3838 32.924 5.10258 33.0132 4.66668C33.1025 4.23077 32.8213 3.80508 32.3854 3.71592C30.7863 3.38862 29.1405 3.22266 27.4937 3.22266C21.0092 3.22266 14.9128 5.74784 10.3277 10.3331C5.74257 14.9183 3.21729 21.0146 3.21729 27.4991C3.21729 33.5398 5.45007 39.3292 9.50446 43.8006C9.66354 43.9761 9.88214 44.0651 10.1016 44.0651Z" fill="white"/>
<path d="M34.8288 39.4462C34.9343 39.4926 35.0443 39.5145 35.1526 39.5145C35.4624 39.5145 35.7579 39.3347 35.8906 39.0328L41.4434 26.4008C41.553 26.1517 41.5293 25.8642 41.3806 25.6362C41.2319 25.4083 40.9781 25.271 40.706 25.271H33.7568C33.3119 25.271 32.9512 25.6317 32.9512 26.0766C32.9512 26.5216 33.3119 26.8823 33.7568 26.8823H39.4719L34.4157 38.3845C34.2364 38.7918 34.4215 39.2671 34.8288 39.4462Z" fill="white"/>
<path d="M24.2787 39.4463C24.3842 39.4927 24.4942 39.5146 24.6025 39.5146C24.9123 39.5146 25.2078 39.3348 25.3405 39.0329L34.8074 17.4971C34.9865 17.0898 34.8014 16.6145 34.3941 16.4354C33.9868 16.2566 33.5114 16.4414 33.3324 16.8488L23.8654 38.3845C23.6864 38.7919 23.8714 39.2672 24.2787 39.4463Z" fill="white"/>
<path d="M24.5875 30.6102H24.5945C25.0361 30.6102 25.3962 30.2541 25.4 29.8115C25.4029 29.471 25.4125 28.3301 25.4228 26.882H26.2377C26.6826 26.882 27.0433 26.5213 27.0433 26.0763C27.0433 25.6314 26.6826 25.2707 26.2377 25.2707H25.4336C25.4532 22.1174 25.467 18.4397 25.4289 17.9812C25.366 17.2264 24.9305 16.6164 24.3197 16.4272C24.0332 16.3386 23.2892 16.2267 22.5739 17.1042C21.8557 17.9855 18.0335 24.9015 17.6 25.6872C17.4623 25.9367 17.4667 26.2405 17.6116 26.4859C17.7565 26.7314 18.0203 26.882 18.3053 26.882H23.8116C23.8044 27.9029 23.7965 28.8988 23.7888 29.7976C23.7849 30.2426 24.1425 30.6065 24.5875 30.6102ZM19.6727 25.2708C21.2791 22.3829 23.4112 18.6271 23.8226 18.1222C23.823 18.1219 23.8232 18.1216 23.8235 18.1212C23.8534 18.5158 23.8436 21.8186 23.8222 25.2708H19.6727Z" fill="white"/>
<path d="M14.7899 23.0506C10.8683 28.6536 10.3335 29.364 10.314 29.3898C10.1279 29.6329 10.0956 29.9604 10.2307 30.2352C10.3658 30.5098 10.645 30.6843 10.9512 30.6851L17.3882 30.7049H17.3907C17.8344 30.7049 18.1949 30.3458 18.1963 29.9017C18.1977 29.4568 17.8381 29.095 17.3931 29.0936L12.52 29.0787C13.1725 28.1595 14.2713 26.6014 16.1098 23.9744C16.8709 22.887 17.3647 21.8702 17.5776 20.9522C17.5837 20.9258 17.5885 20.8991 17.5919 20.8723L17.6543 20.3836C17.6587 20.3498 17.6608 20.3158 17.6608 20.2816C17.6608 18.055 15.8494 16.2437 13.6229 16.2437C11.6976 16.2437 10.0312 17.6131 9.66075 19.4998C9.57503 19.9364 9.85948 20.3598 10.296 20.4456C10.7327 20.5311 11.1561 20.2469 11.2418 19.8104C11.4644 18.6773 12.4658 17.8549 13.623 17.8549C14.9452 17.8549 16.0237 18.9178 16.0491 20.2339L15.9991 20.6259C15.8275 21.3335 15.4208 22.1491 14.7899 23.0506Z" fill="white"/>
<path d="M33.993 11.7082H37.4132C37.781 14.7743 40.2183 17.2116 43.2844 17.5794V20.9996C43.2844 21.4445 43.6451 21.8052 44.09 21.8052C44.5349 21.8052 44.8956 21.4445 44.8956 20.9996V17.5794C45.5395 17.5021 46.156 17.3349 46.7312 17.0884L48.4408 20.0496C48.5901 20.308 48.8609 20.4525 49.1393 20.4525C49.2759 20.4525 49.4145 20.4177 49.5413 20.3444C49.9267 20.122 50.0587 19.6292 49.8362 19.2439L48.1254 16.2807C48.6336 15.8985 49.0859 15.4461 49.4682 14.9379L52.4314 16.6487C52.5583 16.722 52.6969 16.7568 52.8335 16.7568C53.1119 16.7568 53.3827 16.6122 53.5319 16.3538C53.7544 15.9685 53.6224 15.4758 53.2371 15.2533L50.2758 13.5437C50.5223 12.9686 50.6895 12.3521 50.7668 11.7082H54.187C54.6319 11.7082 54.9926 11.3475 54.9926 10.9026C54.9926 10.4577 54.6319 10.097 54.187 10.097H50.7668C50.6895 9.4531 50.5223 8.83663 50.2758 8.26151L53.2371 6.55185C53.6224 6.32939 53.7544 5.83666 53.5319 5.45135C53.3095 5.06594 52.8166 4.93403 52.4314 5.15649L49.4682 6.86723C49.086 6.35904 48.6336 5.9067 48.1254 5.5244L49.8362 2.56117C50.0587 2.17586 49.9267 1.68313 49.5413 1.46067C49.156 1.23821 48.6633 1.37022 48.4408 1.75553L46.7312 4.71683C46.1561 4.47031 45.5396 4.30306 44.8957 4.22582V0.805635C44.8957 0.360709 44.535 0 44.0901 0C43.6452 0 43.2845 0.360709 43.2845 0.805635V4.22582C42.6406 4.30306 42.0241 4.47031 41.449 4.71683L39.7394 1.75553C39.5169 1.37012 39.0242 1.23821 38.6389 1.46067C38.2535 1.68313 38.1215 2.17586 38.344 2.56117L40.0548 5.5244C39.5466 5.90659 39.0942 6.35904 38.712 6.86723L35.7488 5.15638C35.3634 4.93381 34.8706 5.06594 34.6483 5.45125C34.4258 5.83655 34.5578 6.32928 34.9431 6.55174L37.9043 8.26141C37.6578 8.83652 37.4906 9.4531 37.4133 10.097H33.9931C33.5482 10.097 33.1875 10.4577 33.1875 10.9026C33.1875 11.3475 33.5481 11.7082 33.993 11.7082ZM38.9745 10.9026C38.9745 8.08191 41.2693 5.78714 44.09 5.78714C46.9107 5.78714 49.2055 8.08191 49.2055 10.9026C49.2055 13.7233 46.9107 16.0181 44.09 16.0181C41.2693 16.0181 38.9745 13.7233 38.9745 10.9026Z" fill="white"/>
<path d="M4.83381 39.4808C4.83381 39.0359 4.4731 38.6752 4.02817 38.6752H3.22254V37.3325C3.22254 36.8876 2.86183 36.5269 2.4169 36.5269C1.97198 36.5269 1.61127 36.8876 1.61127 37.3325V38.6752H0.805635C0.360709 38.6752 0 39.0359 0 39.4808C0 39.9258 0.360709 40.2865 0.805635 40.2865H1.61127V41.6292C1.61127 42.0741 1.97198 42.4348 2.4169 42.4348C2.86183 42.4348 3.22254 42.0741 3.22254 41.6292V40.2865H4.02817C4.4731 40.2865 4.83381 39.9258 4.83381 39.4808Z" fill="white"/>
<path d="M17.3761 51.9736H17.122V51.3662C17.122 50.9213 16.7613 50.5605 16.3163 50.5605C15.8714 50.5605 15.5107 50.9213 15.5107 51.3662V51.9736H15.2566C14.8116 51.9736 14.4509 52.3343 14.4509 52.7793C14.4509 53.2242 14.8116 53.5849 15.2566 53.5849H15.5107V54.1923C15.5107 54.6373 15.8714 54.998 16.3163 54.998C16.7613 54.998 17.122 54.6373 17.122 54.1923V53.5849H17.3761C17.8211 53.5849 18.1818 53.2242 18.1818 52.7793C18.1818 52.3343 17.8211 51.9736 17.3761 51.9736Z" fill="white"/>
</svg>
