<svg width="55" height="55" viewBox="0 0 55 55" fill="none" xmlns="http://www.w3.org/2000/svg">
<path d="M29.3334 45.8333C30.6025 45.8333 31.8431 45.457 32.8983 44.7519C33.9535 44.0469 34.776 43.0447 35.2616 41.8722C35.7473 40.6997 35.8744 39.4096 35.6268 38.1648C35.3792 36.9201 34.7681 35.7768 33.8707 34.8794C32.9733 33.982 31.83 33.3709 30.5852 33.1233C29.3405 32.8757 28.0504 33.0028 26.8779 33.4884C25.7054 33.9741 24.7032 34.7965 23.9982 35.8518C23.2931 36.907 22.9167 38.1476 22.9167 39.4167C22.9187 41.1179 23.5953 42.7489 24.7983 43.9518C26.0012 45.1548 27.6322 45.8314 29.3334 45.8333ZM29.3334 34.8333C30.2399 34.8333 31.1261 35.1021 31.8798 35.6058C32.6335 36.1094 33.221 36.8252 33.5679 37.6627C33.9148 38.5002 34.0055 39.4218 33.8287 40.3108C33.6518 41.1999 33.2153 42.0166 32.5743 42.6576C31.9333 43.2986 31.1167 43.7351 30.2276 43.9119C29.3385 44.0888 28.4169 43.998 27.5794 43.6511C26.742 43.3042 26.0261 42.7168 25.5225 41.963C25.0189 41.2093 24.7501 40.3232 24.7501 39.4167C24.7515 38.2015 25.2348 37.0365 26.094 36.1773C26.9533 35.3181 28.1183 34.8347 29.3334 34.8333Z" fill="white"/>
<path d="M42.0902 42.7451L44.2139 42.2359C44.4141 42.1879 44.5924 42.0738 44.7199 41.9121C44.8475 41.7504 44.9168 41.5504 44.9168 41.3445V37.4892C44.9168 37.2832 44.8475 37.0833 44.72 36.9216C44.5924 36.7598 44.4142 36.6458 44.2139 36.5978L42.0903 36.0887C41.7479 36.0066 41.4298 35.8446 41.1621 35.616C40.8943 35.3874 40.6845 35.0987 40.5497 34.7735C40.4149 34.4482 40.359 34.0957 40.3866 33.7447C40.4142 33.3937 40.5245 33.0543 40.7085 32.7541L41.857 30.8798C41.9645 30.7043 42.0099 30.4976 41.9857 30.2931C41.9615 30.0886 41.8692 29.8983 41.7236 29.7527L38.9975 27.0268C38.8519 26.8813 38.6616 26.789 38.4571 26.7648C38.2527 26.7406 38.0461 26.7859 37.8705 26.8935L35.9962 28.042C35.696 28.2259 35.3566 28.3362 35.0056 28.3637C34.6547 28.3913 34.3021 28.3354 33.9769 28.2006C33.6517 28.0659 33.363 27.856 33.1344 27.5883C32.9058 27.3205 32.7439 27.0025 32.6618 26.6602L32.1525 24.5364C32.1045 24.3362 31.9905 24.1579 31.8287 24.0304C31.667 23.9029 31.4671 23.8335 31.2611 23.8335H27.4058C27.1999 23.8335 26.9999 23.9028 26.8382 24.0304C26.6765 24.1579 26.5624 24.3362 26.5144 24.5364L26.0053 26.66C25.9232 27.0024 25.7613 27.3205 25.5327 27.5882C25.3041 27.856 25.0154 28.0658 24.6901 28.2006C24.3649 28.3354 24.0124 28.3913 23.6614 28.3637C23.3104 28.3361 22.9709 28.2258 22.6708 28.0419L20.7965 26.8933L19.8386 28.4566L21.7128 29.6051C22.2597 29.9402 22.8782 30.1411 23.5176 30.1914C24.1571 30.2417 24.7993 30.1399 25.3919 29.8943C25.9845 29.6488 26.5105 29.2665 26.9269 28.7786C27.3434 28.2908 27.6385 27.7113 27.7881 27.0876L28.1287 25.6668H30.5383L30.879 27.0876C31.0286 27.7113 31.3236 28.2908 31.7401 28.7786C32.1565 29.2664 32.6825 29.6488 33.2751 29.8943C33.8676 30.1399 34.5098 30.2417 35.1493 30.1914C35.7887 30.1412 36.4072 29.9403 36.9541 29.6052L38.2122 28.8342L39.9162 30.5381L39.1452 31.7961C38.8101 32.343 38.6092 32.9615 38.5589 33.601C38.5086 34.2404 38.6104 34.8827 38.856 35.4752C39.1015 36.0678 39.4839 36.5938 39.9717 37.0103C40.4595 37.4268 41.039 37.7218 41.6627 37.8714L43.0835 38.212V40.6216L41.6627 40.9624C41.039 41.1119 40.4595 41.407 39.9717 41.8234C39.4839 42.2399 39.1016 42.7659 38.856 43.3584C38.6104 43.9509 38.5086 44.5932 38.5589 45.2326C38.6091 45.872 38.81 46.4905 39.1451 47.0374L39.9161 48.2956L38.2122 49.9996L36.9542 49.2286C36.4073 48.8935 35.7888 48.6925 35.1494 48.6423C34.5099 48.592 33.8676 48.6938 33.2751 48.9393C32.6825 49.1849 32.1565 49.5672 31.74 50.055C31.3236 50.5428 31.0285 51.1223 30.8789 51.7461L30.5383 53.1668H28.1287L27.788 51.7461C27.6384 51.1223 27.3433 50.5429 26.9269 50.055C26.5105 49.5672 25.9845 49.1849 25.3919 48.9393C24.7994 48.6938 24.1571 48.592 23.5177 48.6422C22.8783 48.6925 22.2598 48.8934 21.7129 49.2285L19.8386 50.377L20.7965 51.9402L22.6708 50.7917C22.9709 50.6078 23.3104 50.4975 23.6614 50.4699C24.0123 50.4423 24.3648 50.4982 24.6901 50.633C25.0153 50.7678 25.304 50.9776 25.5326 51.2454C25.7611 51.5131 25.9231 51.8312 26.0052 52.1735L26.5144 54.2972C26.5624 54.4975 26.6765 54.6758 26.8382 54.8033C26.9999 54.9308 27.1999 55.0002 27.4058 55.0002H31.2611C31.4671 55.0002 31.667 54.9308 31.8288 54.8033C31.9905 54.6758 32.1045 54.4975 32.1525 54.2972L32.6617 52.1736C32.7437 51.8313 32.9057 51.5132 33.1343 51.2454C33.3629 50.9777 33.6516 50.7678 33.9768 50.633C34.3021 50.4983 34.6546 50.4424 35.0056 50.47C35.3566 50.4976 35.696 50.6079 35.9962 50.7918L37.8705 51.9403C38.0461 52.0479 38.2527 52.0932 38.4572 52.069C38.6617 52.0448 38.852 51.9525 38.9977 51.8069L41.7235 49.081C41.8691 48.9354 41.9614 48.745 41.9856 48.5405C42.0098 48.3361 41.9644 48.1294 41.8569 47.9538L40.7083 46.0796C40.5244 45.7794 40.4142 45.4399 40.3866 45.089C40.359 44.738 40.4149 44.3855 40.5497 44.0603C40.6844 43.735 40.8943 43.4463 41.162 43.2178C41.4298 42.9892 41.7478 42.8272 42.0902 42.7451V42.7451Z" fill="white"/>
<path d="M54.0834 25.6665H50.4167V21.0832C50.4167 20.8401 50.3202 20.6069 50.1482 20.435C49.9763 20.2631 49.7432 20.1665 49.5001 20.1665H45.8334C45.5903 20.1665 45.3572 20.2631 45.1852 20.435C45.0133 20.6069 44.9168 20.8401 44.9167 21.0832V25.6665H42.1667V27.4998H53.1667V31.1665H43.0834V32.9998H53.1667V36.6665H46.7501V38.4998H53.1667V42.1665H46.7501V43.9998H53.1667V47.6665H44.0001V49.4998H44.9167V54.0832C44.9168 54.3263 45.0133 54.5594 45.1852 54.7313C45.3572 54.9032 45.5903 54.9998 45.8334 54.9998H49.5001C49.7432 54.9998 49.9763 54.9032 50.1482 54.7313C50.3202 54.5594 50.4167 54.3263 50.4167 54.0832V49.4998H54.0834C54.3265 49.4998 54.5597 49.4032 54.7316 49.2313C54.9035 49.0594 55.0001 48.8263 55.0001 48.5832V26.5832C55.0001 26.3401 54.9035 26.1069 54.7316 25.935C54.5597 25.7631 54.3265 25.6665 54.0834 25.6665ZM48.5834 25.6665H46.7501V21.9998H48.5834V25.6665ZM48.5834 53.1665H46.7501V49.4998H48.5834V53.1665Z" fill="white"/>
<path d="M14.0114 26.3218L13.4886 28.079C15.5689 28.6978 16.5 29.615 16.5 30.2496C16.5 30.8189 15.7827 31.4915 14.6281 32.0046C13.1845 32.6462 11.2448 32.9996 9.16667 32.9996C4.69008 32.9996 1.83333 31.3708 1.83333 30.2496C1.83333 29.615 2.76444 28.6978 4.84473 28.079L4.32194 26.3218C1.5753 27.1389 0 28.5705 0 30.2496V50.6782C0 51.9832 1.05945 53.1391 2.98331 53.933C4.64991 54.6208 6.8458 54.9996 9.16667 54.9996C11.4875 54.9996 13.6834 54.6208 15.35 53.933C17.2739 53.1391 18.3333 51.9832 18.3333 50.6782V30.2496C18.3333 28.5705 16.758 27.1389 14.0114 26.3218ZM3.66667 52.2315C2.55253 51.7686 1.83333 51.16 1.83333 50.6782V48.649C2.40713 49.0197 3.02245 49.3217 3.66667 49.5489V52.2315ZM8.25 53.1439C7.32517 53.1041 6.40529 52.987 5.5 52.7938V50.0611C6.40646 50.2445 7.32598 50.3563 8.25 50.3952V53.1439ZM12.8333 52.7938C11.928 52.987 11.0082 53.1041 10.0833 53.1439V50.3952C11.0074 50.3563 11.9269 50.2445 12.8333 50.0611V52.7938ZM16.5 50.6782C16.5 51.16 15.7808 51.7686 14.6667 52.2315V49.5489C15.3109 49.3217 15.9262 49.0197 16.5 48.649V50.6782ZM16.5 45.8329C16.5 46.4023 15.7827 47.0748 14.6281 47.588C13.1845 48.2296 11.2448 48.5829 9.16667 48.5829C4.69008 48.5829 1.83333 46.9542 1.83333 45.8329V33.0657C3.47834 34.1541 6.10061 34.8329 9.16667 34.8329C12.2327 34.8329 14.855 34.1541 16.5 33.0657V45.8329Z" fill="white"/>
<path d="M5.50008 35.75H3.66675V45.8333H5.50008V35.75Z" fill="white"/>
<path d="M10.0833 36.6665H8.25V46.7498H10.0833V36.6665Z" fill="white"/>
<path d="M14.6666 35.75H12.8333V45.8333H14.6666V35.75Z" fill="white"/>
<path d="M8.25008 22.9165C8.25008 22.6734 8.34666 22.4402 8.51857 22.2683C8.69048 22.0964 8.92363 21.9998 9.16675 21.9998C9.40986 21.9998 9.64302 22.0964 9.81493 22.2683C9.98684 22.4402 10.0834 22.6734 10.0834 22.9165V30.2498H11.9167V22.9165C11.9167 22.1872 11.627 21.4877 11.1113 20.972C10.5956 20.4562 9.89609 20.1665 9.16675 20.1665C8.4374 20.1665 7.73793 20.4562 7.2222 20.972C6.70648 21.4877 6.41675 22.1872 6.41675 22.9165V30.2498H8.25008V22.9165Z" fill="white"/>
<path d="M11 18.3333H24.2917L26.7666 21.6333C26.852 21.7472 26.9627 21.8396 27.09 21.9032C27.2173 21.9669 27.3577 22 27.5 22C27.6423 22 27.7827 21.9669 27.91 21.9032C28.0373 21.8396 28.148 21.7472 28.2334 21.6333L30.7083 18.3333H44C44.7291 18.3325 45.4281 18.0425 45.9436 17.527C46.4592 17.0114 46.7492 16.3124 46.75 15.5833V2.75C46.7492 2.02091 46.4592 1.32192 45.9436 0.806377C45.4281 0.290833 44.7291 0.000833982 44 0H11C10.2709 0.000833982 9.57192 0.290833 9.05638 0.806377C8.54083 1.32192 8.25083 2.02091 8.25 2.75V15.5833C8.25083 16.3124 8.54083 17.0114 9.05638 17.527C9.57192 18.0425 10.2709 18.3325 11 18.3333ZM10.0833 2.75C10.0836 2.50697 10.1803 2.27397 10.3521 2.10213C10.524 1.93028 10.757 1.83361 11 1.83333H44C44.243 1.83361 44.476 1.93028 44.6479 2.10213C44.8197 2.27397 44.9164 2.50697 44.9167 2.75V15.5833C44.9164 15.8264 44.8197 16.0594 44.6479 16.2312C44.476 16.4031 44.243 16.4997 44 16.5H30.25C30.1077 16.5 29.9673 16.5331 29.84 16.5968C29.7127 16.6604 29.602 16.7528 29.5166 16.8667L27.5 19.5556L25.4834 16.8667C25.398 16.7528 25.2873 16.6604 25.16 16.5968C25.0327 16.5331 24.8923 16.5 24.75 16.5H11C10.757 16.4997 10.524 16.4031 10.3521 16.2312C10.1803 16.0594 10.0836 15.8264 10.0833 15.5833V2.75Z" fill="white"/>
<path d="M18.3333 14.6665H21.9999C23.4586 14.6665 24.8576 14.087 25.889 13.0556C26.9205 12.0241 27.4999 10.6252 27.4999 9.1665C27.4999 7.70781 26.9205 6.30887 25.889 5.27742C24.8576 4.24597 23.4586 3.6665 21.9999 3.6665H18.3333C16.8746 3.6665 15.4756 4.24597 14.4442 5.27742C13.4127 6.30887 12.8333 7.70781 12.8333 9.1665C12.8333 10.6252 13.4127 12.0241 14.4442 13.0556C15.4756 14.087 16.8746 14.6665 18.3333 14.6665ZM25.5505 8.24984H23.7554C23.5844 7.23897 23.1334 6.29631 22.4535 5.5289C23.1826 5.62091 23.8673 5.92932 24.4194 6.41433C24.9714 6.89934 25.3654 7.53869 25.5505 8.24984ZM23.7554 10.0832H25.5505C25.3654 10.7943 24.9714 11.4337 24.4194 11.9187C23.8673 12.4037 23.1826 12.7121 22.4535 12.8041C23.1334 12.0367 23.5844 11.094 23.7554 10.0832ZM18.3333 5.49984C19.0585 5.49984 19.7674 5.71488 20.3703 6.11778C20.9733 6.52068 21.4433 7.09334 21.7208 7.76333C21.9983 8.43333 22.0709 9.17057 21.9295 9.88183C21.788 10.5931 21.4388 11.2464 20.926 11.7592C20.4132 12.272 19.7598 12.6212 19.0486 12.7627C18.3373 12.9042 17.6001 12.8316 16.9301 12.5541C16.2601 12.2765 15.6874 11.8066 15.2845 11.2036C14.8816 10.6006 14.6666 9.8917 14.6666 9.1665C14.6677 8.19439 15.0544 7.2624 15.7418 6.57501C16.4291 5.88761 17.3611 5.50095 18.3333 5.49984Z" fill="white"/>
<path d="M34.8335 9.54617L36.0186 10.7314C36.1906 10.9032 36.4238 10.9998 36.6669 10.9998C36.91 10.9998 37.1431 10.9032 37.3151 10.7314L41.2502 6.79628V9.1665H43.0835V4.58317C43.0835 4.34006 42.9869 4.10691 42.815 3.935C42.6431 3.7631 42.41 3.66652 42.1669 3.6665H37.5835V5.49984H39.9538L36.6669 8.78683L35.4818 7.60161C35.3098 7.42976 35.0766 7.33323 34.8335 7.33323C34.5904 7.33323 34.3573 7.42976 34.1853 7.60161L28.6853 13.1016L29.9818 14.3981L34.8335 9.54617Z" fill="white"/>
</svg>
