<svg width="53" height="55" viewBox="0 0 53 55" fill="none" xmlns="http://www.w3.org/2000/svg">
<path d="M12.9535 5.3125C11.0752 5.3125 9.54712 6.84058 9.54712 8.71885C9.54712 10.5971 11.0752 12.1253 12.9535 12.1253C14.8317 12.1253 16.3599 10.5971 16.3599 8.71885C16.3599 6.84058 14.8317 5.3125 12.9535 5.3125ZM12.9535 10.514C11.9637 10.514 11.1584 9.70874 11.1584 8.71885C11.1584 7.72906 11.9637 6.92383 12.9535 6.92383C13.9434 6.92383 14.7486 7.72906 14.7486 8.71885C14.7485 9.70874 13.9433 10.514 12.9535 10.514Z" fill="#E81C2E"/>
<path d="M16.3597 23.9771V20.8628C16.3597 20.4177 15.9991 20.0571 15.554 20.0571H7.34766C6.90261 20.0571 6.54199 20.4177 6.54199 20.8628V23.9771C6.54199 24.4221 6.90261 24.7827 7.34766 24.7827H15.5542C15.9991 24.7827 16.3597 24.4221 16.3597 23.9771ZM14.7484 23.1714H8.15332V21.6685H14.7485V23.1714H14.7484Z" fill="#E81C2E"/>
<path d="M50.322 6.68787H45.208C44.3173 6.68787 43.5406 7.18352 43.1382 7.91323H21.6724V7.40244C21.6724 7.02142 21.4055 6.6926 21.0327 6.61407L19.0694 6.20071C19.0659 6.19212 19.0623 6.18353 19.0587 6.17493L20.1547 4.49442C20.3629 4.17527 20.319 3.75396 20.0496 3.48466L18.1878 1.62282C17.9184 1.35341 17.4972 1.30937 17.178 1.51766L15.4973 2.61379C15.4887 2.61024 15.4803 2.6067 15.4717 2.60305L15.0583 0.639697C14.9799 0.266836 14.651 0 14.2699 0H11.6369C11.2559 0 10.9271 0.266836 10.8485 0.639697L10.4352 2.60305C10.4266 2.60659 10.4181 2.61014 10.4095 2.61379L8.729 1.51766C8.40985 1.30947 7.98855 1.35362 7.71913 1.62282L5.8573 3.48455C5.58788 3.75407 5.54405 4.17538 5.75213 4.49442L6.84826 6.17504C6.84472 6.18363 6.84117 6.19212 6.83752 6.20071L4.87417 6.61407C4.50131 6.69249 4.23447 7.02142 4.23447 7.40244V7.91323H4.2131C2.07572 7.91323 0.33667 9.65218 0.33667 11.7897V36.8515C0.33667 38.9889 2.07562 40.7279 4.2131 40.7279H7.26538C7.65489 43.5352 10.1204 45.6665 12.9532 45.6665C13.7885 45.6665 14.5818 45.4859 15.2985 45.164L13.4763 52.294C12.7527 55.1248 17.2628 56.0865 17.9579 53.3683L21.1885 40.7281H23.8115V52.8312C23.8115 54.0107 24.8009 55.0001 25.9804 55.0001C27.1601 55.0001 28.1494 54.0107 28.1494 52.8312V40.7279H30.7725L34.003 53.3679C34.6975 56.0856 39.2085 55.1256 38.4847 52.2938L35.5288 40.7279H47.7481C49.8854 40.7279 51.6245 38.989 51.6245 36.8515V19.4434C51.6245 18.9983 51.2639 18.6377 50.8188 18.6377C50.3738 18.6377 50.0132 18.9983 50.0132 19.4434V36.8515C50.0132 38.1005 48.9971 39.1166 47.7481 39.1166L18.6405 39.1167C18.2474 36.3295 15.8474 34.1781 12.9533 34.1781C10.1204 34.1781 7.655 36.309 7.26549 39.1166H4.2131C2.9641 39.1166 1.948 38.1005 1.948 36.8515V13.4513H5.62526C5.64084 13.6357 5.71861 13.8147 5.8573 13.9534L7.71913 15.8151C7.98844 16.0843 8.40953 16.1284 8.7289 15.9202L10.4094 14.8241C10.418 14.8277 10.4266 14.8312 10.4352 14.8349L10.8485 16.7982C10.927 17.1711 11.2559 17.4379 11.6369 17.4379H14.2699C14.651 17.4379 14.9798 17.1711 15.0583 16.7982L15.4717 14.8349C15.4803 14.8313 15.4889 14.8278 15.4974 14.8241L17.178 15.9202C17.4973 16.1285 17.9186 16.0844 18.1878 15.8151L20.0496 13.9534C20.1882 13.8147 20.2659 13.6357 20.2815 13.4513H42.5573L35.0467 20.9619L31.189 17.1052C30.5885 16.5021 29.5909 16.5025 28.9895 17.104L26.4851 19.6084C26.1703 19.923 26.1703 20.4331 26.485 20.7477C26.7996 21.0622 27.3098 21.0624 27.6243 20.7478L30.0887 18.2836L33.9476 22.1416C34.5484 22.742 35.5456 22.7438 36.146 22.1415L47.1103 11.177C47.3407 10.9465 47.4096 10.6001 47.2849 10.299C47.1603 9.99786 46.8664 9.8016 46.5405 9.8016H45.2078C44.2388 9.8016 44.2398 8.2992 45.2078 8.2992H50.3218C50.7243 8.2992 51.0518 8.62619 51.0518 9.02806V14.1421C51.0518 14.5523 50.7101 14.8939 50.3 14.8939C49.8856 14.8939 49.5483 14.5566 49.5483 14.1421V12.8105C49.5483 12.4847 49.352 12.1908 49.0509 12.0662C48.7498 11.9412 48.4033 12.0103 48.1729 12.2407L35.0473 25.3653L31.1879 21.5069C30.5827 20.9019 29.5971 20.9016 28.9894 21.507L22.3773 28.1203C21.7004 28.7982 20.6288 27.744 21.3151 27.0571L24.9393 23.4331C25.2539 23.1184 25.2539 22.6083 24.9393 22.2937C24.6247 21.9793 24.1145 21.9791 23.8 22.2937L20.1758 25.9177C19.237 26.8567 19.2756 28.423 20.245 29.3231C21.1627 30.1752 22.6323 30.1458 23.5173 29.2591L30.0888 22.6867L33.9477 26.5446C34.5459 27.1449 35.547 27.147 36.146 26.5457L48.0014 14.6912C48.2495 15.7304 49.186 16.5055 50.3001 16.5055C51.5872 16.5055 52.6633 15.4298 52.6633 14.1423V9.02806C52.6634 7.7376 51.613 6.68787 50.322 6.68787ZM16.3968 52.969C16.2181 53.668 14.8344 53.4871 15.0376 52.693L17.3612 43.601C18.032 42.7988 18.4875 41.8116 18.6404 40.728H19.5254L16.3968 52.969ZM26.5382 52.831C26.5382 53.5485 25.4228 53.5497 25.4228 52.831V40.7279H26.5382V52.831ZM36.9236 52.6929C37.1262 53.4851 35.7429 53.6673 35.5644 52.969L32.4358 40.7279H33.8657L36.9236 52.6929ZM12.0204 35.8947C12.3251 35.8249 12.6389 35.7894 12.9533 35.7894C15.2321 35.7894 17.086 37.6427 17.0868 39.9209L17.0866 39.9223L17.0868 39.9237C17.086 42.2019 15.232 44.0551 12.9533 44.0551C10.692 44.0551 8.82042 42.1816 8.82042 39.9222C8.82042 37.985 10.1367 36.3288 12.0204 35.8947ZM1.948 11.7897C1.948 10.5407 2.9641 9.52456 4.2131 9.52456H4.23447V10.0355C4.23447 10.4165 4.50131 10.7453 4.87417 10.8238L6.83752 11.2372C6.84107 11.2458 6.84461 11.2543 6.84826 11.2629L6.47186 11.8399H1.948V11.7897ZM17.5106 14.2133L16.0055 13.2316C15.459 12.8754 14.1189 13.4376 13.9862 14.0684L13.6162 15.8264H12.2907L11.9206 14.0684C11.7863 13.4299 10.4411 12.8796 9.9013 13.2316L8.39621 14.2133L7.45885 13.2761L8.44058 11.771C8.79668 11.2245 8.23465 9.88432 7.60387 9.75165L5.8458 9.38158V8.05621L7.60387 7.68614C8.24249 7.55187 8.79238 6.20662 8.44058 5.66683L7.45885 4.16174L8.39621 3.22438L9.9013 4.2061C10.4478 4.56231 11.788 4.00018 11.9206 3.36939L12.2908 1.61133H13.6163L13.9863 3.36939C14.1206 4.00791 15.4659 4.55802 16.0057 4.2061L17.5107 3.22438L18.448 4.16174L17.4663 5.66683C17.11 6.21317 17.6724 7.55358 18.3031 7.68614L20.061 8.05621V9.38169L18.3031 9.75176C17.6647 9.88593 17.1143 11.2314 17.4663 11.7711L18.448 13.2762L17.5106 14.2133ZM44.6594 11.3492L44.1688 11.8398H19.435L19.0587 11.2629C19.0622 11.2543 19.0658 11.2457 19.0694 11.2371L21.0327 10.8237C21.4055 10.7453 21.6724 10.4164 21.6724 10.0354V9.52445H42.8937C43.0737 10.4132 43.7768 11.1405 44.6594 11.3492Z" fill="#E81C2E"/>
<path d="M45.9136 33.7324H30.6443C30.1992 33.7324 29.8386 34.093 29.8386 34.5381C29.8386 34.9831 30.1992 35.3438 30.6443 35.3438H45.9136C46.3586 35.3438 46.7192 34.9831 46.7192 34.5381C46.7192 34.093 46.3585 33.7324 45.9136 33.7324Z" fill="#E81C2E"/>
<path d="M45.9136 30.1978H36.8611C36.416 30.1978 36.0554 30.5584 36.0554 31.0034C36.0554 31.4485 36.416 31.8091 36.8611 31.8091H45.9136C46.3587 31.8091 46.7193 31.4485 46.7193 31.0034C46.7193 30.5584 46.3586 30.1978 45.9136 30.1978Z" fill="#E81C2E"/>
<path d="M7.34766 26.2312C6.90261 26.2312 6.54199 26.5918 6.54199 27.0369C6.54199 27.4819 6.90261 27.8425 7.34766 27.8425H12.9534C13.3984 27.8425 13.759 27.4819 13.759 27.0369C13.759 26.5918 13.3984 26.2312 12.9534 26.2312H7.34766Z" fill="#E81C2E"/>
<path d="M12.9536 41.8143C13.3987 41.8143 13.7593 41.4537 13.7593 41.0086V38.8357C13.7593 38.3906 13.3987 38.03 12.9536 38.03C12.5086 38.03 12.1479 38.3906 12.1479 38.8357V41.0086C12.1479 41.4536 12.5086 41.8143 12.9536 41.8143Z" fill="#E81C2E"/>
</svg>
