<svg width="53" height="55" viewBox="0 0 53 55" fill="none" xmlns="http://www.w3.org/2000/svg">
<path d="M37.1251 22.7004L35.1134 22.499L34.9112 22.0106L36.1911 20.4465C36.4374 20.1473 36.5633 19.7669 36.5441 19.3798C36.5248 18.9927 36.3618 18.6267 36.087 18.3534L33.9277 16.1942C33.6543 15.9195 33.2883 15.7567 32.9012 15.7374C32.5142 15.7182 32.1339 15.8439 31.8346 16.0901L30.2705 17.3699L29.782 17.1677L29.5811 15.1567C29.5437 14.7708 29.3636 14.4127 29.0761 14.1526C28.7886 13.8924 28.4143 13.7489 28.0266 13.75H24.9734C24.5857 13.7489 24.2116 13.8925 23.9242 14.1526C23.6367 14.4127 23.4567 14.7707 23.4191 15.1565L23.2186 17.1648L22.7274 17.368L21.1667 16.0915C20.8674 15.8448 20.4868 15.7186 20.0994 15.7377C19.712 15.7568 19.3456 15.9197 19.072 16.1946L16.9131 18.3531C16.6383 18.6264 16.4753 18.9924 16.456 19.3795C16.4368 19.7666 16.5627 20.147 16.809 20.4462L18.0889 22.0102L17.8867 22.4987L15.8745 22.7001C15.4888 22.7377 15.1309 22.9179 14.8709 23.2054C14.611 23.4929 14.4676 23.8671 14.4688 24.2547V27.3079C14.4677 27.6954 14.6111 28.0695 14.8712 28.357C15.1312 28.6444 15.4891 28.8245 15.8749 28.8621L17.8866 29.0635L18.0888 29.5519L16.8089 31.116C16.5626 31.4152 16.4367 31.7956 16.456 32.1827C16.4752 32.5698 16.6382 32.9358 16.913 33.2091L19.0723 35.3684C19.3458 35.643 19.7117 35.8058 20.0988 35.8251C20.4858 35.8443 20.8661 35.7186 21.1654 35.4724L22.7274 34.1945L23.2187 34.3977L23.4192 36.406C23.4567 36.7918 23.6368 37.1498 23.9242 37.4099C24.2116 37.67 24.5858 37.8136 24.9734 37.8125H28.0266C28.4143 37.8136 28.7884 37.67 29.0758 37.4099C29.3633 37.1498 29.5434 36.7918 29.5809 36.406L29.7814 34.3977L30.2727 34.1945L31.8333 35.4711C32.1325 35.718 32.5132 35.8442 32.9006 35.8252C33.2881 35.8061 33.6545 35.643 33.928 35.3679L36.0869 33.2094C36.3618 32.9361 36.5247 32.5701 36.544 32.183C36.5632 31.7959 36.4374 31.4156 36.191 31.1163L34.9111 29.5523L35.1134 29.0638L37.1255 28.8625C37.5113 28.8248 37.8691 28.6446 38.1291 28.3571C38.389 28.0696 38.5325 27.6955 38.5313 27.3079V24.2547C38.5324 23.8671 38.3889 23.493 38.1288 23.2056C37.8688 22.9181 37.5109 22.738 37.1251 22.7004ZM36.8125 27.166L34.4307 27.4044C34.2761 27.4198 34.1286 27.477 34.0039 27.5696C33.8792 27.6623 33.7819 27.787 33.7225 27.9306L33.1266 29.369C33.067 29.5125 33.0476 29.6695 33.0703 29.8232C33.093 29.9769 33.157 30.1216 33.2555 30.2418L34.7711 32.0948L32.8131 34.0519L30.9631 32.5379C30.8426 32.4398 30.6978 32.3761 30.5441 32.3535C30.3904 32.3309 30.2334 32.3503 30.0898 32.4095L28.6484 33.0071C28.5049 33.0665 28.3802 33.1638 28.2875 33.2885C28.1948 33.4132 28.1377 33.5607 28.1222 33.7154L27.8847 36.0938H25.1153L24.8778 33.7154C24.8623 33.5607 24.8052 33.4132 24.7125 33.2885C24.6199 33.1638 24.4951 33.0665 24.3516 33.0071L22.9102 32.4095C22.7666 32.3502 22.6096 32.3308 22.4559 32.3534C22.3022 32.376 22.1574 32.4398 22.0369 32.5379L20.1869 34.0519L18.229 32.0948L19.7446 30.2414C19.8431 30.1212 19.9071 29.9766 19.9298 29.8229C19.9525 29.6691 19.9331 29.5122 19.8735 29.3686L19.2776 27.9302C19.2182 27.7867 19.1209 27.6619 18.9962 27.5693C18.8715 27.4766 18.724 27.4195 18.5694 27.404L16.1875 27.166V24.3965L18.5693 24.1582C18.7239 24.1427 18.8714 24.0856 18.9961 23.9929C19.1208 23.9002 19.2181 23.7755 19.2776 23.632L19.8735 22.1935C19.933 22.05 19.9524 21.893 19.9297 21.7393C19.907 21.5856 19.843 21.4409 19.7445 21.3208L18.2289 19.4677L20.1868 17.5106L22.0368 19.0246C22.1572 19.1229 22.302 19.1867 22.4558 19.2094C22.6095 19.232 22.7666 19.2125 22.9101 19.153L24.3516 18.5555C24.4951 18.496 24.6199 18.3987 24.7125 18.274C24.8052 18.1493 24.8623 18.0018 24.8778 17.8472L25.1153 15.4688H27.8847L28.1227 17.8505C28.143 18.0083 28.2047 18.1578 28.3016 18.284C28.3984 18.4102 28.5269 18.5085 28.6741 18.5689L30.0869 19.1547C30.2305 19.2139 30.3874 19.2333 30.5411 19.2107C30.6948 19.1882 30.8396 19.1246 30.9602 19.0266L32.8128 17.511L34.7707 19.468L33.2554 21.3211C33.1569 21.4413 33.0929 21.586 33.0702 21.7397C33.0475 21.8934 33.067 22.0504 33.1265 22.1939L33.7224 23.6323C33.7818 23.7758 33.8791 23.9006 34.0038 23.9932C34.1286 24.0859 34.2761 24.143 34.4307 24.1585L36.8125 24.3965V27.166Z" fill="#E81C2E"/>
<path d="M26.5 20.625C25.4802 20.625 24.4833 20.9274 23.6353 21.494C22.7874 22.0606 22.1265 22.8659 21.7362 23.808C21.346 24.7502 21.2439 25.787 21.4428 26.7872C21.6418 27.7874 22.1329 28.7062 22.854 29.4273C23.5751 30.1484 24.4939 30.6395 25.4941 30.8384C26.4943 31.0374 27.531 30.9353 28.4732 30.545C29.4154 30.1547 30.2207 29.4938 30.7873 28.6459C31.3538 27.798 31.6562 26.8011 31.6562 25.7812C31.6547 24.4142 31.111 23.1035 30.1444 22.1369C29.1777 21.1702 27.8671 20.6265 26.5 20.625ZM26.5 29.2187C25.8201 29.2187 25.1555 29.0171 24.5902 28.6394C24.0249 28.2617 23.5843 27.7248 23.3242 27.0967C23.064 26.4686 22.9959 25.7774 23.1286 25.1106C23.2612 24.4438 23.5886 23.8313 24.0693 23.3506C24.5501 22.8698 25.1626 22.5424 25.8294 22.4098C26.4962 22.2772 27.1874 22.3452 27.8155 22.6054C28.4436 22.8656 28.9805 23.3062 29.3582 23.8715C29.7359 24.4368 29.9375 25.1014 29.9375 25.7812C29.9365 26.6926 29.5741 27.5664 28.9296 28.2109C28.2852 28.8553 27.4114 29.2178 26.5 29.2187Z" fill="#E81C2E"/>
<path d="M26.5 6.875C26.7279 6.875 26.9465 6.78446 27.1077 6.62329C27.2688 6.46213 27.3594 6.24355 27.3594 6.01562V0.859375C27.3594 0.631455 27.2688 0.412869 27.1077 0.251705C26.9465 0.090541 26.7279 0 26.5 0C26.2721 0 26.0535 0.090541 25.8923 0.251705C25.7312 0.412869 25.6406 0.631455 25.6406 0.859375V6.01562C25.6406 6.24355 25.7312 6.46213 25.8923 6.62329C26.0535 6.78446 26.2721 6.875 26.5 6.875Z" fill="#E81C2E"/>
<path d="M11.9156 12.4121C12.0774 12.5699 12.2949 12.6575 12.5209 12.6561C12.747 12.6547 12.9633 12.5642 13.1232 12.4044C13.283 12.2446 13.3734 12.0282 13.3748 11.8022C13.3763 11.5762 13.2886 11.3587 13.1308 11.1968L9.48517 7.55118C9.32333 7.39339 9.10584 7.30571 8.87981 7.30715C8.65378 7.30858 8.43741 7.399 8.27758 7.55883C8.11775 7.71866 8.02733 7.93503 8.0259 8.16106C8.02446 8.38709 8.11214 8.60458 8.26993 8.76642L11.9156 12.4121Z" fill="#E81C2E"/>
<path d="M6.73438 24.9219H1.57812C1.3502 24.9219 1.13162 25.0124 0.970455 25.1736C0.809291 25.3347 0.71875 25.5533 0.71875 25.7812C0.71875 26.0092 0.809291 26.2278 0.970455 26.3889C1.13162 26.5501 1.3502 26.6406 1.57812 26.6406H6.73438C6.9623 26.6406 7.18088 26.5501 7.34204 26.3889C7.50321 26.2278 7.59375 26.0092 7.59375 25.7812C7.59375 25.5533 7.50321 25.3347 7.34204 25.1736C7.18088 25.0124 6.9623 24.9219 6.73438 24.9219Z" fill="#E81C2E"/>
<path d="M11.9156 39.1501L8.26993 42.7957C8.11214 42.9576 8.02446 43.1751 8.0259 43.4011C8.02733 43.6271 8.11775 43.8435 8.27758 44.0033C8.43741 44.1632 8.65378 44.2536 8.87981 44.255C9.10584 44.2564 9.32333 44.1688 9.48517 44.011L13.1308 40.3653C13.2123 40.2859 13.2772 40.1911 13.3217 40.0864C13.3662 39.9817 13.3895 39.8692 13.3902 39.7554C13.391 39.6417 13.3691 39.5289 13.3259 39.4237C13.2827 39.3184 13.219 39.2228 13.1386 39.1423C13.0581 39.0619 12.9625 38.9982 12.8572 38.955C12.752 38.9118 12.6392 38.8899 12.5254 38.8906C12.4117 38.8914 12.2992 38.9147 12.1945 38.9592C12.0898 39.0037 11.995 39.0686 11.9156 39.1501Z" fill="#E81C2E"/>
<path d="M43.5145 7.55118L39.8688 11.1968C39.7874 11.2762 39.7225 11.3711 39.678 11.4757C39.6334 11.5804 39.6101 11.6929 39.6094 11.8067C39.6087 11.9205 39.6305 12.0332 39.6738 12.1385C39.717 12.2437 39.7806 12.3394 39.8611 12.4198C39.9415 12.5003 40.0372 12.5639 40.1424 12.6071C40.2477 12.6503 40.3604 12.6722 40.4742 12.6715C40.588 12.6708 40.7005 12.6475 40.8052 12.6029C40.9098 12.5584 41.0047 12.4935 41.0841 12.4121L44.7297 8.76642C44.8875 8.60458 44.9752 8.38709 44.9738 8.16106C44.9723 7.93503 44.8819 7.71866 44.7221 7.55883C44.5622 7.399 44.3459 7.30858 44.1199 7.30715C43.8938 7.30571 43.6763 7.39339 43.5145 7.55118Z" fill="#E81C2E"/>
<path d="M51.4219 24.9219H46.2656C46.0377 24.9219 45.8191 25.0124 45.658 25.1736C45.4968 25.3347 45.4062 25.5533 45.4062 25.7812C45.4062 26.0092 45.4968 26.2278 45.658 26.3889C45.8191 26.5501 46.0377 26.6406 46.2656 26.6406H51.4219C51.6498 26.6406 51.8684 26.5501 52.0295 26.3889C52.1907 26.2278 52.2812 26.0092 52.2812 25.7812C52.2812 25.5533 52.1907 25.3347 52.0295 25.1736C51.8684 25.0124 51.6498 24.9219 51.4219 24.9219Z" fill="#E81C2E"/>
<path d="M41.0841 39.1501C41.0047 39.0686 40.9098 39.0037 40.8052 38.9592C40.7005 38.9147 40.588 38.8914 40.4742 38.8906C40.3604 38.8899 40.2477 38.9118 40.1424 38.955C40.0372 38.9982 39.9415 39.0619 39.8611 39.1423C39.7806 39.2228 39.717 39.3184 39.6738 39.4237C39.6305 39.5289 39.6087 39.6417 39.6094 39.7554C39.6101 39.8692 39.6334 39.9817 39.678 40.0864C39.7225 40.1911 39.7874 40.2859 39.8688 40.3653L43.5145 44.011C43.6763 44.1688 43.8938 44.2564 44.1199 44.255C44.3459 44.2536 44.5622 44.1632 44.7221 44.0033C44.8819 43.8435 44.9723 43.6271 44.9738 43.4011C44.9752 43.1751 44.8875 42.9576 44.7297 42.7957L41.0841 39.1501Z" fill="#E81C2E"/>
<path d="M26.5 8.59375C21.9432 8.59889 17.5745 10.4114 14.3523 13.6335C11.1301 16.8557 9.31766 21.2244 9.31251 25.7812C9.30564 28.087 9.7674 30.3701 10.6698 32.492C11.5722 34.6139 12.8963 36.5302 14.5619 38.1247C15.3388 38.8532 15.9597 39.7319 16.3868 40.7076C16.814 41.6832 17.0386 42.7354 17.0469 43.8005V48.9844C17.0469 49.2123 17.1374 49.4309 17.2986 49.592C17.4598 49.7532 17.6783 49.8438 17.9063 49.8438H20.5531C20.7581 51.2749 21.4723 52.5841 22.5646 53.5312C23.657 54.4783 25.0543 54.9997 26.5 54.9997C27.9458 54.9997 29.343 54.4783 30.4354 53.5312C31.5278 52.5841 32.2419 51.2749 32.4469 49.8438H35.0938C35.3217 49.8438 35.5403 49.7532 35.7014 49.592C35.8626 49.4309 35.9531 49.2123 35.9531 48.9844V43.8005C35.9615 42.7354 36.186 41.6832 36.6132 40.7076C37.0403 39.7319 37.6612 38.8532 38.4381 38.1247C40.1037 36.5302 41.4279 34.6139 42.3302 32.492C43.2326 30.3701 43.6944 28.087 43.6875 25.7812C43.6824 21.2244 41.8699 16.8557 38.6477 13.6335C35.4256 10.4114 31.0568 8.59889 26.5 8.59375ZM26.5 53.2812C25.5099 53.28 24.5505 52.9374 23.7835 52.3112C23.0166 51.685 22.4889 50.8136 22.2896 49.8438H30.7104C30.5111 50.8136 29.9835 51.685 29.2165 52.3112C28.4495 52.9374 27.4901 53.28 26.5 53.2812ZM18.7656 48.125V45.5469H34.2344V48.125H18.7656ZM37.2447 36.8876C36.3009 37.776 35.5474 38.8467 35.03 40.035C34.5125 41.2234 34.2418 42.5044 34.2344 43.8005V43.8281H18.7656V43.8005C18.7582 42.5044 18.4875 41.2234 17.9701 40.035C17.4526 38.8467 16.6991 37.776 15.7553 36.8876C14.2564 35.4531 13.0648 33.7288 12.2527 31.8196C11.4406 29.9104 11.025 27.856 11.0313 25.7812C11.0313 21.6787 12.661 17.7441 15.562 14.8432C18.4629 11.9422 22.3974 10.3125 26.5 10.3125C30.6026 10.3125 34.5371 11.9422 37.4381 14.8432C40.339 17.7441 41.9688 21.6787 41.9688 25.7812C41.975 27.856 41.5594 29.9104 40.7473 31.8196C39.9353 33.7288 38.7436 35.4531 37.2447 36.8876Z" fill="#E81C2E"/>
</svg>
