<svg width="51" height="52" viewBox="0 0 51 52" fill="none" xmlns="http://www.w3.org/2000/svg">
<path fill-rule="evenodd" clip-rule="evenodd" d="M21.2973 0.0729956C20.9293 0.226964 20.799 0.558769 20.2854 2.64964C20.0128 3.75911 19.7523 4.69957 19.7064 4.73939C19.5848 4.84521 14.8738 6.81106 14.7486 6.80842C14.6903 6.8071 13.8515 6.3196 12.8847 5.72505C11.4583 4.84786 11.0543 4.64402 10.7425 4.64402C10.3715 4.64402 10.2563 4.74792 7.4452 7.61533C4.63781 10.479 4.53223 10.6009 4.53223 10.9773C4.53223 11.2938 4.73354 11.7076 5.59406 13.1602C6.17807 14.146 6.65032 15.0212 6.64365 15.105C6.61954 15.4056 4.64767 20.1151 4.51669 20.1848C4.44308 20.224 3.51472 20.475 2.45378 20.7425C1.07698 21.0895 0.449537 21.2947 0.262371 21.4589L0 21.6889V25.9721V30.2553L0.262371 30.4854C0.449537 30.6496 1.07698 30.8548 2.45378 31.2018C3.51472 31.4693 4.44308 31.7203 4.51669 31.7595C4.64767 31.8292 6.61954 36.5387 6.64365 36.8393C6.65032 36.9231 6.17807 37.7983 5.59406 38.7841C4.73194 40.2393 4.53223 40.6502 4.53223 40.9683C4.53223 41.3465 4.63413 41.464 7.4464 44.3302C10.255 47.1926 10.3745 47.3003 10.7437 47.3003C11.0542 47.3003 11.46 47.095 12.8847 46.2176C13.8515 45.6222 14.7098 45.1406 14.792 45.1475C15.0868 45.172 19.7058 47.1826 19.7742 47.3161C19.8126 47.3912 20.0587 48.3377 20.3211 49.4195C20.6615 50.8233 20.8627 51.463 21.0238 51.6538L21.2494 51.9214H25.4502H29.651L29.8766 51.6538C30.0377 51.463 30.2389 50.8233 30.5793 49.4195C30.8417 48.3377 31.0878 47.3912 31.1262 47.3161C31.1946 47.1826 35.8136 45.172 36.1084 45.1475C36.1906 45.1406 37.0489 45.6222 38.0157 46.2176C39.443 47.0966 39.8459 47.3003 40.1579 47.3003C40.5289 47.3003 40.6441 47.1964 43.4552 44.329C46.2626 41.4653 46.3682 41.3434 46.3682 40.967C46.3682 40.6505 46.1669 40.2367 45.3063 38.7841C44.7223 37.7983 44.2501 36.9231 44.2567 36.8393C44.2809 36.5387 46.2527 31.8292 46.3837 31.7595C46.4573 31.7203 47.3857 31.4693 48.4466 31.2018C49.8234 30.8548 50.4509 30.6496 50.638 30.4854L50.9004 30.2553V25.9721V21.6889L50.638 21.4589C50.4509 21.2947 49.8234 21.0895 48.4466 20.7425C47.3857 20.475 46.4578 20.2242 46.3847 20.1854C46.3116 20.1465 45.7611 18.9092 45.1614 17.4358L44.071 14.757L47.1517 11.6048C48.8461 9.87114 50.3423 8.2698 50.4765 8.04636C50.8085 7.49335 50.9885 6.66521 50.9148 6.03014C50.7943 4.99238 50.4152 4.44272 48.4397 2.44082C46.2875 0.259871 45.9205 0.0242457 44.6748 0.0242457C43.3263 0.0242457 43.194 0.122152 39.59 3.78856L36.4476 6.98534L33.8213 5.87404C32.3768 5.26274 31.1638 4.70171 31.1256 4.62716C31.0876 4.55261 30.8417 3.60656 30.5793 2.52482C30.239 1.12153 30.0377 0.481175 29.8767 0.290441L29.6512 0.0229253L25.5834 0.00230815C23.3461 -0.00906685 21.4174 0.0227222 21.2973 0.0729956ZM28.8873 3.93552C29.1472 4.99827 29.441 5.97286 29.5403 6.10144C29.6587 6.255 30.6134 6.71315 32.323 7.43689L34.9255 8.53864L33.6642 9.82757L32.4028 11.1166L31.6408 10.7892C30.692 10.3815 29.3745 9.99342 28.1396 9.75789C26.7356 9.49007 23.8687 9.51394 22.4741 9.80502C20.9276 10.1278 19.5677 10.6038 18.2314 11.2903C17.1906 11.8249 17.0093 11.9557 16.8509 12.286C16.699 12.603 16.6875 12.7241 16.7813 13.014C16.9144 13.4251 17.2585 13.6831 17.6739 13.6831C17.8384 13.6831 18.4563 13.4369 19.047 13.136C20.2488 12.5238 21.5805 12.0604 22.9137 11.7904C24.1145 11.5472 26.6362 11.5436 27.9129 11.7832C28.7181 11.9343 30.6991 12.5118 30.8248 12.632C30.8498 12.656 28.4227 15.1759 25.4314 18.2321C22.4399 21.2881 19.9462 23.8823 19.8896 23.9968C19.6757 24.4298 16.3857 34.0218 16.3857 34.2123C16.3857 34.7166 16.8787 35.2143 17.3781 35.2143C17.5584 35.2143 26.9764 31.8529 27.3876 31.6418C27.4999 31.5841 30.0442 29.0415 33.0414 25.9913C36.0388 22.9413 38.5103 20.4666 38.5338 20.4921C38.5572 20.5177 38.7156 20.9838 38.8857 21.5279C40.6941 27.3131 38.816 33.5879 34.166 37.2957C32.151 38.9023 29.8109 39.903 27.2764 40.2418C25.8423 40.4334 25.0581 40.4334 23.624 40.2418C17.6109 39.438 12.8744 34.9289 11.5885 28.7842C11.2765 27.2936 11.2756 24.631 11.5865 23.1595C11.8787 21.7764 12.2611 20.6614 12.8926 19.3515C13.3055 18.4953 13.4024 18.203 13.3517 17.9678C13.2665 17.5718 12.9078 17.2428 12.4848 17.1729C11.9449 17.0835 11.5687 17.4833 10.9442 18.8103C10.3016 20.1757 9.88942 21.4398 9.59447 22.9502C9.41458 23.8711 9.37115 24.4387 9.37075 25.8706C9.37015 28.1413 9.62426 29.6769 10.3288 31.6596C11.6952 35.5048 14.6403 38.8405 18.3312 40.7232C20.499 41.8289 22.8271 42.3662 25.4502 42.3662C27.5756 42.3662 29.1151 42.0968 31.0283 41.39C35.3553 39.7916 39.0038 36.0714 40.5716 31.6596C41.2702 29.6936 41.5287 28.1421 41.528 25.9214C41.5272 23.5766 41.1607 21.6427 40.3412 19.6601L40.0201 18.8832L41.2843 17.5971L42.5484 16.311L43.629 18.9645C44.3388 20.7077 44.7882 21.6811 44.9388 21.8019C45.0649 21.903 46.0207 22.2027 47.063 22.4676L48.958 22.9494V25.9721V28.9948L47.0539 29.479C45.76 29.808 45.0741 30.0316 44.9141 30.1766C44.5581 30.4992 42.0552 36.6921 42.1174 37.0963C42.1435 37.2655 42.6126 38.1622 43.1596 39.0889L44.1544 40.774L42.0489 42.9083L39.9434 45.0426L38.3024 44.0285C37.3999 43.4709 36.5259 42.9933 36.36 42.9673C35.9622 42.9051 29.8881 45.4558 29.5738 45.8172C29.4318 45.9806 29.2119 46.6816 28.8896 47.9994L28.4148 49.9409H25.4502H22.4856L22.0108 47.9994C21.6884 46.6816 21.4686 45.9806 21.3266 45.8172C21.0123 45.4558 14.9382 42.9051 14.5404 42.9673C14.3745 42.9933 13.5005 43.4709 12.598 44.0285L10.957 45.0426L8.85149 42.9083L6.74595 40.774L7.74074 39.0889C8.2878 38.1622 8.75636 37.2655 8.78186 37.0963C8.84292 36.6903 6.34143 30.4973 5.98682 30.1766C5.82655 30.0318 5.13905 29.8077 3.84652 29.479L1.94238 28.9948V25.9721V22.9494L3.84652 22.4653C5.13905 22.1366 5.82655 21.9125 5.98682 21.7677C6.34123 21.4472 8.84292 15.254 8.78186 14.8484C8.75636 14.6793 8.288 13.7881 7.74104 12.8679L6.74644 11.1948L8.83973 9.04797L10.933 6.90114L12.5856 7.91545C13.4946 8.47323 14.374 8.95098 14.54 8.97698C14.9381 9.03924 21.0121 6.4887 21.3266 6.12714C21.4686 5.96372 21.6884 5.26274 22.0108 3.94486L22.4856 2.00339H25.4502H28.4148L28.8873 3.93552ZM45.2186 2.16061C45.3973 2.24704 46.2836 3.08107 47.1883 4.01413C48.6312 5.50202 48.8416 5.7609 48.9009 6.12125C48.9398 6.35718 48.9213 6.65922 48.8573 6.83066C48.796 6.99489 48.1336 7.75925 47.3854 8.52929L46.0249 9.92923L43.607 7.46542L41.1891 5.00162L42.5086 3.64454C44.128 1.97902 44.4635 1.79529 45.2186 2.16061ZM40.6901 7.33512L41.532 8.19799L39.2685 10.5139C37.1172 12.715 37.0049 12.8489 37.0049 13.2136C37.0049 13.771 37.4363 14.1909 38.0092 14.1909C38.4261 14.1909 38.4583 14.1635 40.6849 11.907L42.9385 9.62312L43.7805 10.4861L44.6226 11.3492L35.8584 20.2857C31.0381 25.2007 27.0482 29.2221 26.992 29.2221C26.9359 29.2221 26.5329 28.8561 26.0968 28.4087L25.3036 27.5952L29.3508 23.4576C31.5769 21.1817 33.4476 19.22 33.5081 19.098C33.6919 18.7276 33.633 18.3751 33.3295 18.0288C33.0924 17.7583 32.9676 17.6994 32.6304 17.6994C32.2226 17.6994 32.1935 17.7265 28.1125 21.8866C25.8533 24.1895 23.9613 26.0737 23.908 26.0737C23.7783 26.0737 22.2627 24.5325 22.2627 24.4006C22.2627 24.2978 39.6954 6.47214 39.7959 6.47214C39.8246 6.47214 40.227 6.86042 40.6901 7.33512ZM14.0696 14.3457C13.7515 14.6702 13.6765 15.063 13.8512 15.4895C14.0087 15.8738 14.553 16.1601 14.9385 16.0615C15.6691 15.8745 15.9502 14.8917 15.4259 14.3571C15.0627 13.9868 14.4269 13.9815 14.0696 14.3457ZM34.6928 15.1962C34.4255 15.4397 34.3697 15.564 34.3697 15.9175C34.3697 16.6504 35.1198 17.1438 35.7414 16.8196C36.6945 16.3227 36.3451 14.9018 35.2699 14.9018C35.1301 14.9018 34.8705 15.0343 34.6928 15.1962ZM36.147 25.0522C35.7 25.2446 35.5451 25.6029 35.4779 26.6006C35.3052 29.1623 34.3206 31.362 32.5285 33.1893C30.728 35.0251 28.7043 35.9635 26.0031 36.2149C25.0692 36.302 24.9962 36.3255 24.7331 36.6256C24.3801 37.0286 24.372 37.4352 24.7091 37.8437C25.0457 38.2515 25.4599 38.3202 26.697 38.1737C30.9083 37.6745 34.4258 35.1507 36.2634 31.3095C36.5587 30.6921 36.9129 29.7546 37.0504 29.2263C37.3476 28.0843 37.5602 26.366 37.4669 25.859C37.3513 25.2307 36.6824 24.8218 36.147 25.0522ZM25.1172 30.3065C25.1024 30.3216 24.663 30.4916 24.1407 30.6843L23.1912 31.0348L21.8386 29.6461L20.4861 28.2573L20.8414 27.2578L21.1968 26.2582L23.1703 28.2687C24.2559 29.3745 25.1319 30.2915 25.1172 30.3065ZM20.467 31.0983C20.8185 31.4599 21.0861 31.7722 21.0618 31.7923C20.9568 31.8794 19.1487 32.4794 19.1101 32.44C19.0565 32.3853 19.7035 30.4412 19.7754 30.441C19.8043 30.441 20.1156 30.7367 20.467 31.0983Z" fill="#E81C2E"/>
</svg>
