<svg width="60" height="60" viewBox="0 0 60 60" fill="none" xmlns="http://www.w3.org/2000/svg">
<path d="M30 0C13.4315 0 0 13.4315 0 30C0 46.5685 13.4315 60 30 60C46.5685 60 60 46.5685 60 30C59.9813 13.4393 46.5607 0.01875 30 0ZM56.916 37.694L55.037 37.083L54.418 38.983L56.305 39.596C55.5245 41.7249 54.4883 43.7511 53.219 45.63L51.619 44.47L50.443 46.088L52.031 47.242C50.6335 49.0257 49.0266 50.6349 47.245 52.035L46.091 50.447L44.473 51.623L45.633 53.223C43.7542 54.4909 41.7284 55.5257 39.6 56.305L38.987 54.418L37.087 55.037L37.698 56.916C35.5169 57.5405 33.2675 57.8961 31 57.975V56H29V57.975C26.7339 57.8959 24.4859 57.5402 22.306 56.916L22.917 55.037L21.017 54.418L20.4 56.305C18.2711 55.5245 16.2449 54.4883 14.366 53.219L15.526 51.619L13.908 50.443L12.754 52.031C10.9711 50.6321 9.36287 49.0239 7.964 47.241L9.552 46.087L8.376 44.469L6.776 45.629C5.5105 43.7511 4.47762 41.7267 3.7 39.6L5.587 38.987L4.968 37.087L3.089 37.698C2.46275 35.517 2.1055 33.2676 2.025 31H4V29H2.025C2.10413 26.7339 2.45975 24.4859 3.084 22.306L4.963 22.917L5.582 21.017L3.7 20.4C4.4805 18.2711 5.51675 16.2449 6.786 14.366L8.386 15.526L9.562 13.908L7.965 12.755C9.36388 10.9721 10.9721 9.36388 12.755 7.965L13.909 9.553L15.527 8.377L14.367 6.777C16.246 5.51087 18.2719 4.47762 20.4 3.7L21.013 5.587L22.913 4.968L22.302 3.089C24.483 2.46275 26.7324 2.1055 29 2.025V4H31V2.025C33.2661 2.10413 35.5141 2.45975 37.694 3.084L37.083 4.963L38.983 5.582L39.6 3.7C41.7289 4.4805 43.7551 5.51675 45.634 6.786L44.474 8.386L46.092 9.562L47.246 7.974C49.0289 9.37288 50.6371 10.9811 52.036 12.764L50.448 13.918L51.624 15.536L53.224 14.376C54.4909 16.252 55.5254 18.2747 56.305 20.4L54.418 21.013L55.037 22.913L56.916 22.302C57.5405 24.4831 57.8961 26.7325 57.975 29H56V31H57.975C57.8959 33.2661 57.5402 35.5141 56.916 37.694Z" fill="#E81C2E"/>
<path d="M30 8C17.8497 8 8 17.8497 8 30C8 42.1502 17.8497 52 30 52C42.1502 52 52 42.1502 52 30C51.9863 17.8555 42.1445 8.01375 30 8ZM30 50C18.9543 50 10 41.0457 10 30C10 18.9543 18.9543 10 30 10C41.0457 10 50 18.9543 50 30C49.9874 41.0404 41.0405 49.9874 30 50Z" fill="#E81C2E"/>
<path d="M30 13C20.6111 13 13 20.6111 13 30C13 39.3889 20.6111 47 30 47C39.3889 47 47 39.3889 47 30C46.9895 20.6155 39.3845 13.0105 30 13ZM42.859 22.317C44.0216 24.247 44.7305 26.4159 44.932 28.66L38.669 28.154C38.1186 28.1077 37.71 27.624 37.7564 27.0737C37.7784 26.8129 37.9017 26.571 38.1 26.4L42.859 22.317ZM33.339 15.388L30.923 21.188C30.7105 21.6978 30.125 21.9387 29.6152 21.7262C29.3719 21.6248 29.1785 21.4314 29.077 21.188L26.661 15.388C28.857 14.8706 31.143 14.8706 33.339 15.388ZM17.141 22.3167L21.9 26.4C22.3194 26.7594 22.3679 27.3907 22.0085 27.81C21.8369 28.0102 21.593 28.1346 21.33 28.156L15.067 28.662C15.2685 26.417 15.9778 24.2472 17.141 22.3167ZM25.562 37.674L24.11 43.792C22.0411 42.8989 20.199 41.5532 18.719 39.854H18.716L24.068 36.589C24.5394 36.3011 25.1547 36.4499 25.4426 36.9212C25.5802 37.1466 25.6231 37.4171 25.562 37.674ZM35.89 43.792H35.887L34.432 37.674C34.3041 37.1367 34.636 36.5975 35.1732 36.4696C35.4301 36.4085 35.7006 36.4514 35.926 36.589L41.278 39.854C39.7989 41.5529 37.9577 42.8985 35.89 43.792ZM36.97 34.881C35.5556 34.018 33.7095 34.4649 32.8465 35.8792C32.4341 36.5551 32.3055 37.3668 32.489 38.137L33.989 44.445C31.3805 45.185 28.6175 45.185 26.009 44.445H26.007L27.507 38.137C27.8903 36.5251 26.8942 34.9076 25.2822 34.5244C24.5124 34.3414 23.7015 34.4699 23.026 34.882L17.492 38.26C15.9978 36.0001 15.148 33.3758 15.034 30.669L21.492 30.147C23.1433 30.0116 24.3721 28.5631 24.2367 26.9119C24.1721 26.1245 23.7996 25.3944 23.2 24.88L18.28 20.66C19.9706 18.5447 22.2006 16.9249 24.735 15.971L27.227 21.954C27.8639 23.4835 29.6201 24.2072 31.1497 23.5702C31.8808 23.2659 32.4616 22.6849 32.766 21.954L35.259 15.971C37.7931 16.9251 40.0231 18.545 41.714 20.66L36.8 24.88C35.5425 25.9589 35.3977 27.8529 36.4766 29.1103C36.9916 29.7105 37.7228 30.083 38.511 30.147L44.969 30.669C44.855 33.3758 44.0053 36.0001 42.511 38.26L36.97 34.881Z" fill="#E81C2E"/>
<path d="M30 26C27.7909 26 26 27.7909 26 30C26 32.2091 27.7909 34 30 34C32.2091 34 34 32.2091 34 30C34 27.7909 32.2091 26 30 26ZM30 32C28.8954 32 28 31.1046 28 30C28 28.8954 28.8954 28 30 28C31.1046 28 32 28.8954 32 30C32 31.1046 31.1046 32 30 32Z" fill="#E81C2E"/>
</svg>
