<svg width="60" height="60" viewBox="0 0 60 60" fill="none" xmlns="http://www.w3.org/2000/svg">
<path d="M59.6775 13.7873L56.5808 9.33973C56.3015 8.93883 55.8801 8.66871 55.3942 8.57918C54.9083 8.48988 54.4157 8.59137 54.0077 8.86547L52.725 9.72715C52.3169 10.0014 52.0418 10.4153 51.9507 10.8927C51.8594 11.37 51.9631 11.8537 52.2421 12.2548L52.346 12.4041L50.5112 13.6193L49.1302 11.6359C48.3731 10.549 46.8571 10.2693 45.7504 11.0129L42.3598 13.2909L41.3549 11.8222C41.1889 11.5796 40.9109 11.434 40.6132 11.4336L38.5298 11.4315V9.42457C39.4877 9.18809 40.2 8.33742 40.2 7.32422C40.2 6.84105 40.0363 6.39598 39.7634 6.03516C40.0363 5.67434 40.2 5.22926 40.2 4.74609C40.2 4.60582 40.1852 4.46895 40.1592 4.33594H40.8561C42.0731 4.33594 43.0632 3.3634 43.0632 2.16797C43.0632 0.972539 42.0731 0 40.8561 0H19.1438C17.9268 0 16.9368 0.972539 16.9368 2.16797C16.9368 3.3634 17.9268 4.33594 19.1438 4.33594H19.8407C19.8147 4.46895 19.7999 4.60582 19.7999 4.74609C19.7999 5.22926 19.9636 5.67434 20.2366 6.03516C19.9636 6.39598 19.7999 6.84105 19.7999 7.32422C19.7999 8.33754 20.5123 9.1882 21.4701 9.42457V11.4149L19.4847 11.4129H19.4838C19.187 11.4129 18.9094 11.5575 18.7429 11.799L17.6911 13.325L14.2494 11.0128C13.1431 10.2694 11.6267 10.5487 10.8697 11.6358L9.48871 13.6192L7.6539 12.4039L7.75781 12.2546C8.03697 11.8536 8.14052 11.3699 8.04926 10.8926C7.95799 10.4152 7.68301 10.0012 7.27477 9.72703L5.99231 8.86535C5.58407 8.59113 5.09172 8.48965 4.6057 8.57906C4.1198 8.66871 3.69844 8.93871 3.41916 9.33961L0.322404 13.7876C-0.25357 14.6152 -0.0369232 15.7488 0.805564 16.315L2.08802 17.1766C2.40703 17.3909 2.77053 17.4935 3.13046 17.4935C3.72146 17.4935 4.30292 17.2167 4.66118 16.7024L4.7281 16.6063L6.54812 17.843L4.76198 20.4083C4.00503 21.4954 4.28968 22.9847 5.39617 23.7282L8.89854 26.0812L7.31199 28.383C7.12326 28.6568 7.10692 29.0113 7.26964 29.3006L19.3888 50.8603C19.5461 51.1403 19.8457 51.3141 20.1713 51.3144L21.2318 51.3153V55.3338C21.2318 56.5499 22.2388 57.5391 23.4767 57.5391H26.6936C27.043 58.9495 28.3391 60 29.8809 60C31.4227 60 32.7188 58.9495 33.0682 57.5391H36.2851C37.5231 57.5391 38.5301 56.5499 38.5301 55.3338V51.3306L39.5544 51.3315H39.5552C39.8806 51.3315 40.1804 51.158 40.3381 50.8782L42.8058 46.4984L53.3904 46.4062C53.3924 46.4062 53.3943 46.4059 53.3962 46.4059C55.5935 46.3985 57.3789 44.6406 57.3789 42.4805C57.3789 40.8413 56.3504 39.4342 54.8942 38.8473L50.6242 32.6205L52.5994 29.1148C52.7619 28.8263 52.7464 28.4727 52.5591 28.1989L51.1075 26.0773L54.6038 23.7284C55.7103 22.9848 55.9949 21.4955 55.2379 20.4083L53.4519 17.8431L55.2719 16.6064L55.3389 16.7025C55.6971 17.217 56.2785 17.4936 56.8696 17.4936C57.2296 17.4936 57.593 17.391 57.9119 17.1768L59.1946 16.3151C60.0369 15.7489 60.2536 14.6152 59.6775 13.7873ZM19.1438 2.57812C18.9135 2.57812 18.7262 2.39414 18.7262 2.16797C18.7262 1.9418 18.9135 1.75781 19.1438 1.75781H40.8561C41.0864 1.75781 41.2737 1.9418 41.2737 2.16797C41.2737 2.39414 41.0864 2.57812 40.8561 2.57812H19.1438ZM22.007 7.73438C21.7767 7.73438 21.5894 7.55039 21.5894 7.32422C21.5894 7.09805 21.7767 6.91406 22.007 6.91406H37.993C38.2232 6.91406 38.4105 7.09805 38.4105 7.32422C38.4105 7.55039 38.2232 7.73438 37.993 7.73438H22.007ZM36.7403 9.49219V11.3672H23.2596V9.49219H36.7403ZM37.993 5.15625H22.007C21.7767 5.15625 21.5894 4.97227 21.5894 4.74609C21.5894 4.51992 21.7767 4.33594 22.007 4.33594H37.993C38.2232 4.33594 38.4105 4.51992 38.4105 4.74609C38.4105 4.97227 38.2232 5.15625 37.993 5.15625ZM3.76166 14.8806C3.76155 14.8807 3.76155 14.8807 3.76143 14.8808C3.76131 14.8809 3.76131 14.8811 3.76119 14.8812L3.18414 15.7099C3.16469 15.7375 3.12616 15.7443 3.09813 15.7257L1.81567 14.8641C1.78763 14.8452 1.78023 14.8072 1.79944 14.7797L4.89619 10.3321C4.89965 10.327 4.91063 10.3113 4.9358 10.3068C4.94022 10.3058 4.94427 10.3055 4.94809 10.3055C4.9661 10.3055 4.97779 10.3132 4.98221 10.3162L6.26467 11.1779C6.29282 11.1968 6.3001 11.2346 6.28089 11.2623L3.76166 14.8806ZM5.7382 15.1555L6.64368 13.8551L8.47861 15.0703L7.55822 16.3922L5.7382 15.1555ZM6.40652 22.2775C6.11423 22.0811 6.03919 21.6878 6.23902 21.4008L12.3469 12.6285C12.4711 12.4501 12.6728 12.354 12.8779 12.354C13.0027 12.354 13.1289 12.3896 13.2393 12.4639L16.5496 14.688L9.71681 24.5013L6.40652 22.2775ZM29.8807 58.2422C29.3426 58.2422 28.8716 57.9599 28.6093 57.5391H31.1519C30.8897 57.9599 30.4187 58.2422 29.8807 58.2422ZM36.7403 55.3338C36.7403 55.5805 36.536 55.7812 36.2849 55.7812H23.4765C23.2254 55.7812 23.021 55.5805 23.021 55.3338V53.8564H30.7158C31.21 53.8564 31.6105 53.463 31.6105 52.9775C31.6105 52.492 31.21 52.0986 30.7158 52.0986H23.021V51.3281L36.7403 51.3289V55.3338ZM41.7454 44.7496L31.657 44.8372C33.5897 43.3222 34.8314 40.991 34.8314 38.3789C34.8314 33.8234 31.0585 30.1172 26.4209 30.1172C25.3684 30.1172 24.3613 30.3098 23.432 30.6581L28.0867 22.6436C28.7774 25.5784 31.458 27.7734 34.6526 27.7734C38.0116 27.7734 40.8039 25.3473 41.3104 22.1855L48.5284 32.7107L41.7454 44.7496ZM26.4253 44.8827H26.419C22.769 44.8816 19.7999 41.9644 19.7999 38.3788C19.7999 34.7925 22.7701 31.8749 26.421 31.8749C30.0719 31.8749 33.0421 34.7925 33.0421 38.3788C33.0421 41.9638 30.0742 44.8805 26.4253 44.8827ZM29.7017 21.1523C29.7017 18.4707 31.9227 16.2891 34.6526 16.2891C37.3825 16.2891 39.6035 18.4707 39.6035 21.1523C39.6035 23.8339 37.3825 26.0156 34.6526 26.0156C31.9227 26.0156 29.7017 23.8339 29.7017 21.1523ZM55.5895 42.4805C55.5895 43.6759 54.5995 44.6484 53.3825 44.6484C52.1655 44.6484 51.1755 43.6759 51.1755 42.4805C51.1755 41.285 52.1655 40.3125 53.3825 40.3125C54.5995 40.3125 55.5895 41.285 55.5895 42.4805ZM52.5894 38.6326C50.7644 38.9951 49.386 40.5825 49.386 42.4805C49.386 43.2936 49.639 44.0498 50.0718 44.6771L43.8008 44.7316L49.6511 34.3479L52.5894 38.6326ZM53.761 21.4005C53.9609 21.6877 53.8858 22.0811 53.5935 22.2773L50.2832 24.5013L48.3282 21.6934C47.9875 21.204 47.2798 21.1336 46.8466 21.5466C46.8406 21.5523 46.8347 21.5579 46.8287 21.5636C46.4905 21.8858 46.4355 22.3996 46.6984 22.7838L50.769 28.7336L49.5015 30.9832L40.4701 17.8134C40.4695 17.8126 40.4688 17.8118 40.4682 17.811C39.2965 15.8509 37.1291 14.5312 34.6526 14.5312C32.1755 14.5312 30.0076 15.8516 28.8361 17.8126C28.8234 17.831 28.8108 17.8494 28.7993 17.869L19.947 33.1113C18.7383 34.5422 18.0105 36.3785 18.0105 38.3789C18.0105 42.9343 21.7833 46.6405 26.4208 46.6406H26.4289L40.7501 46.5162L39.0276 49.5732C39.0164 49.5729 39.0278 49.5729 39.0164 49.5729L20.7002 49.5572L9.10099 28.9226L19.9582 13.1713L40.1352 13.191L43.6603 18.3432C43.9987 18.8379 44.7126 18.906 45.1416 18.4846C45.4695 18.1624 45.5174 17.6566 45.2556 17.2807L43.4503 14.6878L46.7605 12.4637C47.0529 12.2675 47.4534 12.3411 47.6531 12.6282L49.5324 15.3273L53.761 21.4005ZM52.4417 16.3921L51.5213 15.0702L53.3561 13.855L54.2616 15.1554L52.4417 16.3921ZM58.1844 14.8642L56.9017 15.7259C56.8738 15.7444 56.8351 15.7377 56.8158 15.71L56.2387 14.8813C56.2386 14.8812 56.2386 14.8811 56.2385 14.8809C56.2385 14.8808 56.2384 14.8808 56.2383 14.8807L53.719 11.2625C53.6998 11.235 53.707 11.197 53.7351 11.1782L55.0178 10.3165C55.023 10.3129 55.0382 10.3015 55.0641 10.307C55.0893 10.3116 55.1003 10.3273 55.1037 10.3323L58.2004 14.7797C58.2197 14.8072 58.2123 14.8453 58.1844 14.8642Z" fill="#E81C2E"/>
</svg>
