<svg width="48" height="50" viewBox="0 0 48 50" fill="none" xmlns="http://www.w3.org/2000/svg">
<path d="M27.6638 17.4211H24.5908C24.1862 17.4211 23.8584 17.7491 23.8584 18.1536C23.8584 18.5581 24.1862 18.886 24.5908 18.886H27.6638C28.0684 18.886 28.3962 18.5581 28.3962 18.1536C28.3962 17.7491 28.0683 17.4211 27.6638 17.4211Z" fill="#E81C2E"/>
<path d="M27.6638 14.9702H24.5908C24.1862 14.9702 23.8584 15.2981 23.8584 15.7026C23.8584 16.1071 24.1862 16.4351 24.5908 16.4351H27.6638C28.0684 16.4351 28.3962 16.1071 28.3962 15.7026C28.3962 15.2981 28.0683 14.9702 27.6638 14.9702Z" fill="#E81C2E"/>
<path d="M23.6429 12.3904C22.5362 12.3904 21.6357 13.2908 21.6357 14.3976V19.4584C21.6357 20.5652 22.5362 21.4655 23.6429 21.4655H28.6123C29.719 21.4655 30.6194 20.5651 30.6194 19.4584V14.3976C30.6194 13.2908 29.719 12.3904 28.6123 12.3904H23.6429ZM29.1545 14.3976V19.4584C29.1545 19.7574 28.9112 20.0006 28.6122 20.0006H23.6428C23.3438 20.0006 23.1005 19.7573 23.1005 19.4584V14.3976C23.1005 14.0985 23.3438 13.8553 23.6428 13.8553H28.6122C28.9112 13.8553 29.1545 14.0985 29.1545 14.3976Z" fill="#E81C2E"/>
<path d="M0.330102 38.0074L8.28731 49.2417C8.86731 50.0606 10.0183 50.245 10.8529 49.6538C11.6399 49.0964 17.8913 44.6686 18.8394 43.9971C19.6664 43.4112 19.8653 42.2733 19.284 41.4527L19.0907 41.1797C21.1265 40.1624 23.3791 39.6396 25.6605 39.669L35.3413 39.7869C37.1489 39.8327 38.9589 39.2838 40.4354 38.2434L46.3729 34.0601C47.7702 33.0756 48.1573 31.1383 47.2356 29.7413C46.7615 29.0228 46.0344 28.539 45.188 28.3789C45.1747 28.3764 45.1613 28.3747 45.148 28.3724C44.9983 27.4836 44.5337 26.6739 43.8699 26.1991C42.4441 25.1794 40.4735 25.5247 39.4699 26.9718L35.0606 33.3296L33.6058 33.1847C34.0072 32.7003 34.2765 32.1006 34.3571 31.4383C34.5794 29.6145 33.3253 27.9674 31.5018 27.6886L20.7481 26.0445C19.3374 25.8286 17.9188 26.162 16.7538 26.9828L11.6048 30.6106L11.3269 30.2183C10.7448 29.3963 9.60483 29.2085 8.77922 29.7934C7.82949 30.4661 1.73892 34.78 0.79271 35.4502C-0.0411957 36.0409 -0.253505 37.1835 0.330102 38.0074ZM40.6737 27.8067C41.212 27.0306 42.2585 26.8478 43.0179 27.3907C43.3269 27.6117 43.5647 28.0135 43.6725 28.4615C43.3459 28.5619 43.0383 28.7177 42.779 28.9003L37.1789 32.8459L40.6737 27.8067ZM17.5975 28.1803C18.4516 27.5785 19.4917 27.3344 20.5268 27.4925L31.2805 29.1368C32.3163 29.2952 33.0291 30.2282 32.9031 31.2611C32.7908 32.1836 32.032 32.8913 31.099 32.944C30.9889 32.9501 31.4476 32.9823 27.0288 32.6293C26.6243 32.598 26.2725 32.8979 26.2403 33.3011C26.2081 33.7043 26.5088 34.0574 26.9121 34.0895C27.0101 34.0973 35.7108 34.7849 35.9144 34.8868C36.4201 34.9383 36.9504 34.7989 37.3681 34.5046L39.9643 32.6753L43.6228 30.0977C44.3844 29.561 45.4749 29.7324 46.0129 30.5478C46.5032 31.2908 46.2863 32.3292 45.5295 32.8624L39.5919 37.0457C38.3707 37.9062 36.8771 38.3595 35.3686 38.3221L25.6784 38.2042C23.0903 38.1745 20.5309 38.7816 18.2341 39.97C17.6632 39.1639 13.0315 32.6247 12.4514 31.8059L17.5975 28.1803ZM9.62592 30.9889C9.79506 30.8692 10.0204 30.9082 10.1316 31.065C10.6629 31.815 17.0915 40.8912 17.415 41.348L18.0888 42.2994C18.1996 42.4558 18.1622 42.6817 17.9929 42.8016L16.2693 44.0224C16.1497 43.8536 8.02198 32.3784 7.90235 32.2096L9.62592 30.9889ZM1.63931 36.6456L6.70691 33.0563C6.82654 33.2251 14.9543 44.7003 15.0739 44.8692L10.0063 48.4584C9.83061 48.5827 9.59574 48.5544 9.48275 48.3949L1.52544 37.1607C1.41626 37.0065 1.45815 36.7741 1.63931 36.6456Z" fill="#E81C2E"/>
<path d="M40.7484 22.617H32.5244C32.1198 22.617 31.792 22.945 31.792 23.3495C31.792 23.754 32.1198 24.0819 32.5244 24.0819H40.7484C41.9107 24.0819 42.8564 23.1362 42.8564 21.9738V2.10796C42.8564 0.945627 41.9108 0 40.7484 0C40.0037 0 21.644 0 20.8825 0C19.7201 0 18.7744 0.945627 18.7744 2.10796V21.9737C18.7744 23.1362 19.7201 24.0818 20.8825 24.0818H29.1064C29.511 24.0818 29.8388 23.7539 29.8388 23.3494C29.8388 22.9449 29.511 22.6169 29.1064 22.6169H20.8825C20.5278 22.6169 20.2393 22.3283 20.2393 21.9737V2.10796C20.2393 1.75336 20.5278 1.46488 20.8825 1.46488H27.3324V9.44162C27.3324 10.4102 28.4099 10.9812 29.2105 10.4571L30.8154 9.40685L32.4202 10.457C33.2261 10.9845 34.2984 10.4048 34.2984 9.44162V6.65845C34.2984 6.25395 33.9706 5.92601 33.566 5.92601C33.1614 5.92601 32.8335 6.25395 32.8335 6.65845V8.97686L31.48 8.0911C31.0762 7.82694 30.5545 7.82703 30.1509 8.0911L28.7974 8.97686V1.46488H32.8336V3.24041C32.8336 3.64491 33.1615 3.97284 33.5661 3.97284C33.9707 3.97284 34.2985 3.64491 34.2985 3.24041V1.46488H40.7485C41.1031 1.46488 41.3916 1.75336 41.3916 2.10796V21.9737C41.3915 22.3285 41.1031 22.617 40.7484 22.617Z" fill="#E81C2E"/>
</svg>
