<svg width="50" height="50" viewBox="0 0 50 50" fill="none" xmlns="http://www.w3.org/2000/svg">
<path d="M30.5668 20.3555L23.0543 27.4512L19.4489 23.742C19.0492 23.3305 18.391 23.3211 17.9799 23.7208C17.5684 24.1209 17.5591 24.7787 17.9588 25.1902L22.283 29.6292C22.6848 30.0334 23.334 30.0472 23.7524 29.6601L32.0154 21.8664C32.2161 21.6771 32.3333 21.4158 32.3411 21.1403C32.3488 20.8647 32.2466 20.5973 32.057 20.397C31.6548 19.979 30.9918 19.9607 30.5668 20.3555Z" fill="#E81C2E"/>
<path d="M24.992 9.4353C16.4061 9.4353 9.4248 16.4166 9.4248 25.0025C9.4248 33.5887 16.4061 40.57 24.992 40.57C33.5782 40.57 40.5595 33.5887 40.5595 25.0025C40.5595 16.4166 33.5782 9.4353 24.992 9.4353ZM24.992 38.486C17.5523 38.486 11.5088 32.4319 11.5088 25.0025C11.5088 17.573 17.5523 11.5193 24.992 11.5193C32.4389 11.5193 38.4755 17.5559 38.4755 25.0025C38.4755 32.449 32.4389 38.486 24.992 38.486Z" fill="#E81C2E"/>
<path d="M46.4154 19.2716L46.7594 13.0925C46.7834 12.6778 46.5579 12.2882 46.1863 12.1026L40.6845 9.32061L37.9024 3.81883C37.7132 3.45047 37.3261 3.2262 36.9126 3.24573L30.7229 3.5795L25.5651 0.171867C25.2175 -0.057289 24.7669 -0.057289 24.4189 0.171867L19.261 3.5795L13.0824 3.23556C12.6672 3.21114 12.2781 3.43663 12.0925 3.80865L9.31003 9.31044L3.80865 12.0925C3.43989 12.2813 3.21602 12.6684 3.23556 13.0824L3.57909 19.2614L0.171867 24.4193C-0.057289 24.7669 -0.057289 25.2175 0.171867 25.5655L3.56891 30.7335L3.22498 36.9126C3.20096 37.3273 3.42605 37.7168 3.79807 37.9024L9.29985 40.6845L12.0819 46.1863C12.2707 46.555 12.6578 46.7789 13.0718 46.7594L19.2508 46.4154L24.4087 49.8226C24.7543 50.0591 25.2093 50.0591 25.5549 49.8226L30.7127 46.4154L36.8918 46.7594C37.3066 46.7834 37.6957 46.5579 37.8817 46.1863L40.6637 40.6845L46.1655 37.9024C46.5339 37.7132 46.7581 37.3265 46.7386 36.9126L46.3947 30.7335L49.8019 25.5756C50.031 25.228 50.031 24.7771 49.8019 24.4294L46.4154 19.2716ZM44.4772 29.8791C44.3502 30.0656 44.2911 30.2898 44.3107 30.5149L44.6334 36.3602L39.4341 38.986C39.2359 39.0853 39.0751 39.2464 38.9758 39.4447L36.3496 44.644L30.5043 44.3213C30.2805 44.3131 30.0594 44.3709 29.8685 44.4877L24.992 47.7077L20.1158 44.4877C19.9465 44.3734 19.747 44.3115 19.5427 44.3107H19.4906L13.6449 44.6339L11.0191 39.4341C10.9198 39.2359 10.759 39.0751 10.5604 38.9758L5.35047 36.3602L5.67365 30.5149C5.68179 30.291 5.62359 30.07 5.50677 29.8791L2.28719 25.0025L5.50677 20.126C5.63417 19.9399 5.69319 19.7153 5.67365 19.4906L5.35047 13.6449L10.5502 11.0191C10.7485 10.9198 10.9092 10.759 11.0086 10.5608L13.6343 5.36105L19.48 5.68423C19.7035 5.69197 19.9245 5.63417 20.1158 5.51735L24.992 2.29777L29.8685 5.51735C30.055 5.64475 30.2796 5.70377 30.5043 5.68423L36.3496 5.36105L38.9758 10.5608C39.0751 10.759 39.2359 10.9198 39.4341 11.0191L44.6334 13.6449L44.3107 19.4906C44.3025 19.714 44.3607 19.9351 44.4772 20.126L47.6971 25.0025L44.4772 29.8791Z" fill="#E81C2E"/>
</svg>
