<svg width="60" height="54" viewBox="0 0 60 54" fill="none" xmlns="http://www.w3.org/2000/svg">
<path d="M4.25441 44.9296C3.21549 45.9873 3.21549 47.7085 4.25441 48.7663C4.77386 49.2952 5.45624 49.5596 6.13849 49.5596C6.82087 49.5596 7.50324 49.2952 8.0227 48.7663C9.06149 47.7085 9.06149 45.9873 8.0227 44.9296C6.9839 43.8718 5.29344 43.8718 4.25441 44.9296V44.9296ZM6.77949 47.5006C6.60825 47.6748 6.38064 47.7709 6.13849 47.7709C5.89635 47.7709 5.66873 47.6748 5.49749 47.5006C5.32625 47.3263 5.2319 47.0945 5.2319 46.848C5.2319 46.6014 5.32625 46.3697 5.49749 46.1953C5.66873 46.0211 5.89635 45.9251 6.13849 45.9251C6.38064 45.9251 6.60825 46.0211 6.77938 46.1953C7.13299 46.5551 7.13299 47.1407 6.77949 47.5006V47.5006Z" fill="#E81C2E"/>
<path d="M56.9065 23.2942C55.7039 21.3375 54.465 20.0747 53.8214 19.4866C54.3438 16.7457 53.1332 14.3615 50.2163 12.3927C47.6887 10.6868 44.2213 9.48673 41.1621 8.42797C40.2554 8.11412 39.3969 7.81673 38.6026 7.5209C32.3971 2.36867 26.5914 0.415492 26.3065 0.321694C25.8773 0.180519 25.4127 0.393057 25.2312 0.813598C21.9329 8.46187 18.1119 13.9248 16.804 15.6929C15.7206 15.2201 14.4152 15.4324 13.532 16.3315C12.806 17.0708 12.5356 18.1007 12.7203 19.0567C11.9026 19.7772 11.124 20.546 10.4012 21.3492C10.0731 21.7137 10.0974 22.2798 10.4553 22.6137C10.624 22.7711 10.8368 22.8489 11.049 22.8489C11.2868 22.8489 11.5239 22.7512 11.6972 22.5586C12.2906 21.8993 12.9241 21.2643 13.5875 20.6627L31.8551 39.2622C30.8902 40.3639 29.8337 41.3896 28.7027 42.3169C27.2929 43.4712 25.2876 43.4024 23.9359 42.1545C23.5037 41.7538 23.0716 41.3518 22.6435 40.9492C21.746 40.1039 20.5357 39.7226 19.3229 39.9033C18.112 40.0836 17.0616 40.8001 16.4409 41.8692C14.8297 44.6449 12.7718 47.5329 11.4364 48.8927C8.78442 51.594 4.98706 52.1226 2.97171 50.0717C0.957521 48.02 1.47698 44.1535 4.12947 41.4526C5.4621 40.0959 8.29907 38.0011 11.029 36.3583C12.0786 35.7258 12.7821 34.6563 12.959 33.4241C13.1362 32.1898 12.762 30.9576 11.9326 30.0437C11.5355 29.6061 11.1407 29.1661 10.7484 28.7277C9.88968 27.7632 9.57803 26.3926 9.93527 25.1506C10.0717 24.6762 9.80459 24.1791 9.33869 24.0402C8.8728 23.9014 8.38452 24.1732 8.24809 24.6476C7.72019 26.4832 8.17929 28.5074 9.44746 29.9314C9.84385 30.3745 10.2414 30.8177 10.6414 31.2586C11.1089 31.7734 11.3195 32.4683 11.2195 33.1651C11.1198 33.8597 10.7239 34.4622 10.1342 34.8175C7.24691 36.5551 4.33434 38.7128 2.8865 40.1868C-0.451413 43.5854 -0.970871 48.5874 1.72874 51.3374C2.89271 52.5219 4.46667 53.0978 6.14893 53.0977C8.37069 53.0976 10.7807 52.0927 12.6799 50.1582C14.1303 48.6814 16.2501 45.7163 17.9545 42.78C18.3034 42.179 18.895 41.776 19.5773 41.6744C20.2616 41.5725 20.9441 41.787 21.4502 42.2637C21.8818 42.6696 22.317 43.0744 22.7536 43.4793C24.7515 45.3237 27.7168 45.4213 29.8049 43.7116C31.1155 42.6373 32.3329 41.44 33.4323 40.1481C33.6209 40.1858 33.8144 40.2052 34.0109 40.2052C34.8039 40.2052 35.5494 39.8908 36.1101 39.32C36.6708 38.7491 36.9796 37.99 36.9796 37.1826C36.9796 36.7648 36.8963 36.3601 36.7388 35.9875C38.4023 34.7119 43.3878 31.095 50.3959 27.8435C50.4267 28.1137 50.4454 28.4477 50.4341 28.8487C50.4003 30.0368 50.0897 32.0566 48.8009 34.9326C48.5994 35.3824 48.7941 35.9132 49.2357 36.1184C49.354 36.1733 49.478 36.1995 49.6001 36.1995C49.9338 36.1995 50.2529 36.0049 50.4004 35.6757C53.0534 29.7551 52.0639 26.8282 51.8179 26.2628C51.5684 25.4998 48.9119 17.7396 41.9277 10.5864C44.5224 11.4986 47.2523 12.5398 49.2449 13.8847C51.7236 15.5577 52.5976 17.3663 51.9956 19.5764C51.8997 19.9283 52.025 20.3054 52.3099 20.5275C52.326 20.54 53.935 21.8096 55.4581 24.3124C57.491 27.6529 58.4187 31.4929 58.2153 35.726C57.9342 41.5797 55.0907 43.3759 53.8811 43.8764C52.3541 44.5081 50.7004 44.2841 49.668 43.3051C48.6143 42.3059 48.3661 40.7178 48.9691 38.8336C49.1195 38.3636 48.8673 37.8585 48.4057 37.7052C47.9439 37.5521 47.448 37.8089 47.2975 38.2789C46.4823 40.8261 46.9096 43.1355 48.4698 44.6149C49.4424 45.5373 50.759 46.0194 52.1436 46.0193C52.9384 46.0193 53.7559 45.8603 54.5431 45.5345C56.0651 44.9047 59.6407 42.6967 59.9714 35.8134C60.2488 30.039 58.4578 25.8183 56.9065 23.2942V23.2942ZM34.867 38.0543C34.6383 38.2871 34.3344 38.4153 34.011 38.4153C33.6877 38.4153 33.3836 38.2871 33.155 38.0543L14.7753 19.3406C14.3033 18.86 14.3033 18.078 14.7753 17.5974C15.0113 17.3571 15.3214 17.237 15.6314 17.237C15.9414 17.237 16.2514 17.3572 16.4874 17.5974L34.8671 36.3113C35.0958 36.5441 35.2217 36.8535 35.2217 37.1828C35.2217 37.512 35.0958 37.8215 34.867 38.0543ZM35.6509 34.5777L33.6625 32.5531C34.5758 31.7832 36.3194 30.3557 38.6717 28.6211C39.065 28.3311 39.1529 27.7716 38.8681 27.3713C38.5834 26.9709 38.0338 26.8814 37.6406 27.1714C35.1155 29.0334 33.306 30.5241 32.4133 31.2814L29.5572 28.3734C30.2104 27.7481 31.3257 26.6892 32.7803 25.341C33.1393 25.0082 33.1654 24.4422 32.8386 24.0767C32.5119 23.7113 31.9558 23.6847 31.5968 24.0172C30.1061 25.3989 28.9674 26.4808 28.3135 27.107L25.5264 24.2692C26.1413 23.6035 27.2039 22.444 28.561 20.9263C28.8877 20.5608 28.8616 19.9947 28.5026 19.6619C28.1436 19.3292 27.5877 19.3557 27.2608 19.7214C25.9368 21.2023 24.8967 22.3379 24.2826 23.003L21.4266 20.095C22.1704 19.1861 23.6344 17.3438 25.4632 14.7729C25.748 14.3725 25.6601 13.8129 25.2669 13.5229C24.8736 13.2329 24.3242 13.3226 24.0393 13.7228C22.3357 16.1179 20.9336 17.8931 20.1774 18.8231L18.1899 16.7994C19.4967 15.0465 23.1696 9.82242 26.5048 2.30196C28.6183 3.14042 34.8952 5.95676 40.5975 11.7627C46.3002 17.5691 49.0663 23.9604 49.8895 26.1116C42.5033 29.5073 37.3724 33.2471 35.6509 34.5777V34.5777Z" fill="#E81C2E"/>
</svg>
