<svg width="50" height="50" viewBox="0 0 50 50" fill="none" xmlns="http://www.w3.org/2000/svg">
<path d="M49.2662 13.3072C47.9443 13.3072 46.8689 12.2319 46.8689 10.9099C46.8689 10.5045 46.5404 10.176 46.1351 10.176C45.7297 10.176 45.4012 10.5045 45.4012 10.9099C45.4012 12.2318 44.3259 13.3072 43.0039 13.3072C42.5985 13.3072 42.27 13.6357 42.27 14.0411C42.27 14.4464 42.5985 14.7749 43.0039 14.7749C44.3258 14.7749 45.4012 15.8503 45.4012 17.1722C45.4012 17.5776 45.7297 17.9061 46.1351 17.9061C46.5404 17.9061 46.8689 17.5776 46.8689 17.1722C46.8689 15.8503 47.9442 14.7749 49.2662 14.7749C49.6716 14.7749 50.0001 14.4464 50.0001 14.0411C50.0001 13.6357 49.6716 13.3072 49.2662 13.3072ZM46.1352 14.9086C45.8937 14.5757 45.6004 14.2825 45.2676 14.0411C45.6005 13.7997 45.8938 13.5063 46.1352 13.1735C46.3766 13.5064 46.6699 13.7997 47.0027 14.0411C46.6698 14.2825 46.3766 14.5758 46.1352 14.9086Z" fill="#E81C2E"/>
<path d="M6.99618 13.3072C5.67441 13.3072 4.59892 12.2319 4.59892 10.9099C4.59892 10.5045 4.27031 10.176 3.86503 10.176C3.45976 10.176 3.13115 10.5045 3.13115 10.9099C3.13115 12.2318 2.05566 13.3072 0.733886 13.3072C0.328613 13.3072 0 13.6357 0 14.0411C0 14.4464 0.328613 14.7749 0.733886 14.7749C2.05566 14.7749 3.13115 15.8503 3.13115 17.1722C3.13115 17.5776 3.45976 17.9061 3.86503 17.9061C4.27031 17.9061 4.59892 17.5776 4.59892 17.1722C4.59892 15.8503 5.67441 14.7749 6.99618 14.7749C7.40145 14.7749 7.73007 14.4464 7.73007 14.0411C7.73007 13.6357 7.40145 13.3072 6.99618 13.3072ZM3.86503 14.9086C3.62363 14.5757 3.33037 14.2825 2.99746 14.0411C3.33046 13.7997 3.62373 13.5063 3.86503 13.1735C4.10644 13.5064 4.3997 13.7997 4.73261 14.0411C4.3998 14.2825 4.10644 14.5758 3.86503 14.9086Z" fill="#E81C2E"/>
<path d="M28.914 3.91386C27.1605 3.91386 25.7339 2.4874 25.7339 0.733788C25.734 0.328515 25.4055 0 25.0001 0C24.5949 0 24.2663 0.328515 24.2663 0.733886C24.2663 2.4874 22.8396 3.91396 21.0862 3.91396C20.6809 3.91396 20.3523 4.24248 20.3523 4.64785C20.3523 5.05322 20.6809 5.38173 21.0862 5.38173C22.8396 5.38173 24.2663 6.80829 24.2663 8.5618C24.2663 8.96717 24.5949 9.29569 25.0001 9.29569C25.4055 9.29569 25.734 8.96717 25.734 8.5618C25.734 6.80829 27.1606 5.38173 28.9141 5.38173C29.3195 5.38173 29.648 5.05322 29.648 4.64785C29.648 4.24248 29.3194 3.91386 28.914 3.91386ZM25.0001 6.05732C24.6373 5.49247 24.1554 5.01054 23.5905 4.64775C24.1554 4.28496 24.6373 3.80302 25.0001 3.23818C25.3629 3.80302 25.8449 4.28496 26.4097 4.64775C25.8449 5.01054 25.3629 5.49247 25.0001 6.05732Z" fill="#E81C2E"/>
<path d="M40.279 24.7557L37.4243 16.6674C37.2107 16.0622 36.6359 15.6555 35.9941 15.6555H13.8103C13.1684 15.6555 12.5937 16.0622 12.3802 16.6673L9.52549 24.7557C9.35967 25.2255 9.72002 25.7338 10.2175 25.7338H39.587C39.8251 25.7338 40.0484 25.6182 40.1859 25.4239C40.3235 25.2294 40.3583 24.9803 40.279 24.7557ZM11.2547 24.2661L13.7642 17.1558C13.7708 17.137 13.7902 17.1232 13.8102 17.1232H35.9941C36.0141 17.1232 36.0336 17.137 36.0403 17.1559L38.5498 24.2661H11.2547Z" fill="#E81C2E"/>
<path d="M38.9922 34.4421C36.386 34.4421 34.3445 35.796 34.3445 37.5244C34.3445 39.2527 36.386 40.6066 38.9922 40.6066C41.5985 40.6066 43.64 39.2527 43.64 37.5244C43.64 35.796 41.5985 34.4421 38.9922 34.4421ZM38.9922 39.1388C37.1721 39.1388 35.8122 38.2865 35.8122 37.5244C35.8122 36.7623 37.172 35.9099 38.9922 35.9099C40.8123 35.9099 42.1723 36.7623 42.1723 37.5244C42.1723 38.2865 40.8123 39.1388 38.9922 39.1388Z" fill="#E81C2E"/>
<path d="M10.8121 34.4424C8.20581 34.4424 6.16431 35.7963 6.16431 37.5246C6.16431 39.2529 8.20581 40.6068 10.8121 40.6068C13.4183 40.6068 15.4598 39.2529 15.4598 37.5246C15.4598 35.7963 13.4183 34.4424 10.8121 34.4424ZM10.8121 39.1391C8.99204 39.1391 7.63198 38.2867 7.63198 37.5246C7.63198 36.7625 8.99194 35.9102 10.8121 35.9102C12.6322 35.9102 13.9921 36.7625 13.9921 37.5246C13.9921 38.2867 12.6322 39.1391 10.8121 39.1391Z" fill="#E81C2E"/>
<path d="M48.3857 23.4833H44.4718C44.1351 23.4833 43.8415 23.7125 43.7599 24.0391L43.2444 26.1012L39.6388 15.8857C39.0945 14.3435 37.6298 13.3071 35.9942 13.3071H13.8104C12.1748 13.3071 10.7101 14.3435 10.1658 15.8858L6.56034 26.1013L6.04482 24.0391C5.96308 23.7124 5.66952 23.4833 5.3329 23.4833H1.41894C1.01367 23.4833 0.685059 23.8118 0.685059 24.2172V27.3483C0.685059 27.7537 1.01367 28.0822 1.41894 28.0822H5.47236L2.9705 31.5847C2.49961 32.244 2.25068 33.021 2.25068 33.8312V43.0039C2.25068 44.2749 2.86757 45.4044 3.81748 46.1091C3.81718 46.1177 3.81621 46.1262 3.81621 46.1349V48.4832C3.81621 49.3196 4.49658 49.9999 5.33281 49.9999H10.0295C10.8658 49.9999 11.5461 49.3195 11.5461 48.4832V46.8688H38.2583V48.4832C38.2583 49.3196 38.9387 49.9999 39.7749 49.9999H44.4716C45.3079 49.9999 45.9882 49.3195 45.9882 48.4832V46.1349C45.9882 46.1262 45.9872 46.1177 45.9869 46.1091C46.9368 45.4044 47.5537 44.2749 47.5537 43.0039V33.8312C47.5537 33.0209 47.3047 32.2439 46.8338 31.5847L44.332 28.0822H48.3855C48.7908 28.0822 49.1194 27.7537 49.1194 27.3483V24.2172C49.1195 23.8117 48.791 23.4833 48.3857 23.4833ZM2.15283 26.6143V24.951H4.75986L5.17568 26.6143H2.15283ZM10.0785 48.4832C10.0785 48.5102 10.0566 48.5322 10.0296 48.5322H5.3329C5.30595 48.5322 5.28398 48.5102 5.28398 48.4832V46.8688H6.11572H10.0785V48.4832ZM44.5206 48.4832C44.5206 48.5102 44.4987 48.5322 44.4717 48.5322H39.775C39.7481 48.5322 39.7261 48.5102 39.7261 48.4832V46.8688H43.6889H44.5206V48.4832ZM43.689 45.401H6.11562C5.0497 45.401 4.14443 44.7016 3.83369 43.7377H45.9708C45.6601 44.7016 44.7549 45.401 43.689 45.401ZM31.2134 37.4755V39.1388H18.5912V37.4755H31.2134ZM18.7065 36.0077C19.0173 35.0437 19.9224 34.3443 20.9884 34.3443H28.8163C29.8822 34.3443 30.7875 35.0437 31.0982 36.0077H18.7065ZM31.2134 40.6065V42.2699H18.5912V40.6065H31.2134ZM45.6398 32.4378C45.9319 32.8467 46.0863 33.3285 46.0863 33.8311V42.27H32.6812V36.7416C32.6812 34.6104 30.9473 32.8766 28.8163 32.8766H20.9884C18.8573 32.8766 17.1235 34.6105 17.1235 36.7416V42.27H3.71835V33.8311C3.71835 33.3285 3.87275 32.8467 4.16484 32.4378L7.27606 28.0821H34.2956C34.7009 28.0821 35.0294 27.7536 35.0294 27.3482C35.0294 26.9429 34.7009 26.6143 34.2956 26.6143H7.93563L11.5498 16.3742C11.8875 15.4177 12.7959 14.7748 13.8104 14.7748H35.9943C37.0087 14.7748 37.9171 15.4176 38.2549 16.3742L41.869 26.6143H37.4267C37.0213 26.6143 36.6928 26.9429 36.6928 27.3482C36.6928 27.7536 37.0213 28.0821 37.4267 28.0821H42.5286L45.6398 32.4378ZM47.6518 26.6143H44.6288L45.0447 24.951H47.6518V26.6143Z" fill="#E81C2E"/>
<path d="M13.1605 32.094H8.46387C8.05859 32.094 7.72998 32.4225 7.72998 32.8279C7.72998 33.2333 8.05859 33.5618 8.46387 33.5618H13.1605C13.5658 33.5618 13.8944 33.2333 13.8944 32.8279C13.8944 32.4225 13.5658 32.094 13.1605 32.094Z" fill="#E81C2E"/>
<path d="M41.3405 32.094H36.6438C36.2384 32.094 35.9099 32.4225 35.9099 32.8279C35.9099 33.2333 36.2384 33.5618 36.6438 33.5618H41.3405C41.7458 33.5618 42.0744 33.2333 42.0744 32.8279C42.0744 32.4225 41.7458 32.094 41.3405 32.094Z" fill="#E81C2E"/>
</svg>
