<svg width="60" height="61" viewBox="0 0 60 61" fill="none" xmlns="http://www.w3.org/2000/svg">
<path d="M55.5803 37.9234L52.3868 34.7407C50.019 32.3809 47.2079 30.5089 44.1141 29.2317C41.0204 27.9546 37.7045 27.2972 34.3558 27.2972C31.0071 27.2972 27.6912 27.9546 24.5975 29.2317C21.5037 30.5089 18.6927 32.3809 16.3248 34.7407L13.1477 37.9051H7.74194C5.68935 37.9074 3.7215 38.721 2.27011 40.1675C0.818711 41.6139 0.00230527 43.5751 0 45.6207V48.514C0.00153664 49.7925 0.511821 51.0181 1.41892 51.9221C2.32602 52.8261 3.55588 53.3347 4.83871 53.3362H9.74419C9.97852 55.2002 10.8877 56.9147 12.301 58.1578C13.7143 59.4008 15.5344 60.0868 17.4194 60.0868C19.3043 60.0868 21.1244 59.4008 22.5377 58.1578C23.951 56.9147 24.8602 55.2002 25.0945 53.3362H38.7765C39.0108 55.2002 39.92 56.9147 41.3333 58.1578C42.7466 59.4008 44.5667 60.0868 46.4516 60.0868C48.3366 60.0868 50.1567 59.4008 51.57 58.1578C52.9832 56.9147 53.8924 55.2002 54.1268 53.3362H56.129C57.1557 53.3362 58.1403 52.9298 58.8662 52.2063C59.5922 51.4828 60 50.5016 60 49.4784V42.7273C59.9986 41.5211 59.5442 40.3591 58.7263 39.47C57.9083 38.5809 56.786 38.0292 55.5803 37.9234ZM58.0645 42.7273V43.6918H55.1613C54.9046 43.6918 54.6585 43.5902 54.477 43.4093C54.2955 43.2284 54.1935 42.9831 54.1935 42.7273V39.834H55.1613C55.9313 39.834 56.6697 40.1388 57.2142 40.6814C57.7586 41.224 58.0645 41.96 58.0645 42.7273ZM52.8252 37.9051H35.8064V29.2742C41.5468 29.6098 46.9619 32.041 51.0174 36.1035L52.8252 37.9051ZM17.6961 36.1035C21.9872 31.8063 27.7887 29.3433 33.871 29.2366V37.9051H15.8845L17.6961 36.1035ZM7.74194 39.834V42.7273C7.74194 43.2389 7.53802 43.7295 7.17505 44.0912C6.81207 44.453 6.31977 44.6562 5.80645 44.6562H2.02258C2.2522 43.3093 2.95212 42.0867 3.99868 41.2043C5.04524 40.3219 6.37108 39.8365 7.74194 39.834ZM17.4194 58.1585C16.2709 58.1585 15.1483 57.8191 14.1935 57.1832C13.2386 56.5474 12.4944 55.6436 12.0549 54.5862C11.6154 53.5289 11.5004 52.3654 11.7245 51.2429C11.9485 50.1203 12.5015 49.0893 13.3136 48.28C14.1256 47.4707 15.1602 46.9196 16.2866 46.6963C17.4129 46.473 18.5804 46.5876 19.6414 47.0256C20.7024 47.4636 21.6092 48.2053 22.2472 49.1569C22.8853 50.1085 23.2258 51.2273 23.2258 52.3718C23.2243 53.906 22.612 55.377 21.5234 56.4619C20.4349 57.5468 18.9588 58.1569 17.4194 58.1585ZM46.4516 58.1585C45.3032 58.1585 44.1806 57.8191 43.2257 57.1832C42.2709 56.5474 41.5266 55.6436 41.0872 54.5862C40.6477 53.5289 40.5327 52.3654 40.7567 51.2429C40.9808 50.1203 41.5338 49.0893 42.3458 48.28C43.1579 47.4707 44.1925 46.9196 45.3188 46.6963C46.4452 46.473 47.6127 46.5876 48.6736 47.0256C49.7346 47.4636 50.6415 48.2053 51.2795 49.1569C51.9175 50.1085 52.2581 51.2273 52.2581 52.3718C52.2565 53.906 51.6443 55.377 50.5557 56.4619C49.4671 57.5468 47.9911 58.1569 46.4516 58.1585ZM56.129 51.4073H54.1268C53.8924 49.5434 52.9832 47.8288 51.57 46.5858C50.1567 45.3428 48.3366 44.6568 46.4516 44.6568C44.5667 44.6568 42.7466 45.3428 41.3333 46.5858C39.92 47.8288 39.0108 49.5434 38.7765 51.4073H25.0945C24.8602 49.5434 23.951 47.8288 22.5377 46.5858C21.1244 45.3428 19.3043 44.6568 17.4194 44.6568C15.5344 44.6568 13.7143 45.3428 12.301 46.5858C10.8877 47.8288 9.97852 49.5434 9.74419 51.4073H4.83871C4.06873 51.4073 3.33028 51.1025 2.78582 50.5599C2.24136 50.0173 1.93548 49.2814 1.93548 48.514V46.5851H5.80645C6.8331 46.5851 7.81769 46.1787 8.54364 45.4552C9.26959 44.7317 9.67742 43.7505 9.67742 42.7273V39.834H52.2581V42.7273C52.2581 43.4947 52.5639 44.2306 53.1084 44.7732C53.6529 45.3158 54.3913 45.6207 55.1613 45.6207H58.0645V49.4784C58.0645 49.99 57.8606 50.4806 57.4976 50.8424C57.1347 51.2041 56.6424 51.4073 56.129 51.4073Z" fill="#E81C2E"/>
<path d="M7.47885 8.00732C7.26582 7.63959 6.93698 7.3522 6.54335 7.1897C6.14972 7.02721 5.71328 6.9987 5.30173 7.1086C4.89018 7.2185 4.52652 7.46066 4.26715 7.79753C4.00778 8.1344 3.86719 8.54715 3.86719 8.97177C3.86719 9.39638 4.00778 9.80913 4.26715 10.146C4.52652 10.4829 4.89018 10.725 5.30173 10.8349C5.71328 10.9448 6.14972 10.9163 6.54335 10.7538C6.93698 10.5913 7.26582 10.3039 7.47885 9.93621H17.4253V11.8651H13.5543C13.4311 11.8652 13.3089 11.8884 13.1943 11.9336L9.90401 13.2462C9.56901 12.9839 9.15652 12.839 8.73051 12.8341C8.30449 12.8292 7.88876 12.9646 7.54778 13.2191C7.2068 13.4737 6.95963 13.8333 6.8446 14.2421C6.72956 14.6509 6.75309 15.0861 6.91154 15.4803C7.06999 15.8744 7.3545 16.2054 7.72096 16.422C8.08741 16.6386 8.51532 16.7286 8.93834 16.6781C9.36136 16.6276 9.75585 16.4394 10.0606 16.1427C10.3654 15.8461 10.5634 15.4574 10.624 15.0372L13.7401 13.794H17.4253V15.7229C16.6553 15.7229 15.9169 16.0277 15.3724 16.5703C14.828 17.1129 14.5221 17.8489 14.5221 18.6162C14.5236 19.8947 15.0339 21.1204 15.941 22.0244C16.8481 22.9284 18.078 23.4369 19.3608 23.4385H40.6511C41.9339 23.4369 43.1638 22.9284 44.0709 22.0244C44.978 21.1204 45.4883 19.8947 45.4898 18.6162C45.4898 17.8489 45.1839 17.1129 44.6395 16.5703C44.095 16.0277 43.3566 15.7229 42.5866 15.7229V13.794H46.2718L49.3889 15.0372C49.4488 15.4596 49.647 15.8506 49.9527 16.1492C50.2585 16.4479 50.6546 16.6376 51.0797 16.6888C51.5047 16.74 51.9348 16.6499 52.3032 16.4325C52.6716 16.2151 52.9576 15.8825 53.1168 15.4864C53.276 15.0904 53.2996 14.653 53.1837 14.2422C53.0679 13.8315 52.8192 13.4703 52.4762 13.2149C52.1333 12.9595 51.7153 12.8241 51.2872 12.8298C50.8591 12.8354 50.4449 12.9818 50.1089 13.2462L46.8185 11.9336C46.7036 11.8883 46.5811 11.865 46.4576 11.8651H42.5866V9.93621H52.5331C52.7461 10.3039 53.0749 10.5913 53.4686 10.7538C53.8622 10.9163 54.2986 10.9448 54.7102 10.8349C55.1217 10.725 55.4854 10.4829 55.7448 10.146C56.0041 9.80913 56.1447 9.39638 56.1447 8.97177C56.1447 8.54715 56.0041 8.1344 55.7448 7.79753C55.4854 7.46066 55.1217 7.2185 54.7102 7.1086C54.2986 6.9987 53.8622 7.02721 53.4686 7.1897C53.0749 7.3522 52.7461 7.63959 52.5331 8.00732H42.5866V6.07843H46.4576C46.5808 6.07838 46.703 6.05515 46.8176 6.00995L50.1079 4.69734C50.4429 4.95967 50.8554 5.10451 51.2814 5.10941C51.7074 5.1143 52.1231 4.97897 52.4641 4.72441C52.8051 4.46985 53.0523 4.11028 53.1673 3.70145C53.2823 3.29263 53.2588 2.85741 53.1004 2.46327C52.9419 2.06914 52.6574 1.73811 52.2909 1.52154C51.9245 1.30497 51.4966 1.21495 51.0736 1.26543C50.6505 1.31592 50.2561 1.5041 49.9513 1.80079C49.6465 2.09747 49.4485 2.48609 49.3879 2.90636L46.2718 4.14953H42.5866V3.18509C42.5866 2.41773 42.2807 1.68179 41.7363 1.13919C41.1918 0.596581 40.4534 0.291748 39.6834 0.291748H20.3285C19.5585 0.291748 18.8201 0.596581 18.2756 1.13919C17.7312 1.68179 17.4253 2.41773 17.4253 3.18509V4.14953H13.7401L10.623 2.90636C10.5631 2.48389 10.3649 2.09296 10.0592 1.79429C9.75342 1.49563 9.35725 1.30595 8.93222 1.25473C8.50719 1.20351 8.07708 1.2936 7.70871 1.51103C7.34033 1.72845 7.05432 2.06102 6.8951 2.45709C6.73587 2.85316 6.71235 3.29054 6.82818 3.7013C6.94402 4.11206 7.19272 4.47319 7.53567 4.72861C7.87861 4.98403 8.2966 5.11942 8.72469 5.11377C9.15278 5.10811 9.56701 4.96172 9.90304 4.69734L13.1934 6.00995C13.3083 6.05527 13.4308 6.0785 13.5543 6.07843H17.4253V8.00732H7.47885ZM43.5543 18.6162C43.5543 19.3836 43.2485 20.1195 42.704 20.6621C42.1595 21.2047 41.4211 21.5096 40.6511 21.5096H19.3608C18.5908 21.5096 17.8524 21.2047 17.3079 20.6621C16.7634 20.1195 16.4576 19.3836 16.4576 18.6162C16.4576 18.3604 16.5595 18.1151 16.741 17.9343C16.9225 17.7534 17.1686 17.6518 17.4253 17.6518H42.5866C42.8433 17.6518 43.0894 17.7534 43.2709 17.9343C43.4524 18.1151 43.5543 18.3604 43.5543 18.6162ZM36.7801 15.7229H23.2318V6.07843H36.7801V15.7229ZM20.3285 2.22064H39.6834C39.94 2.22064 40.1862 2.32225 40.3677 2.50312C40.5492 2.68399 40.6511 2.9293 40.6511 3.18509V15.7229H38.7156V5.11398C38.7156 4.85819 38.6137 4.61288 38.4322 4.43201C38.2507 4.25115 38.0046 4.14953 37.7479 4.14953H22.264C22.0074 4.14953 21.7612 4.25115 21.5797 4.43201C21.3982 4.61288 21.2963 4.85819 21.2963 5.11398V15.7229H19.3608V3.18509C19.3608 2.9293 19.4627 2.68399 19.6442 2.50312C19.8257 2.32225 20.0719 2.22064 20.3285 2.22064Z" fill="#E81C2E"/>
</svg>
