<svg width="60" height="54" viewBox="0 0 60 54" fill="none" xmlns="http://www.w3.org/2000/svg">
<path d="M59.0625 9.61002H53.4375V5.76601C53.4375 5.51114 53.3387 5.2667 53.1629 5.08648C52.9871 4.90626 52.7486 4.80501 52.5 4.80501H51.5625V0.961002C51.5625 0.706128 51.4637 0.461694 51.2879 0.281471C51.1121 0.101248 50.8736 0 50.625 0H45C44.7514 0 44.5129 0.101248 44.3371 0.281471C44.1613 0.461694 44.0625 0.706128 44.0625 0.961002V4.80501H43.125C42.8764 4.80501 42.6379 4.90626 42.4621 5.08648C42.2863 5.2667 42.1875 5.51114 42.1875 5.76601V9.61002H39.0171L37.4011 6.29716C37.3232 6.13754 37.2035 6.0033 37.0554 5.90948C36.9073 5.81567 36.7366 5.76599 36.5625 5.76601H23.4375C23.2634 5.76599 23.0927 5.81567 22.9446 5.90948C22.7965 6.0033 22.6768 6.13754 22.5989 6.29716L20.9829 9.61002H17.8125V5.76601C17.8125 5.51114 17.7137 5.2667 17.5379 5.08648C17.3621 4.90626 17.1236 4.80501 16.875 4.80501H15.9375V0.961002C15.9375 0.706128 15.8387 0.461694 15.6629 0.281471C15.4871 0.101248 15.2486 0 15 0H9.375C9.12636 0 8.8879 0.101248 8.71209 0.281471C8.53627 0.461694 8.4375 0.706128 8.4375 0.961002V4.80501H7.5C7.25136 4.80501 7.0129 4.90626 6.83709 5.08648C6.66127 5.2667 6.5625 5.51114 6.5625 5.76601V9.61002H0.9375C0.688859 9.61002 0.450403 9.71127 0.274587 9.89149C0.098772 10.0717 0 10.3161 0 10.571L0 18.259C0 18.5139 0.098772 18.7583 0.274587 18.9386C0.450403 19.1188 0.688859 19.22 0.9375 19.22H3.75V52.8551C3.75 53.11 3.84877 53.3544 4.02459 53.5346C4.2004 53.7149 4.43886 53.8161 4.6875 53.8161H55.3125C55.5611 53.8161 55.7996 53.7149 55.9754 53.5346C56.1512 53.3544 56.25 53.11 56.25 52.8551V19.22H59.0625C59.3111 19.22 59.5496 19.1188 59.7254 18.9386C59.9012 18.7583 60 18.5139 60 18.259V10.571C60 10.3161 59.9012 10.0717 59.7254 9.89149C59.5496 9.71127 59.3111 9.61002 59.0625 9.61002ZM45.9375 1.922H49.6875V4.80501H45.9375V1.922ZM44.0625 6.72701H51.5625V9.61002H44.0625V6.72701ZM24.0171 7.68802H35.9829L36.9204 9.61002H23.0796L24.0171 7.68802ZM10.3125 1.922H14.0625V4.80501H10.3125V1.922ZM8.4375 6.72701H15.9375V9.61002H8.4375V6.72701ZM54.375 51.8941H5.625V19.22H54.375V51.8941ZM58.125 17.298H1.875V11.532H58.125V17.298Z" fill="#E81C2E"/>
<path d="M20.6255 38.7219H27.188V46.41C27.1879 46.6034 27.2447 46.7923 27.351 46.9521C27.4573 47.1118 27.6082 47.235 27.7839 47.3054C27.9596 47.3759 28.152 47.3904 28.3358 47.347C28.5197 47.3036 28.6865 47.2043 28.8144 47.0622L40.0644 34.569C40.1882 34.4318 40.2702 34.2605 40.3004 34.0762C40.3307 33.8919 40.3078 33.7026 40.2347 33.5314C40.1616 33.3602 40.0414 33.2146 39.8888 33.1123C39.7362 33.0101 39.5578 32.9557 39.3755 32.9558H32.813V25.2677C32.8131 25.0743 32.7562 24.8853 32.6499 24.7256C32.5436 24.5658 32.3927 24.4427 32.217 24.3722C32.0413 24.3017 31.849 24.2873 31.6651 24.3307C31.4812 24.3741 31.3144 24.4733 31.1865 24.6154L19.9365 37.1086C19.8128 37.2459 19.7307 37.4171 19.7005 37.6014C19.6702 37.7857 19.6931 37.975 19.7662 38.1462C19.8393 38.3174 19.9595 38.4631 20.1121 38.5653C20.2648 38.6675 20.4431 38.722 20.6255 38.7219V38.7219ZM30.938 27.7256V33.9168C30.938 34.1717 31.0367 34.4161 31.2125 34.5963C31.3884 34.7766 31.6268 34.8778 31.8755 34.8778H37.234L29.063 43.9521V37.7608C29.063 37.506 28.9642 37.2615 28.7884 37.0813C28.6126 36.9011 28.3741 36.7998 28.1255 36.7998H22.7669L30.938 27.7256Z" fill="#E81C2E"/>
<path d="M45.9379 25.2675H46.8754V26.2285C46.8754 26.4834 46.9741 26.7278 47.15 26.908C47.3258 27.0883 47.5642 27.1895 47.8129 27.1895C48.0615 27.1895 48.3 27.0883 48.4758 26.908C48.6516 26.7278 48.7504 26.4834 48.7504 26.2285V25.2675H49.6879C49.9365 25.2675 50.175 25.1662 50.3508 24.986C50.5266 24.8058 50.6254 24.5614 50.6254 24.3065C50.6254 24.0516 50.5266 23.8072 50.3508 23.6269C50.175 23.4467 49.9365 23.3455 49.6879 23.3455H48.7504V22.3845C48.7504 22.1296 48.6516 21.8852 48.4758 21.7049C48.3 21.5247 48.0615 21.4235 47.8129 21.4235C47.5642 21.4235 47.3258 21.5247 47.15 21.7049C46.9741 21.8852 46.8754 22.1296 46.8754 22.3845V23.3455H45.9379C45.6892 23.3455 45.4508 23.4467 45.275 23.6269C45.0991 23.8072 45.0004 24.0516 45.0004 24.3065C45.0004 24.5614 45.0991 24.8058 45.275 24.986C45.4508 25.1662 45.6892 25.2675 45.9379 25.2675Z" fill="#E81C2E"/>
<path d="M10.3123 25.2678H14.0623C14.3109 25.2678 14.5494 25.1666 14.7252 24.9864C14.901 24.8061 14.9998 24.5617 14.9998 24.3068C14.9998 24.052 14.901 23.8075 14.7252 23.6273C14.5494 23.4471 14.3109 23.3458 14.0623 23.3458H10.3123C10.0636 23.3458 9.82516 23.4471 9.64934 23.6273C9.47353 23.8075 9.37476 24.052 9.37476 24.3068C9.37476 24.5617 9.47353 24.8061 9.64934 24.9864C9.82516 25.1666 10.0636 25.2678 10.3123 25.2678V25.2678Z" fill="#E81C2E"/>
</svg>
