<svg width="60" height="61" viewBox="0 0 60 61" fill="none" xmlns="http://www.w3.org/2000/svg">
<path d="M30 0.291748C13.4315 0.291748 0 13.6775 0 30.1896C0 46.7017 13.4315 60.0874 30 60.0874C46.5685 60.0874 60 46.7017 60 30.1896C59.9812 13.6852 46.5607 0.310434 30 0.291748ZM56.916 37.8574L55.037 37.2485L54.418 39.142L56.305 39.7529C55.5245 41.8745 54.4883 43.8939 53.219 45.7664L51.619 44.6103L50.443 46.2228L52.031 47.3729C50.6335 49.1506 49.0266 50.7542 47.245 52.1496L46.091 50.567L44.473 51.739L45.633 53.3335C43.7542 54.5971 41.7284 55.6284 39.6 56.405L38.987 54.5244L37.087 55.1413L37.698 57.0139C35.5169 57.6363 33.2675 57.9907 31 58.0693V56.1011H29V58.0693C26.7339 57.9905 24.4859 57.6361 22.306 57.0139L22.917 55.1413L21.017 54.5244L20.4 56.405C18.2711 55.6272 16.2449 54.5945 14.366 53.3295L15.526 51.735L13.908 50.563L12.754 52.1456C10.9711 50.7515 9.36288 49.1487 7.964 47.3719L9.552 46.2218L8.376 44.6093L6.776 45.7654C5.5105 43.8939 4.47763 41.8764 3.7 39.7569L5.587 39.146L4.968 37.2525L3.089 37.8614C2.46275 35.6878 2.1055 33.4461 2.025 31.1862H4V29.193H2.025C2.10413 26.9346 2.45975 24.6942 3.084 22.5218L4.963 23.1307L5.582 21.2372L3.7 20.6223C4.4805 18.5007 5.51675 16.4813 6.786 14.6088L8.386 15.7649L9.562 14.1524L7.965 13.0033C9.36388 11.2265 10.9721 9.62374 12.755 8.22963L13.909 9.81222L15.527 8.64022L14.367 7.04567C16.246 5.78386 18.2719 4.75413 20.4 3.97915L21.013 5.85972L22.913 5.24283L22.302 3.37023C24.483 2.74611 26.7324 2.39008 29 2.30985V4.27813H31V2.30985C33.2661 2.38871 35.5141 2.74312 37.694 3.36525L37.083 5.23785L38.983 5.85474L39.6 3.97915C41.7289 4.75699 43.7551 5.78971 45.634 7.05464L44.474 8.64919L46.092 9.82119L47.246 8.23859C49.0289 9.63271 50.6371 11.2355 52.036 13.0123L50.448 14.1624L51.624 15.7748L53.224 14.6188C54.4909 16.4884 55.5254 18.5043 56.305 20.6223L54.418 21.2332L55.037 23.1267L56.916 22.5178C57.5405 24.6915 57.8961 26.9332 57.975 29.193H56V31.1862H57.975C57.8959 33.4446 57.5403 35.6849 56.916 37.8574Z" fill="#E81C2E"/>
<path d="M30 8.26465C17.8497 8.26465 8 18.0809 8 30.1897C8 42.2986 17.8497 52.1148 30 52.1148C42.1503 52.1148 52 42.2986 52 30.1897C51.9863 18.0866 42.1445 8.27835 30 8.26465ZM30 50.1216C18.9543 50.1216 10 41.1979 10 30.1897C10 19.1816 18.9543 10.2578 30 10.2578C41.0457 10.2578 50 19.1816 50 30.1897C49.9874 41.1925 41.0405 50.109 30 50.1216Z" fill="#E81C2E"/>
<path d="M30 13.2474C20.6111 13.2474 13 20.8326 13 30.1895C13 39.5465 20.6111 47.1317 30 47.1317C39.3889 47.1317 47 39.5465 47 30.1895C46.9895 20.837 39.3845 13.2579 30 13.2474ZM42.859 22.5327C44.0216 24.4561 44.7305 26.6176 44.932 28.8541L38.669 28.3498C38.1186 28.3037 37.71 27.8216 37.7564 27.2733C37.7784 27.0133 37.9017 26.7722 38.1 26.6018L42.859 22.5327ZM33.339 15.6273L30.923 21.4076C30.7105 21.9156 30.125 22.1557 29.6152 21.944C29.3719 21.8428 29.1785 21.6501 29.077 21.4076L26.661 15.6273C28.857 15.1117 31.143 15.1117 33.339 15.6273ZM17.141 22.5325L21.9 26.6018C22.3194 26.96 22.3679 27.5892 22.0085 28.007C21.8369 28.2066 21.593 28.3305 21.33 28.3518L15.067 28.8561C15.2685 26.6187 15.9778 24.4564 17.141 22.5325ZM25.562 37.8374L24.11 43.9346C22.0411 43.0445 20.199 41.7035 18.719 40.01H18.716L24.068 36.7561C24.5394 36.4692 25.1548 36.6175 25.4426 37.0872C25.5803 37.3118 25.6231 37.5814 25.562 37.8374ZM35.89 43.9346H35.887L34.432 37.8374C34.3041 37.302 34.636 36.7646 35.1732 36.6371C35.4301 36.5762 35.7006 36.619 35.926 36.7561L41.278 40.01C39.7989 41.7031 37.9577 43.0441 35.89 43.9346ZM36.97 35.0539C35.5556 34.1939 33.7095 34.6392 32.8465 36.0488C32.4341 36.7223 32.3055 37.5312 32.489 38.2988L33.989 44.5854C31.3805 45.3228 28.6175 45.3228 26.009 44.5854H26.007L27.507 38.2988C27.8902 36.6925 26.8942 35.0805 25.2822 34.6985C24.5124 34.5161 23.7015 34.6442 23.026 35.0549L17.492 38.4214C15.9978 36.1692 15.148 33.5538 15.034 30.8563L21.492 30.336C23.1433 30.2011 24.3721 28.7576 24.2367 27.1119C24.1721 26.3272 23.7996 25.5996 23.2 25.087L18.28 20.8814C19.9706 18.7733 22.2006 17.1589 24.735 16.2083L27.227 22.1709C27.8639 23.6952 29.6201 24.4165 31.1497 23.7817C31.8807 23.4784 32.4616 22.8993 32.766 22.1709L35.259 16.2083C37.7931 17.1592 40.0231 18.7736 41.714 20.8814L36.8 25.087C35.5425 26.1622 35.3977 28.0497 36.4766 29.3028C36.9916 29.901 37.7228 30.2723 38.511 30.336L44.969 30.8563C44.855 33.5538 44.0053 36.1692 42.511 38.4214L36.97 35.0539Z" fill="#E81C2E"/>
<path d="M30 26.2031C27.7909 26.2031 26 27.9879 26 30.1895C26 32.3911 27.7909 34.1759 30 34.1759C32.2091 34.1759 34 32.3911 34 30.1895C34 27.9879 32.2091 26.2031 30 26.2031ZM30 32.1827C28.8954 32.1827 28 31.2904 28 30.1895C28 29.0886 28.8954 28.1963 30 28.1963C31.1046 28.1963 32 29.0886 32 30.1895C32 31.2904 31.1046 32.1827 30 32.1827Z" fill="#E81C2E"/>
</svg>
