<svg width="50" height="50" viewBox="0 0 50 50" fill="none" xmlns="http://www.w3.org/2000/svg">
<path d="M49.4338 17.3372L35.9156 3.81894C35.6292 3.53272 35.165 3.53272 34.8787 3.81894C34.5924 4.10536 34.5924 4.56949 34.8787 4.85581L48.3971 18.3741C48.4804 18.4575 48.5262 18.568 48.5261 18.6857C48.5261 18.8028 48.4803 18.9128 48.397 18.9961L46.7069 20.6862C46.5353 20.8577 46.2564 20.8577 46.0849 20.6862L29.3039 3.90535C29.2211 3.82266 29.1754 3.71268 29.1754 3.59558C29.1753 3.47798 29.2211 3.36732 29.3045 3.28394L30.9947 1.59379C31.1659 1.42253 31.4451 1.42253 31.6166 1.59379L32.4592 2.43642C32.7456 2.72264 33.2098 2.72264 33.4961 2.43642C33.7824 2.15 33.7824 1.68587 33.4961 1.39955L32.6529 0.556435C31.9093 -0.185706 30.7002 -0.185413 29.9577 0.556923L28.2677 2.24707C27.9072 2.60759 27.7087 3.08667 27.709 3.59636C27.7093 4.06098 27.8763 4.49901 28.1787 4.84505L27.3398 5.68358C26.993 5.38103 26.5547 5.21427 26.09 5.21427C25.5808 5.21427 25.1022 5.41251 24.7423 5.77253L23.0521 7.46259C22.692 7.82271 22.4938 8.3014 22.4938 8.8105C22.4938 9.27522 22.6606 9.71335 22.9629 10.0602L17.7709 15.2522C17.3739 15.6493 17.1551 16.1771 17.1551 16.7384C17.1551 17.2998 17.3738 17.8276 17.7709 18.2246L19.4424 19.8962C20.0772 20.531 21.0456 20.6925 21.8516 20.2984L23.2765 19.6021C23.5196 19.4833 23.812 19.5317 24.0036 19.7232L24.2104 19.93L14.8422 29.2973C13.6883 30.4513 12.0994 31.0254 10.4822 30.8728C7.62497 30.6026 4.82307 31.6114 2.79587 33.6397C1.04297 35.3936 0.0507726 37.7344 0.00189607 40.2311C-0.0470782 42.729 0.854107 45.1061 2.53927 46.9245C4.33099 48.857 6.76523 49.9486 9.39371 49.9981C9.45627 49.9994 9.51854 50 9.58101 50C12.1399 50 14.5386 49.0073 16.3529 47.1927C18.3928 45.153 19.3989 42.3353 19.1135 39.4616C18.9745 38.0668 19.4274 36.6296 20.3561 35.5187C20.6158 35.208 20.5744 34.7457 20.2637 34.486C19.9531 34.2264 19.4907 34.2676 19.2311 34.5783C18.0514 35.9897 17.4767 37.8226 17.6545 39.6068C17.8964 42.041 17.0441 44.4281 15.3162 46.1558C13.7418 47.7302 11.6494 48.5765 9.42138 48.5321C7.19505 48.4901 5.13276 47.5651 3.61465 45.9276C0.689295 42.7712 0.787244 37.7238 3.83293 34.6761C5.54997 32.9583 7.92292 32.1049 10.3443 32.3325C12.3974 32.5266 14.415 31.7979 15.8788 30.3341L25.2471 20.9668L29.0247 24.7443L21.6769 32.093C21.3905 32.3793 21.3905 32.8436 21.677 33.1298C21.8201 33.2729 22.0078 33.3445 22.1953 33.3445C22.3829 33.3445 22.5706 33.2729 22.7138 33.1297L30.0615 25.7811L30.2675 25.9871C30.4591 26.1786 30.5077 26.4713 30.3883 26.7154L29.6922 28.1389C29.2982 28.9452 29.4598 29.9134 30.0945 30.5482L31.7661 32.2198C32.1758 32.6295 32.7141 32.8344 33.2522 32.8344C33.7904 32.8344 34.3286 32.6295 34.7384 32.2198L39.9304 27.0278C40.2773 27.3304 40.7155 27.4972 41.1802 27.4972C41.6894 27.4972 42.168 27.2989 42.5281 26.9389L44.2182 25.2487C44.9298 24.5371 44.9581 23.3993 44.3071 22.6513L45.1465 21.8123C45.5038 22.1231 45.949 22.2804 46.3955 22.2804C46.8835 22.2804 47.3717 22.0945 47.7434 21.7231L49.4329 20.0335C49.7933 19.674 49.9918 19.1956 49.9921 18.6865C49.9927 18.1768 49.7943 17.6977 49.4338 17.3372ZM28.3813 6.71585L29.2112 5.88632L44.1051 20.7804L43.2753 21.6097L28.3813 6.71585ZM33.7018 31.1829C33.454 31.4307 33.0508 31.4306 32.8031 31.1829L31.1315 29.5115C30.9395 29.3194 30.8907 29.0266 31.0097 28.7829L31.7058 27.3595C32.1002 26.5528 31.939 25.5846 31.3047 24.9502L25.0406 18.6862C24.406 18.0517 23.438 17.8905 22.6323 18.285L21.2079 18.981C20.9642 19.1002 20.6714 19.0513 20.4795 18.8592L18.8078 17.1876C18.6877 17.0675 18.6216 16.908 18.6216 16.7383C18.6216 16.5688 18.6878 16.4091 18.8079 16.289L23.9954 11.1015L38.8891 25.9955L33.7018 31.1829ZM43.1815 24.2118L41.4914 25.902C41.4083 25.9851 41.2979 26.0308 41.1804 26.0308C41.0628 26.0308 40.9524 25.985 40.8693 25.9019L24.0889 9.12146C24.0058 9.03836 23.9602 8.928 23.9602 8.8104C23.9602 8.69281 24.0059 8.58245 24.0889 8.49936L25.7792 6.80921C25.8623 6.72612 25.9726 6.68046 26.0901 6.68046C26.2076 6.68046 26.3181 6.72621 26.4012 6.8093L43.1815 23.5898C43.3531 23.7612 43.3531 24.0403 43.1815 24.2118Z" fill="#E81C2E"/>
<path d="M12.9793 37.0117C12.0702 36.1025 10.8615 35.6018 9.57588 35.6018C8.29023 35.6018 7.08142 36.1025 6.17232 37.0116C4.29575 38.8883 4.29575 41.942 6.17232 43.8186C7.08152 44.7277 8.29023 45.2284 9.57588 45.2284C10.8615 45.2284 12.0703 44.7277 12.9793 43.8185V43.8186C14.8559 41.9419 14.8559 38.8883 12.9793 37.0117ZM11.9425 42.7817C11.3103 43.4139 10.4699 43.762 9.57588 43.762C8.68183 43.762 7.84135 43.4138 7.20918 42.7817C6.57701 42.1495 6.22891 41.3091 6.22891 40.4151C6.22891 39.521 6.57711 38.6806 7.20918 38.0485C7.84135 37.4162 8.68183 37.0681 9.57588 37.0681C10.4699 37.0681 11.3103 37.4163 11.9425 38.0485C12.5746 38.6806 12.9227 39.521 12.9227 40.4151C12.9227 41.3091 12.5746 42.1495 11.9425 42.7817Z" fill="#E81C2E"/>
<path d="M34.0075 23.3405L26.6505 15.9835C26.3641 15.6972 25.9 15.6972 25.6137 15.9835C25.3273 16.2699 25.3273 16.734 25.6137 17.0203L32.9707 24.3773C33.1139 24.5204 33.3015 24.592 33.4891 24.592C33.6767 24.592 33.8644 24.5204 34.0076 24.3773C34.2937 24.091 34.2937 23.6269 34.0075 23.3405Z" fill="#E81C2E"/>
</svg>
