<svg width="60" height="61" viewBox="0 0 60 61" fill="none" xmlns="http://www.w3.org/2000/svg">
<path d="M59.6775 14.0321L56.5808 9.59967C56.3015 9.20014 55.8801 8.93094 55.3942 8.84171C54.9083 8.75272 54.4157 8.85386 54.0077 9.12703L52.725 9.98577C52.3169 10.2591 52.0418 10.6716 51.9507 11.1474C51.8594 11.623 51.9631 12.1051 52.2421 12.5048L52.346 12.6536L50.5112 13.8647L49.1302 11.888C48.3731 10.8048 46.8571 10.526 45.7504 11.2672L42.3598 13.5374L41.3549 12.0737C41.1889 11.832 40.9109 11.6868 40.6132 11.6864L38.5298 11.6843V9.68423C39.4877 9.44855 40.2 8.60078 40.2 7.59103C40.2 7.10951 40.0363 6.66595 39.7634 6.30635C40.0363 5.94676 40.2 5.5032 40.2 5.02168C40.2 4.88188 40.1852 4.74548 40.1592 4.61292H40.8561C42.0731 4.61292 43.0632 3.64369 43.0632 2.45233C43.0632 1.26098 42.0731 0.291748 40.8561 0.291748H19.1438C17.9268 0.291748 16.9368 1.26098 16.9368 2.45233C16.9368 3.64369 17.9268 4.61292 19.1438 4.61292H19.8407C19.8147 4.74548 19.7999 4.88188 19.7999 5.02168C19.7999 5.5032 19.9636 5.94676 20.2366 6.30635C19.9636 6.66595 19.7999 7.10951 19.7999 7.59103C19.7999 8.6009 20.5123 9.44866 21.4701 9.68423V11.6678L19.4847 11.6658H19.4838C19.187 11.6658 18.9094 11.8099 18.7429 12.0506L17.6911 13.5714L14.2494 11.2671C13.1431 10.5262 11.6267 10.8046 10.8697 11.8879L9.48871 13.8646L7.6539 12.6535L7.75781 12.5047C8.03697 12.105 8.14052 11.6229 8.04926 11.1472C7.95799 10.6714 7.68301 10.2589 7.27477 9.98566L5.99231 9.12691C5.58407 8.85363 5.09172 8.75249 4.6057 8.8416C4.1198 8.93094 3.69844 9.20002 3.41916 9.59955L0.322404 14.0324C-0.25357 14.8571 -0.0369232 15.9869 0.805564 16.5512L2.08802 17.4099C2.40703 17.6234 2.77053 17.7257 3.13046 17.7257C3.72146 17.7257 4.30292 17.4498 4.66118 16.9373L4.7281 16.8415L6.54812 18.074L4.76198 20.6306C4.00503 21.7139 4.28968 23.1982 5.39617 23.9392L8.89854 26.2842L7.31199 28.5781C7.12326 28.851 7.10692 29.2042 7.26964 29.4926L19.3888 50.9789C19.5461 51.2579 19.8457 51.4311 20.1713 51.4314L21.2318 51.4324V55.4372C21.2318 56.6491 22.2388 57.6349 23.4767 57.6349H26.6936C27.043 59.0405 28.3391 60.0874 29.8809 60.0874C31.4227 60.0874 32.7188 59.0405 33.0682 57.6349H36.2851C37.5231 57.6349 38.5301 56.6491 38.5301 55.4372V51.4475L39.5544 51.4485H39.5552C39.8806 51.4485 40.1804 51.2755 40.3381 50.9967L42.8058 46.6318L53.3904 46.54C53.3924 46.54 53.3943 46.5396 53.3962 46.5396C55.5935 46.5323 57.3789 44.7803 57.3789 42.6276C57.3789 40.9939 56.3504 39.5916 54.8942 39.0068L50.6242 32.8012L52.5994 29.3074C52.7619 29.0198 52.7464 28.6675 52.5591 28.3947L51.1075 26.2802L54.6038 23.9393C55.7103 23.1983 55.9949 21.714 55.2379 20.6306L53.4519 18.0741L55.2719 16.8416L55.3389 16.9374C55.6971 17.4501 56.2785 17.7258 56.8696 17.7258C57.2296 17.7258 57.593 17.6235 57.9119 17.41L59.1946 16.5513C60.0369 15.9871 60.2536 14.8571 59.6775 14.0321ZM19.1438 2.86109C18.9135 2.86109 18.7262 2.67774 18.7262 2.45233C18.7262 2.22693 18.9135 2.04357 19.1438 2.04357H40.8561C41.0864 2.04357 41.2737 2.22693 41.2737 2.45233C41.2737 2.67774 41.0864 2.86109 40.8561 2.86109H19.1438ZM22.007 7.99979C21.7767 7.99979 21.5894 7.81643 21.5894 7.59103C21.5894 7.36562 21.7767 7.18227 22.007 7.18227H37.993C38.2232 7.18227 38.4105 7.36562 38.4105 7.59103C38.4105 7.81643 38.2232 7.99979 37.993 7.99979H22.007ZM36.7403 9.75161V11.6202H23.2596V9.75161H36.7403ZM37.993 5.43044H22.007C21.7767 5.43044 21.5894 5.24708 21.5894 5.02168C21.5894 4.79628 21.7767 4.61292 22.007 4.61292H37.993C38.2232 4.61292 38.4105 4.79628 38.4105 5.02168C38.4105 5.24708 38.2232 5.43044 37.993 5.43044ZM3.76166 15.1217C3.76155 15.1218 3.76155 15.1218 3.76143 15.1219C3.76131 15.122 3.76131 15.1221 3.76119 15.1222L3.18414 15.9482C3.16469 15.9756 3.12616 15.9824 3.09813 15.9639L1.81567 15.1052C1.78763 15.0864 1.78023 15.0486 1.79944 15.0211L4.89619 10.5886C4.89965 10.5836 4.91063 10.568 4.9358 10.5634C4.94022 10.5625 4.94427 10.5621 4.94809 10.5621C4.9661 10.5621 4.97779 10.5698 4.98221 10.5729L6.26467 11.4316C6.29282 11.4504 6.3001 11.4881 6.28089 11.5157L3.76166 15.1217ZM5.7382 15.3956L6.64368 14.0996L8.47861 15.3107L7.55822 16.6281L5.7382 15.3956ZM6.40652 22.4933C6.11423 22.2976 6.03919 21.9057 6.23902 21.6197L12.3469 12.8772C12.4711 12.6995 12.6728 12.6037 12.8779 12.6037C13.0027 12.6037 13.1289 12.6392 13.2393 12.7133L16.5496 14.9298L9.71681 24.7096L6.40652 22.4933ZM29.8807 58.3356C29.3426 58.3356 28.8716 58.0543 28.6093 57.6349H31.1519C30.8897 58.0543 30.4187 58.3356 29.8807 58.3356ZM36.7403 55.4372C36.7403 55.683 36.536 55.8831 36.2849 55.8831H23.4765C23.2254 55.8831 23.021 55.683 23.021 55.4372V53.9648H30.7158C31.21 53.9648 31.6105 53.5727 31.6105 53.0889C31.6105 52.605 31.21 52.213 30.7158 52.213H23.021V51.4451L36.7403 51.4459V55.4372ZM41.7454 44.8889L31.657 44.9763C33.5897 43.4665 34.8314 41.1432 34.8314 38.54C34.8314 33.9999 31.0585 30.3064 26.4209 30.3064C25.3684 30.3064 24.3613 30.4984 23.432 30.8455L28.0867 22.8582C28.7774 25.783 31.458 27.9706 34.6526 27.9706C38.0116 27.9706 40.8039 25.5527 41.3104 22.4017L48.5284 32.891L41.7454 44.8889ZM26.4253 45.0216H26.419C22.769 45.0206 19.7999 42.1132 19.7999 38.5398C19.7999 34.9658 22.7701 32.0581 26.421 32.0581C30.0719 32.0581 33.0421 34.9658 33.0421 38.5398C33.0421 42.1126 30.0742 45.0194 26.4253 45.0216ZM29.7017 21.3721C29.7017 18.6996 31.9227 16.5253 34.6526 16.5253C37.3825 16.5253 39.6035 18.6996 39.6035 21.3721C39.6035 24.0445 37.3825 26.2188 34.6526 26.2188C31.9227 26.2188 29.7017 24.0445 29.7017 21.3721ZM55.5895 42.6276C55.5895 43.8189 54.5995 44.7882 53.3825 44.7882C52.1655 44.7882 51.1755 43.8189 51.1755 42.6276C51.1755 41.4362 52.1655 40.467 53.3825 40.467C54.5995 40.467 55.5895 41.4362 55.5895 42.6276ZM52.5894 38.7928C50.7644 39.154 49.386 40.7361 49.386 42.6276C49.386 43.438 49.639 44.1916 50.0718 44.8168L43.8008 44.8711L49.6511 34.5227L52.5894 38.7928ZM53.761 21.6194C53.9609 21.9056 53.8858 22.2976 53.5935 22.4932L50.2832 24.7096L48.3282 21.9113C47.9875 21.4236 47.2798 21.3534 46.8466 21.7649C46.8406 21.7707 46.8347 21.7763 46.8287 21.7819C46.4905 22.103 46.4355 22.615 46.6984 22.998L50.769 28.9275L49.5015 31.1694L40.4701 18.0445C40.4695 18.0437 40.4688 18.0429 40.4682 18.0421C39.2965 16.0887 37.1291 14.7735 34.6526 14.7735C32.1755 14.7735 30.0076 16.0894 28.8361 18.0437C28.8234 18.062 28.8108 18.0804 28.7993 18.0999L19.947 33.2903C18.7383 34.7163 18.0105 36.5464 18.0105 38.54C18.0105 43.0799 21.7833 46.7734 26.4208 46.7736H26.4289L40.7501 46.6495L39.0276 49.6962C39.0164 49.6958 39.0278 49.6958 39.0164 49.6958L20.7002 49.6802L9.10099 29.1158L19.9582 13.4182L40.1352 13.4378L43.6603 18.5725C43.9987 19.0655 44.7126 19.1333 45.1416 18.7134C45.4695 18.3923 45.5174 17.8883 45.2556 17.5136L43.4503 14.9295L46.7605 12.713C47.0529 12.5175 47.4534 12.5909 47.6531 12.877L49.5324 15.5669L53.761 21.6194ZM52.4417 16.628L51.5213 15.3106L53.3561 14.0995L54.2616 15.3955L52.4417 16.628ZM58.1844 15.1053L56.9017 15.9641C56.8738 15.9825 56.8351 15.9759 56.8158 15.9483L56.2387 15.1224C56.2386 15.1222 56.2386 15.1221 56.2385 15.122C56.2385 15.1219 56.2384 15.1219 56.2383 15.1218L53.719 11.5159C53.6998 11.4885 53.707 11.4507 53.7351 11.4318L55.0178 10.5731C55.023 10.5695 55.0382 10.5582 55.0641 10.5636C55.0893 10.5682 55.1003 10.5838 55.1037 10.5889L58.2004 15.0211C58.2197 15.0486 58.2123 15.0865 58.1844 15.1053Z" fill="#E81C2E"/>
</svg>
