<svg width="50" height="50" viewBox="0 0 50 50" fill="none" xmlns="http://www.w3.org/2000/svg">
<path d="M26.6668 41.6664C27.8206 41.6664 28.9484 41.3243 29.9077 40.6833C30.8669 40.0424 31.6146 39.1313 32.0561 38.0654C32.4976 36.9995 32.6132 35.8266 32.3881 34.6951C32.163 33.5635 31.6074 32.5241 30.7916 31.7083C29.9758 30.8925 28.9364 30.3369 27.8049 30.1118C26.6733 29.8868 25.5004 30.0023 24.4345 30.4438C23.3686 30.8853 22.4576 31.633 21.8166 32.5923C21.1756 33.5516 20.8335 34.6794 20.8335 35.8331C20.8352 37.3797 21.4504 38.8624 22.544 39.956C23.6375 41.0496 25.1203 41.6647 26.6668 41.6664ZM26.6668 31.6664C27.4909 31.6664 28.2965 31.9108 28.9817 32.3686C29.6669 32.8265 30.201 33.4772 30.5163 34.2386C30.8317 34.9999 30.9142 35.8377 30.7534 36.646C30.5927 37.4542 30.1958 38.1967 29.6131 38.7794C29.0304 39.3621 28.288 39.7589 27.4797 39.9197C26.6715 40.0805 25.8337 39.998 25.0723 39.6826C24.311 39.3672 23.6602 38.8332 23.2024 38.148C22.7445 37.4628 22.5002 36.6572 22.5002 35.8331C22.5014 34.7284 22.9408 33.6693 23.7219 32.8882C24.5031 32.1071 25.5621 31.6677 26.6668 31.6664Z" fill="#E81C2E"/>
<path d="M38.2638 38.8591L40.1945 38.3962C40.3765 38.3525 40.5386 38.2488 40.6545 38.1018C40.7705 37.9548 40.8335 37.7731 40.8335 37.5858V34.081C40.8335 33.8938 40.7705 33.712 40.6545 33.565C40.5386 33.418 40.3765 33.3143 40.1945 33.2706L38.2639 32.8078C37.9527 32.7332 37.6635 32.5859 37.4201 32.3781C37.1767 32.1703 36.9859 31.9079 36.8634 31.6122C36.7409 31.3165 36.6901 30.996 36.7152 30.677C36.7403 30.3579 36.8405 30.0493 37.0077 29.7764L38.0518 28.0725C38.1496 27.9129 38.1909 27.725 38.1689 27.5391C38.1469 27.3532 38.0629 27.1802 37.9306 27.0478L35.4524 24.5698C35.32 24.4375 35.1469 24.3535 34.9611 24.3315C34.7752 24.3096 34.5874 24.3508 34.4278 24.4485L32.7239 25.4926C32.451 25.6598 32.1424 25.7601 31.8233 25.7851C31.5043 25.8102 31.1838 25.7594 30.8882 25.6369C30.5925 25.5144 30.33 25.3236 30.1222 25.0802C29.9144 24.8368 29.7672 24.5477 29.6926 24.2364L29.2296 22.3058C29.186 22.1237 29.0823 21.9617 28.9353 21.8457C28.7883 21.7298 28.6065 21.6668 28.4193 21.6667H24.9144C24.7272 21.6667 24.5454 21.7298 24.3984 21.8457C24.2514 21.9617 24.1477 22.1237 24.1041 22.3058L23.6412 24.2363C23.5666 24.5476 23.4194 24.8367 23.2116 25.0801C23.0038 25.3236 22.7413 25.5143 22.4456 25.6369C22.1499 25.7594 21.8295 25.8102 21.5104 25.7851C21.1913 25.76 20.8827 25.6598 20.6098 25.4925L18.9059 24.4484L18.0352 25.8695L19.739 26.9136C20.2361 27.2183 20.7984 27.401 21.3797 27.4467C21.961 27.4924 22.5449 27.3998 23.0836 27.1766C23.6223 26.9534 24.1005 26.6058 24.4791 26.1623C24.8577 25.7189 25.126 25.1921 25.2619 24.625L25.5716 23.3334H27.7621L28.0719 24.625C28.2078 25.192 28.4761 25.7188 28.8547 26.1623C29.2332 26.6058 29.7114 26.9534 30.2501 27.1766C30.7888 27.3998 31.3726 27.4924 31.9539 27.4467C32.5352 27.401 33.0975 27.2184 33.5946 26.9137L34.7384 26.2128L36.2875 27.7618L35.5866 28.9055C35.282 29.4027 35.0993 29.9649 35.0536 30.5463C35.0079 31.1276 35.1005 31.7115 35.3237 32.2501C35.5469 32.7888 35.8945 33.267 36.3379 33.6456C36.7814 34.0243 37.3082 34.2925 37.8752 34.4285L39.1669 34.7381V36.9287L37.8752 37.2384C37.3082 37.3744 36.7814 37.6426 36.338 38.0212C35.8945 38.3998 35.5469 38.878 35.3237 39.4167C35.1004 39.9553 35.0079 40.5392 35.0536 41.1205C35.0993 41.7018 35.2819 42.264 35.5865 42.7612L36.2874 43.905L34.7384 45.4541L33.5947 44.7532C33.0976 44.4485 32.5353 44.2659 31.954 44.2202C31.3727 44.1745 30.7888 44.267 30.2501 44.4902C29.7114 44.7135 29.2332 45.061 28.8546 45.5045C28.476 45.948 28.2077 46.4748 28.0718 47.0418L27.7621 48.3334H25.5716L25.2618 47.0418C25.1259 46.4748 24.8576 45.948 24.479 45.5045C24.1005 45.061 23.6223 44.7135 23.0836 44.4902C22.5449 44.267 21.9611 44.1745 21.3798 44.2201C20.7985 44.2658 20.2362 44.4485 19.7391 44.7531L18.0352 45.7972L18.9059 47.2183L20.6098 46.1742C20.8827 46.007 21.1913 45.9068 21.5104 45.8817C21.8294 45.8566 22.1499 45.9074 22.4456 46.0299C22.7412 46.1525 23.0037 46.3432 23.2115 46.5866C23.4193 46.83 23.5665 47.1192 23.6411 47.4304L24.1041 49.361C24.1477 49.5431 24.2514 49.7052 24.3984 49.8211C24.5454 49.937 24.7272 50.0001 24.9144 50.0001H28.4193C28.6065 50.0001 28.7883 49.937 28.9353 49.8211C29.0823 49.7052 29.186 49.5431 29.2296 49.361L29.6925 47.4305C29.7671 47.1193 29.9143 46.8301 30.1221 46.5867C30.3299 46.3433 30.5924 46.1525 30.8881 46.03C31.1838 45.9074 31.5042 45.8566 31.8233 45.8817C32.1424 45.9068 32.451 46.0071 32.7239 46.1743L34.4278 47.2184C34.5874 47.3162 34.7753 47.3574 34.9611 47.3354C35.147 47.3134 35.3201 47.2295 35.4525 47.0971L37.9305 44.619C38.0628 44.4867 38.1468 44.3136 38.1688 44.1277C38.1908 43.9418 38.1495 43.7539 38.0517 43.5943L37.0076 41.8904C36.8404 41.6176 36.7402 41.309 36.7151 40.9899C36.6901 40.6708 36.7409 40.3504 36.8634 40.0547C36.9859 39.7591 37.1767 39.4966 37.4201 39.2888C37.6635 39.081 37.9526 38.9338 38.2638 38.8591V38.8591Z" fill="#E81C2E"/>
<path d="M49.1666 23.3333H45.8333V19.1666C45.8332 18.9456 45.7454 18.7336 45.5892 18.5773C45.4329 18.4211 45.2209 18.3333 44.9999 18.3333H41.6666C41.4456 18.3333 41.2336 18.4211 41.0773 18.5773C40.9211 18.7336 40.8333 18.9456 40.8333 19.1666V23.3333H38.3333V24.9999H48.3333V28.3333H39.1666V29.9999H48.3333V33.3333H42.4999V34.9999H48.3333V38.3333H42.4999V39.9999H48.3333V43.3333H39.9999V44.9999H40.8333V49.1666C40.8333 49.3876 40.9211 49.5996 41.0773 49.7558C41.2336 49.9121 41.4456 49.9999 41.6666 49.9999H44.9999C45.2209 49.9999 45.4329 49.9121 45.5892 49.7558C45.7454 49.5996 45.8332 49.3876 45.8333 49.1666V44.9999H49.1666C49.3876 44.9999 49.5996 44.9121 49.7558 44.7558C49.9121 44.5996 49.9999 44.3876 49.9999 44.1666V24.1666C49.9999 23.9456 49.9121 23.7336 49.7558 23.5773C49.5996 23.4211 49.3876 23.3333 49.1666 23.3333ZM44.1666 23.3333H42.4999V19.9999H44.1666V23.3333ZM44.1666 48.3333H42.4999V44.9999H44.1666V48.3333Z" fill="#E81C2E"/>
<path d="M12.7376 23.9292L12.2624 25.5267C14.1535 26.0892 15 26.9231 15 27.5C15 28.0175 14.3479 28.6289 13.2982 29.0954C11.9859 29.6787 10.2226 30 8.33333 30C4.26371 30 1.66667 28.5192 1.66667 27.5C1.66667 26.9231 2.51313 26.0892 4.4043 25.5267L3.92904 23.9292C1.43209 24.672 0 25.9735 0 27.5V46.0714C0 47.2578 0.963134 48.3086 2.7121 49.0303C4.22719 49.6556 6.22345 50 8.33333 50C10.4432 50 12.4395 49.6556 13.9546 49.0303C15.7035 48.3086 16.6667 47.2578 16.6667 46.0714V27.5C16.6667 25.9735 15.2346 24.672 12.7376 23.9292ZM3.33333 47.4835C2.32048 47.0627 1.66667 46.5094 1.66667 46.0714V44.2267C2.1883 44.5637 2.74768 44.8382 3.33333 45.0447V47.4835ZM7.5 48.3129C6.65925 48.2768 5.82299 48.1703 5 47.9947V45.5104C5.82405 45.6772 6.65998 45.7787 7.5 45.8141V48.3129ZM11.6667 47.9947C10.8437 48.1703 10.0074 48.2768 9.16667 48.3129V45.8141C10.0067 45.7787 10.8426 45.6772 11.6667 45.5104V47.9947ZM15 46.0714C15 46.5094 14.3462 47.0627 13.3333 47.4835V45.0447C13.919 44.8382 14.4784 44.5637 15 44.2267V46.0714ZM15 41.6666C15 42.1842 14.3479 42.7956 13.2982 43.2621C11.9859 43.8454 10.2226 44.1666 8.33333 44.1666C4.26371 44.1666 1.66667 42.6859 1.66667 41.6666V30.06C3.16213 31.0495 5.54601 31.6666 8.33333 31.6666C11.1207 31.6666 13.5045 31.0495 15 30.06V41.6666Z" fill="#E81C2E"/>
<path d="M4.99992 32.5002H3.33325V41.6669H4.99992V32.5002Z" fill="#E81C2E"/>
<path d="M9.16691 33.3335H7.50024V42.5002H9.16691V33.3335Z" fill="#E81C2E"/>
<path d="M13.3334 32.5002H11.6667V41.6669H13.3334V32.5002Z" fill="#E81C2E"/>
<path d="M7.49992 20.8333C7.49992 20.6122 7.58772 20.4003 7.744 20.244C7.90028 20.0877 8.11224 19.9999 8.33325 19.9999C8.55427 19.9999 8.76623 20.0877 8.92251 20.244C9.07879 20.4003 9.16659 20.6122 9.16659 20.8333V27.4999H10.8333V20.8333C10.8333 20.1702 10.5699 19.5343 10.101 19.0655C9.63218 18.5966 8.99629 18.3333 8.33325 18.3333C7.67021 18.3333 7.03433 18.5966 6.56548 19.0655C6.09664 19.5343 5.83325 20.1702 5.83325 20.8333V27.4999H7.49992V20.8333Z" fill="#E81C2E"/>
<path d="M10.0002 16.6667H22.0836L24.3335 19.6666C24.4112 19.7701 24.5118 19.8542 24.6275 19.912C24.7433 19.9699 24.8709 20 25.0002 20C25.1296 20 25.2572 19.9699 25.3729 19.912C25.4887 19.8542 25.5893 19.7701 25.667 19.6666L27.9169 16.6667H40.0002C40.6631 16.6659 41.2985 16.4023 41.7672 15.9336C42.2359 15.4649 42.4995 14.8295 42.5002 14.1667V2.5C42.4995 1.83719 42.2359 1.20175 41.7672 0.73307C41.2985 0.264394 40.6631 0.000758166 40.0002 0H10.0002C9.33744 0.000758166 8.70199 0.264394 8.23331 0.73307C7.76464 1.20175 7.501 1.83719 7.50024 2.5V14.1667C7.501 14.8295 7.76464 15.4649 8.23331 15.9336C8.70199 16.4023 9.33744 16.6659 10.0002 16.6667ZM9.16691 2.5C9.16716 2.27906 9.25504 2.06725 9.41127 1.91102C9.56749 1.7548 9.77931 1.66692 10.0002 1.66667H40.0002C40.2212 1.66692 40.433 1.7548 40.5892 1.91102C40.7454 2.06725 40.8333 2.27906 40.8336 2.5V14.1667C40.8333 14.3876 40.7454 14.5994 40.5892 14.7556C40.433 14.9119 40.2212 14.9997 40.0002 15H27.5002C27.3709 15 27.2433 15.0301 27.1275 15.088C27.0118 15.1458 26.9112 15.2299 26.8335 15.3334L25.0002 17.7778L23.167 15.3334C23.0893 15.2299 22.9887 15.1458 22.8729 15.088C22.7572 15.0301 22.6296 15 22.5002 15H10.0002C9.77931 14.9997 9.56749 14.9119 9.41127 14.7556C9.25504 14.5994 9.16716 14.3876 9.16691 14.1667V2.5Z" fill="#E81C2E"/>
<path d="M16.6667 13.3333H20.0001C21.3262 13.3333 22.5979 12.8065 23.5356 11.8688C24.4733 10.9311 25.0001 9.65933 25.0001 8.33325C25.0001 7.00717 24.4733 5.7354 23.5356 4.79772C22.5979 3.86004 21.3262 3.33325 20.0001 3.33325H16.6667C15.3407 3.33325 14.0689 3.86004 13.1312 4.79772C12.1935 5.7354 11.6667 7.00717 11.6667 8.33325C11.6667 9.65933 12.1935 10.9311 13.1312 11.8688C14.0689 12.8065 15.3407 13.3333 16.6667 13.3333ZM23.2279 7.49992H21.596C21.4405 6.58095 21.0305 5.72398 20.4125 5.02634C21.0752 5.10998 21.6977 5.39036 22.1996 5.83128C22.7015 6.2722 23.0597 6.85342 23.2279 7.49992ZM21.596 9.16658H23.2279C23.0597 9.81308 22.7015 10.3943 22.1996 10.8352C21.6977 11.2761 21.0752 11.5565 20.4125 11.6402C21.0305 10.9425 21.4405 10.0856 21.596 9.16658ZM16.6667 4.99992C17.326 4.99992 17.9705 5.19542 18.5186 5.56169C19.0668 5.92796 19.4941 6.44855 19.7463 7.05764C19.9986 7.66673 20.0647 8.33695 19.936 8.98355C19.8074 9.63016 19.4899 10.2241 19.0238 10.6903C18.5576 11.1564 17.9637 11.4739 17.317 11.6025C16.6704 11.7312 16.0002 11.6651 15.3911 11.4129C14.7821 11.1606 14.2615 10.7333 13.8952 10.1852C13.5289 9.63699 13.3334 8.99252 13.3334 8.33325C13.3344 7.44951 13.6859 6.60225 14.3108 5.97735C14.9357 5.35244 15.783 5.00093 16.6667 4.99992Z" fill="#E81C2E"/>
<path d="M31.6667 8.67841L32.7441 9.75588C32.9004 9.91211 33.1123 9.99987 33.3334 9.99987C33.5544 9.99987 33.7663 9.91211 33.9226 9.75588L37.5 6.17851V8.33325H39.1667V4.16659C39.1667 3.94557 39.0789 3.73362 38.9226 3.57734C38.7663 3.42106 38.5544 3.33326 38.3334 3.33325H34.1667V4.99992H36.3215L33.3334 7.9881L32.256 6.91062C32.0997 6.7544 31.8877 6.66664 31.6667 6.66664C31.4457 6.66664 31.2337 6.7544 31.0774 6.91062L26.0774 11.9106L27.256 13.0892L31.6667 8.67841Z" fill="#E81C2E"/>
</svg>
