<svg width="213" height="213" viewBox="0 0 213 213" fill="none" xmlns="http://www.w3.org/2000/svg">
<circle cx="106.5" cy="106.5" r="106.5" fill="#F5F5F5"/>
<path fill-rule="evenodd" clip-rule="evenodd" d="M36.1219 166.647C36.8178 164.057 39.4749 162.523 42.0617 163.212C44.6485 163.909 46.1809 166.57 45.492 169.16C44.7961 171.75 42.139 173.285 39.5522 172.595C36.9654 171.898 35.433 169.238 36.1219 166.647Z" fill="#E81C2E"/>
<path fill-rule="evenodd" clip-rule="evenodd" d="M107.139 141.35C108.426 148.677 108.862 156.103 108.482 163.48C101.755 163.979 95.0138 163.318 88.5608 161.586C80.5685 159.439 73.0119 155.653 66.4746 150.36C64.3517 154.35 61.1323 157.821 56.9498 160.242C54.9394 161.403 52.8377 162.248 50.6867 162.804C60.1271 171.37 71.4233 177.416 83.4645 180.647C103.048 185.905 124.635 183.716 143.488 172.813C162.341 161.91 175.029 144.285 180.273 124.675C185.524 105.065 183.338 83.4494 172.449 64.5716C161.561 45.6937 143.959 32.9888 124.375 27.7309C104.792 22.473 83.2045 24.662 64.3517 35.565C45.499 46.468 32.8181 64.0929 27.5672 83.7028C24.3407 95.7602 23.926 108.578 26.6112 121.05C28.1647 119.467 29.9501 118.066 31.9535 116.904C36.143 114.483 40.7472 113.427 45.26 113.582C43.9596 105.262 44.4517 96.823 46.5956 88.8129C48.3248 82.3514 51.1295 76.1714 54.9184 70.5897C61.4838 73.9542 67.6837 78.0437 73.3845 82.823C76.4071 78.466 80.4068 74.7003 85.2851 71.8778C86.4169 71.2232 87.5697 70.639 88.7366 70.111C88.5679 69.9632 88.4062 69.8154 88.2375 69.6676C82.2906 64.4238 75.8869 59.8275 69.1528 55.928C70.7625 54.7666 72.4496 53.6686 74.1999 52.655C88.3429 44.476 104.553 42.843 119.272 46.7918C130.969 49.931 141.717 56.5967 149.737 66.3031L130.111 77.6495C132.431 79.9441 134.484 82.5766 136.192 85.5329C137.893 88.4892 139.144 91.5862 139.966 94.7395L159.592 83.3931C163.979 95.2041 164.372 107.853 161.237 119.565C157.294 134.304 147.776 147.544 133.633 155.716C131.876 156.73 130.09 157.645 128.284 158.461C128.277 150.669 127.51 142.821 125.943 135.036C125.901 134.818 125.852 134.6 125.809 134.382C124.776 135.135 123.686 135.839 122.555 136.493C117.683 139.323 112.418 140.907 107.139 141.35ZM5.28413 150.55C6.45803 146.15 10.9779 143.539 15.3712 144.714C19.7646 145.897 22.3725 150.416 21.1986 154.815C20.0176 159.214 15.5048 161.826 11.1115 160.65C6.71108 159.468 4.1032 154.949 5.28413 150.55ZM129.521 89.3901C121.395 75.2915 103.224 70.4207 89.1513 78.5575C81.658 82.8934 76.618 90.2207 74.9731 98.3997C72.1614 112.407 59.4453 122.085 45.3584 121.311C42.1249 121.128 38.8141 121.853 35.8196 123.591C27.5883 128.349 24.7414 138.978 29.4932 147.22C34.245 155.463 44.8594 158.313 53.0907 153.555C56.029 151.852 58.3487 149.36 59.8389 146.418C66.2145 133.819 80.941 127.624 94.4655 132.193C102.247 134.825 111.076 134.234 118.703 129.828C132.775 121.677 137.647 103.489 129.521 89.3901ZM36.1219 166.647C36.8178 164.057 39.4749 162.522 42.0617 163.212C44.6485 163.909 46.1809 166.57 45.492 169.16C44.7961 171.75 42.139 173.285 39.5522 172.595C36.9654 171.898 35.433 169.237 36.1219 166.647Z" fill="#E81C2E"/>
</svg>
